<svg width="30" height="26" viewBox="0 0 30 26" fill="none" xmlns="http://www.w3.org/2000/svg">
<path id="Align Right" d="M28.7812 0.554688H11.3438C11.1891 0.554688 11.0625 0.68125 11.0625 0.835938V2.80469C11.0625 2.95937 11.1891 3.08594 11.3438 3.08594H28.7812C28.9359 3.08594 29.0625 2.95937 29.0625 2.80469V0.835938C29.0625 0.68125 28.9359 0.554688 28.7812 0.554688ZM28.7812 15.4609H11.3438C11.1891 15.4609 11.0625 15.5875 11.0625 15.7422V17.7109C11.0625 17.8656 11.1891 17.9922 11.3438 17.9922H28.7812C28.9359 17.9922 29.0625 17.8656 29.0625 17.7109V15.7422C29.0625 15.5875 28.9359 15.4609 28.7812 15.4609ZM28.7812 22.9141H1.21875C1.06406 22.9141 0.9375 23.0406 0.9375 23.1953V25.1641C0.9375 25.3188 1.06406 25.4453 1.21875 25.4453H28.7812C28.9359 25.4453 29.0625 25.3188 29.0625 25.1641V23.1953C29.0625 23.0406 28.9359 22.9141 28.7812 22.9141ZM28.7812 8.00781H1.21875C1.06406 8.00781 0.9375 8.13438 0.9375 8.28906V10.2578C0.9375 10.4125 1.06406 10.5391 1.21875 10.5391H28.7812C28.9359 10.5391 29.0625 10.4125 29.0625 10.2578V8.28906C29.0625 8.13438 28.9359 8.00781 28.7812 8.00781Z" fill="#E20080"/>
</svg>
