<svg xmlns="http://www.w3.org/2000/svg" xmlns:xlink="http://www.w3.org/1999/xlink" width="495" height="408" fill="none" xmlns:v="https://vecta.io/nano"><g clipPath="url(#G)"><g fill="#fcecf0"><path d="M346 395c48-22 103-15 103-91-1-29-38-51-30-86 37-103-2-138-46-153-33-8-51 5-87-3-39.49-6.48-65.46-53.43-120-31-63 34-37 69-63 114-14 24-53.33 42.86-56 78-2.71 18.64 9.78 41.75 33 68 29.76 32.65 50.73 67.25 62 104h204z"/><path d="M161.78 379.51l-.16-.18-82.07-95.08-.03-.11-25.08-89.28 49.1-49.1c2.8-13.23 3.62-26.06 4.42-38.47 1.99-31.09 3.87-60.45 37.74-85.68 15.64-10.43 37.35-14.05 58.08-9.7 17.15 3.6 41.56 14.1 60.55 43.7 28.74 11.68 67.93 8.83 105.61 4.91 23.12-1.72 40.6 3.27 51.96 14.84 12.16 12.39 17.07 32.14 14.59 58.7l-21 90.01c-.32 24.91 8.1 42.09 25.75 52.51 12.62 8.41 18 24.38 14.79 43.81-3.97 24.01-19.84 45.55-36.91 50.11l-.11.02-257.23 8.99zm-81.33-95.75l81.77 94.73 256.7-8.99c16.7-4.49 32.23-25.67 36.13-49.29 3.14-19.03-2.08-34.63-14.33-42.8-17.98-10.61-26.57-28.09-26.22-53.42l.01-.11 21-90c2.44-26.19-2.37-45.67-14.32-57.84-11.15-11.36-28.36-16.25-51.16-14.55-37.86 3.94-77.26 6.8-106.23-5.04l-.15-.06-.09-.13c-18.81-29.41-43.01-39.83-60-43.39-20.48-4.3-41.9-.73-57.3 9.54-33.48 24.93-35.35 54.07-37.32 84.93-.8 12.49-1.63 25.41-4.47 38.76l-.03.15-.1.1-48.79 48.79 24.9 88.62z"/></g><path opacity=".31" d="M460 322v-84h-6v-9h-6v-7h-5v-8h-18v108h-9V186h-35v136h-8V160h-63v162H208V202h-47v79h-8v-38h-36v38h-8v-15-1-27h-6v-9h-6v-7h-5v-8H74v51H38v57H2v76h491v-76h-33z" fill="#f197be"/><g fill="#fcecf0"><path d="M441 36H287c2.59-3.11 6.15-4.95 11.96-3.81 1.72.34 3.5-.42 4.41-1.92 2.92-4.79 7.79-7.27 17.07-4.51 2 .59 4.1-.33 5.02-2.19 3.61-7.34 9.23-11.42 19.99-7.18 2.09.83 4.48.2 5.83-1.61 15.56-20.84 25.54-13.6 33.43 4.2.68 1.54 2.53 2.2 3.99 1.37 10.52-5.99 18.9-5.75 23.91 4.37.86 1.74 2.87 2.54 4.68 1.83 5.47-2.15 10.19-2.42 12.7 2.72.73 1.49 2.28 2.41 3.94 2.3 3.86-.28 6.39.99 7.07 4.43zM93 111H12.06c1.36-1.64 3.23-2.6 6.29-2a2.21 2.21 0 0 0 2.32-1.01c1.53-2.52 4.09-3.82 8.97-2.37 1.05.31 2.16-.17 2.64-1.15 1.9-3.86 4.85-6 10.51-3.77 1.1.43 2.36.1 3.06-.84 8.18-10.95 13.42-7.15 17.57 2.21.36.81 1.33 1.15 2.1.72 5.53-3.15 9.93-3.02 12.57 2.29a1.94 1.94 0 0 0 2.46.96c2.88-1.13 5.35-1.27 6.68 1.43.38.78 1.2 1.27 2.07 1.21 2.01-.15 3.34.51 3.7 2.32z"/></g><g fill="#f197be"><path d="M396 348c-.02 21.12-2.95 49.14 6 49h23c9.19-.67 5-27 6-49h-35z"/><path d="M430 359c8.17.63 17 2 17 16 0 8-6.97 13.22-17 14v-5c7.57.56 13-2 13-10 0-9-6.79-10.87-13-10v-5z"/></g><path d="M423 348c0 22 2.49 47.47-5 49h8c7-2 5-27 5-49h-8z" fill="#e4147f"/><path d="M399.38 348.11l-.31 7.11c-.04.97.73 1.78 1.7 1.78h.6a1.62 1.62 0 0 0 1.62-1.62V348l-3.61.11z" fill="#fcecf0"/><path d="M413 343c8-15-5-16-4-29 3-11 14-19 8-34 0 21-14 20-14 37 0 11 9 10 10 26z" fill="url(#A)"/><path d="M185 296c-3.27-8.6 1.23-17.51 8.28-26.51a17.06 17.06 0 0 0-.25-10.89l-4.45-12.23a11.04 11.04 0 0 1 .43-8.55l9.81-20.31c1.99-4.12 2.08-8.93.11-13.06-3.03-6.34-8.08-11.53-5.93-24.45 3.35-16.76 11.89-19.24 21.41-22.16 3.35-1.03 6.18-3.36 7.73-6.5 7.15-14.41 18.3-25.17 48.86-19.35 16.02 3.06 29.89 13.34 41.39 31.64 1.74 2.77 2.88 5.87 3.45 9.08l2.59 14.48a19.56 19.56 0 0 0 9.26 13.37L348.62 213c5.17 3.08 12.59 8.97 12.38 14.99l-3.04 12.16c-1.27 5.07-.75 10.42 1.46 15.16 7.87 10.75 19.43 18.2 17.58 37.68-2.65 16.15-11.5 25.59-25 30L185 296z" fill="#2b2227"/><path d="M219 169c-15.62 2.95-16.07 14.19-10 29l9 30c-7.82 11.49-8.17 23.75 1 37l86 2c2.86-16.9-5.15-25.74-18-31-14.32-15.25-14.62-25.3-14-35-14-12-32-9-54-32z" fill="#1e191c"/><path d="M354.57 328.03l-.17-.04-168.5-35.37.05-.45c.36-3.36 1.05-4.89 1.65-6.23.83-1.86 1.55-3.47 1.41-9.42.21-5.35-2.57-15.41-2.94-16.74-3.93-3.75-5.54-9.23-5.06-17.21-.51-1.92 3.13-5.51 8.7-10.74 2.52-2.36 4.9-4.59 5.35-5.54l.12-.25.28-.03c3.74-.38 6.06-1.47 6.89-3.23.92-1.96.09-4.91-2.49-8.77l-.16-.24.2-.41c1.91-3.95 2.2-4.56-.74-7.5-7.45-7.45-13.42-14.73-11.14-28.44 2.68-13.42 10.46-14.75 17.99-16.03 2.11-.36 4.3-.73 6.36-1.36 3.06-.94 9.14-9.38 10.78-12.68 6.83-13.77 17.55-25.68 49.4-19.62 8.58 1.84 36.69 9.62 38.47 32.73l.01.13-.06.12c-4.45 9.45 1.61 25.92 9.57 36.63 3.63 4.88 7.12 7.74 9.07 7.44.66-.1 1.13-.57 1.44-1.45l.12-.33h.35c16.9 0 30.5 12.86 30.5 23.5l-.04.2-13 30c-.32 1.3 2.95 3.14 6.73 5.28 8.48 4.79 21.29 12.03 23.25 27.18l.07 3.33c.29 11.09.6 22.56-24.27 35.46l-.19.08zm-167.58-36.21l167.44 35.15c24.15-12.57 23.87-23.2 23.57-34.46l-.06-3.29c-1.89-14.6-14.44-21.68-22.74-26.38-4.64-2.62-7.71-4.35-7.18-6.47L361 226.4c-.09-10.1-13.03-22.23-29.16-22.4-.56 1.28-1.44 1.67-2.1 1.77-3.41.49-8.14-5.31-10.02-7.83-6.72-9.04-14.82-26.45-9.73-37.53-1.82-22.33-29.27-29.91-37.66-31.7-31.19-5.94-41.65 5.66-48.31 19.08-1.41 2.85-7.7 12.06-11.38 13.19-2.13.65-4.34 1.03-6.49 1.39-7.52 1.28-14.62 2.49-17.17 15.23-2.2 13.22 3.62 20.3 10.86 27.55 3.41 3.41 2.87 4.63.98 8.54 2.7 4.11 3.48 7.22 2.4 9.51-.97 2.06-3.47 3.32-7.43 3.77-.72 1.16-2.82 3.13-5.43 5.58-3.34 3.13-8.92 8.37-8.41 9.78l.04.1-.01.1c-.49 7.78 1.05 13.05 4.84 16.6l.1.09.04.13c.13.46 3.24 11.42 3.02 17.16.15 6.14-.65 7.93-1.5 9.82-.55 1.29-1.14 2.61-1.49 5.49z" fill="#2b2227"/><path d="M345.97 309.68l-.93-.36c4.89-12.83 1.09-21.81-2.58-30.49-2.29-5.42-4.45-10.53-4.45-16.33.82-5.39 2.47-9.43 3.93-12.99 2.06-5.04 3.55-8.68 1.14-12.75-5.29-6.88-13.44-7.71-20.63-8.45-6.18-.64-12.03-1.24-15.33-5.49-3.12-5.78-3.35-13.96-3.6-22.61-.32-11.19-.68-23.87-7.41-33.41-9.97-13.27-24.45-18.93-45.56-17.79l-.05-1c21.48-1.16 36.23 4.62 46.43 18.2 6.92 9.8 7.28 22.64 7.6 33.97.24 8.53.47 16.59 3.44 22.09 3 3.85 8.64 4.43 14.6 5.04 7.39.76 15.76 1.62 21.35 8.89 2.69 4.56 1.05 8.59-1.04 13.69-1.44 3.51-3.06 7.49-3.86 12.69.01 5.52 2.13 10.55 4.38 15.87 3.72 8.86 7.6 18.02 2.57 31.23z" fill="url(#B)"/><path d="M378 373c-19-39-39-80-64-102l-31-13c-16.44-7.93-30.66-4.67-45-2-11.27 4.41-20.87 9.44-29 15-21.2 36.11-37.92 70.43-10 87 2.17 8.2 3.22 16.85 3 26 23.52-2.82 49.26-6.96 58-1 4-5 17.78 13.93 4 15-1.07 2.91 2.55 4.36 12 4l91-6c13.45-2.32 13.97-11.7 11-23zm-71-1l5-33c5.84 9.92 11.97 19.86 20 29-7.52-.29-16.09 1.52-25 4z" fill="url(#C)"/><path d="M275 257c1-2 5.29-.87 8 1 2 6-4 28-28 28-22-1-30.84-16.1-19-28l39-1z" fill="#1f1f1d"/><path d="M275 257v-17l-37 16c-3.12 10.26 4 20 15 21 11 0 21.82-4.59 22-20z" fill="#f4a07d"/><path d="M275 240v-10c-10.94 16.86-22.91 23.44-36 19l-1 7c14.18 2.79 26.87-.98 37-16z" fill="#e07653"/><path d="M233.69 207.85c1.97 9.03-2.66 17.71-10.33 19.37s-15.48-4.3-17.44-13.33 2.66-17.71 10.33-19.37c7.67-1.67 15.48 4.3 17.44 13.33z" fill="url(#D)"/><path d="M275 230c-9.24 17.21-19 24-36 19-25.05-14.87-27.62-40.45-24-69l57 22c2.82 7.67 3.94 16.89 3 28z" fill="#f4a07d"/><path d="M220 172c-2.54 2.31-4.26 4.96-5 8 11 17 35 15 57 22-3-6-13-6-23-11-11.4-3.56-20.98-10.03-29-19z" fill="#e07653"/><g fill="#1f1f1d"><path d="M209 271c-16.99 11.53-33.54 41.94-50 76l7 37h9c9.28-7.91 17.48-16.46 24-26-24-20-1-52 10-87zm102 65c-15 57-79 22-109 48 61 7 69-9 105-12l4-36z"/></g><path d="M166 384l-17-89c-.28-1.67-1.31-2.64-3-3H25l-6 6h121c1.82-.26 3.38 0 3 4l18 86c1.11 3.41.89 7.66-2 9h50l16-13h-59z" fill="#e4147f"/><path d="M38 397c-2.94-.88-4.65-2.11-4-4l-17-90c-.24-1.76.24-3.44 2-5h121c1.69.29 2.63 1.7 3 4l18 86c1.45 3.76 1.16 6.78-1 9H38z" fill="#652265"/><path d="M259 384c-31.2-9.4-42 0-55 17-2 4 .16 4.99 3 4-1 2 1.34 2.25 4 0-1.47 3.26.58 2.86 5 0-1.68 3.6.71 3.55 7 0l8.65-5.32c2.46-1.51 5.55-1.32 7.91.36 7.35 5.24 15.98 5.34 23.44-3.03 13 2.99 7-18.01-4-13.01z" fill="#f4a07d"/><path d="M247 236c0-5.97-7.54-4.88-12.64-1.14-1.39 1.02-1.4 3.09-.04 4.14 5.4 4.15 11.67 5 13.67 0 14.2.6 25.12-3.69 32-14l-5-1c-3.88 8.54-13.91 11.97-27.99 12z" fill="#652265"/><path d="M298.65 213.63c-1.92 9.04-9.69 15.05-17.37 13.43-7.68-1.63-12.35-10.28-10.43-19.32s9.69-15.05 17.37-13.43c7.67 1.63 12.34 10.28 10.43 19.32z" fill="url(#E)"/><path d="M295.752 213.83c1.944-6.9-.506-13.627-5.471-15.025s-10.565 3.061-12.508 9.961.506 13.627 5.471 15.025 10.565-3.061 12.508-9.961z" fill="#652265"/><path d="M288.22 194.31C291.07 170.35 288 148 273 140c-21-12-45.96-3.08-49 9 11.62-11.54 20-13 46-6 12 4 18.04 27.75 15.43 50.98l2.79.33z" fill="url(#F)"/><path d="M458.31 79H339.69A11.69 11.69 0 0 0 328 90.69v63.62A11.69 11.69 0 0 0 339.69 166H346v22l31-22h81.31A11.69 11.69 0 0 0 470 154.31V90.69A11.69 11.69 0 0 0 458.31 79z" fill="#e4147f"/><g fill="#f197be"><use xlink:href="#H"/><path d="M445.01 127h-16.02c-2.76 0-4.99-2.23-4.99-4.99v-.02c0-2.76 2.23-4.99 4.99-4.99h16.02c2.76 0 4.99 2.23 4.99 4.99v.02c0 2.76-2.23 4.99-4.99 4.99z"/><use xlink:href="#I"/><path d="M395.01 143h-42.02c-2.76 0-4.99-2.23-4.99-4.99v-.02c0-2.76 2.23-4.99 4.99-4.99h42.02c2.76 0 4.99 2.23 4.99 4.99v.02c0 2.76-2.23 4.99-4.99 4.99zm21-15h-63.02c-2.76 0-4.99-2.23-4.99-4.99v-.02c0-2.76 2.23-4.99 4.99-4.99h63.02c2.76 0 4.99 2.23 4.99 4.99v.02c0 2.76-2.23 4.99-4.99 4.99z"/></g></g><defs><linearGradient id="A" x1="410.881" y1="343" x2="410.881" y2="280" xlink:href="#J"><stop offset="0" stop-color="#fff" stop-opacity=".3"/><stop offset="1" stop-color="#fff"/></linearGradient><linearGradient id="B" x1="250.473" y1="228.767" x2="348.365" y2="228.767" xlink:href="#J"><stop stop-color="#e4147f" stop-opacity="0"/><stop offset=".501" stop-color="#e4147f"/><stop offset="1" stop-color="#e4147f" stop-opacity=".8"/></linearGradient><linearGradient id="C" x1="184.305" y1="327.531" x2="379.476" y2="327.531" xlink:href="#J"><stop stop-color="#1f1f1d"/><stop offset="1" stop-color="#737371"/></linearGradient><radialGradient id="D" cx="0" cy="0" r="1" gradientTransform="translate(219.801 210.88) rotate(-24.2429) scale(15.5274 15.5274)" xlink:href="#J"><stop stop-color="#f197be"/><stop offset=".955" stop-color="#e42082"/><stop offset="1" stop-color="#e4147f"/></radialGradient><radialGradient id="E" cx="0" cy="0" r="1" gradientTransform="translate(284.745 210.686) scale(15.5276 15.5276)" xlink:href="#J"><stop stop-color="#f197be"/><stop offset=".955" stop-color="#e42082"/><stop offset="1" stop-color="#e4147f"/></radialGradient><radialGradient id="F" cx="0" cy="0" r="1" gradientTransform="translate(256.587 164.315) scale(31.3202)" xlink:href="#J"><stop stop-color="#f197be"/><stop offset=".955" stop-color="#e42082"/><stop offset="1" stop-color="#e4147f"/></radialGradient><clipPath id="G"><path fill="#fff" d="M0 0h494.89v407.28H0z"/></clipPath><path id="H" d="M369.01 111h-16.02c-2.76 0-4.99-2.23-4.99-4.99v-.02c0-2.76 2.23-4.99 4.99-4.99h16.02c2.76 0 4.99 2.23 4.99 4.99v.02c0 2.76-2.23 4.99-4.99 4.99z"/><path id="I" d="M445.01 110h-63.02c-2.76 0-4.99-2.23-4.99-4.99v-.02c0-2.76 2.23-4.99 4.99-4.99h63.02c2.76 0 4.99 2.23 4.99 4.99v.02c0 2.76-2.23 4.99-4.99 4.99z"/><linearGradient id="J" gradientUnits="userSpaceOnUse"/></defs></svg>