<svg width="8" height="12" viewBox="0 0 8 12" fill="none" xmlns="http://www.w3.org/2000/svg">
<path id="Vector" d="M0.5 10.6492V11.8731C0.5 11.9792 0.613235 12.0377 0.689706 11.9728L7.3191 6.39819C7.37542 6.35103 7.421 6.29064 7.45235 6.22163C7.4837 6.15263 7.5 6.07682 7.5 6C7.5 5.92318 7.4837 5.84737 7.45235 5.77837C7.421 5.70936 7.37542 5.64897 7.3191 5.60181L0.689706 0.0271711C0.611765 -0.0377417 0.5 0.0208387 0.5 0.126917L0.5 1.35077C0.5 1.42835 0.533823 1.50277 0.589705 1.55026L5.88381 5.99921L0.589705 10.4497C0.533823 10.4972 0.5 10.5716 0.5 10.6492Z" fill="white"/>
</svg>
