<svg width="18" height="16" viewBox="0 0 18 16" fill="none" xmlns="http://www.w3.org/2000/svg">
<g id="Align Right">
<path id="Align Right_2" d="M15.8675 0.0703125L2.69628 12.9295C2.62236 12.9295 2.56187 12.9913 2.56187 13.0669L3.20187 14.0289C3.20187 14.1045 3.26235 14.1664 3.33627 14.1664L16.5075 1.30722C16.5814 1.30722 16.6419 1.24537 16.6419 1.16978L16.0019 0.207746C16.0019 0.132158 15.9414 0.0703125 15.8675 0.0703125ZM15.8675 12.9753L2.69628 0.116124C2.62236 0.116124 2.56187 0.177969 2.56187 0.253558L1.92188 1.21559C1.92188 1.29118 1.98236 1.35303 2.05628 1.35303L15.2275 14.2122C15.3014 14.2122 15.3619 14.1503 15.3619 14.0747L16.0019 13.1127C16.0019 13.0371 15.9414 12.9753 15.8675 12.9753Z" fill="#E20080"/>
</g>
</svg>
