<svg width="568" height="323" viewBox="0 0 568 323" fill="none" xmlns="http://www.w3.org/2000/svg">
<g clipPath="url(#clip0_1962_840)">
<path d="M66.1328 305.891C11.4342 291.772 -11.2281 257.143 9.78604 194.583C19.9841 175.31 32.2423 151.297 66.5448 141.197C45.7367 85.3363 63.0425 43.4927 126.188 18.7575C172.44 6.08072 218.588 17.0054 264.84 51.7377C319.745 54.3143 355.592 54.8296 380.83 91.8293C392.367 109.659 381.963 160.057 420.901 159.336C481.059 140.99 527.826 148.926 556.154 192.728C572.842 229.109 539.775 283.321 497.541 305.479L66.1328 305.891Z" fill="#FBEBEF"/>
<path opacity="0.31" d="M114.342 69.6707H50.9902C48.93 69.6707 47.2819 68.0217 47.2819 65.9604C47.2819 63.8992 48.93 62.2502 50.9902 62.2502H114.342C116.402 62.2502 118.05 63.8992 118.05 65.9604C118.05 68.0217 116.402 69.6707 114.342 69.6707Z" fill="#F197BE"/>
<path opacity="0.31" d="M100.95 81.9352H52.0204C49.9602 81.9352 48.312 80.2862 48.312 78.2249C48.312 76.1637 49.9602 74.5147 52.0204 74.5147H100.95C103.011 74.5147 104.659 76.1637 104.659 78.2249C104.659 80.1831 103.011 81.9352 100.95 81.9352Z" fill="#F197BE"/>
<path opacity="0.31" d="M140.609 69.9799H129.072C127.012 69.9799 125.364 68.3309 125.364 66.2696C125.364 64.2084 127.012 62.5593 129.072 62.5593H140.609C142.67 62.5593 144.318 64.2084 144.318 66.2696C144.318 68.3309 142.67 69.9799 140.609 69.9799Z" fill="#F197BE"/>
<path opacity="0.31" d="M125.055 81.9352H112.488C110.427 81.9352 108.779 80.2862 108.779 78.2249C108.779 76.1637 110.427 74.5147 112.488 74.5147H125.055C127.115 74.5147 128.763 76.1637 128.763 78.2249C128.763 80.1831 127.115 81.9352 125.055 81.9352Z" fill="#F197BE"/>
<path opacity="0.31" d="M218.897 98.2192C222.194 83.8934 219.721 68.8462 212.202 52.9745C208.287 39.6793 210.038 29.1669 214.468 19.9942C187.994 26.5903 170.791 43.1835 161.108 68.537C157.4 84.0995 159.048 100.899 168.525 119.759L218.897 98.2192Z" fill="#F197BE"/>
<path opacity="0.31" d="M98.066 87.8098C131.029 104.815 158.636 125.531 173.676 154.904L175.942 180.876L168.525 179.021C154.413 138.208 136.283 118.935 120.728 111.927C140.094 128.52 156.37 148.823 164.508 179.021L140.815 186.854C125.776 177.475 111.148 165.932 107.852 152.327C105.586 143.052 108.676 128.108 106.719 110.793C105.174 102.239 102.083 95.5396 98.066 87.8098Z" fill="#F197BE"/>
<path opacity="0.31" d="M388.247 170.57C408.746 131.199 416.987 88.4282 406.377 40.4008C457.676 71.5258 455.204 115.431 406.377 170.57H388.247Z" fill="#F197BE"/>
<path opacity="0.31" d="M549.458 122.542C516.495 139.548 488.888 160.263 473.848 189.636L471.582 215.608L478.999 213.753C493.111 172.94 511.241 153.667 526.796 146.659C507.43 163.252 491.154 183.556 483.016 213.753L506.709 221.586C521.748 212.207 536.376 200.664 539.672 187.06C541.938 177.784 538.848 162.84 540.805 145.525C542.247 136.971 545.441 130.169 549.458 122.542Z" fill="#F197BE"/>
<path d="M236.615 107.083C237.748 99.8682 236.1 96.261 232.186 95.2304L170.998 101.517C166.259 103.166 165.023 107.392 166.568 113.782L174.397 178.712L238.572 178.299L236.615 107.083Z" fill="#5B4359"/>
<path d="M401.329 178.299H135.871V307.025H401.329V178.299Z" fill="url(#paint0_linear_1962_840)"/>
<path d="M299.349 78.225C300.997 83.3781 298.628 91.2109 298.422 102.342L284.515 105.228C284.721 109.247 284.618 113.782 283.382 120.79H267.827L262.986 110.793C268.033 107.598 272.154 103.578 274.523 97.807C270.197 94.612 269.888 90.6956 271.948 86.2639L281.631 75.1331L299.349 78.225Z" fill="#FFEAB1"/>
<path d="M301.924 80.8015C296.773 81.2138 293.786 79.3586 289.357 78.9464C286.678 78.8433 284.927 79.6678 284.206 81.9352V99.7652C286.266 101.002 288.43 101.002 290.902 99.7652C293.992 98.2192 296.876 97.1886 298.731 99.7652C298.525 106.464 298.834 113.885 295.434 114.606C286.987 113.885 279.983 112.751 279.159 110.175C278.85 100.796 278.438 92.5507 277.716 87.1914C276.995 93.4783 272.154 91.6232 270.712 87.1914C269.27 77.1943 274.42 81.626 275.141 77.5035C273.596 74.3085 273.287 71.2167 277.716 68.9493C282.867 66.3727 283.279 71.2167 288.43 70.8044C293.992 70.8044 288.43 65.6512 298.834 64.5175C308.208 65.239 309.032 77.1943 301.924 80.8015Z" fill="#1D1E1C"/>
<path d="M267.415 108.629C256.702 104.3 246.092 102.239 235.894 104.197C225.284 108.01 195.205 133.776 193.969 155.728L240.324 178.299L261.029 178.712C265.458 175.414 268.651 168.199 271.433 160.882C276.377 167.272 282.249 172.734 291.108 174.589H298.525V162.737C291.108 158.511 288.842 146.453 292.241 142.743C297.7 137.486 298.834 130.787 293.683 126.459L283.279 117.904C271.33 121.718 266.694 117.904 267.415 108.629Z" fill="url(#paint1_linear_1962_840)"/>
<path d="M219.825 152.327H219.412C220.34 140.166 231.465 130.169 240.942 122.851L241.148 123.16C231.671 130.478 220.649 140.372 219.825 152.327Z" fill="#525250"/>
<path d="M235.173 163.149C246.195 159.439 257.114 155.832 263.295 156.141C269.579 156.553 273.287 164.283 279.262 166.859L285.957 171.703C286.06 172.528 284.515 172.116 284.515 172.116L278.541 168.405C277.51 169.539 276.274 170.363 274.42 170.26C271.536 168.096 268.651 166.241 266.591 165.829C261.338 165.004 256.084 164.901 250.625 166.241C248.049 166.859 243.826 170.776 239.912 174.074L235.173 163.149Z" fill="#FFEAB1"/>
<path d="M316.345 159.748C309.547 161.912 303.572 162.943 298.525 162.737V174.589L317.066 172.322L316.345 159.748Z" fill="#FFEAB1"/>
<path d="M270.3 173.455L308.929 173.146L328.913 126.768C330.046 124.088 332.724 122.336 335.608 122.439L389.689 122.748C392.676 122.748 394.736 125.84 393.5 128.623L371.559 179.33L268.857 178.815L268.96 175.104C268.857 174.074 269.578 173.455 270.3 173.455Z" fill="url(#paint2_linear_1962_840)"/>
<path d="M238.263 177.99H184.698C182.535 177.99 180.68 176.238 180.68 173.971V167.065C180.68 164.901 182.432 163.046 184.698 163.046H238.263C240.427 163.046 242.281 164.798 242.281 167.065V173.971C242.178 176.135 240.427 177.99 238.263 177.99Z" fill="#79227D"/>
<path d="M220.545 163.149H188.097V152.43H220.545C223.533 152.43 225.902 154.801 225.902 157.79C225.902 160.675 223.533 163.149 220.545 163.149Z" fill="#652265"/>
<path d="M220.03 161.603H188.2V154.904H220.03C221.885 154.904 223.327 156.45 223.327 158.202C223.327 160.16 221.782 161.603 220.03 161.603Z" fill="#A95F9A"/>
<path d="M418.738 196.541L562.54 199.53C566.249 200.252 566.455 202.725 566.249 206.229L562.746 291.463C562.643 293.73 560.789 295.585 558.42 295.585H421.725C419.459 295.585 417.502 293.73 417.399 291.463L413.484 202.519C414.102 199.221 415.75 197.16 418.738 196.541Z" fill="#652265"/>
<path d="M417.604 193.553L561.407 196.541C565.116 197.263 565.322 199.736 565.116 203.241L561.613 288.474C561.51 290.741 559.656 292.596 557.287 292.596H420.592C418.326 292.596 416.368 290.741 416.265 288.474L412.351 199.53C412.969 196.232 414.617 194.171 417.604 193.553Z" fill="#FDFDFC"/>
<path opacity="0.54" d="M451.701 255.494H432.644C428.009 255.494 424.197 251.68 424.197 247.042V223.235C424.197 218.597 428.009 214.784 432.644 214.784H451.701C456.337 214.784 460.148 218.597 460.148 223.235V247.042C460.148 251.68 456.44 255.494 451.701 255.494Z" fill="#F095BC"/>
<path opacity="0.54" d="M512.58 255.081H472.303C467.668 255.081 463.856 251.268 463.856 246.63V223.441C463.856 218.803 467.668 214.99 472.303 214.99H512.58C517.216 214.99 521.027 218.803 521.027 223.441V246.63C521.027 251.371 517.216 255.081 512.58 255.081Z" fill="#F095BC"/>
<path opacity="0.54" d="M466.123 287.752H431.614C427.494 287.752 424.197 284.454 424.197 280.332V264.769C424.197 260.647 427.494 257.349 431.614 257.349H466.123C470.243 257.349 473.539 260.647 473.539 264.769V280.332C473.539 284.454 470.243 287.752 466.123 287.752Z" fill="#F095BC"/>
<path opacity="0.54" d="M518.967 286.619H504.031C499.498 286.619 495.79 282.908 495.79 278.374V266.006C495.79 261.471 499.498 257.761 504.031 257.761H518.967C523.5 257.761 527.208 261.471 527.208 266.006V278.374C527.311 282.908 523.603 286.619 518.967 286.619Z" fill="#F095BC"/>
<path d="M417.502 193.553L561.304 196.541C565.013 197.263 565.219 199.736 565.013 203.241L564.395 211.073H412.351L412.248 199.53C412.866 196.232 414.514 194.171 417.502 193.553Z" fill="#F095BC"/>
<path d="M524.324 283.424H496.202V285.073H524.324V283.424Z" fill="#642366"/>
<path d="M501.867 269.098H499.601V282.908H501.867V269.098Z" fill="#642366"/>
<path d="M515.465 260.235H512.89V282.805H515.465V260.235Z" fill="#E3087F"/>
<path d="M505.164 271.262H502.897V282.805H505.164V271.262Z" fill="#A95F9A"/>
<path d="M518.452 269.613H516.186V282.29H518.452V269.613Z" fill="#642366"/>
<path d="M511.756 266.934H509.181V282.908H511.756V266.934Z" fill="#A95F9A"/>
<path d="M525.045 272.396H523.191V282.29H525.045V272.396Z" fill="#A95F9A"/>
<path d="M508.872 276.209H506.606V282.805H508.872V276.209Z" fill="#E3087F"/>
<path d="M522.16 265.285H519.894V282.393H522.16V265.285Z" fill="#E3087F"/>
<path d="M428.752 220.677L428.751 220.78L455.222 221.095L455.223 220.992L428.752 220.677Z" fill="#A95F9A"/>
<path d="M428.634 219.152L428.633 219.255L455.104 219.571L455.105 219.468L428.634 219.152Z" fill="#A95F9A"/>
<path d="M428.421 218.185H428.318V234.263H428.421V218.185Z" fill="#A95F9A"/>
<path d="M430.275 218.288H430.172V234.366H430.275V218.288Z" fill="#A95F9A"/>
<path d="M431.923 218.185H431.82V234.263H431.923V218.185Z" fill="#A95F9A"/>
<path d="M433.468 218.288H433.365V234.366H433.468V218.288Z" fill="#A95F9A"/>
<path d="M435.116 218.288H435.013V234.366H435.116V218.288Z" fill="#A95F9A"/>
<path d="M436.868 218.391H436.765V234.469H436.868V218.391Z" fill="#A95F9A"/>
<path d="M438.619 218.288H438.516V234.366H438.619V218.288Z" fill="#A95F9A"/>
<path d="M440.164 218.391H440.061V234.469H440.164V218.391Z" fill="#A95F9A"/>
<path d="M441.606 218.288H441.503V234.366H441.606V218.288Z" fill="#A95F9A"/>
<path d="M443.46 218.391H443.357V234.469H443.46V218.391Z" fill="#A95F9A"/>
<path d="M445.212 218.288H445.109V234.366H445.212V218.288Z" fill="#A95F9A"/>
<path d="M447.272 218.391H447.169V234.469H447.272V218.391Z" fill="#A95F9A"/>
<path d="M448.817 218.288H448.714V234.366H448.817V218.288Z" fill="#A95F9A"/>
<path d="M450.671 218.391H450.568V234.469H450.671V218.391Z" fill="#A95F9A"/>
<path d="M452.01 218.288H451.907V234.366H452.01V218.288Z" fill="#A95F9A"/>
<path d="M453.864 218.391H453.761V234.469H453.864V218.391Z" fill="#A95F9A"/>
<path d="M455.41 218.288H455.307V234.366H455.41V218.288Z" fill="#A95F9A"/>
<path d="M428.332 231.18L428.331 231.283L454.802 231.598L454.803 231.495L428.332 231.18Z" fill="#A95F9A"/>
<path d="M428.365 229.441L428.363 229.544L454.834 229.859L454.836 229.756L428.365 229.441Z" fill="#A95F9A"/>
<path d="M428.585 227.326L428.584 227.429L455.055 227.744L455.056 227.641L428.585 227.326Z" fill="#A95F9A"/>
<path d="M428.364 225.8L428.362 225.903L454.833 226.218L454.835 226.115L428.364 225.8Z" fill="#A95F9A"/>
<path d="M428.557 223.898L428.556 224.001L455.027 224.316L455.028 224.213L428.557 223.898Z" fill="#A95F9A"/>
<path d="M428.559 222.579L428.558 222.682L455.029 222.997L455.03 222.894L428.559 222.579Z" fill="#A95F9A"/>
<path d="M455.203 230.758L428.318 231.274V229.625C429.966 229.625 430.584 226.43 431.923 226.43C432.953 226.43 431.923 227.873 434.189 227.873C435.219 227.873 435.219 225.193 436.456 225.193C436.765 225.193 437.074 226.224 438.413 226.224C439.031 226.224 439.958 224.781 440.988 224.781C441.606 224.781 442.018 225.811 442.945 225.296C443.975 225.296 443.254 223.132 444.593 223.132C445.933 223.132 445.624 225.296 446.551 225.296C447.89 224.781 448.096 220.761 450.156 221.071C452.731 221.071 452.113 223.235 453.761 223.235C454.379 223.235 454.379 221.174 455.1 221.071V230.758H455.203Z" fill="#F095BC"/>
<path d="M455.203 230.965L428.318 231.274V230.243C429.966 230.243 430.584 228.285 431.923 228.285C432.953 228.285 432.953 229.625 435.219 229.625C436.25 229.625 436.25 227.976 437.486 227.976C437.795 227.976 438.104 228.594 439.443 228.594C440.061 228.594 439.958 227.254 441.091 227.254C441.709 227.254 442.121 227.873 443.048 227.563C444.078 227.563 443.357 226.224 444.696 226.224C446.036 226.224 445.727 227.563 446.654 227.563C447.993 227.254 448.199 224.781 450.259 224.987C452.834 224.987 452.216 226.327 453.864 226.327C454.482 226.327 454.482 225.09 455.203 224.987V230.965Z" fill="#E3087F"/>
<path d="M456.954 239.313H426.875V241.271H456.954V239.313Z" fill="#1D1E1C"/>
<path d="M457.161 242.198H427.082V243.332H457.161V242.198Z" fill="#1D1E1C"/>
<path d="M456.852 245.29H426.773V246.218H456.852V245.29Z" fill="#1D1E1C"/>
<path d="M456.852 248.176H426.773V248.898H456.852V248.176Z" fill="#1D1E1C"/>
<path d="M456.852 250.547H426.773V251.371H456.852V250.547Z" fill="#1D1E1C"/>
<path d="M489.815 240.24L490.227 228.388L499.498 235.809L489.815 240.24Z" fill="white"/>
<path opacity="0.54" d="M532.873 255.803H546.162C551.93 255.803 556.566 251.165 556.566 245.393V226.121C556.566 220.349 551.93 215.711 546.162 215.711H532.873C527.105 215.711 522.469 220.349 522.469 226.121V245.393C522.469 251.165 527.105 255.803 532.873 255.803Z" fill="#F095BC"/>
<path d="M493.214 258.792H477.66V260.647H493.214V258.792Z" fill="#F095BC"/>
<path d="M492.493 262.09H477.66V264.357H492.493V262.09Z" fill="#F095BC"/>
<path d="M492.081 278.477H478.381V281.053H492.081V278.477Z" fill="#F095BC"/>
<path d="M492.081 282.187H478.381V284.764H492.081V282.187Z" fill="#F095BC"/>
<path opacity="0.54" d="M545.029 286.619H537.715C533.801 286.619 530.71 283.424 530.71 279.61V265.491C530.71 261.574 533.904 258.482 537.715 258.482H545.132C549.046 258.482 552.136 261.677 552.136 265.491V279.61C552.136 283.424 548.943 286.619 545.029 286.619Z" fill="#F095BC"/>
<path d="M406.17 213.547H306.662C301.615 213.547 297.494 209.424 297.494 204.374V177.063C297.494 172.012 301.615 167.89 306.662 167.89H406.17C411.218 167.89 415.338 172.012 415.338 177.063V204.374C415.338 209.424 411.218 213.547 406.17 213.547Z" fill="#652265"/>
<path d="M404.316 211.692H304.808C299.761 211.692 295.64 207.569 295.64 202.519V175.207C295.64 170.157 299.761 166.035 304.808 166.035H404.316C409.364 166.035 413.484 170.157 413.484 175.207V202.519C413.484 207.569 409.364 211.692 404.316 211.692Z" fill="#FBEBEF"/>
<path d="M347.146 173.971H302.027V177.99H347.146V173.971Z" fill="#1D1E1C"/>
<path d="M347.558 179.845H302.439V183.04H347.558V179.845Z" fill="#1D1E1C"/>
<path d="M346.94 186.338H301.821V188.709H346.94V186.338Z" fill="#1D1E1C"/>
<path d="M346.94 191.285H301.821V193.965H346.94V191.285Z" fill="#1D1E1C"/>
<path d="M346.94 196.129H301.821V198.706H346.94V196.129Z" fill="#1D1E1C"/>
<path d="M358.58 174.177C359.301 174.177 359.919 174.383 360.434 174.692L361.67 172.115C360.743 171.6 359.713 171.291 358.58 171.291C356.21 171.291 354.15 172.631 353.017 174.486L355.695 175.517C356.416 174.692 357.447 174.177 358.58 174.177Z" fill="#642366"/>
<path d="M364.966 177.681C364.966 175.31 363.627 173.146 361.67 172.115L360.434 174.692C361.464 175.31 362.185 176.444 362.185 177.784C362.185 179.742 360.64 181.288 358.683 181.391V184.174C362.185 184.071 364.966 181.185 364.966 177.681Z" fill="#E3087F"/>
<path d="M358.58 181.288C356.931 181.288 355.489 180.154 355.077 178.608H352.296C352.708 181.7 355.386 184.174 358.683 184.174H358.786V181.391C358.683 181.288 358.683 181.288 358.58 181.288Z" fill="#F095BC"/>
<path d="M378.667 181.185C378.049 181.391 377.328 181.288 376.71 181.082L376.091 183.865C377.122 184.174 378.255 184.174 379.285 183.968C381.551 183.452 383.302 181.7 383.92 179.536L381.036 179.124C380.624 180.154 379.8 180.979 378.667 181.185Z" fill="#E3087F"/>
<path d="M371.559 179.227C372.074 181.597 373.928 183.349 376.091 183.968L376.709 181.185C375.576 180.773 374.649 179.845 374.34 178.608C373.928 176.753 375.061 174.795 376.915 174.28L376.297 171.497C372.795 172.424 370.735 175.826 371.559 179.227Z" fill="#F095BC"/>
<path d="M376.916 174.28C378.564 173.868 380.212 174.692 380.933 176.135L383.714 175.517C382.581 172.631 379.388 170.879 376.297 171.6H376.194L376.812 174.383C376.916 174.28 376.916 174.28 376.916 174.28Z" fill="#642366"/>
<path d="M398.342 174.795C398.857 175.207 399.269 175.723 399.578 176.238L402.05 174.898C401.535 173.971 400.917 173.146 399.887 172.425C397.93 171.085 395.457 170.982 393.5 171.909L395.148 174.28C396.282 173.971 397.415 174.074 398.342 174.795Z" fill="#F095BC"/>
<path d="M401.638 181.391C402.977 179.433 403.08 176.959 402.05 174.898L399.681 176.238C400.196 177.372 400.093 178.712 399.372 179.742C398.239 181.391 396.076 181.803 394.53 180.773L392.985 183.143C395.767 184.998 399.681 184.277 401.638 181.391Z" fill="#642366"/>
<path d="M394.324 180.67C392.985 179.742 392.47 177.99 392.985 176.444L390.616 174.795C389.174 177.578 390.101 181.082 392.779 182.937C392.779 182.937 392.882 182.937 392.882 183.04L394.427 180.67C394.427 180.773 394.324 180.67 394.324 180.67Z" fill="#E3087F"/>
<path d="M404.728 188.399H369.705V190.873H404.728V188.399Z" fill="#1D1E1C"/>
<path opacity="0.54" d="M403.492 193.14H388.247V203.55H403.492V193.14Z" fill="#F095BC"/>
<path opacity="0.54" d="M385.362 193.14H370.117V203.55H385.362V193.14Z" fill="#F095BC"/>
<path opacity="0.54" d="M366.099 193.14H350.854V203.55H366.099V193.14Z" fill="#F095BC"/>
<path d="M280.395 255.7V255.494C280.395 254.051 281.528 252.814 283.073 252.814H376.297C377.74 252.814 378.976 253.948 378.976 255.494V255.7C378.976 257.143 377.843 258.379 376.297 258.379H283.073C281.631 258.379 280.395 257.143 280.395 255.7Z" fill="#373638"/>
<path d="M367.336 257.761L372.28 324.443L366.821 323.825L357.653 257.143L367.336 257.761ZM346.939 257.555L351.884 308.159L346.424 307.644L337.256 257.04L346.939 257.555ZM294.61 257.246L289.666 323.928L295.125 323.309L304.293 256.627L294.61 257.246ZM314.903 257.04L309.959 307.644L315.418 307.128L324.586 256.524L314.903 257.04Z" fill="#373638"/>
<path d="M322.629 232.923C322.629 232.304 323.144 231.686 323.865 231.686L348.691 231.892C349.206 231.892 349.721 232.304 349.721 232.82L350.648 251.886L324.071 251.783L322.629 232.923Z" fill="#1D1D1B"/>
<path d="M349.103 249.722L325.101 249.516L324.071 234.366L348.072 234.572L349.103 249.722Z" fill="url(#paint3_linear_1962_840)"/>
<path d="M334.99 252.402L323.762 251.68L352.605 251.577L351.575 252.402H334.99ZM351.575 252.299L352.605 251.68L324.071 251.783L335.093 252.299H351.575Z" fill="#373638"/>
<path d="M323.968 251.886L344.776 252.814L344.57 253.226L323.968 252.917V251.886Z" fill="#1D1D1B"/>
<path d="M345.291 251.68L323.968 251.886L345.291 252.814V251.68Z" fill="#50504E"/>
<path d="M367.851 286.722C384.435 289.711 368.984 276.931 364.76 276.312C361.567 276.519 358.477 277.137 359.301 281.259C358.271 289.092 358.271 299.295 358.683 310.014L363.009 310.632C365.378 301.048 368.16 290.535 367.851 286.722Z" fill="#1D1D1B"/>
<path d="M343.437 318.981H340.347V314.652C339.523 316.61 338.802 318.362 337.874 318.981H330.561C327.264 317.435 327.47 314.755 329.943 315.27H333.651C335.814 314.446 336.844 312.488 337.977 310.942L338.905 307.541L344.055 307.85C343.437 310.426 343.334 314.446 343.437 318.981ZM363.627 316.507H360.537V312.178C359.713 314.137 358.992 315.889 358.065 316.507H350.751C347.454 314.961 347.66 312.281 350.133 312.797H353.841C356.004 311.972 357.034 310.014 358.168 308.468L359.095 305.067L364.245 305.376C363.627 307.953 363.524 311.972 363.627 316.507Z" fill="#1E1E1C"/>
<path d="M381.139 274.354L360.228 271.365C354.974 273.22 349.927 274.56 345.703 274.045C342.51 274.354 339.42 274.869 340.244 278.992C339.214 286.825 339.214 297.028 339.626 307.747L343.952 308.365C346.424 298.78 349.206 288.268 348.897 284.454C365.481 287.443 375.164 287.855 377.946 286C380.212 281.362 381.963 277.343 381.139 274.354Z" fill="#1D1D1B"/>
<path d="M361.155 216.123C363.73 215.711 365.275 217.36 366.305 220.143L373.722 223.338L375.576 232.098L369.19 234.16L368.881 229.006C367.336 226.327 364.451 228.594 362.185 224.059C361.361 221.483 360.949 218.803 361.155 216.123Z" fill="#FFEAB2"/>
<path d="M360.331 217.154C359.713 214.681 359.61 212.207 360.228 209.734C362.906 205.92 365.481 205.405 368.16 205.405L372.795 226.43C370.735 227.667 368.778 228.8 366.511 224.678C366.511 221.071 366.099 218.082 363.627 218.597C363.009 217.463 362.288 216.742 360.331 217.154Z" fill="url(#paint4_linear_1962_840)"/>
<path d="M367.954 229.934L363.627 233.129C374.752 243.435 362.185 255.494 359.816 269.613C359.61 270.644 360.125 271.778 360.949 272.396C366.408 276.106 372.898 277.343 381.139 274.251C381.963 273.839 382.581 273.117 382.684 272.19C383.92 263.842 378.461 263.945 386.083 246.115C387.319 237.767 384.95 231.995 377.74 229.522C377.74 231.274 370.22 233.232 367.954 229.934Z" fill="url(#paint5_linear_1962_840)"/>
<path d="M370.117 252.814C370.735 255.184 370.426 257.658 369.087 259.719C364.142 259.925 360.022 258.173 356.313 255.287C354.253 254.154 352.605 253.845 351.678 254.154C351.163 256.421 350.133 257.967 347.352 257.658C346.218 256.215 345.806 254.669 345.806 253.226C344.879 253.948 344.055 254.772 343.437 255.906C342.716 256.627 342.201 256.112 342.716 255.184C343.231 254.154 344.467 252.608 345.703 251.062C347.867 250.237 350.751 250.444 353.944 250.959C359.713 252.299 365.172 253.432 370.117 252.814Z" fill="#FFEAB2"/>
<path d="M370.117 219.834C371.971 226.945 374.546 233.438 382.272 235.19C388.041 234.366 392.573 232.304 393.603 226.018C391.646 228.079 387.938 229.006 387.011 226.224C387.114 218.597 386.805 211.486 384.538 207.26C383.096 202.21 373.722 200.149 370.014 205.714C367.027 208.909 367.233 213.65 370.117 219.834Z" fill="#1E1E1C"/>
<path d="M370.117 252.814C373.207 242.611 369.087 231.995 363.627 233.232C360.125 235.19 360.228 243.951 361.67 252.608C364.657 253.845 367.542 254.051 370.117 252.814Z" fill="#737270"/>
<path d="M367.644 211.898C364.657 208.085 367.644 204.271 370.117 205.302C368.881 207.26 367.644 208.394 367.644 211.898Z" fill="#E3117F"/>
<path d="M393.912 291.257C392.573 278.477 385.877 281.053 374.958 280.332C363.421 281.569 351.266 276.312 349.618 291.257H393.912Z" fill="#BE73AC"/>
<path d="M386.392 320.836C387.53 320.836 388.453 319.59 388.453 318.053C388.453 316.516 387.53 315.27 386.392 315.27C385.255 315.27 384.332 316.516 384.332 318.053C384.332 319.59 385.255 320.836 386.392 320.836Z" fill="#1E1E1C"/>
<path d="M356.622 320.526C357.76 320.526 358.683 319.281 358.683 317.744C358.683 316.207 357.76 314.961 356.622 314.961C355.485 314.961 354.562 316.207 354.562 317.744C354.562 319.281 355.485 320.526 356.622 320.526Z" fill="#1E1E1C"/>
<path d="M382.272 297.853V299.605L375.679 299.811L371.044 305.067C379.079 304.758 386.805 308.571 391.337 315.27L388.865 317.641L386.083 314.858C381.036 311.251 374.855 309.602 368.778 310.323C362.906 309.808 357.756 313.93 354.047 318.259L352.09 315.373C356.725 308.88 361.361 306.304 365.996 306.716L366.408 292.906L379.285 293.215L375.164 297.956L382.272 297.853Z" fill="#652265"/>
<path d="M390.925 321.145C392.063 321.145 392.985 319.899 392.985 318.362C392.985 316.825 392.063 315.579 390.925 315.579C389.787 315.579 388.865 316.825 388.865 318.362C388.865 319.899 389.787 321.145 390.925 321.145Z" fill="#1E1E1C"/>
<path d="M352.296 320.63C353.434 320.63 354.356 319.384 354.356 317.847C354.356 316.31 353.434 315.064 352.296 315.064C351.158 315.064 350.236 316.31 350.236 317.847C350.236 319.384 351.158 320.63 352.296 320.63Z" fill="#1E1E1C"/>
<path d="M348.485 292.39V292.184C348.485 291.463 349 290.947 349.721 290.947H394.53C395.148 290.947 395.766 291.463 395.766 292.184V292.39C395.766 293.112 395.251 293.627 394.53 293.627H349.721C349 293.627 348.485 293.112 348.485 292.39Z" fill="#652265"/>
<path d="M387.526 266.934C371.559 268.067 366.099 258.586 368.572 241.271C379.697 237.251 391.749 237.251 402.874 241.271C404.419 259.204 399.372 267.758 387.526 266.934Z" fill="#BE73AC"/>
<path d="M381.963 293.833C386.908 286.103 393.603 264.46 391.749 257.761C389.689 254.257 386.908 253.742 383.199 257.761C386.908 262.811 379.182 284.97 374.031 293.833H381.963Z" fill="#652265"/>
<path d="M465.196 195.305C488.407 195.305 507.224 176.109 507.224 152.43C507.224 128.752 488.407 109.556 465.196 109.556C441.984 109.556 423.167 128.752 423.167 152.43C423.167 176.109 441.984 195.305 465.196 195.305Z" fill="#E3087F"/>
<path d="M464.165 188.296C483.224 188.296 498.674 172.516 498.674 153.049C498.674 133.582 483.224 117.801 464.165 117.801C445.107 117.801 429.657 133.582 429.657 153.049C429.657 172.516 445.107 188.296 464.165 188.296Z" fill="white"/>
<path d="M464.165 178.196C477.762 178.196 488.785 166.937 488.785 153.049C488.785 139.16 477.762 127.901 464.165 127.901C450.568 127.901 439.546 139.16 439.546 153.049C439.546 166.937 450.568 178.196 464.165 178.196Z" fill="#E3087F"/>
<path d="M464.165 168.508C472.528 168.508 479.308 161.587 479.308 153.049C479.308 144.511 472.528 137.589 464.165 137.589C455.802 137.589 449.023 144.511 449.023 153.049C449.023 161.587 455.802 168.508 464.165 168.508Z" fill="white"/>
<path d="M464.165 159.13C467.465 159.13 470.14 156.407 470.14 153.049C470.14 149.691 467.465 146.968 464.165 146.968C460.866 146.968 458.191 149.691 458.191 153.049C458.191 156.407 460.866 159.13 464.165 159.13Z" fill="#E3087F"/>
<path d="M437.383 195.202L443.151 191.904C443.151 191.388 443.151 190.976 443.254 190.461C443.357 190.048 443.357 189.533 443.563 189.121L438.825 184.483L445.624 175.517L451.392 178.815C451.598 178.712 451.804 178.608 452.01 178.505L453.246 177.99C453.452 177.887 453.658 177.784 453.864 177.784L455.513 171.394L466.741 172.837V179.433C467.153 179.639 467.565 179.948 467.874 180.257C468.183 180.567 468.595 180.876 468.904 181.185L475.291 179.433L479.72 189.842L473.951 193.14C473.951 193.656 473.951 194.068 473.848 194.583C473.745 194.996 473.745 195.511 473.539 195.923L478.278 200.561L471.479 209.527L465.711 206.229C465.505 206.332 465.299 206.436 465.093 206.539L463.856 207.054C463.65 207.157 463.444 207.157 463.135 207.26L461.487 213.65L450.259 212.207V205.611C449.847 205.405 449.435 205.096 449.126 204.787C448.714 204.477 448.405 204.168 448.096 203.859L441.709 205.611L437.383 195.202ZM442.636 196.851L444.181 200.561L449.435 199.118C450.053 199.943 450.877 200.767 451.701 201.385C452.525 202.004 453.452 202.519 454.482 202.931V208.394L458.5 208.909L459.839 203.55C460.354 203.55 460.869 203.447 461.384 203.344C461.899 203.241 462.414 203.034 462.929 202.828C463.444 202.622 463.959 202.416 464.371 202.107C464.783 201.798 465.299 201.489 465.608 201.179L470.346 203.962L472.818 200.767L468.904 196.954C469.316 195.923 469.625 194.892 469.728 193.862C469.831 192.831 469.831 191.801 469.728 190.667L474.466 187.987L472.921 184.277L467.668 185.72C467.05 184.895 466.226 184.071 465.402 183.452C464.577 182.834 463.65 182.319 462.62 181.906V176.444L458.603 175.929L457.264 181.288C456.749 181.288 456.234 181.391 455.719 181.597C455.203 181.7 454.688 181.906 454.173 182.113C453.658 182.319 453.143 182.525 452.731 182.834C452.319 183.143 451.907 183.452 451.495 183.762L446.757 180.979L444.284 184.174L448.199 187.987C447.787 189.018 447.478 190.048 447.375 191.079C447.272 192.11 447.272 193.14 447.375 194.274L442.636 196.851ZM451.907 195.305C452.628 197.16 453.967 198.397 455.822 199.221C457.676 199.943 459.53 199.943 461.281 199.221C463.135 198.5 464.371 197.16 465.196 195.305C465.917 193.45 465.917 191.594 465.196 189.842C464.371 187.987 463.135 186.647 461.281 185.926C459.427 185.205 457.573 185.205 455.822 186.029C453.967 186.75 452.731 188.09 451.907 189.945C451.186 191.594 451.186 193.45 451.907 195.305Z" fill="#652265"/>
<path d="M518.124 97.4241L472.236 143.336L473.838 144.939L519.727 99.0274L518.124 97.4241Z" fill="#652265"/>
<path d="M471.685 140.475L462.826 153.873L477.66 145.319L473.951 144.185L471.685 140.475Z" fill="#652265"/>
<path d="M516.907 92.2415L505.37 103.785V112.339L513.61 111.205L526.59 99.3529H518.761L516.907 92.2415Z" fill="#E3117F"/>
<path d="M67.987 159.748L79.8332 215.711L20.6021 213.547C19.469 187.266 42.4404 160.469 67.987 159.748Z" fill="#C30A79"/>
<path d="M73.9615 163.149L87.6619 222.823L143.597 240.962C152.559 185.72 121.037 156.45 73.9615 163.149Z" fill="#A95F9A"/>
<path d="M98.7871 282.187C122.48 276.209 138.034 263.12 143.597 241.065L87.662 222.926L98.7871 282.187Z" fill="#F095BC"/>
<path d="M22.4563 221.38L87.6619 222.823L98.7871 282.187C54.6986 288.062 31.7272 259.822 22.4563 221.38Z" fill="#652265"/>
<path d="M87.765 210.146C88.3908 210.146 88.8981 209.638 88.8981 209.012C88.8981 208.386 88.3908 207.878 87.765 207.878C87.1391 207.878 86.6318 208.386 86.6318 209.012C86.6318 209.638 87.1391 210.146 87.765 210.146Z" fill="#E3087F"/>
<path d="M106.719 199.221C107.345 199.221 107.852 198.714 107.852 198.087C107.852 197.461 107.345 196.954 106.719 196.954C106.093 196.954 105.586 197.461 105.586 198.087C105.586 198.714 106.093 199.221 106.719 199.221Z" fill="#E3087F"/>
<path d="M124.952 207.775C125.578 207.775 126.085 207.268 126.085 206.642C126.085 206.016 125.578 205.508 124.952 205.508C124.326 205.508 123.819 206.016 123.819 206.642C123.819 207.268 124.326 207.775 124.952 207.775Z" fill="#E3087F"/>
<path d="M139.991 192.419C140.617 192.419 141.124 191.911 141.124 191.285C141.124 190.659 140.617 190.152 139.991 190.152C139.365 190.152 138.858 190.659 138.858 191.285C138.858 191.911 139.365 192.419 139.991 192.419Z" fill="#E3087F"/>
<path d="M153.589 192.728C154.214 192.728 154.722 192.221 154.722 191.594C154.722 190.968 154.214 190.461 153.589 190.461C152.963 190.461 152.456 190.968 152.456 191.594C152.456 192.221 152.963 192.728 153.589 192.728Z" fill="#E3087F"/>
<path d="M159.46 180.979C160.086 180.979 160.593 180.471 160.593 179.845C160.593 179.219 160.086 178.712 159.46 178.712C158.834 178.712 158.327 179.219 158.327 179.845C158.327 180.471 158.834 180.979 159.46 180.979Z" fill="#E3087F"/>
<path d="M87.868 209.218L87.662 208.806L106.719 197.675L124.643 206.539L139.991 190.976L153.589 191.182L159.357 179.742L159.666 180.051L153.692 191.801L139.991 191.594L124.746 207.157L106.822 198.19L87.868 209.218Z" fill="#E3087F"/>
<path d="M155.34 219.628H147.717C147.923 218.7 147.923 217.772 147.305 217.051C146.584 215.917 145.245 215.917 145.142 213.032C145.039 209.321 146.275 207.26 147.305 206.436L156.782 209.321C155.958 213.238 154.619 217.36 155.34 219.628Z" fill="#FFEAB1"/>
<path d="M146.275 306.304C147.202 305.479 147.202 302.593 146.996 298.986H141.537C140.506 301.151 138.137 302.593 134.944 303.727C133.09 304.346 132.266 305.273 133.502 306.613L146.275 306.304Z" fill="#1D1E1C"/>
<path d="M156.061 305.17C156.988 304.346 156.988 301.46 156.782 297.853H151.323C150.292 300.017 147.923 301.46 144.73 302.593C142.876 303.212 142.052 304.139 143.288 305.479L156.061 305.17Z" fill="#1D1E1C"/>
<path d="M142.567 253.123C139.888 257.761 138.549 267.449 137.21 277.343C137.107 277.961 137.107 278.58 137.313 279.198L141.536 298.986H146.996C147.408 291.05 147.614 283.424 144.936 278.889C144.833 277.755 145.039 276.622 145.554 275.591L148.85 268.789C148.232 272.396 147.923 275.9 148.129 279.301C149.262 284.97 150.395 291.153 151.425 297.853L158.018 298.265C157.915 290.432 157.812 282.702 156.164 277.343C155.752 275.797 155.546 274.251 155.855 272.705L159.048 253.432C153.589 254.463 148.129 254.257 142.567 253.123Z" fill="#1D1D1B"/>
<path d="M144.009 203.962C144.112 205.817 145.245 207.363 147.408 208.806C148.026 209.218 148.438 209.94 148.438 210.661L148.644 215.917C148.644 216.742 149.262 217.36 149.983 217.566C151.22 217.876 152.662 217.876 154.31 217.772C154.928 217.772 155.443 217.36 155.752 216.845L159.254 211.073C160.696 206.436 159.048 203.241 154.207 201.592C149.159 201.076 146.172 204.89 144.009 203.962Z" fill="#1D1E1C"/>
<path d="M142.567 233.438L130.617 238.179L138.961 254.257L142.567 251.989V233.438Z" fill="#1D1E1C"/>
<path d="M142.052 234.881L132.06 238.591L139.27 252.402L141.846 250.959L142.052 234.881Z" fill="white"/>
<path d="M165.435 239.416L161.521 224.265C160.593 222.616 158.018 221.071 155.34 219.525H147.717C145.863 220.04 143.906 220.658 141.846 222.101L137.21 226.739C136.798 227.151 136.077 227.048 135.768 226.533L130.926 217.36C130.308 218.288 129.278 218.803 128.042 219.215C128.557 224.162 130.617 228.594 133.914 232.717C135.768 233.438 139.991 231.274 142.979 229.419C141.743 237.354 141.021 245.187 140.815 253.123C147.408 254.566 153.795 254.875 159.769 253.845L158.636 245.496L164.508 241.992C165.332 241.477 165.744 240.446 165.435 239.416ZM160.799 239.313C160.593 239.622 160.284 239.828 159.872 239.931C159.357 240.549 158.533 241.374 158.533 241.374V239.416C158.224 239.004 158.121 238.385 158.43 237.87C158.842 237.251 159.666 237.045 160.284 237.354C161.005 237.87 161.212 238.694 160.799 239.313Z" fill="url(#paint6_linear_1962_840)"/>
<path d="M130.205 211.589C130.926 213.753 130.308 216.227 130.926 217.463L128.042 219.318C127.836 217.566 126.909 216.742 126.188 215.299C125.673 214.268 125.57 213.341 125.776 212.413C126.703 211.589 127.424 211.28 128.66 210.97L128.248 208.085C128.351 207.466 128.557 207.26 128.969 207.672L130.205 211.589Z" fill="#FFEAB1"/>
<path d="M35.2296 253.02L17.3057 250.031C12.3612 264.46 11.4341 265.491 2.78125 297.75L8.75586 298.162C13.1853 284.454 17.0997 279.507 24.3104 265.903C25.0315 277.034 22.9713 286.103 23.1773 300.738L29.667 301.357C34.4055 285.485 37.3928 268.583 35.2296 253.02Z" fill="url(#paint7_linear_1962_840)"/>
<path d="M45.0157 213.135C45.4277 214.474 44.9127 216.33 44.2946 218.288C43.8826 220.864 42.0284 221.483 39.6591 221.277L37.1869 227.151L31.8303 224.575L34.3026 218.7L32.3454 212.104L36.7748 208.188L45.0157 213.135Z" fill="#FFE9B0"/>
<path d="M48.621 210.97C47.2819 214.474 43.3675 213.65 38.835 211.795C38.629 212.825 39.144 213.032 39.6591 213.444C36.4657 212.104 35.5387 213.547 36.0537 216.742C34.7146 214.681 34.1995 212.825 33.9935 215.608C34.1995 216.536 34.7146 217.463 35.3326 218.597L34.7146 219.834C32.1393 214.887 30.6972 210.764 32.2423 209.115C34.3025 206.539 36.7748 204.787 40.0711 205.508C43.6765 205.405 45.1186 209.424 47.6939 208.806C45.1186 210.352 46.1487 212.722 48.621 210.97Z" fill="#1D1E1C"/>
<path d="M29.358 300.635C26.6797 301.048 24.9286 301.254 23.2804 300.532C22.7653 302.284 22.4563 304.036 22.9714 305.582C23.1774 306.304 23.8985 306.716 24.6195 306.819L25.9587 306.922C27.4008 307.025 28.7399 307.541 29.7701 308.468C31.4182 309.911 33.4784 310.735 36.5687 309.911C38.0109 308.571 37.5989 307.644 35.2296 306.922C30.1821 305.376 33.0664 302.593 29.358 300.635Z" fill="#1D1E1C"/>
<path d="M9.47699 297.749C6.6957 298.265 4.22345 298.162 2.36926 297.028V300.12C2.36926 300.841 2.67829 301.563 3.29636 301.975C4.7385 303.212 6.07764 304.964 7.41678 306.819C9.27097 309.19 12.1553 309.19 12.8763 306.922C12.3613 305.273 11.3312 303.521 9.99204 301.666C9.58 301.048 9.37398 300.326 9.58 299.605C9.68301 298.986 9.58 298.368 9.47699 297.749Z" fill="#1D1E1C"/>
<path d="M18.3359 241.786C19.4691 246.63 18.748 251.268 19.7781 254.36L16.4818 255.494C14.6276 250.753 13.4945 246.012 13.9065 241.065L18.3359 241.786Z" fill="#FFE9B0"/>
<path d="M33.4784 220.555C20.6021 219.318 14.9365 227.563 12.6703 242.095C14.9365 242.405 17.2027 242.611 19.366 242.508C19.263 238.282 19.984 235.396 21.6322 233.644C20.087 237.354 19.263 244.981 18.6449 253.638L33.4784 256.627C36.6717 250.134 39.144 243.641 39.453 237.354C41.1012 243.641 43.6765 246.939 47.2818 247.042L48.724 240.756C43.1614 236.633 45.7367 231.789 43.5734 227.77C42.7494 226.018 40.6891 224.575 38.7319 223.647C35.3326 227.667 32.4483 225.296 33.4784 220.555Z" fill="url(#paint8_linear_1962_840)"/>
<path d="M4.32647 297.853L3.19336 297.543V297.44C8.65292 281.672 14.7305 263.636 18.2329 250.237V250.134L19.675 250.237V250.34C16.2757 263.223 10.3011 280.744 4.32647 297.853ZM3.39938 297.44L4.12045 297.646C10.0951 280.641 16.0697 263.223 19.469 250.444L18.4389 250.34C14.9366 263.842 8.85894 281.672 3.39938 297.44Z" fill="white"/>
<path d="M57.9949 247.352C58.4069 247.661 58.922 248.485 57.9949 249.516C55.7287 250.444 53.7715 250.65 52.1233 249.928L57.9949 247.352Z" fill="#FFE9B0"/>
<path d="M96.2119 199.839C80.3482 193.656 62.3214 201.488 56.1408 217.463C53.8745 223.338 53.4625 229.419 54.6986 235.19L8.96196 254.463C5.97465 255.803 4.5325 259.307 5.87164 262.296L6.07766 262.811C7.4168 265.8 10.9192 267.243 13.9065 265.903L35.7447 257.04L59.7461 246.527C63.1455 251.268 67.884 255.184 73.7556 257.452C89.6192 263.636 107.646 255.803 113.827 239.828C120.007 224.059 112.178 206.023 96.2119 199.839ZM105.38 236.633C100.95 247.867 88.2801 253.432 77.0519 249.104C65.8238 244.672 60.2612 231.995 64.5876 220.761C69.0171 209.527 81.6874 203.962 92.9155 208.291C104.247 212.722 109.809 225.399 105.38 236.633Z" fill="#1D1E1C"/>
<path opacity="0.36" d="M84.9837 250.547C97.0447 250.547 106.822 240.764 106.822 228.697C106.822 216.63 97.0447 206.848 84.9837 206.848C72.9228 206.848 63.1455 216.63 63.1455 228.697C63.1455 240.764 72.9228 250.547 84.9837 250.547Z" fill="url(#paint9_linear_1962_840)"/>
<path opacity="0.54" d="M105.38 236.633C104.659 238.591 102.393 239.519 100.538 238.797C98.5811 238.076 97.654 235.809 98.3751 233.953L100.332 229.006C100.95 227.46 100.126 225.708 98.5811 225.09C97.036 224.472 95.2848 225.296 94.6667 226.842L94.3577 227.563C93.6366 229.522 91.3704 230.449 89.5162 229.728C87.559 229.006 86.6319 226.739 87.353 224.884L89.8252 218.597C90.4433 217.051 89.6192 215.299 88.0741 214.681C86.5289 214.062 84.7777 214.887 84.1597 216.433L83.8506 217.154C83.1296 219.112 80.8633 220.04 79.0091 219.318C77.0519 218.597 76.1248 216.33 76.8459 214.474L79.4212 207.775C83.7476 206.642 88.3831 206.848 92.9156 208.497C104.247 212.722 109.809 225.399 105.38 236.633ZM90.5463 237.354C91.2674 235.396 90.3403 233.232 88.3831 232.511C86.4259 231.789 84.2627 232.717 83.5416 234.675C82.8205 236.633 83.7476 238.797 85.7048 239.519C87.559 240.24 89.7222 239.313 90.5463 237.354Z" fill="url(#paint10_linear_1962_840)"/>
<path d="M445.314 63.693L451.186 60.292C451.186 59.7766 451.186 59.3644 451.289 58.8491C451.392 58.3338 451.495 57.9215 451.598 57.4062L446.757 52.6653L453.761 43.3896L459.633 46.7907C459.839 46.6876 460.045 46.5845 460.251 46.4815L461.59 45.9662C461.796 45.8631 462.002 45.76 462.311 45.76L463.959 39.164L475.394 40.6069V47.4091C475.806 47.6152 476.218 47.9244 476.63 48.2336C477.042 48.5428 477.351 48.8519 477.66 49.1611L484.252 47.306L488.785 58.0246L482.913 61.4256C482.913 61.941 482.913 62.3532 482.81 62.8685C482.707 63.3838 482.604 63.7961 482.501 64.3114L487.343 69.0523L480.338 78.328L474.466 74.9269C474.26 75.03 474.054 75.133 473.848 75.2361L472.509 75.7514C472.303 75.8545 472.097 75.8545 471.788 75.9576L470.14 82.5536L458.706 81.1107V74.3085C458.294 74.1024 457.882 73.7932 457.47 73.484C457.058 73.1749 456.749 72.8657 456.44 72.5565L449.847 74.4116L445.314 63.693ZM450.568 65.4451L452.216 69.2584L457.676 67.8156C458.397 68.7431 459.118 69.4646 459.942 70.083C460.766 70.7013 461.693 71.2166 462.723 71.6289V77.2974L466.844 77.8127L468.286 72.3503C468.801 72.3503 469.316 72.2473 469.831 72.0412C470.346 71.9381 470.861 71.732 471.376 71.5258C471.891 71.3197 472.406 71.0105 472.818 70.8044C473.333 70.4952 473.745 70.186 474.157 69.8768L479.102 72.7626L481.574 69.4646L477.557 65.5482C477.969 64.5175 478.278 63.4869 478.484 62.3532C478.587 61.3226 478.587 60.1889 478.484 59.0552L483.325 56.2725L481.677 52.4592L476.218 53.902C475.497 52.9745 474.775 52.253 473.951 51.6346C473.127 51.0163 472.2 50.5009 471.17 50.0887V44.4202L467.05 43.9049L465.711 49.3673C465.196 49.3673 464.577 49.4703 464.062 49.6764C463.547 49.7795 463.032 49.9856 462.517 50.1918C462.002 50.3979 461.487 50.604 461.075 50.9132C460.663 51.2224 460.148 51.5316 459.736 51.8408L454.791 48.955L452.319 52.253L456.337 56.1694C455.925 57.2001 455.616 58.2307 455.41 59.3644C455.306 60.395 455.306 61.5287 455.41 62.6624L450.568 65.4451ZM460.148 63.7961C460.972 65.6512 462.311 66.9911 464.165 67.8156C466.02 68.537 467.977 68.537 469.831 67.8156C471.685 66.9911 473.024 65.6512 473.848 63.7961C474.569 61.941 474.569 59.9828 473.848 58.1276C473.024 56.1694 471.685 54.9327 469.831 54.1082C467.977 53.3867 466.123 53.3867 464.165 54.2112C462.311 55.0357 460.972 56.3756 460.148 58.2307C459.324 59.9828 459.427 61.941 460.148 63.7961Z" fill="#E20E7F"/>
<path d="M435.116 93.8905L438.207 92.1385C438.207 91.9323 438.207 91.6232 438.207 91.417C438.207 91.2109 438.31 90.9017 438.31 90.6956L435.735 88.2221L439.443 83.3781L442.533 85.1302C442.636 85.0271 442.739 85.0271 442.842 84.924L443.563 84.6149C443.666 84.6149 443.769 84.5118 443.872 84.5118L444.799 81.0076L450.877 81.7291V85.3363C451.083 85.4394 451.289 85.6455 451.495 85.7485C451.701 85.8516 451.907 86.0577 452.01 86.2639L455.41 85.3363L457.779 90.9017L454.688 92.6538C454.688 92.8599 454.688 93.1691 454.688 93.3752C454.688 93.5814 454.585 93.8905 454.585 94.0967L457.161 96.5702L453.452 101.414L450.362 99.6621C450.259 99.7651 450.156 99.7651 450.053 99.8682L449.332 100.177C449.229 100.177 449.126 100.28 448.92 100.28L447.993 103.785L441.915 103.063V99.559C441.709 99.456 441.503 99.2498 441.297 99.1468C441.091 98.9406 440.885 98.8376 440.782 98.6314L437.383 99.559L435.116 93.8905ZM437.898 94.8181L438.722 96.8794L441.606 96.0549C441.915 96.5702 442.327 96.9824 442.842 97.2916C443.357 97.6008 443.769 97.91 444.284 98.1161V101.105L446.448 101.414L447.169 98.5284C447.478 98.5284 447.684 98.4253 447.993 98.4253C448.302 98.3223 448.508 98.2192 448.817 98.1161C449.126 98.0131 449.332 97.91 449.641 97.7039C449.95 97.4978 450.156 97.3947 450.362 97.1886L452.937 98.7345L454.276 96.9824L452.113 94.9212C452.319 94.4059 452.525 93.7875 452.525 93.2722C452.628 92.7568 452.628 92.1385 452.525 91.5201L455.1 90.0772L454.276 88.0159L451.392 88.8404C451.083 88.3251 450.671 87.9129 450.156 87.6037C449.744 87.2945 449.229 86.9853 448.714 86.7792V83.7904L446.551 83.4812L445.83 86.3669C445.521 86.3669 445.211 86.47 445.005 86.47C444.696 86.5731 444.49 86.6761 444.181 86.7792C443.872 86.8822 443.666 86.9853 443.46 87.1914C443.254 87.2945 442.945 87.5006 442.739 87.7068L440.164 86.1608L438.825 87.9129L440.988 89.9741C440.782 90.4895 440.576 91.1078 440.576 91.6232C440.473 92.1385 440.473 92.7568 440.576 93.3752L437.898 94.8181ZM442.945 93.8905C443.357 94.9212 444.078 95.5396 445.005 95.9518C446.036 96.3641 446.963 96.3641 447.993 95.9518C449.023 95.5396 449.641 94.8181 450.053 93.8905C450.465 92.8599 450.465 91.9323 450.053 90.9017C449.641 89.8711 448.92 89.1496 447.89 88.8404C446.86 88.4282 445.933 88.4282 444.902 88.8404C443.872 89.2527 443.254 89.9741 442.842 90.9017C442.533 91.9323 442.533 92.963 442.945 93.8905Z" fill="#A95F99"/>
<path d="M214.674 220.967L219.927 217.979C219.927 217.566 219.927 217.154 220.03 216.742C220.133 216.33 220.133 215.917 220.236 215.505L215.91 211.28L222.091 203.034L227.344 206.126C227.55 206.023 227.756 205.92 227.962 205.817L229.095 205.302C229.301 205.199 229.507 205.199 229.713 205.096L231.259 199.221L241.457 200.561V206.642C241.869 206.848 242.178 207.054 242.487 207.363C242.796 207.672 243.105 207.878 243.414 208.188L249.285 206.539L253.303 216.123L248.049 219.112C248.049 219.525 248.049 219.937 247.946 220.349C247.843 220.761 247.843 221.174 247.74 221.586L252.067 225.811L245.886 234.056L240.632 230.965C240.426 231.068 240.22 231.171 240.014 231.274L238.881 231.789C238.675 231.892 238.469 231.892 238.263 231.995L236.718 237.87L226.52 236.53V230.552C226.108 230.346 225.799 230.14 225.49 229.831C225.181 229.522 224.872 229.316 224.563 229.006L218.691 230.655L214.674 220.967ZM219.412 222.616L220.854 226.018L225.696 224.678C226.314 225.502 227.035 226.121 227.756 226.739C228.477 227.357 229.404 227.77 230.228 228.182V233.232L233.937 233.644L235.173 228.697C235.688 228.697 236.1 228.594 236.615 228.491C237.13 228.388 237.542 228.182 238.057 227.976C238.469 227.77 238.984 227.563 239.396 227.357C239.808 227.151 240.22 226.842 240.529 226.533L244.959 229.109L247.225 226.224L243.62 222.72C244.032 221.792 244.238 220.864 244.444 219.937C244.547 219.009 244.547 217.979 244.444 217.051L248.77 214.578L247.328 211.176L242.487 212.516C241.869 211.692 241.148 211.073 240.426 210.455C239.705 209.837 238.778 209.424 237.954 209.012V203.962L234.246 203.55L232.804 208.188C232.289 208.188 231.877 208.291 231.362 208.394C230.95 208.497 230.434 208.703 229.919 208.909C229.507 209.115 228.992 209.321 228.58 209.527C228.168 209.734 227.756 210.043 227.447 210.352L223.018 207.775L220.751 210.661L224.357 214.165C223.945 215.093 223.739 216.02 223.533 216.948C223.43 217.876 223.43 218.906 223.533 219.834L219.412 222.616ZM227.962 221.071C228.683 222.72 229.816 223.956 231.568 224.575C233.216 225.296 234.967 225.296 236.615 224.575C238.263 223.853 239.499 222.72 240.117 220.967C240.839 219.318 240.839 217.566 240.117 215.917C239.396 214.165 238.16 213.032 236.512 212.31C234.864 211.589 233.113 211.692 231.465 212.31C229.816 213.032 228.58 214.165 227.962 215.917C227.241 217.772 227.241 219.421 227.962 221.071Z" fill="#E20E7F"/>
<path d="M180.68 198.294L184.183 196.232C184.183 195.923 184.183 195.614 184.183 195.408C184.183 195.099 184.286 194.892 184.389 194.583L181.505 191.698L185.728 186.132L189.23 188.193C189.333 188.09 189.436 188.09 189.642 187.987L190.466 187.678C190.569 187.575 190.775 187.575 190.878 187.575L191.909 183.659L198.81 184.483V188.606C199.016 188.709 199.325 188.915 199.531 189.121C199.737 189.327 199.943 189.43 200.149 189.636L204.064 188.503L206.742 194.892L203.24 196.954C203.24 197.263 203.24 197.572 203.24 197.778C203.24 198.087 203.137 198.294 203.034 198.603L205.918 201.489L201.695 207.054L198.192 204.993C198.089 205.096 197.986 205.096 197.78 205.199L196.956 205.508C196.853 205.611 196.647 205.611 196.544 205.611L195.514 209.527L188.612 208.703V204.683C188.406 204.58 188.097 204.374 187.891 204.168C187.685 203.962 187.479 203.859 187.273 203.653L183.359 204.787L180.68 198.294ZM183.874 199.324L184.801 201.592L188.097 200.664C188.509 201.179 188.921 201.695 189.539 202.004C190.054 202.416 190.672 202.725 191.188 202.931V206.332L193.66 206.642L194.484 203.344C194.793 203.344 195.102 203.241 195.411 203.138C195.72 203.034 196.029 202.931 196.338 202.828C196.647 202.725 196.956 202.519 197.265 202.416C197.574 202.21 197.78 202.107 198.089 201.901L201.077 203.653L202.622 201.695L200.149 199.324C200.458 198.706 200.561 198.087 200.664 197.469C200.767 196.851 200.767 196.129 200.664 195.511L203.549 193.862L202.622 191.594L199.325 192.522C198.913 192.007 198.501 191.491 197.883 191.182C197.368 190.77 196.75 190.461 196.235 190.255V186.854L193.763 186.544L192.939 189.842C192.63 189.842 192.321 189.945 192.012 190.048C191.703 190.152 191.394 190.255 191.084 190.358C190.775 190.461 190.466 190.667 190.157 190.77C189.848 190.976 189.642 191.079 189.333 191.388L186.346 189.636L184.801 191.594L187.273 193.965C186.964 194.583 186.861 195.202 186.758 195.82C186.655 196.438 186.655 197.16 186.758 197.778L183.874 199.324ZM189.642 198.397C190.157 199.53 190.878 200.355 192.012 200.767C193.145 201.179 194.278 201.179 195.411 200.767C196.544 200.252 197.368 199.53 197.78 198.397C198.192 197.263 198.192 196.129 197.78 194.996C197.265 193.862 196.441 193.037 195.411 192.625C194.278 192.213 193.145 192.213 192.012 192.625C190.878 193.14 190.054 193.862 189.642 194.996C189.127 196.026 189.127 197.16 189.642 198.397Z" fill="#E20E7F"/>
<path d="M233.525 246.836C231.98 246.733 230.435 246.424 228.992 246.115L229.301 245.084C230.744 245.393 232.186 245.703 233.731 245.806L233.525 246.836ZM238.16 246.836L238.057 245.703C239.5 245.6 241.045 245.393 242.487 244.981L242.796 246.012C241.251 246.424 239.706 246.733 238.16 246.836ZM224.563 244.672C223.121 244.054 221.782 243.332 220.443 242.508L221.061 241.58C222.297 242.405 223.636 243.126 224.975 243.641L224.563 244.672ZM247.122 244.569L246.71 243.538C248.049 242.92 249.389 242.302 250.625 241.477L251.243 242.405C249.904 243.332 248.564 244.054 247.122 244.569ZM216.734 239.622C215.601 238.591 214.468 237.458 213.541 236.221L214.365 235.499C215.292 236.633 216.322 237.767 217.455 238.694L216.734 239.622ZM254.951 239.622L254.23 238.797C255.363 237.767 256.393 236.736 257.32 235.602L258.144 236.324C257.217 237.458 256.084 238.591 254.951 239.622ZM210.966 232.407C210.245 231.068 209.523 229.625 209.008 228.182L210.039 227.77C210.554 229.212 211.172 230.552 211.893 231.789L210.966 232.407ZM260.72 232.407L259.793 231.892C260.514 230.552 261.132 229.213 261.647 227.873L262.677 228.285C262.162 229.625 261.441 231.068 260.72 232.407ZM207.875 223.75C207.566 222.204 207.463 220.658 207.463 219.112H208.596C208.596 220.555 208.699 222.101 209.008 223.544L207.875 223.75ZM263.81 223.647L262.677 223.441C262.883 221.998 263.089 220.452 263.089 219.009V218.906H264.222V219.009C264.222 220.555 264.016 222.101 263.81 223.647ZM209.008 214.578L207.875 214.371C208.184 212.825 208.493 211.28 209.008 209.837L210.039 210.249C209.626 211.692 209.214 213.135 209.008 214.578ZM262.677 214.578C262.471 213.135 262.059 211.692 261.544 210.249L262.574 209.837C263.089 211.28 263.501 212.825 263.707 214.371L262.677 214.578ZM211.893 206.229L210.966 205.714C211.687 204.374 212.614 203.034 213.541 201.901L214.365 202.622C213.438 203.653 212.614 204.993 211.893 206.229ZM259.69 206.126C258.969 204.787 258.144 203.55 257.217 202.416L258.041 201.695C258.969 202.931 259.896 204.168 260.617 205.508L259.69 206.126ZM217.455 199.324L216.734 198.5C217.867 197.469 219.103 196.541 220.443 195.717L221.061 196.645C219.722 197.366 218.588 198.294 217.455 199.324ZM254.127 199.221C252.994 198.19 251.861 197.366 250.522 196.541L251.14 195.614C252.479 196.438 253.715 197.366 254.848 198.397L254.127 199.221ZM224.975 194.48L224.563 193.45C226.005 192.831 227.447 192.316 228.992 192.007L229.301 193.037C227.756 193.45 226.314 193.862 224.975 194.48ZM246.71 194.48C245.371 193.862 243.929 193.45 242.487 193.037L242.796 192.007C244.341 192.419 245.783 192.831 247.225 193.45L246.71 194.48ZM233.525 192.316L233.422 191.182C234.246 191.079 234.967 191.079 235.791 191.079C236.512 191.079 237.336 191.079 238.057 191.182L237.954 192.316C237.233 192.213 236.512 192.213 235.791 192.213C235.07 192.213 234.349 192.316 233.525 192.316Z" fill="#E3117F"/>
<path d="M191.703 213.032C190.157 212.825 188.612 212.413 187.17 211.795L187.582 210.764C188.921 211.383 190.363 211.795 191.806 212.001L191.703 213.032ZM196.441 213.032L196.338 211.898C197.78 211.692 199.222 211.28 200.561 210.661L200.974 211.692C199.531 212.413 197.986 212.825 196.441 213.032ZM183.153 209.218C181.917 208.188 180.886 207.054 180.062 205.714L180.989 205.096C181.814 206.332 182.741 207.466 183.874 208.394L183.153 209.218ZM204.888 209.218L204.167 208.394C205.3 207.466 206.227 206.332 207.051 205.096L207.978 205.714C207.154 207.054 206.124 208.188 204.888 209.218ZM178.002 201.489C177.59 199.943 177.281 198.397 177.281 196.851H178.414C178.414 198.294 178.62 199.736 179.032 201.179L178.002 201.489ZM210.038 201.385L209.008 201.076C209.42 199.633 209.626 198.19 209.626 196.748V196.645H210.76V196.748C210.657 198.397 210.451 199.943 210.038 201.385ZM179.135 192.419L178.105 192.11C178.517 190.564 179.238 189.121 180.062 187.884L180.989 188.503C180.165 189.739 179.547 191.079 179.135 192.419ZM208.905 192.419C208.493 190.976 207.875 189.636 207.051 188.503L207.978 187.884C208.905 189.224 209.523 190.667 210.038 192.11L208.905 192.419ZM183.874 185.205L183.153 184.38C184.389 183.349 185.728 182.525 187.17 181.907L187.582 182.937C186.243 183.452 185.007 184.277 183.874 185.205ZM204.167 185.101C203.034 184.174 201.798 183.349 200.458 182.731L200.871 181.7C202.313 182.319 203.652 183.143 204.888 184.174L204.167 185.101ZM191.806 181.597L191.6 180.464C193.145 180.258 194.793 180.258 196.338 180.464L196.235 181.597C194.69 181.391 193.248 181.391 191.806 181.597Z" fill="#E3117F"/>
<path d="M285.236 2.88576C272.772 3.19495 267.415 10.3063 267.827 22.1586C268.858 31.3312 277.51 35.3507 279.159 46.7907C283.279 49.6764 287.811 49.3673 292.859 45.657C293.889 34.7323 302.645 32.4649 304.19 21.0249C303.778 8.03892 295.022 2.67964 285.236 2.88576Z" fill="#E20E7F"/>
<path d="M292.859 45.76C287.399 48.5428 283.073 48.2336 279.159 46.8937C279.056 53.799 280.498 58.8491 285.854 58.746C290.902 57.6123 292.756 52.7683 292.859 45.76Z" fill="#652265"/>
<path opacity="0.34" d="M281.013 48.5428L280.086 21.231L280.189 21.0249C280.498 20.6126 280.91 20.2004 281.425 20.2004C281.734 20.2004 282.043 20.4065 282.352 20.8188C282.455 21.0249 282.661 21.1279 282.867 21.1279C283.073 21.1279 283.279 21.0249 283.485 20.9218C284.206 20.0973 285.03 20.0973 285.854 20.9218C286.266 21.3341 286.884 21.3341 287.296 20.9218C288.018 20.2004 288.43 20.3034 289.46 20.6126C289.769 20.7157 290.078 20.8188 290.49 20.8188H290.593L289.151 47.7182H288.739L290.181 21.1279C289.872 21.0249 289.563 20.9218 289.357 20.9218C288.327 20.6126 288.224 20.6126 287.605 21.1279C287.09 21.6433 286.163 21.6433 285.648 21.1279C284.824 20.3034 284.206 20.7157 283.794 21.1279C283.588 21.3341 283.279 21.4371 282.97 21.4371C282.661 21.4371 282.352 21.231 282.146 21.0249C281.94 20.7157 281.631 20.5096 281.425 20.5096C281.116 20.5096 280.704 20.8188 280.498 21.231L281.425 48.4397L281.013 48.5428Z" fill="#642265"/>
<path opacity="0.66" d="M298.834 8.9665C296.258 7.52361 299.658 18.4483 299.864 21.9525C299.555 30.6098 297.7 31.9496 295.434 35.3507C299.452 31.1251 302.542 26.3842 303.057 20.7157C303.16 16.7993 301.718 13.2952 299.761 9.89407C299.555 9.48181 299.143 9.17262 298.834 8.9665Z" fill="#FBEBEF"/>
<path d="M52.4324 156.038H3.91443V181.288H52.4324V156.038Z" fill="#FBEBEF"/>
<path d="M47.6939 160.469H10.0951V162.943H47.6939V160.469Z" fill="#1D1E1C"/>
<path d="M47.8999 164.077H10.301V165.932H47.8999V164.077Z" fill="#1D1E1C"/>
<path d="M47.4879 167.89H9.88904V168.817H47.4879V167.89Z" fill="#1D1E1C"/>
<path d="M47.4879 170.879H9.88904V171.909H47.4879V170.879Z" fill="#1D1E1C"/>
<path d="M47.4879 174.28H9.88904V175.31H47.4879V174.28Z" fill="#1D1E1C"/>
<path d="M529.474 207.26C528.135 208.394 527.517 210.455 526.899 213.547C526.384 216.845 527.208 219.009 530.195 219.525L529.783 225.502H534.934V217.669L538.23 212.825L529.474 207.26Z" fill="#FFEAB1"/>
<path d="M528.753 208.394C526.899 207.672 525.251 201.488 529.474 201.385C532.77 200.87 534.625 207.363 539.878 209.527C541.629 213.65 539.157 216.536 535.037 218.803L534.316 216.948C535.655 216.433 536.582 215.505 536.582 213.65C533.8 210.661 531.225 208.806 528.753 208.394Z" fill="#1D1D1B"/>
<path d="M541.732 301.872H545.853V306.613L540.599 306.304L541.732 301.872Z" fill="#FFEAB1"/>
<path d="M527.105 300.326H531.019V302.903L525.766 302.593L527.105 300.326Z" fill="#FFEAB1"/>
<path d="M536.582 255.494L551.415 254.36C552.033 265.697 548.119 282.496 545.853 303.315L541.423 302.593C542.556 288.165 542.144 274.56 543.277 265.903C540.702 275.797 535.14 288.165 531.74 301.151H526.59C529.371 293.524 532.152 272.911 536.582 255.494Z" fill="#1E1F1D"/>
<path d="M520.203 221.38L509.078 215.814C508.151 216.948 508.151 218.185 508.357 219.112L516.907 226.533L520.203 221.38Z" fill="#FFEAB1"/>
<path d="M512.477 235.809L502.073 227.976C500.425 230.965 498.571 230.449 495.79 228.388C494.966 229.728 494.553 230.862 496.923 232.511C498.88 233.129 499.807 232.82 500.734 232.511C501.867 232.511 503 232.923 503.824 233.747L511.447 241.065L512.477 235.809Z" fill="#FFEAB2"/>
<path d="M520.203 221.38C522.778 221.792 526.693 223.75 530.607 223.956C532.564 224.472 534.419 224.472 535.449 222.823C539.878 221.689 543.587 222.204 544.308 230.965C545.029 239.107 549.458 246.218 551.312 254.36L536.479 256.627C532.77 246.63 528.753 241.992 528.341 235.499C525.869 238.282 523.396 240.549 520.924 241.477C516.083 242.611 513.095 242.302 511.241 241.065L512.374 235.912C516.598 234.675 520.203 232.201 523.499 228.903C520.924 228.8 518.555 228.182 516.804 226.636L520.203 221.38Z" fill="url(#paint11_linear_1962_840)"/>
<path d="M531.328 301.872H525.354C524.633 304.139 521.645 303.315 520.203 304.861V305.891C520.203 306.304 520.615 306.716 521.027 306.716H530.195C530.813 306.716 531.328 306.201 531.328 305.582V301.872Z" fill="#1E1F1D"/>
<path d="M546.162 303.727H540.187C539.466 305.995 536.479 305.17 535.037 306.716V307.747C535.037 308.159 535.449 308.571 535.861 308.571H545.029C545.647 308.571 546.162 308.056 546.162 307.437V303.727Z" fill="#1E1F1D"/>
<path d="M487.343 217.772L491.154 215.505C491.154 215.196 491.154 214.887 491.154 214.578C491.154 214.268 491.257 213.959 491.36 213.65L488.167 210.455L492.699 204.271L496.614 206.642C496.717 206.539 496.923 206.539 497.026 206.436L497.85 206.126C497.953 206.023 498.159 206.023 498.262 206.023L499.292 201.592L506.812 202.622L506.915 207.157C507.224 207.363 507.43 207.466 507.739 207.672C507.945 207.878 508.254 208.085 508.46 208.291L512.786 207.054L515.774 214.268L511.962 216.536C511.962 216.845 511.962 217.154 511.962 217.463C511.962 217.772 511.859 218.082 511.756 218.391L514.95 221.586L510.417 227.77L506.503 225.399C506.4 225.502 506.194 225.502 506.091 225.605L505.267 225.914C505.164 226.018 504.958 226.018 504.855 226.018L503.824 230.449L496.305 229.419V224.884C495.996 224.678 495.79 224.575 495.481 224.369C495.172 224.162 494.966 223.956 494.76 223.75L490.433 224.987L487.343 217.772ZM490.845 219.009L491.978 221.586L495.481 220.658C495.893 221.277 496.408 221.792 497.026 222.204C497.644 222.616 498.262 223.029 498.88 223.338L498.983 227.151L501.661 227.563L502.588 223.853C502.897 223.853 503.309 223.75 503.618 223.647C503.927 223.544 504.339 223.441 504.649 223.338C504.958 223.235 505.267 223.029 505.576 222.823C505.885 222.616 506.194 222.41 506.4 222.204L509.696 224.162L511.344 221.998L508.666 219.318C508.975 218.597 509.181 217.979 509.181 217.257C509.284 216.536 509.284 215.814 509.181 215.093L512.374 213.238L511.241 210.661L507.739 211.589C507.327 210.97 506.812 210.455 506.194 210.043C505.576 209.63 504.958 209.218 504.34 208.909L504.236 205.096L501.558 204.683L500.734 208.394C500.322 208.394 500.013 208.497 499.704 208.6C499.395 208.703 498.983 208.806 498.674 209.012C498.365 209.115 498.056 209.321 497.747 209.527C497.438 209.734 497.129 209.94 496.923 210.146L493.626 208.188L491.978 210.352L494.657 213.032C494.347 213.753 494.141 214.371 494.141 215.093C494.038 215.814 494.038 216.536 494.141 217.257L490.845 219.009ZM497.129 217.979C497.644 219.215 498.571 220.143 499.807 220.658C501.043 221.174 502.279 221.174 503.515 220.658C504.752 220.143 505.576 219.215 506.091 217.979C506.606 216.742 506.606 215.505 505.988 214.165C505.473 212.929 504.546 212.001 503.309 211.486C502.073 210.97 500.837 210.97 499.601 211.486C498.365 212.001 497.541 212.929 497.026 214.165C496.511 215.402 496.511 216.639 497.129 217.979Z" fill="#A95F99"/>
<path d="M141.64 77.8127C141.125 77.5035 140.918 76.9882 140.815 76.3698C140.712 75.7514 140.815 75.2361 141.228 74.8239L148.747 64.4145C149.056 63.8992 149.571 63.693 150.189 63.59C150.807 63.4869 151.323 63.59 151.735 64.0022L165.538 73.9994C166.053 74.3086 166.259 74.8239 166.362 75.4422C166.465 76.0606 166.362 76.5759 165.95 76.9882L158.43 87.3976C158.121 87.9129 157.606 88.119 156.988 88.2221C156.37 88.3251 155.855 88.2221 155.443 87.8098L141.64 77.8127ZM152.868 76.7821L149.056 67.4033L142.773 76.0606L156.576 86.0578L162.86 77.4004L152.868 76.7821ZM154.104 75.03L164.096 75.7514L150.395 65.6512L154.104 75.03ZM149.159 67.4033L150.395 65.6512L142.876 76.0606L149.159 67.4033Z" fill="#E20E7F"/>
<path d="M158.224 100.487C157.297 100.487 156.37 100.177 155.546 99.6621L130.926 81.8322C128.866 80.3893 128.454 77.5035 129.896 75.5453L144.421 55.448C145.142 54.5204 146.172 53.799 147.408 53.5928C148.644 53.3867 149.777 53.6959 150.807 54.4174L175.427 72.2473C177.487 73.6902 177.899 76.5759 176.457 78.5341L161.933 98.6315C161.211 99.559 160.181 100.28 158.945 100.487C158.636 100.487 158.43 100.487 158.224 100.487ZM148.026 54.4174C147.82 54.4174 147.614 54.4174 147.408 54.4174C146.378 54.6235 145.554 55.1388 144.936 55.9633L130.411 76.0606C129.175 77.7096 129.587 80.0801 131.235 81.3168L155.855 99.1468C156.679 99.7651 157.709 99.9713 158.636 99.7652C159.666 99.559 160.49 99.0437 161.108 98.2192L175.633 78.1219C176.251 77.2974 176.457 76.2667 176.251 75.3392C176.045 74.3085 175.53 73.484 174.706 72.8657L150.086 55.0357C149.571 54.6235 148.85 54.4174 148.026 54.4174Z" fill="#E3117F"/>
<path d="M110.839 144.907V140.475H111.972V144.907H110.839ZM110.736 136.043V131.612H111.869V136.043H110.736ZM110.736 127.18V122.748H111.869V127.18H110.736ZM110.736 118.213V113.782H111.869V118.213H110.736ZM110.736 109.35V104.918H111.869V109.35H110.736ZM110.633 100.487V96.0549H111.766V100.487H110.633ZM110.633 91.5201V87.0884H111.766V91.5201H110.633ZM110.633 82.6567V78.2249H111.766V82.6567H110.633ZM110.53 73.6902V69.2584H111.663V73.6902H110.53ZM110.53 64.8267V60.395H111.663V64.8267H110.53ZM110.53 55.9633V51.5316H111.663V55.9633H110.53ZM110.53 46.9968V42.5651H111.663V46.9968H110.53ZM110.427 38.1334V33.7017H111.56V38.1334H110.427ZM262.265 34.6292H257.835V33.4955H262.265V34.6292ZM253.303 34.5262H248.873V33.3925H253.303V34.5262ZM244.444 34.5262H240.014V33.3925H244.444V34.5262ZM235.585 34.5262H231.156V33.3925H235.585V34.5262ZM226.623 34.5262H222.194V33.3925H226.623V34.5262ZM217.764 34.5262H213.335V33.3925H217.764V34.5262ZM208.905 34.4231H204.476V33.2894H208.905V34.4231ZM199.943 34.4231H195.514V33.2894H199.943V34.4231ZM191.084 34.4231H186.655V33.2894H191.084V34.4231ZM182.123 34.4231H177.693V33.2894H182.123V34.4231ZM173.264 34.4231H168.834V33.2894H173.264V34.4231ZM164.405 34.32H159.975V33.1863H164.405V34.32ZM155.443 34.32H151.013V33.1863H155.443V34.32ZM146.584 34.32H142.154V33.1863H146.584V34.32ZM137.725 34.32H133.296V33.1863H137.725V34.32ZM128.763 34.32H124.334V33.1863H128.763V34.32ZM119.904 34.217H115.475V33.0833H119.904V34.217Z" fill="#E3117F"/>
<path d="M110.736 148.926L109.294 146.968L110.221 146.35L110.839 147.174L112.178 145.628L113.003 146.35L110.736 148.926ZM106.719 143.464L104.041 139.857L104.968 139.238L107.646 142.846L106.719 143.464ZM116.093 143.155L115.269 142.433L117.535 139.96L118.359 140.681L116.093 143.155Z" fill="#E3117F"/>
<path d="M350.854 75.2361L352.605 25.9719C352.605 24.529 351.987 23.1892 350.751 22.4678C346.115 19.6851 337.875 19.8912 333.342 22.4678C332.003 23.1892 331.282 24.6321 331.282 26.075L333.033 76.3698L350.854 75.2361Z" fill="#652265"/>
<path d="M349 56.3756L350.339 29.0638C350.442 27.9301 349.721 26.7964 348.588 26.3842C344.982 24.9413 339.008 25.1474 335.505 26.4872C334.372 26.8995 333.754 28.0332 333.754 29.1669L335.093 56.2725L349 56.3756Z" fill="#A95F9A"/>
<path d="M348.588 60.395H335.608V63.3839H348.588V60.395Z" fill="#A95F9A"/>
<path d="M347.455 64.4145H336.741V67.4033H347.455V64.4145Z" fill="#A95F9A"/>
<path d="M370.529 76.2668L371.971 27.0026C371.971 25.5597 371.456 24.2198 370.426 23.4984C366.511 20.7157 359.713 20.9218 355.901 23.4984C354.768 24.2198 354.15 25.6627 354.15 27.1056L355.592 77.4004L370.529 76.2668Z" fill="#652265"/>
<path d="M368.984 57.5093L370.117 30.1975C370.117 29.0638 369.602 27.9301 368.675 27.5179C365.687 26.075 360.743 26.2811 357.859 27.6209C356.931 28.0332 356.416 29.1669 356.416 30.3006L357.55 57.4062L368.984 57.5093Z" fill="#A95F9A"/>
<path d="M368.675 61.4257H357.859V64.4145H368.675V61.4257Z" fill="#A95F9A"/>
<path d="M367.748 65.5482H358.786V68.537H367.748V65.5482Z" fill="#A95F9A"/>
<path d="M392.985 75.8545L394.736 22.9831C394.736 21.4371 394.118 19.9943 392.882 19.1698C388.247 16.0779 380.006 16.4901 375.473 19.1698C374.134 19.9943 373.413 21.4371 373.413 23.0862L375.164 77.0913L392.985 75.8545Z" fill="#652265"/>
<path d="M391.234 55.6541L392.573 26.2811C392.676 25.0444 391.955 23.9107 390.822 23.3953C387.217 21.8494 381.242 22.0555 377.74 23.4984C376.607 23.9107 375.989 25.1474 375.989 26.3842L377.328 55.5511L391.234 55.6541Z" fill="#A95F9A"/>
<path d="M390.822 59.8797H377.843V63.0747H390.822V59.8797Z" fill="#A95F9A"/>
<path d="M389.586 64.3114H378.873V67.5064H389.586V64.3114Z" fill="#A95F9A"/>
<path d="M414.102 75.5453L415.751 26.2811C415.751 24.8382 415.132 23.4984 414.102 22.777C409.879 19.9943 402.462 20.2004 398.342 22.777C397.209 23.4984 396.488 24.9413 396.488 26.3842L398.136 76.679L414.102 75.5453Z" fill="#652265"/>
<path d="M412.454 56.7878L413.69 29.4761C413.793 28.3424 413.175 27.2087 412.145 26.7964C408.952 25.3535 403.492 25.5597 400.402 26.8995C399.372 27.3117 398.754 28.4454 398.857 29.5791L400.093 56.6848L412.454 56.7878Z" fill="#A95F9A"/>
<path d="M412.145 60.7042H400.402V63.6931H412.145V60.7042Z" fill="#A95F9A"/>
<path d="M411.012 64.8268H401.329V67.8156H411.012V64.8268Z" fill="#A95F9A"/>
<path d="M427.597 82.9659H319.745C317.478 82.9659 315.624 81.1107 315.624 78.8433C315.624 76.5759 317.478 74.7208 319.745 74.7208H427.597C429.863 74.7208 431.717 76.5759 431.717 78.8433C431.614 81.2138 429.863 82.9659 427.597 82.9659Z" fill="#1D1D1B"/>
</g>
<defs>
<linearGradient id="paint0_linear_1962_840" x1="140.722" y1="262.669" x2="402.954" y2="221.674" gradientUnits="userSpaceOnUse">
<stop offset="1.33195e-07" stop-color="#1E1E1C" stop-opacity="0.8"/>
<stop offset="1" stop-color="#E20E7F" stop-opacity="0.8"/>
</linearGradient>
<linearGradient id="paint1_linear_1962_840" x1="194.036" y1="141.041" x2="298.57" y2="141.041" gradientUnits="userSpaceOnUse">
<stop stop-color="#402051"/>
<stop offset="1" stop-color="#1E1E1C"/>
</linearGradient>
<linearGradient id="paint2_linear_1962_840" x1="268.813" y1="150.775" x2="393.891" y2="150.775" gradientUnits="userSpaceOnUse">
<stop stop-color="#642366"/>
<stop offset="0.529" stop-color="#EDC3DC"/>
<stop offset="0.5865" stop-color="#E7BCD7"/>
<stop offset="0.6676" stop-color="#D8AAC9"/>
<stop offset="0.763" stop-color="#BE8CB3"/>
<stop offset="0.8691" stop-color="#996194"/>
<stop offset="0.9828" stop-color="#6C2C6C"/>
<stop offset="1" stop-color="#642366"/>
</linearGradient>
<linearGradient id="paint3_linear_1962_840" x1="349.088" y1="242.044" x2="324.062" y2="242.044" gradientUnits="userSpaceOnUse">
<stop stop-color="#ECC3DC"/>
<stop offset="0.5" stop-color="white"/>
<stop offset="1" stop-color="#ECC3DC"/>
</linearGradient>
<linearGradient id="paint4_linear_1962_840" x1="372.707" y1="216.443" x2="359.864" y2="216.443" gradientUnits="userSpaceOnUse">
<stop stop-color="#737270"/>
<stop offset="0.1" stop-color="#5D5D5C"/>
<stop offset="0.2" stop-color="#4A4A48"/>
<stop offset="0.3" stop-color="#3B3B3A"/>
<stop offset="0.4" stop-color="#30302F"/>
<stop offset="0.5" stop-color="#292827"/>
<stop offset="0.7" stop-color="#232321"/>
<stop offset="1" stop-color="#222220"/>
</linearGradient>
<linearGradient id="paint5_linear_1962_840" x1="386.352" y1="252.842" x2="359.697" y2="252.842" gradientUnits="userSpaceOnUse">
<stop stop-color="#1E1E1C"/>
<stop offset="0.1" stop-color="#333331"/>
<stop offset="0.3" stop-color="#565553"/>
<stop offset="0.4" stop-color="#6B6B69"/>
<stop offset="0.5" stop-color="#737270"/>
<stop offset="1" stop-color="#1F201E"/>
</linearGradient>
<linearGradient id="paint6_linear_1962_840" x1="128.027" y1="235.928" x2="165.523" y2="235.928" gradientUnits="userSpaceOnUse">
<stop stop-color="#1D1E1C"/>
<stop offset="1" stop-color="#717270"/>
</linearGradient>
<linearGradient id="paint7_linear_1962_840" x1="2.75982" y1="275.654" x2="35.9414" y2="275.654" gradientUnits="userSpaceOnUse">
<stop stop-color="#402051"/>
<stop offset="1" stop-color="#1E1E1C"/>
</linearGradient>
<linearGradient id="paint8_linear_1962_840" x1="12.7685" y1="238.529" x2="48.7254" y2="238.529" gradientUnits="userSpaceOnUse">
<stop stop-color="#402051"/>
<stop offset="1" stop-color="#1E1E1C"/>
</linearGradient>
<linearGradient id="paint9_linear_1962_840" x1="105.368" y1="236.548" x2="64.6012" y2="220.638" gradientUnits="userSpaceOnUse">
<stop stop-color="#DEF0F8"/>
<stop offset="0.282" stop-color="#D1EAF6"/>
<stop offset="0.823" stop-color="#AEDDF0"/>
<stop offset="1" stop-color="#A3D9EF"/>
</linearGradient>
<linearGradient id="paint10_linear_1962_840" x1="107.573" y1="230.914" x2="75.2403" y2="218.296" gradientUnits="userSpaceOnUse">
<stop stop-color="#DDF0F8"/>
<stop offset="0.723" stop-color="#EBF6FB"/>
<stop offset="1" stop-color="#F0F8FC"/>
</linearGradient>
<linearGradient id="paint11_linear_1962_840" x1="522.004" y1="251.66" x2="545.923" y2="227.752" gradientUnits="userSpaceOnUse">
<stop stop-color="#402051"/>
<stop offset="1" stop-color="#1E1E1C"/>
</linearGradient>
<clipPath id="clip0_1962_840">
<rect width="568" height="323" fill="white"/>
</clipPath>
</defs>
</svg>
