<svg width="394" height="302" viewBox="0 0 394 302" fill="none" xmlns="http://www.w3.org/2000/svg">
<g clipPath="url(#clip0_1950_665)">
<path d="M242.374 228.074L258.737 226.357L305.325 289.047L287.89 289.619L242.374 228.074Z" fill="#1D1D1B"/>
<path d="M32.2974 232.082L47.7316 232.869L75.0987 303.145L59.0214 302L32.2974 232.082Z" fill="#2D2D2B"/>
<path d="M185.424 241.314L168.99 239.596L122.401 302.286L139.836 302.859L185.424 241.314Z" fill="#2D2D2B"/>
<path d="M2.14362 218.485L225.439 188.356L360.631 200.164L195.857 232.082L2.14362 218.485Z" fill="#3C3B3D"/>
<path d="M2.42943 230.651L2.14362 218.485L195.857 232.082V243.89L2.42943 230.651Z" fill="#1D1D1B"/>
<path d="M360.631 200.164L360.917 209.754L195.857 243.89V232.082L360.631 200.164Z" fill="#2D2D2B"/>
<path d="M154.413 1.86035L82.6014 8.94518C79.1001 9.303 76.885 12.8812 78.1712 16.2447L110.397 107.632C111.255 109.922 113.613 111.282 116.042 110.995L188.068 101.978C191.569 101.549 193.713 97.8992 192.355 94.6073L159.915 5.15229C158.986 3.00537 156.771 1.64566 154.413 1.86035Z" fill="#F095BC"/>
<path d="M161.201 8.51611L79.0286 17.9626C76.5277 12.9531 78.3855 9.30332 82.6013 8.9455L154.413 1.86066C156.771 1.64597 158.629 2.5763 159.844 5.15261L161.201 8.51611Z" fill="#E20E7F"/>
<g opacity="0.67">
<path d="M88.0319 24.1886L94.5343 23.3298L96.4636 29.8422L90.0326 30.7009L88.0319 24.1886Z" fill="#E20E7F"/>
<path d="M99.3217 22.7573L156.771 16.3166L158.986 22.2564L101.251 28.9834L99.3217 22.7573Z" fill="#E20E7F"/>
<path d="M93.391 39.0024L99.8219 38.1436L101.823 44.6559L95.3203 45.5147L93.391 39.0024Z" fill="#E20E7F"/>
<path d="M104.038 37.5711L161.201 30.5578L163.488 36.6407L106.038 43.7971" fill="#E20E7F"/>
<path d="M98.7501 53.3867L105.181 52.528L107.182 59.0403L100.679 59.899L98.7501 53.3867Z" fill="#E20E7F"/>
<path d="M109.397 51.9555L166.56 44.9422L168.847 51.3114L111.398 58.1815" fill="#E20E7F"/>
<path d="M103.752 69.2024L110.254 68.3436L112.255 74.8559L105.753 75.6432L103.752 69.2024Z" fill="#E20E7F"/>
<path d="M114.47 67.7711L171.919 59.899L174.206 66.4829L116.471 73.9972" fill="#E20E7F"/>
</g>
<path d="M262.024 93.2482L214.006 98.1861C211.648 98.4008 210.148 100.977 211.005 103.267L223.867 137.546C224.438 139.121 226.01 140.123 227.654 139.908L275.814 133.61C278.172 133.324 279.601 130.748 278.672 128.529L265.668 95.6098C265.096 94.0354 263.596 93.1051 262.024 93.2482Z" fill="#F095BC"/>
<path d="M266.525 97.8996L211.577 104.483C209.933 100.977 211.148 98.4721 214.006 98.1858L262.024 93.2479C263.596 93.1048 264.882 93.7488 265.668 95.5379L266.525 97.8996Z" fill="#E20E7F"/>
<path d="M233.871 40.5052L186.782 45.5863C184.495 45.801 182.995 48.4488 183.852 50.8104L196.5 86.163C197.071 87.809 198.572 88.8109 200.215 88.5962L247.447 82.0839C249.733 81.7976 251.163 79.1498 250.234 76.7882L237.443 42.8668C236.872 41.2924 235.443 40.3621 233.871 40.5052Z" fill="#FBEBEF"/>
<path d="M238.301 45.3L184.424 52.0986C182.781 48.5204 183.995 45.9441 186.782 45.6579L233.87 40.5768C235.442 40.4337 236.657 41.0778 237.443 42.9384L238.301 45.3Z" fill="#F095BC"/>
<path d="M274.242 95.8242V94.9654C275.386 94.9654 276.457 94.8939 277.529 94.6792L277.672 95.5379C276.529 95.7526 275.386 95.8242 274.242 95.8242ZM270.812 95.5379C269.669 95.3232 268.526 95.037 267.454 94.6792L267.74 93.892C268.812 94.2498 269.884 94.536 270.955 94.7507L270.812 95.5379ZM281.03 94.6792L280.745 93.892C281.816 93.5341 282.817 93.0332 283.746 92.5322L284.174 93.2479C283.174 93.8204 282.102 94.2498 281.03 94.6792ZM264.239 93.2479C263.238 92.6754 262.238 92.0313 261.38 91.3157L261.881 90.6716C262.738 91.3872 263.667 92.0313 264.596 92.5322L264.239 93.2479ZM287.033 91.2441L286.532 90.6C287.39 89.8844 288.176 89.0972 288.89 88.31L289.534 88.8825C288.748 89.7412 287.962 90.5284 287.033 91.2441ZM258.951 88.8825C258.165 88.0237 257.522 87.0934 256.95 86.0915L257.665 85.6621C258.236 86.5924 258.88 87.5228 259.594 88.3815L258.951 88.8825ZM291.534 86.0199L290.82 85.5905C291.391 84.6602 291.892 83.6583 292.249 82.5848L293.035 82.8711C292.606 84.0161 292.106 85.018 291.534 86.0199ZM255.378 82.9427C254.95 81.8692 254.664 80.7242 254.449 79.5792L255.307 79.436C255.521 80.5095 255.807 81.583 256.164 82.6564L255.378 82.9427ZM293.964 79.5792L293.106 79.436C293.321 78.3626 293.392 77.2175 293.392 76.1441V76.0725H294.25V76.1441C294.25 77.2891 294.178 78.4341 293.964 79.5792ZM254.164 76.1441C254.164 74.9991 254.235 73.7825 254.449 72.709L255.307 72.8521C255.092 73.9256 255.021 75.0706 255.021 76.1441H254.164ZM293.106 72.7806C292.892 71.7071 292.606 70.6337 292.249 69.5602L293.035 69.2739C293.464 70.3474 293.749 71.4924 293.964 72.6375L293.106 72.7806ZM256.164 69.6318L255.378 69.3455C255.807 68.272 256.307 67.1986 256.879 66.1967L257.593 66.6261C257.022 67.5564 256.593 68.5583 256.164 69.6318ZM290.82 66.5545C290.248 65.6242 289.605 64.6938 288.89 63.8351L289.534 63.2626C290.32 64.1213 290.963 65.0517 291.534 66.0536L290.82 66.5545ZM259.523 63.9066L258.88 63.3341C259.666 62.4754 260.452 61.6166 261.38 60.901L261.881 61.545C261.095 62.2607 260.237 63.0479 259.523 63.9066ZM286.461 61.545C285.604 60.8294 284.675 60.1853 283.746 59.6844L284.174 58.9687C285.175 59.5412 286.175 60.1853 287.033 60.901L286.461 61.545ZM264.667 59.6844L264.239 58.9687C265.239 58.3962 266.311 57.8953 267.383 57.5375L267.668 58.3247C266.597 58.6825 265.596 59.1834 264.667 59.6844ZM280.745 58.3247C279.673 57.9668 278.601 57.6806 277.529 57.4659L277.672 56.6071C278.815 56.8218 279.959 57.1081 281.03 57.4659L280.745 58.3247ZM270.884 57.4659L270.741 56.6071C271.884 56.3924 273.028 56.3209 274.171 56.3209V57.1796C273.099 57.1796 271.956 57.3228 270.884 57.4659Z" fill="#E3117F"/>
<path d="M29.4392 152.073C28.2245 152.073 27.0098 151.573 26.1523 150.714L26.724 150.141C27.4385 150.857 28.4389 151.215 29.4392 151.286V152.073ZM32.7976 151.716L32.7261 150.857L36.0131 150.499L36.0845 151.358L32.7976 151.716ZM39.4429 151L39.3714 150.141L42.6583 149.783L42.7298 150.642L39.4429 151ZM46.0881 150.213L46.0167 149.354L49.3036 148.996L49.375 149.855L46.0881 150.213ZM52.7334 149.426L52.6619 148.567L55.9489 148.209L56.0203 149.068L52.7334 149.426ZM59.3787 148.638L59.3072 147.78L62.5941 147.422L62.6656 148.281L59.3787 148.638ZM65.9525 147.851L65.881 146.992L69.1679 146.635L69.3108 147.422L65.9525 147.851ZM24.4374 147.708L23.1512 144.631L23.9372 144.273L25.2234 147.35L24.4374 147.708ZM72.5977 147.064L72.5263 146.205L75.8132 145.847L75.8847 146.706L72.5977 147.064ZM79.243 146.277L79.1716 145.418L82.4585 145.06L82.5299 145.919L79.243 146.277ZM85.8883 145.49L85.8168 144.631L87.6032 144.416C88.0319 144.345 88.5321 144.201 88.8894 144.058L89.2466 144.846C88.7465 145.06 88.2463 145.275 87.6746 145.275L85.8883 145.49ZM91.6761 142.126L90.8901 141.911C90.9615 141.625 91.033 141.267 91.033 140.909C91.033 140.48 90.9615 139.979 90.7472 139.55L90.4614 138.977L91.2474 138.619L91.5332 139.192C91.7476 139.764 91.8905 140.337 91.8905 140.909C91.819 141.267 91.7476 141.697 91.6761 142.126ZM21.8651 141.482L20.5789 138.405L21.3649 138.047L22.6511 141.124L21.8651 141.482ZM89.1037 135.9L87.7461 132.823L88.5321 132.465L89.8897 135.542L89.1037 135.9ZM19.2927 135.328L18.0065 132.25L18.7925 131.892L20.0787 134.97L19.2927 135.328ZM86.3885 129.746L85.0308 126.668L85.8168 126.31L87.1745 129.388L86.3885 129.746ZM16.7203 129.173L15.4342 126.096L16.2202 125.738L17.5063 128.815L16.7203 129.173ZM83.7446 123.591L82.387 120.514L83.173 120.156L84.5306 123.233L83.7446 123.591ZM14.148 122.947L12.8618 119.87L13.6478 119.512L14.934 122.589L14.148 122.947ZM81.0294 117.508L79.6717 114.431L80.4577 114.073L81.8154 117.15L81.0294 117.508ZM11.5756 116.792L10.2894 113.715L11.0754 113.357L12.3616 116.435L11.5756 116.792ZM78.3141 111.354L76.9565 108.276L77.7425 107.919L79.1001 110.996L78.3141 111.354ZM10.218 110.423L9.36053 110.352C9.43199 109.135 10.0751 107.99 11.1469 107.203L11.6471 107.847C10.8611 108.491 10.2894 109.421 10.218 110.423ZM14.5767 106.988L14.5053 106.129L17.8636 105.843L17.9351 106.702L14.5767 106.988ZM21.222 106.416L21.1505 105.557L24.5089 105.271L24.5803 106.129L21.222 106.416ZM27.9387 105.772L27.8672 104.913L31.2256 104.627L31.2971 105.485L27.9387 105.772ZM75.6703 105.199L75.0987 103.982C74.8843 103.41 74.4556 102.981 74.0268 102.623L74.527 101.979C75.0987 102.408 75.5988 103.052 75.8847 103.696L76.4563 104.913L75.6703 105.199ZM34.584 105.199L34.5125 104.34L37.8709 104.054L37.9423 104.913L34.584 105.199ZM41.2292 104.555L41.1578 103.696L44.5161 103.41L44.5876 104.269L41.2292 104.555ZM47.8745 103.911L47.803 103.052L51.1614 102.766L51.2329 103.625L47.8745 103.911ZM54.5198 103.338L54.4483 102.48L57.8067 102.193L57.8781 103.052L54.5198 103.338ZM61.165 102.694L61.0936 101.836L64.4519 101.549L64.5234 102.408L61.165 102.694ZM67.8103 102.122L67.7388 101.263L71.0972 100.977L71.1687 101.406V101.836L67.8103 102.122Z" fill="#F096BD"/>
<path d="M101.751 67.8427L30.511 74.4981C27.0098 74.8559 24.7947 78.2194 26.0809 81.2967L45.2307 127.599C46.0881 129.746 48.4461 131.034 50.8041 130.747L122.259 122.231C125.76 121.802 127.832 118.367 126.474 115.361L107.182 70.9915C106.253 68.9161 104.038 67.628 101.751 67.8427Z" fill="#FBEBEF"/>
<path d="M108.468 74.1403L26.9383 83.0142C24.5089 78.291 26.2953 74.9275 30.5111 74.5697L101.751 67.9142C104.109 67.6995 105.967 68.5583 107.182 70.9915L108.468 74.1403Z" fill="#F095BC"/>
<path d="M55.663 100.905C51.1614 78.3626 86.6743 74.9275 93.1052 93.0332C99.6076 88.8109 111.112 91.3156 107.182 106.273L51.733 111.926C44.6591 104.269 49.6609 100.619 55.663 100.905Z" fill="white"/>
<path d="M33.0834 197.016C31.9401 196.873 30.7969 196.658 29.725 196.3L30.0109 195.513C31.0112 195.871 32.1545 196.085 33.2263 196.228L33.0834 197.016ZM36.5847 197.016L36.5132 196.157C37.585 196.014 38.6569 195.799 39.7287 195.441L40.0145 196.228C38.8712 196.586 37.728 196.873 36.5847 197.016ZM26.5811 194.797C25.5807 194.225 24.6518 193.509 23.7943 192.722L24.366 192.078C25.152 192.793 26.0809 193.509 27.0098 194.082L26.5811 194.797ZM43.087 194.797L42.6583 194.082C43.5872 193.509 44.4447 192.865 45.3021 192.078L45.8738 192.722C44.9449 193.509 44.0874 194.153 43.087 194.797ZM21.5792 190.074C20.9361 189.144 20.3645 188.142 19.8643 187.068L20.6503 186.71C21.0791 187.712 21.6507 188.714 22.2223 189.573L21.5792 190.074ZM48.0889 190.074L47.3743 189.573C48.0174 188.643 48.5176 187.712 48.9463 186.71L49.7323 187.068C49.3036 188.142 48.7319 189.144 48.0889 190.074ZM18.7925 183.776C18.5782 182.631 18.4352 181.486 18.4352 180.341H19.2927C19.2927 181.415 19.4356 182.56 19.65 183.633L18.7925 183.776ZM50.8041 183.776L49.9467 183.633C50.161 182.56 50.3039 181.486 50.3039 180.341V180.27H51.1614V180.341C51.1614 181.486 51.0185 182.631 50.8041 183.776ZM19.65 177.049L18.7925 176.906C19.0069 175.761 19.3642 174.688 19.7929 173.614L20.5789 173.972C20.2216 174.902 19.8643 175.976 19.65 177.049ZM49.9467 176.978C49.7323 175.904 49.375 174.831 48.9463 173.829L49.7323 173.471C50.161 174.545 50.5183 175.618 50.8041 176.763L49.9467 176.978ZM22.2223 171.038L21.5078 170.537C22.1509 169.607 22.9369 168.676 23.7943 167.889L24.366 168.533C23.58 169.32 22.8654 170.108 22.2223 171.038ZM47.3743 170.966C46.7312 170.036 46.0167 169.249 45.2307 168.462L45.8023 167.818C46.6598 168.605 47.3743 169.464 48.0889 170.394L47.3743 170.966ZM26.9383 166.601L26.5096 165.885C27.51 165.313 28.5818 164.812 29.6536 164.454L29.9394 165.241C28.8676 165.527 27.8672 166.028 26.9383 166.601ZM42.5869 166.529C41.6579 165.957 40.6576 165.527 39.5858 165.17L39.8716 164.382C40.9434 164.74 42.0152 165.241 43.0156 165.814L42.5869 166.529ZM33.1549 164.454L33.0834 163.595C34.2267 163.452 35.37 163.452 36.5132 163.595L36.4418 164.454C35.2985 164.311 34.2267 164.311 33.1549 164.454Z" fill="#E3117F"/>
<path d="M38.0852 188.857L37.7994 186.782L40.1574 186.424C40.3718 186.424 40.5861 186.281 40.6576 186.066C40.729 185.852 40.8005 185.565 40.8005 185.279L40.5147 183.204C40.4432 182.56 40.4432 181.916 40.6576 181.343C40.872 180.771 41.1578 180.341 41.6579 179.983L41.5865 179.626C41.0863 179.482 40.6576 179.125 40.3003 178.624C39.943 178.123 39.6572 177.55 39.5858 176.906L39.3 174.831C39.2285 174.545 39.157 174.33 38.9427 174.115C38.7283 173.972 38.5854 173.9 38.2996 173.9L35.9416 174.258L35.6558 172.183L38.0138 171.825C38.6569 171.754 39.3 171.968 39.8001 172.469C40.3718 173.042 40.729 173.686 40.8005 174.616L41.0863 176.691C41.1578 176.978 41.2292 177.192 41.4436 177.407C41.658 177.622 41.8009 177.622 42.0867 177.622L42.8727 177.479L43.5158 181.629L42.7298 181.773C42.5154 181.773 42.301 181.916 42.2296 182.13C42.0867 182.345 42.0867 182.631 42.0867 182.918L42.3725 184.993C42.5154 185.852 42.3725 186.639 42.0152 187.354C41.6579 188.07 41.1578 188.428 40.4432 188.5L38.0852 188.857ZM32.5832 189.716C31.9401 189.788 31.297 189.573 30.7969 189.072C30.2252 188.5 29.868 187.855 29.7965 186.925L29.5107 184.85C29.4392 184.564 29.3678 184.349 29.1534 184.134C28.9391 183.991 28.7961 183.919 28.5103 183.919L27.7243 184.063L27.0812 179.912L27.8672 179.769C28.0816 179.769 28.296 179.626 28.3674 179.411C28.5103 179.196 28.5103 178.91 28.5103 178.624L28.2245 176.548C28.0816 175.69 28.2245 174.902 28.5818 174.187C28.9391 173.471 29.4392 173.113 30.1538 173.042L32.5118 172.684L32.7976 174.759L30.4396 175.117C30.2252 175.117 30.0109 175.26 29.9394 175.475C29.7965 175.69 29.7965 175.976 29.7965 176.262L30.0823 178.337C30.1538 178.982 30.1538 179.626 29.9394 180.198C29.7251 180.771 29.4392 181.2 28.9391 181.558L29.0105 181.916C29.5107 182.059 29.9394 182.417 30.2967 182.918C30.654 183.418 30.9398 183.991 31.0112 184.635L31.2971 186.71C31.3685 186.997 31.44 187.211 31.6543 187.426C31.8687 187.569 32.0116 187.641 32.2974 187.641L34.6554 187.283L34.9412 189.358L32.5832 189.716Z" fill="#E00680"/>
<path d="M47.0171 66.8408C45.8738 66.6977 44.7305 66.483 43.5872 66.1251L43.8731 65.3379C44.9449 65.6958 46.0167 65.9104 47.16 65.982L47.0171 66.8408ZM50.5183 66.8408L50.4469 65.982C51.5187 65.8389 52.662 65.6242 53.7338 65.3379L54.0196 66.1251C52.8049 66.483 51.6616 66.6977 50.5183 66.8408ZM40.3718 64.7654C39.3714 64.1929 38.3711 63.4773 37.5136 62.7616L38.0853 62.1176C38.9427 62.8332 39.8002 63.4773 40.8005 64.0498L40.3718 64.7654ZM57.1636 64.7654L56.7349 64.0498C57.7352 63.4773 58.5927 62.8332 59.4501 62.1176L60.0218 62.7616C59.0929 63.4773 58.164 64.1213 57.1636 64.7654ZM35.1556 60.1853C34.4411 59.255 33.8694 58.2531 33.3693 57.1796L34.1553 56.8218C34.584 57.8237 35.1556 58.754 35.8702 59.6844L35.1556 60.1853ZM62.3798 60.1138L61.7367 59.6128C62.3798 58.754 62.9514 57.7522 63.4516 56.7503L64.2376 57.1081C63.666 58.1815 63.0943 59.1834 62.3798 60.1138ZM32.226 53.8161C32.0116 52.6711 31.8687 51.5261 31.8687 50.3095H32.7262C32.7262 51.4545 32.8691 52.528 33.0834 53.6014L32.226 53.8161ZM65.238 53.7446L64.3805 53.5299C64.5949 52.4564 64.7378 51.3114 64.7378 50.2379V50.1664H65.5952V50.2379C65.6667 51.4545 65.5238 52.6711 65.238 53.7446ZM33.012 47.0175L32.1545 46.8744C32.3689 45.7294 32.7976 44.5844 33.2263 43.5109L34.0123 43.8687C33.6551 44.8706 33.2978 45.9441 33.012 47.0175ZM64.452 46.946C64.2376 45.8725 63.8803 44.7991 63.3801 43.7972L64.1661 43.4394C64.6663 44.5128 65.0236 45.6578 65.3094 46.7313L64.452 46.946ZM35.7987 41.0062L35.1556 40.5052C35.8702 39.5749 36.6562 38.7161 37.5136 37.9289L38.0853 38.573C37.2278 39.2886 36.4418 40.0758 35.7987 41.0062ZM61.6652 40.9346C61.0221 40.0758 60.2361 39.2171 59.3787 38.5014L59.9503 37.8574C60.8078 38.6446 61.6652 39.5033 62.3083 40.4337L61.6652 40.9346ZM40.7291 36.5692L40.3003 35.8536C41.3007 35.2811 42.3725 34.7801 43.5158 34.4223L43.8016 35.2095C42.7298 35.6389 41.7294 36.0683 40.7291 36.5692ZM56.6634 36.5692C55.6631 35.9967 54.6627 35.5673 53.5909 35.2811L53.8767 34.4939C55.02 34.8517 56.0918 35.2811 57.0921 35.8536L56.6634 36.5692ZM47.0171 34.5654L46.9456 33.7067C48.0889 33.5635 49.3036 33.5635 50.4469 33.7067L50.3754 34.5654C49.2322 34.4939 48.1603 34.4939 47.0171 34.5654Z" fill="#E3117F"/>
<path d="M55.3058 53.0289L54.8771 52.3133L60.1647 49.5938L54.5912 46.3019L55.02 45.5862L61.8796 49.5938L55.3058 53.0289Z" fill="#E00F80"/>
<path d="M51.2878 41.2704L46.4994 55.6637L47.3129 55.9352L52.1012 41.5419L51.2878 41.2704Z" fill="#E00F80"/>
<path d="M43.8016 54.0308L37.2278 51.2398L42.5869 46.8744L43.0871 47.5185L38.8712 51.0251L44.1589 53.3151L43.8016 54.0308Z" fill="#E00F80"/>
<path d="M219.794 38.5014C218.651 38.3583 217.507 38.1436 216.364 37.7858L216.65 36.9986C217.722 37.3564 218.794 37.5711 219.937 37.6427L219.794 38.5014ZM223.295 38.5014L223.224 37.6427C224.296 37.4995 225.439 37.2848 226.511 36.9986L226.797 37.7858C225.582 38.1436 224.439 38.3583 223.295 38.5014ZM213.149 36.4261C212.148 35.8536 211.148 35.1379 210.291 34.4223L210.862 33.7782C211.72 34.4938 212.577 35.1379 213.577 35.7104L213.149 36.4261ZM229.941 36.3545L229.512 35.6389C230.512 35.0663 231.37 34.4223 232.227 33.7066L232.799 34.3507C231.87 35.1379 230.941 35.782 229.941 36.3545ZM207.861 31.7744C207.147 30.8441 206.575 29.8422 206.075 28.7687L206.861 28.4109C207.289 29.4128 207.861 30.3431 208.576 31.2735L207.861 31.7744ZM235.157 31.7744L234.514 31.2735C235.157 30.4147 235.728 29.4128 236.229 28.4109L237.015 28.7687C236.443 29.8422 235.871 30.8441 235.157 31.7744ZM205.003 25.4768C204.789 24.3317 204.646 23.1867 204.646 21.9701H205.503C205.503 23.1152 205.646 24.1886 205.86 25.2621L205.003 25.4768ZM238.015 25.4052L237.157 25.1905C237.372 24.1171 237.515 22.972 237.515 21.8986V21.827H238.372V21.8986C238.372 23.1152 238.301 24.2602 238.015 25.4052ZM205.789 18.6782L204.931 18.5351C205.146 17.39 205.575 16.245 206.003 15.1716L206.789 15.5294C206.361 16.5313 206.003 17.6047 205.789 18.6782ZM237.157 18.6066C236.943 17.5332 236.586 16.4597 236.086 15.4578L236.872 15.1C237.372 16.1735 237.729 17.3185 238.015 18.3919L237.157 18.6066ZM208.504 12.6668L207.861 12.1659C208.576 11.2355 209.362 10.3768 210.219 9.58957L210.791 10.2336C209.933 10.9493 209.219 11.7365 208.504 12.6668ZM234.442 12.5953C233.799 11.7365 233.013 10.8777 232.156 10.1621L232.727 9.51801C233.585 10.3052 234.442 11.164 235.085 12.0943L234.442 12.5953ZM213.506 8.22985L213.077 7.51421C214.078 6.9417 215.149 6.44075 216.293 6.08293L216.579 6.87014C215.507 7.22796 214.435 7.72891 213.506 8.22985ZM229.44 8.22985C228.44 7.65734 227.44 7.22796 226.368 6.9417L226.654 6.1545C227.797 6.51232 228.869 6.9417 229.869 7.51421L229.44 8.22985ZM219.794 6.22606L219.723 5.36729C220.866 5.22417 222.081 5.22417 223.224 5.36729L223.152 6.22606C222.009 6.1545 220.866 6.1545 219.794 6.22606Z" fill="#E3117F"/>
<path d="M228.154 24.9759L227.797 24.1887L232.441 21.7555L227.511 18.8214L227.94 18.1057L234.228 21.827L228.154 24.9759Z" fill="#E00F80"/>
<path d="M224.495 14.2338L220.159 27.2692L220.972 27.5406L225.309 14.5052L224.495 14.2338Z" fill="#E00F80"/>
<path d="M217.722 25.9062L211.72 23.3299L216.579 19.2507L217.079 19.8948L213.292 23.0436L218.008 25.119L217.722 25.9062Z" fill="#E00F80"/>
<path d="M135.049 186.066L138.979 199.306C126.76 199.449 121.901 202.025 121.83 206.39C122.973 209.682 135.906 210.04 155.914 208.681C175.421 207.679 179.994 204.601 178.136 199.95C176.35 198.018 168.204 197.23 155.056 197.66L149.126 182.703L135.049 186.066Z" fill="url(#paint0_linear_1950_665)"/>
<path d="M67.0957 97.1123L178.993 87.2365C180.923 87.0934 182.781 88.1668 183.567 89.9559L216.864 168.676C218.008 171.396 216.293 174.473 213.363 174.974L100.036 191.863C97.8926 192.149 95.8919 190.933 95.1059 188.929L63.2372 103.267C62.1654 100.476 64.0947 97.3986 67.0957 97.1123Z" fill="url(#paint1_linear_1950_665)"/>
<path d="M70.3112 100.046L181.28 92.4607C180.494 90.6716 183.209 92.3176 181.28 92.4607L211.434 170.036C212.577 172.755 214.363 169.607 211.434 170.036L102.752 185.565C100.608 185.852 103.466 187.569 102.752 185.565L70.597 101.478C69.5252 98.6868 67.3101 100.333 70.3112 100.046Z" fill="url(#paint2_linear_1950_665)"/>
<path d="M135.335 212.044L212.791 197.66L250.805 204.959L187.425 219.916L135.335 212.044Z" fill="url(#paint3_linear_1950_665)"/>
<path d="M135.621 213.976L135.335 212.044L187.425 219.916L250.805 204.959V206.391L187.711 221.634L135.621 213.976Z" fill="#642265"/>
<path d="M103.609 147.779L52.8049 153.934C50.304 154.22 48.732 157.369 49.6609 160.232L63.3087 203.098C63.9518 205.102 65.5952 206.247 67.3101 206.033L118.257 198.161C120.758 197.803 122.259 194.582 121.258 191.791L107.468 150.57C106.824 148.71 105.252 147.565 103.609 147.779Z" fill="#F095BC"/>
<path d="M108.396 153.576L50.2325 161.806C48.5176 157.441 49.8038 154.292 52.8049 153.934L103.609 147.78C105.252 147.565 106.61 148.424 107.468 150.642L108.396 153.576Z" fill="#E20E7F"/>
<path d="M62.6656 187.498L63.523 190.002L112.541 183.275L111.683 180.413L62.6656 187.498Z" fill="#A95F9A"/>
<path d="M64.3805 193.437L113.398 186.353L113.97 188.929L65.238 195.656L64.3805 193.437Z" fill="#A95F9A"/>
<path d="M65.9525 181.272C62.3083 181.272 59.3073 178.194 59.3073 174.33C59.3073 170.465 62.3083 167.388 65.9525 167.388C69.5967 167.388 72.5978 170.465 72.5978 174.33C72.5978 178.194 69.5967 181.272 65.9525 181.272ZM65.9525 168.032C62.5942 168.032 59.8789 170.895 59.8789 174.401C59.8789 177.908 62.5942 180.771 65.9525 180.771C69.3109 180.771 72.0261 177.908 72.0261 174.401C72.0261 170.895 69.2394 168.032 65.9525 168.032Z" fill="#AA609B"/>
<path d="M83.9591 178.481C80.3149 178.481 77.3138 175.403 77.3138 171.539C77.3138 167.746 80.3149 164.597 83.9591 164.597C87.6032 164.597 90.6043 167.674 90.6043 171.539C90.5329 175.403 87.6032 178.481 83.9591 178.481ZM83.9591 165.241C80.6007 165.241 77.8854 168.104 77.8854 171.61C77.8854 175.117 80.6007 177.98 83.9591 177.98C87.3174 177.98 90.0327 175.117 90.0327 171.61C90.0327 168.104 87.3174 165.241 83.9591 165.241Z" fill="#AA609B"/>
<path d="M101.68 175.904C98.0356 175.904 95.0345 172.827 95.0345 168.963C95.0345 165.17 98.0356 162.021 101.68 162.021C105.324 162.021 108.325 165.098 108.325 168.963C108.325 172.827 105.324 175.904 101.68 175.904ZM101.68 162.665C98.3214 162.665 95.6061 165.527 95.6061 169.034C95.6061 172.541 98.3214 175.403 101.68 175.403C105.038 175.403 107.753 172.541 107.753 169.034C107.753 165.527 105.038 162.665 101.68 162.665Z" fill="#AA609B"/>
<path d="M71.3831 145.346C80.9331 145.346 88.675 137.465 88.675 127.742C88.675 118.019 80.9331 110.137 71.3831 110.137C61.833 110.137 54.0911 118.019 54.0911 127.742C54.0911 137.465 61.833 145.346 71.3831 145.346Z" fill="#E20E7F"/>
<path d="M77.8854 131.606L77.2423 130.39L82.0297 127.885L76.885 124.808L77.5996 123.663L84.8879 127.956L77.8854 131.606Z" fill="white"/>
<path d="M73.5126 119.525L68.7227 133.918L70.0784 134.371L74.8683 119.977L73.5126 119.525Z" fill="white"/>
<path d="M66.1668 132.608L59.1643 129.674L64.8092 124.951L65.7381 126.024L61.8081 129.245L66.667 131.32L66.1668 132.608Z" fill="white"/>
<path d="M165.274 8.01517L182.923 6.44077C183.995 6.3692 184.996 7.01328 185.353 8.08674L189.497 21.0398C189.926 22.4711 188.997 23.9024 187.568 24.1171L170.562 26.1209C169.49 26.264 168.418 25.6199 168.061 24.5465L163.273 11.164C162.773 9.66115 163.702 8.1583 165.274 8.01517Z" fill="#A95F9A"/>
<path d="M178.903 10.6451L174.11 20.2462L175.388 20.8862L180.181 11.2852L178.903 10.6451Z" fill="white"/>
<path d="M172.502 11.9461L171.614 13.0669L181.182 20.6774L182.071 19.5565L172.502 11.9461Z" fill="white"/>
<path d="M223.724 60.6863L151.912 67.7711C148.411 68.1289 146.196 71.7071 147.482 75.0706L166.775 124.378C167.632 126.668 169.99 128.028 172.42 127.742L244.446 118.725C247.947 118.295 250.091 114.646 248.733 111.354L229.226 63.9782C228.297 61.8313 226.082 60.4716 223.724 60.6863Z" fill="#A95F9A"/>
<path d="M230.512 67.3417L148.339 76.7882C145.839 71.7787 147.696 68.1289 151.912 67.7711L223.724 60.6863C226.082 60.4716 227.94 61.4019 229.154 63.9782L230.512 67.3417Z" fill="#642366"/>
<path d="M152.127 81.7261C158.125 81.7261 162.988 77.0482 162.988 71.2777C162.988 65.5073 158.125 60.8294 152.127 60.8294C146.128 60.8294 141.266 65.5073 141.266 71.2777C141.266 77.0482 146.128 81.7261 152.127 81.7261Z" fill="#E20E7F"/>
<path d="M153.484 76.9313L147.625 71.4209L148.411 70.6337L152.698 74.7128L154.199 65.5526L155.342 65.7673L153.484 76.9313Z" fill="white"/>
<path opacity="0.54" d="M171.634 88.8109C173.563 84.1593 170.062 81.4399 166.846 82.0124C162.416 83.3721 162.345 87.6659 166.275 90.1707C163.702 91.101 162.773 92.8185 162.916 94.9654L178.422 93.5342C176.778 89.6697 174.277 88.9541 171.634 88.8109Z" fill="#642366"/>
<path opacity="0.54" d="M183.209 80.8674L227.44 76.6451L232.513 88.811L188.568 93.6057L183.209 80.8674Z" fill="#642366"/>
<path opacity="0.54" d="M162.345 100.905L200.358 96.9692L201.502 101.192L163.774 104.841L162.345 100.905Z" fill="#642366"/>
<path opacity="0.54" d="M165.203 107.489L203.217 103.482L204.36 107.775L166.632 111.425L165.203 107.489Z" fill="#642366"/>
<path opacity="0.54" d="M167.775 114.502L205.789 110.566L206.861 114.789L169.133 118.438L167.775 114.502Z" fill="#642366"/>
<path d="M268.312 80.2232C267.597 80.2232 266.954 80.0801 266.311 79.7938C265.096 79.2213 264.239 78.0763 263.881 76.5019C263.524 74.4265 264.024 72.709 265.239 71.564C266.454 70.4189 268.312 70.1327 270.312 70.6336L270.098 71.4208C268.383 70.9914 266.811 71.2777 265.811 72.1365C264.81 73.0668 264.453 74.4981 264.739 76.2872C265.025 77.5753 265.739 78.5057 266.74 79.0066C267.811 79.5076 269.241 79.436 270.598 78.7919L270.955 79.5791C270.098 80.0085 269.169 80.2232 268.312 80.2232Z" fill="#642265"/>
<path d="M278.516 74.4317L272.591 74.7139L272.632 75.5718L278.556 75.2895L278.516 74.4317Z" fill="#642265"/>
<path d="M275.884 71.6808L275.029 71.7493L275.593 78.8114L276.448 78.7429L275.884 71.6808Z" fill="#642265"/>
<path d="M286.588 73.7863L280.664 74.0685L280.705 74.9264L286.629 74.6441L286.588 73.7863Z" fill="#642265"/>
<path d="M283.889 71.1117L283.034 71.1802L283.598 78.2423L284.453 78.1739L283.889 71.1117Z" fill="#642265"/>
<path d="M228.797 165.384C236.872 166.315 244.874 166.315 252.663 165.742L252.02 191.362C248.947 196.801 236.371 197.66 228.797 193.08V165.384Z" fill="#642366"/>
<path d="M250.805 190.575V167.889L251.448 167.746C254.664 166.887 259.165 166.672 261.166 174.401L261.238 174.544V174.759C260.809 182.774 257.808 187.712 251.877 190.145L250.805 190.575ZM252.377 169.463V187.855C257.022 185.565 259.237 181.486 259.666 174.831C258.379 170.251 256.236 168.605 252.377 169.463Z" fill="#642366"/>
<path opacity="0.51" d="M235.442 161.377L233.942 160.876L234.442 158.228C234.656 157.154 234.585 156.009 234.156 155.008L233.37 153.004L234.728 152.145L235.514 154.149C236.086 155.58 236.228 157.154 235.943 158.729L235.442 161.377Z" fill="#642366"/>
<path opacity="0.51" d="M241.373 163.094L239.873 162.593L240.373 159.945C240.587 158.872 240.516 157.727 240.087 156.725L239.301 154.721L240.659 153.863L241.445 155.866C242.016 157.298 242.159 158.872 241.873 160.446L241.373 163.094Z" fill="#642366"/>
<path opacity="0.51" d="M245.66 161.162L244.16 160.661L244.66 158.013C244.874 156.94 244.803 155.795 244.374 154.793L243.588 152.789L244.946 151.93L245.732 153.934C246.304 155.365 246.447 156.94 246.161 158.514L245.66 161.162Z" fill="#642366"/>
<path d="M339.194 125.452L332.978 83.4436L300.609 74.4266C296.608 89.5981 294.464 104.412 297.251 118.152C300.395 125.309 306.683 127.455 317.544 122.374L317.83 131.964C326.118 131.392 333.978 130.246 339.194 125.452Z" fill="#FFE9B0"/>
<path d="M298.68 74.1403C309.398 60.0422 334.693 60.0422 342.91 78.0763C346.126 86.664 339.838 98.1143 337.837 116.721L324.904 118.725C321.402 115.361 318.973 111.568 317.329 107.418C322.331 106.845 324.475 103.195 322.974 95.538C319.544 92.4607 316.758 93.0332 315.114 96.683C312.971 92.8185 312.328 87.0218 312.042 80.8673C305.396 80.6526 301.252 78.1479 298.68 74.1403Z" fill="#1D1D1B"/>
<path d="M293.321 144.345C289.605 140.838 285.389 138.262 280.888 136.401C279.173 135.685 277.815 134.254 277.172 132.536C276.029 129.602 274.671 127.169 273.242 125.309C272.456 124.307 271.241 123.877 270.026 124.307C267.668 125.094 265.311 126.454 262.953 128.6L253.092 119.87C251.091 118.438 250.019 120.156 251.091 122.16L258.665 130.891C257.308 135.041 256.95 138.834 259.523 141.339C261.666 141.697 264.239 142.055 267.168 142.269C268.74 142.412 270.241 143.128 271.384 144.345L283.46 157.441L293.321 144.345Z" fill="#FFEAB1"/>
<path d="M271.598 190.575C266.454 196.515 261.38 202.455 257.236 208.037C245.375 204.673 226.225 209.754 205.146 208.895C195.214 201.023 189.855 201.882 186.282 206.104C182.209 206.462 178.207 207.106 174.706 208.394C173.277 210.47 173.563 211.686 175.849 211.758L182.923 209.754C186.711 215.408 192.141 219.129 201.502 217.912C222.867 221.204 244.303 224.138 267.668 222.993C270.026 223.208 272.313 222.492 274.171 220.99L293.249 206.033L271.598 190.575Z" fill="#FFEAB1"/>
<path d="M299.251 237.449C290.534 235.732 279.887 235.302 268.24 235.446C262.381 236.877 259.094 239.095 258.379 242.244C245.303 241.672 233.513 243.103 231.37 258.632L229.94 303.217L256.379 302.93C258.379 297.849 258.594 290.478 257.808 281.747C336.479 298.565 377.708 288.403 371.563 244.033L299.251 237.449Z" fill="#1D1D1B"/>
<path d="M339.766 124.879C335.479 128.243 327.547 129.817 317.258 130.246C306.254 136.473 295.25 141.053 290.82 144.345C284.032 150.499 278.458 170.322 269.669 189.501L292.749 208.394L299.251 197.946C301.752 227.001 295.321 238.022 295.893 256.056L371.635 245.894L370.777 148.281C368.205 125.309 355.557 125.452 339.766 124.879Z" fill="url(#paint4_linear_1950_665)"/>
<path d="M258.379 242.244C270.312 241.815 282.031 242.745 293.606 245.608L258.379 242.244Z" fill="#474744"/>
<path d="M251.663 305.65H250.519V258.489V258.418C251.377 253.05 254.449 250.045 260.237 248.9H260.309H260.38C270.026 249.615 281.602 251.476 295.679 254.553L295.464 255.627C281.459 252.549 270.026 250.76 260.452 249.973C255.164 251.046 252.449 253.623 251.663 258.489V305.65Z" fill="white"/>
<path d="M392.142 155.365C394.357 173.757 387.926 195.942 381.996 221.061C376.922 250.689 387.64 279.171 372.706 302.286H269.955C261.881 299.495 255.307 294.987 249.376 289.906L250.234 281.461C267.74 288.904 280.459 282.749 291.892 273.017C303.967 256.127 305.396 206.748 318.33 163.309L392.142 155.365Z" fill="#BD73AB"/>
<path d="M393 148.853C363.632 147.851 337.551 150.07 317.258 157.87C308.255 181.844 304.039 208.895 301.752 237.378C296.179 273.303 278.029 285.182 250.234 281.39V285.612C264.739 285.827 279.816 287.258 290.748 280.531C300.18 273.804 303.11 256.342 305.968 237.091C309.184 209.826 313.542 185.279 320.33 166.315C343.767 162.307 367.848 160.089 392.714 159.516L393 148.853Z" fill="#642366"/>
</g>
<defs>
<linearGradient id="paint0_linear_1950_665" x1="121.822" y1="196.058" x2="178.517" y2="196.058" gradientUnits="userSpaceOnUse">
<stop stop-color="#642366"/>
<stop offset="0.529" stop-color="#EDC3DC"/>
<stop offset="0.5865" stop-color="#E7BCD7"/>
<stop offset="0.6676" stop-color="#D8AAC9"/>
<stop offset="0.763" stop-color="#BE8CB3"/>
<stop offset="0.8691" stop-color="#996194"/>
<stop offset="0.9828" stop-color="#6C2C6C"/>
<stop offset="1" stop-color="#642366"/>
</linearGradient>
<linearGradient id="paint1_linear_1950_665" x1="62.9241" y1="139.584" x2="217.191" y2="139.584" gradientUnits="userSpaceOnUse">
<stop stop-color="#642366"/>
<stop offset="0.529" stop-color="#EDC3DC"/>
<stop offset="0.5865" stop-color="#E7BCD7"/>
<stop offset="0.6676" stop-color="#D8AAC9"/>
<stop offset="0.763" stop-color="#BE8CB3"/>
<stop offset="0.8691" stop-color="#996194"/>
<stop offset="0.9828" stop-color="#6C2C6C"/>
<stop offset="1" stop-color="#642366"/>
</linearGradient>
<linearGradient id="paint2_linear_1950_665" x1="68.7936" y1="139.05" x2="212.97" y2="139.05" gradientUnits="userSpaceOnUse">
<stop stop-color="#EDC3DC"/>
<stop offset="0.529" stop-color="white"/>
<stop offset="1" stop-color="#EDC3DC"/>
</linearGradient>
<linearGradient id="paint3_linear_1950_665" x1="135.339" y1="208.79" x2="250.793" y2="208.79" gradientUnits="userSpaceOnUse">
<stop stop-color="#642366"/>
<stop offset="0.529" stop-color="#EDC3DC"/>
<stop offset="0.5865" stop-color="#E7BCD7"/>
<stop offset="0.6676" stop-color="#D8AAC9"/>
<stop offset="0.763" stop-color="#BE8CB3"/>
<stop offset="0.8691" stop-color="#996194"/>
<stop offset="0.9828" stop-color="#6C2C6C"/>
<stop offset="1" stop-color="#642366"/>
</linearGradient>
<linearGradient id="paint4_linear_1950_665" x1="269.66" y1="190.459" x2="371.598" y2="190.459" gradientUnits="userSpaceOnUse">
<stop stop-color="#402051"/>
<stop offset="0.2164" stop-color="#32173C"/>
<stop offset="0.4533" stop-color="#28192A"/>
<stop offset="0.7062" stop-color="#201D1F"/>
<stop offset="1" stop-color="#1E1E1C"/>
</linearGradient>
<clipPath id="clip0_1950_665">
<rect width="394" height="302" fill="white"/>
</clipPath>
</defs>
</svg>
