<svg width="397" height="228" viewBox="0 0 397 228" fill="none" xmlns="http://www.w3.org/2000/svg">
<path opacity="0.31" d="M323.753 203.613C335.467 188.371 342.026 169.456 344.134 147.18C348.195 129.593 356.16 118.103 365.843 109.427C336.482 104.347 310.088 115.524 285.724 140.692C272.996 157.184 264.563 177.819 262.532 204.473L323.753 203.613Z" fill="#F197BE"/>
<path opacity="0.31" d="M0.780762 68.0791C36.2328 72.6907 68.1708 82.5392 91.8315 104.659L102.764 127.873L95.5017 128.655C68.7955 95.6705 45.8376 84.0243 29.4391 82.7737C52.5532 91.5279 74.1836 104.894 91.9096 130.062L73.3246 145.225C56.5357 141.63 39.5125 135.846 31.7817 124.512C26.5498 116.696 24.2072 101.923 16.3984 86.5254C12.2597 79.0218 7.02781 73.785 0.780762 68.0791Z" fill="#F197BE"/>
<path opacity="0.31" d="M395.126 113.882C361.314 125.372 331.952 141.239 313.446 167.11L307.667 191.575L315.007 190.872C334.217 153.901 354.286 138.112 370.137 133.657C349.288 146.71 330.937 163.828 318.834 191.497L340.386 202.284C356.082 195.483 371.621 186.573 376.775 174.067C380.211 165.547 379.43 150.853 383.725 134.595C386.224 126.7 390.206 120.682 395.126 113.882Z" fill="#F197BE"/>
<path d="M338.434 218.542C356.238 173.755 356.004 136.863 319.146 118.416C299.859 9.06686 196.704 -2.73568 150.632 72.3003C105.263 61.592 77.932 74.7233 72.9344 117.556C18.1165 127.639 23.4265 207.131 54.1152 216.354L338.434 218.542Z" fill="#FBEBEF"/>
<path d="M206.934 183.604L207.09 167.502C248.711 139.129 220.443 93.3262 187.099 93.4044C145.791 97.1562 137.513 145.226 169.764 167.502L169.295 182.431L206.934 183.604Z" fill="#E1017F"/>
<path d="M186.084 101.221C173.434 99.5793 165 106.145 160.393 120.058C173.434 103.175 177.651 107.63 186.084 101.221Z" fill="#FDFDFC"/>
<path d="M192.722 182.353H191.394L192.878 123.966L204.435 124.357L204.044 136.628L196.704 136.784V135.456L202.717 135.299L203.029 125.607L194.205 125.373L192.722 182.353Z" fill="#FDFDFC"/>
<path d="M184.522 182.431H183.195L183.976 125.373L175.074 125.295L174.995 134.987L181.086 135.378L181.008 136.706L173.668 136.237L173.824 123.966L185.303 124.044L184.522 182.431Z" fill="#FDFDFC"/>
<path d="M210.135 183.292L165.859 182.275L165.703 186.965L169.217 187.434C170.935 201.191 177.573 207.366 188.193 207.678C199.593 207.287 207.246 201.269 206.856 188.607L209.979 188.685L210.135 183.292Z" fill="#1D1D1B"/>
<path d="M163.907 45.7245L62.4704 46.1153C62.3142 35.1726 68.5613 30.4828 79.3374 30.3265C78.6346 17.6642 89.3327 11.4893 99.7184 15.3193C108.152 -2.73624 133.921 -4.29949 141.964 18.7584C155.005 19.1493 161.174 29.1541 156.957 38.768C160.393 40.175 162.814 42.3635 163.907 45.7245Z" fill="#FBEBEF"/>
<path d="M164.297 45.725C164.063 41.8169 160.471 40.0973 157.035 38.4559C163.985 30.0143 152.037 16.1796 141.652 18.4463C138.138 -2.34495 109.323 -3.67371 100.89 13.0531C113.306 4.45519 131.656 4.61151 137.747 24.9338C148.133 23.3705 156.176 31.4994 153.521 44.1617C155.083 44.1617 155.161 44.8652 155.473 45.725H164.297Z" fill="#EECBE2"/>
<path d="M69.0298 40.332C69.8888 39.394 70.8258 38.5342 71.919 37.8308C73.0123 37.1273 74.1055 36.5802 75.3549 36.1894C76.6043 35.7986 77.8537 35.6422 79.1032 35.5641C80.3526 35.5641 81.6801 35.6422 82.9295 35.8767L82.6952 36.1112C82.3829 34.0008 82.3048 31.7341 82.9295 29.6237C83.2418 28.6076 83.6323 27.5915 84.257 26.6535C84.8817 25.7156 85.5845 24.934 86.3653 24.1523C85.5845 24.934 84.9598 25.7938 84.4131 26.7317C83.8665 27.6697 83.4761 28.6858 83.2418 29.7019C82.7733 31.8123 82.7733 33.9227 83.0856 36.033L83.1637 36.3457L82.8514 36.2675C81.602 36.033 80.3526 35.8767 79.1032 35.9549C77.8537 35.9549 76.6043 36.1894 75.433 36.502C74.2617 36.8147 73.0904 37.3618 71.9971 37.9871C70.9039 38.6906 69.8888 39.4722 69.0298 40.332Z" fill="#EECBE2"/>
<path opacity="0.25" d="M108.543 59.3251L108.386 41.8167H112.994C113.696 41.8167 114.087 40.5661 113.618 39.8626L105.81 27.3566C105.575 26.8876 105.107 26.8876 104.794 27.3566L96.439 40.0189C95.8923 40.8006 96.3609 42.0512 97.0637 42.0512L101.515 41.8948V59.4814C101.515 60.3412 101.983 61.0446 102.608 61.0446H107.371C108.074 60.8883 108.543 60.1849 108.543 59.3251Z" fill="#EAB5CE"/>
<path d="M107.84 58.4647L107.684 40.9563H112.291C112.994 40.9563 113.384 39.7057 112.915 39.0023L105.107 26.4963C104.872 26.0273 104.404 26.0273 104.092 26.4963L95.7361 39.0804C95.1895 39.862 95.658 41.1126 96.3608 41.1126L100.812 40.9563V58.5429C100.812 59.4027 101.28 60.1061 101.905 60.1061H106.668C107.371 60.028 107.918 59.3245 107.84 58.4647Z" fill="#EAB5CE"/>
<path opacity="0.25" d="M121.583 27.7469L121.661 45.2553H117.054C116.351 45.2553 115.961 46.5059 116.429 47.2094L124.16 59.7154C124.394 60.1844 124.863 60.1844 125.175 59.7154L133.609 47.1312C134.155 46.3496 133.765 45.099 132.984 45.099L128.533 45.2553L128.611 27.6688C128.611 26.809 128.143 26.1055 127.518 26.0273H122.755C122.13 26.1055 121.583 26.8871 121.583 27.7469Z" fill="#EAB5CE"/>
<path d="M121.115 27.0438L121.193 44.5522H116.586C115.883 44.5522 115.492 45.8028 115.961 46.5063L123.692 59.0123C123.926 59.4812 124.394 59.4812 124.707 59.0123L133.14 46.4281C133.687 45.6465 133.296 44.3959 132.516 44.3959L128.065 44.5522L128.143 26.9656C128.143 26.1058 127.674 25.4024 127.049 25.3242H122.286C121.583 25.4805 121.115 26.184 121.115 27.0438Z" fill="#E1017F"/>
<path d="M53.4904 203.613C42.48 204.864 34.9054 208.381 31.001 214.322C29.6735 214.478 28.346 214.165 26.9405 213.775C25.7691 213.462 25.2225 215.494 26.3938 216.119L29.5954 215.572C30.8449 215.807 31.3915 216.979 31.6257 218.777C38.3413 227.844 76.3702 226.593 94.2524 221.982C110.885 227.453 131.266 226.124 153.677 221.122C156.411 217.917 159.222 215.963 162.345 217.917C165.156 217.526 165.625 216.119 165.547 214.478C164.688 212.758 163.126 212.837 161.486 213.071C159.456 213.618 158.831 215.338 157.426 214.791C152.428 210.101 146.103 206.427 138.997 203.223L53.4904 203.613Z" fill="#E00680"/>
<path d="M54.6617 204.707C49.1955 209.006 41.6991 205.88 38.1851 213.383C34.0464 213.149 33.5779 214.087 34.7492 215.416L39.6688 216.588C40.8401 223.779 47.1653 221.512 55.833 224.639C44.1198 224.717 33.2656 224.013 30.142 215.963H26.7062C24.9882 215.65 25.8472 213.383 27.2528 213.618C28.4241 213.618 29.9859 215.103 30.6887 214.79C35.2959 207.834 42.9485 204.629 52.7876 204.082L54.6617 204.707Z" fill="#C30A79"/>
<path d="M71.1382 209.476C68.4832 213.306 69.4984 215.338 76.6044 214.556C80.665 213.462 84.6475 212.446 86.6778 215.103C87.5367 217.995 91.285 212.758 91.8316 219.402C90.7383 220.965 90.5041 222.216 93.8619 222.294C102.452 224.639 110.573 225.812 117.523 224.639C104.482 224.405 97.3758 220.575 97.2978 212.524L71.1382 209.476Z" fill="#C30A79"/>
<path d="M94.6427 207.131L100.812 211.195L99.7966 212.055L92.9248 211.195L94.6427 207.131Z" fill="#F9E9C4"/>
<path d="M74.8864 185.636C68.7955 184.62 63.1732 184.542 57.9413 185.246C51.7723 194.234 56.4576 200.644 67.1557 205.646C76.0577 208.773 84.7255 211.039 92.9248 211.196L95.5017 206.897L111.822 211.43C124.472 207.756 136.264 203.692 140.793 197.048C142.433 192.124 141.417 188.528 137.591 186.34L91.2068 188.685L74.8864 185.636Z" fill="#BD73AB"/>
<path d="M61.3772 184.776C68.249 183.917 83.2419 196.813 95.2674 200.018C102.764 196.579 110.182 194.547 113.54 191.186L120.646 190.795C114.868 196.032 107.371 200.956 98.7814 205.646L110.807 211.899L100.265 211.664C98.3129 209.554 94.877 209.945 94.7208 207.131C81.9925 197.048 71.0601 189.075 61.3772 184.776Z" fill="#642366"/>
<path d="M103.154 132.017H92.6123V146.867H103.154V132.017Z" fill="#F8DDA5"/>
<path d="M93.4714 131.783C93.94 136.316 96.4388 138.348 100.499 138.426C104.404 138.583 105.887 136.707 106.356 134.049C105.731 131.392 105.653 128.656 106.356 125.764L95.2675 123.028L93.4714 131.783Z" fill="#F9E9C4"/>
<path d="M106.278 126.623C102.686 126.155 100.031 124.982 97.454 123.81C95.8922 123.731 95.1894 124.591 95.5798 126.623C95.4237 130.375 94.6428 132.642 93.081 133.033C91.3631 133.971 90.5822 133.033 90.5822 130.219C89.5671 123.497 90.8165 119.823 93.081 117.4C96.8293 115.29 101.515 119.276 102.53 117.4C106.981 116.462 111.354 115.837 113.852 120.214C112.681 123.731 110.026 125.686 106.278 126.623Z" fill="#1D1E1C"/>
<path d="M92.3 140.927C79.4154 143.193 70.5134 150.463 62.158 158.435C64.1102 164.141 68.5612 168.205 76.2138 170.081C75.2768 179.617 74.8082 182.04 74.8863 189.7C87.7709 193.374 100.499 195.64 109.245 186.417L121.193 169.3C122.676 167.736 123.457 166.33 124.082 165.001C121.349 154.918 113.93 147.492 103.388 141.083C104.404 143.193 96.4386 145.695 92.3 140.927Z" fill="#BD73AB"/>
<path d="M76.2139 171.645C80.8992 168.596 84.5693 164.063 87.7709 158.826C87.0681 164.923 84.5693 170.707 78.7127 175.944C77.3852 176.256 77.0729 176.882 77.4633 177.898C77.6976 179.461 77.7757 181.337 77.8537 183.76C78.7127 191.498 73.7151 188.137 76.6043 191.264H72.8561C71.5286 183.447 73.3246 180.555 76.2139 171.645Z" fill="#642366"/>
<path d="M126.971 169.847L124.082 165.079L121.193 169.847H126.971Z" fill="#F9E9C4"/>
<path d="M92.3 189.231L109.245 195.093L111.354 186.417L93.2371 185.636L92.3 189.231Z" fill="url(#paint0_linear_3730_10751)"/>
<path d="M63.876 162.344C58.6441 171.02 55.5987 185.636 63.0171 189.935C74.9645 194.234 81.9925 188.763 90.6603 189.153C95.2675 189.935 100.343 191.186 102.608 189.935L102.998 185.636L105.887 186.418C107.215 186.965 107.918 186.418 106.746 185.245C105.341 184.307 103.935 183.838 102.608 183.682L100.968 183.291V180.556C100.499 177.351 99.0157 177.82 98.4691 180.556C98.2348 181.963 96.8292 183.213 94.7208 184.464C84.5694 185.714 77.2291 184.855 74.1056 180.946C73.8713 178.289 74.8865 174.693 76.1359 170.863C71.2944 168.362 67.1557 165.548 63.876 162.344Z" fill="#F9E9C4"/>
<path d="M148.289 191.889L108.855 194.937L110.495 171.801C110.495 171.489 110.807 171.176 111.119 171.176L150.476 167.033C150.944 166.955 151.335 167.346 151.335 167.815L148.992 191.264C148.914 191.655 148.602 191.889 148.289 191.889Z" fill="#DAD2E9"/>
<path d="M108.777 195.015L110.416 171.801C110.416 171.41 110.729 171.176 111.119 171.098L150.476 166.955C150.71 166.955 150.944 167.033 151.178 167.19C151.335 167.346 151.413 167.58 151.413 167.815L149.07 191.264C149.07 191.654 148.758 191.889 148.367 191.967L108.777 195.015ZM150.554 167.111H150.476L111.119 171.254C110.807 171.254 110.495 171.567 110.495 171.879L108.855 194.937L148.211 191.889C148.523 191.889 148.836 191.654 148.836 191.342L151.178 167.893C151.178 167.737 151.1 167.502 151.022 167.424C150.866 167.19 150.71 167.111 150.554 167.111Z" fill="#373638"/>
<path d="M332.577 189.778C324.222 179.852 302.123 182.04 302.826 194.781L334.451 195.015L332.577 189.778Z" fill="#BD73AB"/>
<path d="M334.764 196.891H303.763C303.216 196.891 302.748 196.422 302.748 195.875V195.796C302.748 195.249 303.216 194.78 303.763 194.78H334.764C335.31 194.78 335.779 195.249 335.779 195.796V195.875C335.857 196.422 335.388 196.891 334.764 196.891Z" fill="#642366"/>
<path d="M328.36 220.418C329.352 220.418 330.156 219.403 330.156 218.151C330.156 216.9 329.352 215.885 328.36 215.885C327.369 215.885 326.564 216.9 326.564 218.151C326.564 219.403 327.369 220.418 328.36 220.418Z" fill="#1D1E1C"/>
<path d="M321.489 196.578C322.816 199.392 318.678 199.939 318.053 202.362C317.819 202.362 316.725 202.362 316.725 202.362V207.365C323.207 207.443 328.673 209.709 331.953 216.431L330.859 217.995C325.862 213.383 320.63 210.804 315.164 211.195C310.244 211.195 306.73 213.383 303.685 216.197L303.216 211.195C306.574 208.772 310.244 207.13 314.539 207.521L314.461 202.44L312.977 201.971L306.496 202.05L306.574 200.877L312.509 200.955C311.728 198.845 308.526 199.626 308.604 196.5H321.489V196.578Z" fill="#642366"/>
<path d="M303.138 220.262C304.13 220.262 304.934 219.247 304.934 217.995C304.934 216.743 304.13 215.729 303.138 215.729C302.146 215.729 301.342 216.743 301.342 217.995C301.342 219.247 302.146 220.262 303.138 220.262Z" fill="#1D1E1C"/>
<path d="M332.265 220.184C333.257 220.184 334.061 219.169 334.061 217.917C334.061 216.665 333.257 215.65 332.265 215.65C331.273 215.65 330.469 216.665 330.469 217.917C330.469 219.169 331.273 220.184 332.265 220.184Z" fill="#1D1E1C"/>
<path d="M340.698 173.364H340.464C336.794 173.364 333.827 170.394 333.827 166.72V155.934C333.827 152.26 336.794 149.29 340.464 149.29H340.698V173.364Z" fill="#BD73AB"/>
<path d="M327.111 195.093C327.814 191.967 330.781 189.622 332.968 189.387C338.512 181.649 339.918 172.817 337.184 162.89C337.731 162.187 338.746 161.249 340.23 162.5C344.837 176.022 341.557 186.105 334.686 194.703L327.111 195.093Z" fill="#642366"/>
<path d="M309.541 134.362C309.073 135.925 309.541 138.348 310.166 141.006C310.556 144.367 312.665 145.383 315.398 145.383L316.491 150.385C319.302 151.479 321.254 149.291 322.738 146.946L321.567 142.882L323.987 134.831L318.99 129.281L309.541 134.362Z" fill="#E5A950"/>
<path d="M320.708 142.881C320.63 142.412 320.552 141.396 320.474 140.458C320.395 139.286 320.63 138.113 321.176 137.097L321.254 136.941C321.489 136.55 321.645 136.159 321.723 135.768L321.801 135.456C321.957 134.674 321.176 134.049 320.474 134.361C319.927 134.596 319.224 134.361 319.068 133.736C318.834 133.033 318.053 132.72 317.35 133.033L316.101 133.658C315.71 133.814 315.242 133.736 314.929 133.423C314.383 132.876 313.446 132.955 313.055 133.658C312.431 134.674 311.259 135.065 310.166 134.752L310.01 134.674C309.229 134.361 308.448 133.971 307.901 133.345C307.042 132.564 306.886 131.235 307.433 130.219C307.823 129.515 308.604 129.125 309.385 129.125H309.932C310.869 129.125 311.728 128.734 312.274 127.952C312.821 127.092 313.914 126.702 314.851 127.014L316.413 127.483H318.521C319.458 127.483 320.239 127.952 320.786 128.656C321.098 129.046 321.489 129.437 321.957 129.594L322.348 129.75C323.129 130.063 323.753 130.844 323.909 131.704L323.831 132.251C323.675 133.345 324.378 133.111 324.69 133.033L325.003 134.283C325.705 136.081 324.925 137.175 324.456 137.879L322.972 139.755C322.894 139.833 322.894 139.833 322.816 139.911L320.708 142.881Z" fill="#1D1E1C"/>
<path d="M316.257 148.821C316.413 151.557 318.209 149.994 322.738 144.757C329.766 148.899 330.781 157.497 330.391 167.189C330 170.629 332.655 172.661 331.718 177.741C324.847 180.164 319.224 180.086 315.476 176.803C317.272 172.739 317.506 168.206 316.335 163.36C313.29 158.201 311.806 153.12 316.257 148.821Z" fill="#E0E0DF"/>
<path d="M320.708 148.665C317.35 149.603 316.023 157.028 312.04 159.451C314.383 160.624 315.788 161.796 316.725 163.516C320.161 158.67 323.285 158.514 324.456 154.371C325.237 150.463 323.597 148.9 320.708 148.665Z" fill="#717270"/>
<path d="M288.692 163.516L292.44 161.093C293.533 160.859 294.392 161.406 295.251 161.953C297.125 162.813 299.468 162.969 302.279 162.344C305.481 161.25 308.682 160.39 311.884 161.015L313.055 159.687L316.96 162.5L314.07 165.471C313.524 166.018 312.821 166.252 312.118 166.252L295.407 165.783C294.314 165.783 294.47 164.22 293.455 163.829L291.269 165.08C290.41 165.08 290.41 164.611 291.19 164.298L293.221 163.204C292.83 162.735 292.362 162.579 291.737 162.579L289.863 163.829C289.16 163.985 288.692 163.907 288.692 163.516Z" fill="#E5A950"/>
<path d="M303.919 209.163L300.639 208.929L300.171 210.883C297.672 213.149 295.72 215.416 294.158 217.761C293.221 219.637 293.924 220.575 296.188 220.731C297.984 219.871 301.186 217.214 304.309 214.713C304.622 212.837 304.465 211.039 303.919 209.163Z" fill="#1D1E1C"/>
<path d="M290.019 209.319L289.551 211.195L288.223 211.977C286.583 214.165 284.631 215.963 282.054 216.823C280.805 218.699 281.976 219.402 284.241 219.637C286.661 220.028 288.145 217.839 289.941 216.354C291.347 216.667 292.752 216.198 294.08 215.26C294.47 213.931 294.314 212.211 293.221 209.788L290.019 209.319Z" fill="#1D1E1C"/>
<path d="M305.168 186.887C306.418 192.124 305.871 200.409 305.09 209.085C303.372 210.648 301.576 210.726 299.702 209.554C299.078 202.676 299.312 194.859 299.936 186.652L305.168 186.887Z" fill="url(#paint1_linear_3730_10751)"/>
<path d="M331.25 177.976C332.733 185.167 329.61 189.622 315.866 187.903L302.513 187.746C304.309 196.813 297.438 199.158 295.876 211.351C292.83 212.055 290.566 211.351 288.848 209.632C291.112 201.737 293.065 192.514 294.861 182.431C295.095 181.103 296.032 180.008 297.359 179.539C302.669 177.82 312.665 178.992 315.944 177.038L331.25 177.976Z" fill="url(#paint2_linear_3730_10751)"/>
<path d="M303.841 165.157H282.913V167.189H303.841V165.157Z" fill="#1D1D1B"/>
<path d="M278.691 150.596L276.79 151.31L282.903 167.63L284.804 166.916L278.691 150.596Z" fill="#1D1D1B"/>
<path d="M315.32 171.879H237.7C236.451 171.879 235.514 170.863 235.514 169.691V169.534C235.514 168.284 236.529 167.346 237.7 167.346H315.32C316.569 167.346 317.506 168.362 317.506 169.534V169.691C317.506 170.863 316.491 171.879 315.32 171.879Z" fill="#3C3B3D"/>
<path d="M253.318 170.785L245.665 226.437L241.058 226.906L245.197 171.332L253.318 170.785Z" fill="#3C3B3D"/>
<path d="M270.263 169.065L262.61 211.273L258.081 211.586L262.142 169.456L270.263 169.065Z" fill="#3C3B3D"/>
<path d="M297.594 170.473L305.246 226.046L309.854 226.515L305.793 170.942L297.594 170.473Z" fill="#3C3B3D"/>
<path d="M280.649 168.675L288.301 210.883L292.909 211.273L288.77 169.066L280.649 168.675Z" fill="#3C3B3D"/>
<path d="M250.272 34.47C248.086 34.1573 246.134 33.063 244.806 31.2653L243.791 29.8584C242.464 28.1388 241.917 26.0284 242.073 23.8399C242.854 16.1018 237.466 13.6006 232.39 17.0397C231.063 17.9777 229.423 18.3685 227.783 18.4466C226.768 18.4466 225.753 18.4466 224.738 18.3685C222.083 18.2122 219.74 16.7271 218.256 14.5385C214.586 8.98899 208.651 11.4902 207.48 17.665C207.09 19.6191 206.153 21.4168 204.591 22.6674L203.966 23.2146C202.248 24.6996 199.984 25.4031 197.719 25.1686C189.91 24.387 187.646 30.0929 191.472 35.1734C192.878 37.0493 193.502 39.316 193.112 41.5827L192.878 43.146C192.487 45.569 191.003 47.7576 188.817 49.0082C183.741 51.9784 184.913 58.9348 190.769 60.1854C192.721 60.5762 194.439 61.5923 195.689 63.2338L198.422 66.8292C199.515 68.2362 200.062 69.9557 200.14 71.6753C200.296 74.2547 201.389 76.2087 203.029 77.2248C203.966 72.0661 204.2 67.5327 206.231 63.2338C201.467 59.1693 198.5 53.1508 198.5 46.4288C198.5 34.2355 208.417 24.3088 220.599 24.3088C232.781 24.3088 242.698 34.2355 242.698 46.4288C242.698 55.4957 237.232 63.3119 229.423 66.6729C229.423 71.1282 228.564 76.0524 227.314 81.3675C230.048 81.6801 232.703 80.195 233.561 76.2869C234.108 73.8639 235.592 71.8316 237.778 70.6592L241.292 68.7051C242.542 68.0017 244.025 67.689 245.509 67.6109C252.615 67.5327 254.411 60.8107 251.6 56.4336C250.507 54.7922 250.116 52.76 250.272 50.8059V50.7278C250.429 48.6174 251.444 46.6633 253.005 45.1782C256.597 41.9736 256.519 35.4861 250.272 34.47Z" fill="#BD73AB"/>
<path d="M229.267 66.8296C229.267 64.4847 229.032 62.3743 228.564 60.4203L210.291 57.6846C208.339 59.5605 207.012 61.4364 206.074 63.3904C209.901 66.6733 214.898 68.7055 220.443 68.7055C223.566 68.7055 226.534 68.002 229.267 66.8296Z" fill="#1E1E1C"/>
<path d="M229.267 66.8288C226.534 68.0012 223.566 68.7047 220.443 68.7047C214.976 68.7047 209.979 66.6725 206.074 63.3896C204.044 67.6104 203.732 72.222 202.873 77.3807C204.903 78.6313 207.714 78.6313 210.525 76.8336C212.165 75.7393 214.196 75.3485 216.148 75.583L216.851 75.6612C216.929 75.6612 217.007 75.6612 217.085 75.6612C217.085 75.5048 217.163 75.2703 217.163 75.114C217.163 75.2703 217.163 75.5048 217.163 75.6612C219.193 75.9738 220.989 76.9899 222.317 78.5532C223.644 80.1946 225.44 81.2107 227.236 81.4452C228.408 76.2083 229.267 71.2059 229.267 66.8288Z" fill="#BD73AB"/>
<path d="M238.95 39.7845C240.043 38.4557 239.73 36.7362 238.872 34.8603C238.872 34.1568 239.106 33.5315 239.496 32.9844L240.98 31.1085C241.292 30.7177 241.448 30.1705 241.37 29.6234L240.668 25.6371C240.511 24.8555 240.746 23.9957 241.37 23.3704C242.307 22.4324 243.479 21.8071 243.791 19.4623C244.103 16.4139 242.62 15.5541 241.058 14.538C240.511 14.2254 240.121 13.6782 239.965 13.0529C239.418 10.2391 237.934 7.81604 232 7.26891C228.876 6.95626 225.753 8.05053 222.551 10.5517C222.083 10.9425 221.692 11.4115 221.38 11.9587L220.13 14.3035C219.662 15.2415 218.725 15.8668 217.632 16.1013L213.181 17.1955C212.087 17.43 210.369 18.1335 210.057 19.1496L209.901 21.4163C209.901 22.3543 209.51 23.2141 208.808 23.9175C206.777 25.3244 204.2 26.0279 203.498 29.4671C203.029 31.9683 204.122 34.4695 206.465 35.8764L238.95 39.7845Z" fill="#2B2227"/>
<path d="M205.762 36.58C201.858 33.0627 202.561 31.1087 203.185 29.2327L203.341 28.6856C204.591 26.1844 207.324 25.6373 209.198 25.2465C209.979 25.0901 210.682 24.9338 210.76 24.6993L209.979 18.9153C210.604 17.1176 213.805 15.5543 216.929 16.4141H217.007V16.4923C217.007 16.6486 217.085 16.8049 217.163 16.8049C217.475 16.9612 218.334 16.6486 219.271 16.0233C221.302 14.6164 223.332 12.1152 223.02 10.2393C224.659 6.33114 230.282 6.48746 232 6.56563C238.247 7.19093 239.574 9.77029 240.043 12.4278C240.121 13.0531 240.824 14.8509 241.292 15.1635C241.605 15.398 242.073 15.5543 242.385 15.7106C243.713 16.3359 245.04 16.9612 244.806 19.3843C244.494 21.8073 242.932 22.8234 241.136 23.6832C240.433 23.9959 240.433 24.1522 240.589 24.9338V25.012H240.511C239.809 25.5591 239.496 26.0281 239.574 26.4189C239.652 26.7315 239.965 27.0442 240.668 27.2787H240.746V27.3568C240.746 27.5132 241.136 28.0603 241.448 28.6074C242.229 29.7799 242.698 30.5615 242.464 30.8742C242.151 32.2811 241.526 33.1409 240.589 33.5317C239.965 34.3915 239.496 35.2513 239.106 36.2674C238.793 37.2835 238.793 37.5961 238.871 37.9088C238.95 38.1433 238.95 38.4559 238.871 39.0812V39.1594L205.762 36.58ZM238.793 38.9249C238.871 38.3778 238.871 38.1433 238.793 37.9088C238.715 37.5961 238.715 37.2053 239.106 36.1892C239.34 35.1731 240.511 33.4535 240.589 33.3754C241.526 32.9845 242.073 32.1248 242.464 30.796C242.62 30.5615 241.917 29.3891 241.448 28.6856C241.136 28.1385 240.824 27.6695 240.746 27.435C240.043 27.1224 239.652 26.8097 239.574 26.4189C239.496 25.9499 239.809 25.4809 240.511 24.9338C240.355 24.1522 240.355 23.9177 241.136 23.5269C242.854 22.6671 244.338 21.7291 244.65 19.3843C244.884 17.1176 243.635 16.4923 242.307 15.9451C241.917 15.7888 241.526 15.5543 241.214 15.398C240.589 15.0072 239.965 13.1313 239.809 12.506C239.34 9.92661 238.013 7.34725 231.922 6.80011C230.282 6.64379 224.738 6.56563 223.176 10.3174C223.488 12.506 221.067 15.0072 219.271 16.2578C218.803 16.6486 217.632 17.352 217.007 17.1176C216.929 17.0394 216.773 16.9612 216.773 16.7268C213.727 15.9451 210.682 17.352 210.135 19.0716L210.916 24.8556C210.916 25.2465 210.213 25.4028 209.198 25.5591C207.402 25.9499 204.669 26.4971 203.498 28.9201L203.341 29.4672C202.639 31.4213 202.014 33.219 205.84 36.58L238.793 38.9249Z" fill="#2B2227"/>
<path d="M208.339 33.9224H208.573C208.339 31.4993 209.588 30.1706 210.76 28.8418C211.463 28.0602 212.165 27.2786 212.478 26.2624C212.634 25.3245 212.556 24.5429 212.478 23.8394C212.4 22.9015 212.321 22.198 213.024 21.6509C214.352 20.7129 215.914 21.0256 217.319 21.26C218.49 21.4945 219.584 21.6509 220.443 21.1037C221.302 20.2439 221.848 18.9152 222.395 17.4301C223.098 15.5542 223.879 13.3656 225.596 12.115C228.173 10.3173 231.141 10.0828 235.045 11.4116L235.123 11.2552C231.219 9.92648 228.173 10.161 225.518 12.0369C223.644 13.3656 222.941 15.5542 222.239 17.4301C221.692 18.837 221.224 20.2439 220.365 21.0256C219.584 21.5727 218.49 21.3382 217.397 21.1819C215.992 20.9474 214.43 20.6347 212.946 21.6509C212.165 22.2762 212.321 23.0578 212.4 24.0739C212.478 24.8555 212.478 25.6371 212.4 26.4188C212.087 27.3567 211.384 28.1383 210.682 28.92C209.354 30.0142 208.183 31.343 208.339 33.9224Z" fill="url(#paint3_linear_3730_10751)"/>
<path d="M211.463 50.5713C210.291 54.8702 210.76 54.3231 210.291 57.6841C217.553 61.3577 223.801 62.6083 229.345 62.1393C230.204 57.7622 229.735 58.1531 230.907 53.9323L211.463 50.5713Z" fill="url(#paint4_linear_3730_10751)"/>
<path d="M246.602 45.9595L263.157 50.8055C263.547 50.8837 264.016 50.8055 264.25 50.571L273.933 41.6605C274.48 41.1134 274.324 40.1754 273.543 39.9409L255.973 34.3914C255.504 34.2351 255.036 34.3914 254.802 34.7041L246.134 44.2399C245.587 44.8652 245.9 45.725 246.602 45.9595Z" fill="url(#paint5_linear_3730_10751)"/>
<path d="M263.469 51.2749C263.313 51.2749 263.157 51.2749 263.001 51.1968L246.524 46.3507C245.978 46.1944 245.665 45.8035 245.509 45.3346C245.353 44.8656 245.509 44.3966 245.821 44.0058L254.489 34.47C254.88 34.001 255.582 33.8447 256.129 34.001L273.699 39.5505C274.245 39.7069 274.636 40.0977 274.714 40.6448C274.792 41.1138 274.636 41.6609 274.245 41.9736L264.563 50.8841C264.25 51.1186 263.86 51.2749 263.469 51.2749ZM246.758 45.4909L263.235 50.337C263.469 50.4151 263.782 50.337 263.938 50.1806L273.621 41.2701C273.777 41.1138 273.855 40.9575 273.777 40.723C273.699 40.4885 273.543 40.3322 273.308 40.254L255.739 34.7045C255.504 34.6263 255.192 34.7045 254.958 34.8608L246.446 44.5529C246.29 44.7093 246.29 44.9438 246.29 45.0219C246.368 45.2564 246.524 45.4127 246.758 45.4909Z" fill="url(#paint6_linear_3730_10751)"/>
<path d="M258.081 51.0398C263.157 50.0237 265.343 47.757 265.578 43.4581C265.578 42.7546 265.265 42.5983 264.719 43.1454C264.562 42.6764 264.406 42.9109 264.016 43.5362C263.938 42.8328 263.625 43.0673 263.157 44.0052C263.001 43.1454 262.532 43.6926 261.985 44.6305C261.517 45.4903 261.127 46.3501 260.58 46.6627C259.877 47.0535 259.018 46.6627 257.847 47.1317C256.988 47.6007 256.363 48.3041 256.129 49.4766C252.693 50.18 255.66 53.8537 258.081 51.0398Z" fill="#F3A07D"/>
<path d="M199.671 47.601L216.226 53.3068C217.944 53.854 218.725 53.7758 218.647 53.2287C216.148 52.3689 219.74 49.7895 220.208 50.8838C222.161 50.3367 226.69 52.3689 230.906 54.0103C231.375 52.5252 232 51.0401 232.937 49.7114C239.028 48.3044 237.856 41.5825 235.904 34.3134C234.577 32.8283 233.015 31.4213 231.375 30.2489C228.876 29.0765 226.377 27.7477 222.941 28.2949L216.46 28.9201C210.604 31.4213 204.669 37.4399 198.968 43.1457C197.719 44.8653 197.329 46.5067 199.671 47.601ZM207.714 44.5526C209.666 43.3802 211.384 42.0514 213.024 40.6445L212.165 46.5849C210.604 45.6469 209.12 44.9435 207.714 44.5526Z" fill="url(#paint7_linear_3730_10751)"/>
<path d="M224.425 28.5294C224.347 28.1386 223.488 28.1386 222.863 28.2949C222.16 29.2329 222.082 33.2973 226.533 34.5479C230.672 35.4859 233.171 33.3755 231.609 30.718L224.425 28.5294Z" fill="#1F1F1D"/>
<path d="M224.425 28.5297L225.362 25.6377L231.375 30.2493C231.375 32.2033 229.501 33.4539 227.471 33.0631C225.362 32.516 223.644 31.1091 224.425 28.5297Z" fill="#F3A07D"/>
<path d="M225.362 25.5594L225.909 23.8398C227.002 27.279 228.876 28.9986 231.531 28.9204L231.297 30.171C228.564 29.9365 226.456 28.6859 225.362 25.5594Z" fill="#E07753"/>
<path d="M225.909 23.8395C226.69 27.2787 228.095 28.9201 231.531 28.9201C236.997 27.6695 238.872 23.3706 239.809 18.3682L228.017 19.228C227.08 20.4004 226.377 21.8855 225.909 23.8395Z" fill="#F3A07D"/>
<path d="M239.34 16.7266C239.652 17.2737 239.887 17.8208 239.809 18.368C236.841 20.7129 232.468 19.1496 228.017 19.2278C228.876 18.368 230.75 18.837 232.859 18.5243C235.201 18.5243 237.388 17.899 239.34 16.7266Z" fill="#E07753"/>
<path d="M232.937 49.6334C233.639 51.5874 234.655 53.4633 235.982 55.3392C239.887 58.5439 257.3 53.6978 257.3 51.9001C256.207 50.7276 256.519 49.946 256.519 49.3989C256.597 47.054 244.103 50.2587 240.746 50.1805C239.574 43.5367 238.403 37.1274 235.904 34.2354C235.982 40.801 238.481 47.4448 232.937 49.6334ZM212.165 46.5069C215.523 47.6793 217.319 49.1644 219.818 50.4931C222.239 51.7437 228.486 62.1394 230.906 53.9323C226.768 47.9138 212.946 50.6495 213.337 40.1757L212.165 46.5069Z" fill="#1F1F1D"/>
<path d="M218.569 52.916C222.473 57.5275 225.206 57.2149 229.189 56.0425C229.969 55.6516 229.735 55.2608 229.189 55.1045C229.579 54.87 229.267 54.6355 228.564 54.7137C229.189 54.401 228.798 54.2447 227.783 54.1666C228.486 53.7757 228.095 53.5413 226.69 53.4631L224.737 53.3849C224.191 53.3849 223.722 52.9941 223.488 52.5251C222.941 50.9619 221.536 50.1021 219.427 50.5711C217.71 48.8515 216.304 52.6033 218.569 52.916Z" fill="#F3A07D"/>
<path d="M314.461 101.768H313.133C304.934 95.9056 298.687 96.4527 294.158 102.549C297.047 103.565 300.093 104.113 303.372 104.113C307.355 104.191 311.103 103.331 314.461 101.768Z" fill="url(#paint8_linear_3730_10751)"/>
<path d="M317.116 59.7945C315.944 58.5439 313.133 57.137 310.556 56.5117C309.775 59.7945 308.682 62.7647 303.216 63.859C298.999 63.6245 298.375 62.2957 298.375 59.9509C290.41 59.2474 291.659 82.8525 294.548 101.533L313.133 101.69L314.617 101.611C316.413 100.83 318.053 99.8137 319.615 98.6413C319.38 86.2135 312.196 68.7051 317.116 59.7945Z" fill="#E0E0DF"/>
<path d="M313.133 101.768H314.461C314.539 101.768 314.539 101.689 314.617 101.689L313.133 101.768Z" fill="#E0E0DF"/>
<path d="M340.074 62.0613C337.419 61.6705 334.92 60.2636 333.28 58.1532L331.953 56.4336C330.313 54.3232 329.61 51.6657 329.844 49.0082C330.781 39.4723 324.144 36.424 317.897 40.6448C316.257 41.739 314.227 42.3644 312.274 42.3644C310.947 42.3644 309.776 42.3643 308.526 42.2862C305.325 42.0517 302.357 40.3321 300.561 37.5964C296.11 30.7963 288.692 33.7665 287.286 41.4264C286.818 43.8494 285.646 46.038 283.694 47.6012L282.913 48.3047C280.805 50.1024 277.994 50.9622 275.261 50.7277C265.656 49.7898 262.845 56.7462 267.53 62.9992C269.248 65.266 270.029 68.0798 269.56 70.8937L269.248 72.8477C268.701 75.8961 266.905 78.5536 264.328 80.0387C258.081 83.7123 259.565 92.232 266.671 93.7953C269.092 94.3424 271.2 95.593 272.684 97.5471L276.041 102.002C277.369 103.722 278.072 105.832 278.15 108.021C278.462 115.212 284.943 118.104 291.112 114.196C291.347 114.039 291.581 113.883 291.815 113.805C293.689 112.789 295.876 112.398 298.062 112.711L298.921 112.789C301.498 113.101 303.919 114.352 305.559 116.384C305.715 116.619 305.949 116.775 306.105 117.01C310.088 121.152 316.569 121.387 318.834 115.29C318.99 114.821 319.146 114.274 319.302 113.727C319.927 110.757 321.801 108.255 324.456 106.848L328.829 104.425C330.391 103.566 332.187 103.097 333.983 103.097C342.729 103.018 344.993 94.7332 341.479 89.4182C340.152 87.3859 339.605 84.8847 339.839 82.4617V82.3835C340.074 79.8042 341.245 77.3811 343.197 75.5834C347.883 71.2845 347.804 63.2337 340.074 62.0613ZM319.615 98.7195C318.053 99.8919 316.413 100.83 314.617 101.69C314.539 101.69 314.539 101.768 314.461 101.768C311.025 103.331 307.277 104.191 303.294 104.191C300.093 104.191 296.969 103.644 294.08 102.628C283.538 98.8758 276.041 88.7929 276.041 76.9903C276.041 61.9831 288.223 49.7116 303.216 49.7116C318.209 49.7116 330.391 61.905 330.391 76.9903C330.547 85.8227 326.252 93.7953 319.615 98.7195Z" fill="#BD73AB"/>
<path d="M317.116 59.7949C325.315 57.5282 326.018 66.6732 324.925 78.5539L315.554 79.4137C312.509 71.363 311.103 64.3284 317.116 59.7949Z" fill="#717270"/>
<path d="M296.969 59.9512C290.956 61.8271 287.599 67.6893 287.755 79.2573L293.299 79.3355C292.284 70.3468 293.065 63.3903 296.969 59.9512Z" fill="#717270"/>
<path d="M324.925 78.6318L315.554 79.4916L316.335 85.7446C312.196 88.2458 308.448 90.9815 305.871 94.0299L299.468 100.361C297.047 98.4069 293.143 96.8437 293.533 99.6575L298.375 103.878C301.654 103.956 302.904 102.55 303.919 100.986L322.426 89.8091C323.753 89.0274 324.534 87.6987 324.612 86.2918L324.925 78.6318Z" fill="#FFEAB1"/>
<path d="M309.932 44.5526C313.446 45.4905 309.932 48.1481 310.478 59.4035L303.138 66.1254L298.297 63.4679L298.999 58.6218C297.281 57.2931 295.954 55.5735 295.251 53.4631C294.705 50.6493 294.626 47.6791 294.626 44.7089C300.795 42.2077 306.496 40.7226 309.932 44.5526Z" fill="#FFEAB1"/>
<path d="M310.244 52.9941L310.557 56.1988C308.292 59.4035 304.778 62.2173 298.687 61.2794L298.375 58.0747C301.108 62.6081 308.682 56.7459 310.244 52.9941Z" fill="#FAD58A"/>
<path d="M288.067 43.4589C289.941 46.1946 292.752 47.0544 296.032 46.7417C298.14 46.1164 300.249 44.944 302.279 43.5371C303.138 44.3969 303.294 45.3348 302.279 46.4291C303.997 46.4291 305.793 44.5532 307.12 45.4911C307.511 46.5073 307.667 47.9142 307.433 50.3372C309.541 49.3993 310.088 46.7417 310.947 47.4452C311.493 48.774 310.244 51.666 309.151 54.4017C311.493 52.6821 313.133 48.9303 314.07 43.6152C313.602 37.7531 309.619 35.1737 301.967 35.4082C295.72 36.6588 295.329 41.5048 290.097 41.114L292.83 42.4428C291.425 43.9279 289.785 44.0842 288.067 43.4589Z" fill="#1D1E1C"/>
<path d="M272.137 79.4131L301.654 79.335L307.823 98.8756L308.76 101.064L303.528 101.377L298.687 100.361C296.11 97.7813 292.128 96.7652 294.314 100.361L278.931 100.204L272.137 79.4131Z" fill="#DAD2E9"/>
<path d="M366.389 124.825L366.311 122.637C368.029 122.637 369.747 122.402 371.231 121.933L371.856 124.044C370.138 124.591 368.342 124.825 366.389 124.825ZM360.923 124.435C359.205 124.122 357.487 123.731 355.691 123.106L356.394 120.995C358.112 121.543 359.752 121.933 361.392 122.246L360.923 124.435ZM376.931 121.621L375.682 119.823C377.009 118.885 378.103 117.713 379.04 116.306L380.836 117.478C379.82 119.198 378.493 120.526 376.931 121.621ZM350.694 121.23C349.132 120.526 347.492 119.745 345.852 118.885L346.867 116.931C348.429 117.791 349.991 118.572 351.475 119.198L350.694 121.23ZM341.245 116.149C339.761 115.211 338.278 114.195 336.794 113.179L338.043 111.381C339.449 112.398 340.933 113.414 342.338 114.273L341.245 116.149ZM383.1 112.476L380.992 111.85C381.382 110.365 381.695 108.646 381.695 106.926L383.881 107.004C383.881 108.958 383.569 110.834 383.1 112.476ZM332.577 109.975C331.25 108.88 329.844 107.786 328.517 106.614L329.922 104.972C331.25 106.145 332.577 107.239 333.905 108.333L332.577 109.975ZM381.46 101.924C381.226 100.282 380.914 98.6409 380.445 96.9214L382.554 96.3742C383.022 98.172 383.413 99.9697 383.647 101.689L381.46 101.924ZM378.805 91.9971C378.181 90.4339 377.478 88.8706 376.697 87.2292L378.649 86.2913C379.43 87.9327 380.211 89.5741 380.836 91.2155L378.805 91.9971ZM374.198 82.6958C373.808 82.0705 373.417 81.4452 373.027 80.8199L374.901 79.6475C375.291 80.2728 375.682 80.9762 376.072 81.6015L374.198 82.6958Z" fill="#E3117F"/>
<path d="M369.201 73.6291L373.574 68.783L358.659 56.9805L369.201 73.6291Z" fill="#642366"/>
<path d="M381.226 66.4385L350.538 47.9922L356.628 73.864L368.029 69.4869L358.659 56.9809L373.574 68.7834L381.226 66.4385Z" fill="#E3117F"/>
<path d="M256.676 122.637H252.068V120.448H254.411V119.823L256.598 119.745L256.676 122.637ZM246.758 122.637H241.527V120.448H246.758V122.637ZM236.217 122.637H230.985V120.448H236.217V122.637ZM254.255 114.508L254.099 109.271L256.285 109.193L256.441 114.43L254.255 114.508ZM255.114 104.581V103.878H254.021V102.315L259.955 102.158L260.033 104.347L255.114 104.581ZM265.187 104.347L265.109 102.158L270.341 102.002L270.419 104.191L265.187 104.347Z" fill="#E3117F"/>
<path d="M264.953 143.897L259.721 143.819V141.63L264.953 141.708V143.897ZM254.411 143.819L249.179 143.74V141.552L254.411 141.63V143.819ZM243.869 143.662L238.637 143.584V141.396L243.869 141.474V143.662ZM233.327 143.506L228.954 143.428V141.239L233.327 141.317V143.506Z" fill="#E3117F"/>
<path d="M132.828 150.072L128.065 149.915L128.143 147.727L130.407 147.805C130.407 147.649 130.407 147.492 130.329 147.336L132.516 147.101C132.594 147.649 132.672 148.274 132.75 148.821L132.828 150.072ZM122.755 149.759L117.523 149.603L117.601 147.414L122.833 147.57L122.755 149.759ZM129.783 142.021C129.626 140.223 129.548 138.425 129.47 136.706L131.657 136.628C131.735 138.347 131.813 140.067 131.969 141.865L129.783 142.021ZM131.657 131.469H129.47C129.47 129.671 129.548 127.873 129.626 126.154L131.813 126.232C131.735 127.952 131.657 129.671 131.657 131.469ZM132.203 121.073L130.017 120.839C130.173 119.041 130.407 117.243 130.642 115.524L132.828 115.836C132.594 117.556 132.359 119.276 132.203 121.073ZM133.765 110.756L131.579 110.287C131.969 108.567 132.359 106.77 132.828 105.128L134.936 105.675C134.468 107.317 134.077 109.036 133.765 110.756ZM136.42 100.673L134.312 99.9694C134.858 98.2498 135.483 96.6084 136.186 94.967L138.216 95.8268C137.591 97.3901 136.967 99.0315 136.42 100.673ZM140.324 91.0589L138.372 90.1209C139.153 88.5577 139.934 86.9163 140.871 85.353L142.745 86.4473C141.886 87.9324 141.027 89.4956 140.324 91.0589ZM145.4 81.992L143.526 80.8196C144.463 79.3345 145.478 77.8494 146.571 76.4425L148.289 77.7713C147.352 79.1 146.337 80.5851 145.4 81.992ZM151.647 73.7068L150.007 72.2999C151.179 70.9711 152.35 69.6424 153.599 68.3136L155.161 69.7987C153.912 71.1275 152.74 72.3781 151.647 73.7068ZM158.831 66.2032L157.348 64.5618C158.597 63.3894 160.003 62.2169 161.33 61.0445L162.736 62.7641C161.408 63.8583 160.081 65.0308 158.831 66.2032ZM166.796 59.5594L165.469 57.7617C166.874 56.7456 168.358 55.6513 169.842 54.7133L171.091 56.5111C169.607 57.5272 168.202 58.5433 166.796 59.5594ZM175.464 53.7754L174.293 51.8995C175.776 50.9615 177.338 50.1017 178.9 49.242L179.993 51.196C178.431 51.9776 176.948 52.8374 175.464 53.7754ZM184.6 48.6948L183.585 46.7408C184.366 46.3499 185.069 45.9591 185.85 45.6465L186.787 47.6005C186.162 47.9914 185.381 48.3822 184.6 48.6948Z" fill="#E3117F"/>
<defs>
<linearGradient id="paint0_linear_3730_10751" x1="92.3279" y1="190.378" x2="111.361" y2="190.378" gradientUnits="userSpaceOnUse">
<stop stop-color="#DBDAD9"/>
<stop offset="0.1466" stop-color="#E5CDDB"/>
<stop offset="0.3101" stop-color="#EDC3DC"/>
<stop offset="0.8005" stop-color="#DBDAD9"/>
</linearGradient>
<linearGradient id="paint1_linear_3730_10751" x1="299.328" y1="198.481" x2="305.898" y2="198.481" gradientUnits="userSpaceOnUse">
<stop stop-color="#1D1E1C"/>
<stop offset="1" stop-color="#717270"/>
</linearGradient>
<linearGradient id="paint2_linear_3730_10751" x1="288.789" y1="194.302" x2="331.558" y2="194.302" gradientUnits="userSpaceOnUse">
<stop stop-color="#1D1E1C"/>
<stop offset="0.0922" stop-color="#323230"/>
<stop offset="0.273" stop-color="#555452"/>
<stop offset="0.4218" stop-color="#696A68"/>
<stop offset="0.5191" stop-color="#717270"/>
<stop offset="1" stop-color="#1F201E"/>
</linearGradient>
<linearGradient id="paint3_linear_3730_10751" x1="230.733" y1="25.0671" x2="212.11" y2="19.5202" gradientUnits="userSpaceOnUse">
<stop stop-color="#E3177F" stop-opacity="0"/>
<stop offset="0.5" stop-color="#E3177F"/>
<stop offset="1" stop-color="#E3177F" stop-opacity="0.8"/>
</linearGradient>
<linearGradient id="paint4_linear_3730_10751" x1="230.204" y1="58.9758" x2="210.6" y2="53.1367" gradientUnits="userSpaceOnUse">
<stop stop-color="#1F1F1D"/>
<stop offset="1" stop-color="#737371"/>
</linearGradient>
<linearGradient id="paint5_linear_3730_10751" x1="247.513" y1="38.9555" x2="272.558" y2="46.4151" gradientUnits="userSpaceOnUse">
<stop stop-color="#FBEBEF"/>
<stop offset="1" stop-color="#642366"/>
</linearGradient>
<linearGradient id="paint6_linear_3730_10751" x1="247.094" y1="38.8309" x2="272.979" y2="46.5406" gradientUnits="userSpaceOnUse">
<stop stop-color="#642366"/>
<stop offset="1" stop-color="#E1A8CD"/>
</linearGradient>
<linearGradient id="paint7_linear_3730_10751" x1="237.168" y1="45.3165" x2="201.002" y2="34.5445" gradientUnits="userSpaceOnUse">
<stop stop-color="#1F1F1D"/>
<stop offset="1" stop-color="#737371"/>
</linearGradient>
<linearGradient id="paint8_linear_3730_10751" x1="337.369" y1="160.181" x2="301.588" y2="97.0335" gradientUnits="userSpaceOnUse">
<stop stop-color="#1D1E1C"/>
<stop offset="0.0922" stop-color="#323230"/>
<stop offset="0.273" stop-color="#555452"/>
<stop offset="0.4218" stop-color="#696A68"/>
<stop offset="0.5191" stop-color="#717270"/>
<stop offset="1" stop-color="#1F201E"/>
</linearGradient>
</defs>
</svg>
