<svg width="387" height="255" viewBox="0 0 387 255" fill="none" xmlns="http://www.w3.org/2000/svg">
<path d="M270.687 251.724C308.214 237.4 351.147 241.972 351.147 192.45C350.386 173.555 321.46 159.232 327.701 136.452C356.628 69.4067 326.103 46.6266 291.772 36.8745C265.967 31.6938 251.885 40.1506 223.796 34.8937C192.967 30.7034 172.643 0.075922 130.015 14.7039C80.7644 36.8745 101.089 59.6546 80.7644 88.9107C69.803 104.529 39.1262 116.795 36.9948 139.652C34.8634 151.766 44.6069 166.851 62.7998 183.917C86.0168 205.173 102.459 227.725 111.213 251.647H270.687V251.724Z" fill="#FBEBEF"/>
<path d="M126.742 241.667L126.589 241.514L62.4953 179.65V179.574L42.9321 121.443L81.2972 89.444C83.5047 80.8348 84.1137 72.4541 84.7226 64.3783C86.2451 44.1123 87.7675 24.9893 114.182 8.60891C126.437 1.82821 143.336 -0.533603 159.55 2.28534C172.947 4.64716 192.053 11.504 206.897 30.7033C229.353 38.3221 259.954 36.4174 289.412 33.9032C307.453 32.7604 321.155 36.0365 329.985 43.579C339.5 51.6549 343.306 64.5306 341.403 81.8252L324.961 140.414C324.733 156.641 331.279 167.841 345.057 174.622C354.953 180.107 359.139 190.469 356.627 203.116C353.506 218.734 341.099 232.753 327.778 235.724H327.701L126.742 241.667ZM63.1804 179.345L127.046 240.981L327.625 235.115C340.642 232.22 352.821 218.43 355.866 203.04C358.302 190.621 354.268 180.488 344.676 175.155C330.594 168.222 323.895 156.87 324.2 140.414V140.337L340.642 81.749C342.545 64.683 338.815 52.0359 329.452 44.1124C320.774 36.7221 307.301 33.5223 289.489 34.6651C259.877 37.2555 229.124 39.084 206.517 31.389L206.364 31.3128L206.288 31.2366C191.597 12.1135 172.643 5.33284 159.398 2.97103C143.412 0.152085 126.665 2.5139 114.638 9.21841C88.4526 25.4464 87.0063 44.4171 85.4839 64.5306C84.8749 72.6827 84.1898 81.0633 81.9823 89.7487V89.8249L81.9062 89.9011L43.7695 121.671L63.1804 179.345Z" fill="#FBEBEF"/>
<path opacity="0.31" d="M359.749 204.259V149.556H355.029V143.69H350.386V139.119H346.427V133.938H332.421V204.259H325.342V115.729H298.014V204.259H291.772V98.7393H242.522V204.259H162.823V126.091H126.133V177.517H119.891V152.832H91.7261V177.517H85.4841V167.765V167.156V149.556H80.7646V143.69H76.1212V139.119H72.239V133.938H58.1566V167.156H29.9918V204.259H1.90308V253.705H385.554V204.259H359.749Z" fill="#F096BD"/>
<path d="M64.018 250.124C60.2119 255.381 10.5809 253.629 9.28687 250.505V239.763H63.5613C63.8657 240.601 63.9419 245.858 64.018 250.124Z" fill="url(#paint0_linear_3730_10867)"/>
<path d="M36.4621 242.734C51.4706 242.734 63.6374 241.403 63.6374 239.762C63.6374 238.121 51.4706 236.791 36.4621 236.791C21.4536 236.791 9.28687 238.121 9.28687 239.762C9.28687 241.403 21.4536 242.734 36.4621 242.734Z" fill="#642366"/>
<path d="M43.3892 249.438C44.5663 249.438 45.5206 248.654 45.5206 247.686C45.5206 246.718 44.5663 245.934 43.3892 245.934C42.2121 245.934 41.2578 246.718 41.2578 247.686C41.2578 248.654 42.2121 249.438 43.3892 249.438Z" fill="white"/>
<path d="M50.5445 249.057C51.7216 249.057 52.6759 248.273 52.6759 247.305C52.6759 246.337 51.7216 245.553 50.5445 245.553C49.3673 245.553 48.4131 246.337 48.4131 247.305C48.4131 248.273 49.3673 249.057 50.5445 249.057Z" fill="white"/>
<path d="M57.7 248.753C58.8771 248.753 59.8314 247.968 59.8314 247C59.8314 246.033 58.8771 245.248 57.7 245.248C56.5229 245.248 55.5686 246.033 55.5686 247C55.5686 247.968 56.5229 248.753 57.7 248.753Z" fill="#E3087F"/>
<path d="M64.018 236.411C60.2119 241.668 10.5809 239.916 9.28687 236.792V226.05H63.5613C63.8657 226.888 63.9419 232.145 64.018 236.411Z" fill="url(#paint1_linear_3730_10867)"/>
<path d="M36.4621 229.021C51.4706 229.021 63.6374 227.69 63.6374 226.049C63.6374 224.408 51.4706 223.078 36.4621 223.078C21.4536 223.078 9.28687 224.408 9.28687 226.049C9.28687 227.69 21.4536 229.021 36.4621 229.021Z" fill="#642366"/>
<path d="M43.3892 235.725C44.5663 235.725 45.5206 234.941 45.5206 233.973C45.5206 233.005 44.5663 232.221 43.3892 232.221C42.2121 232.221 41.2578 233.005 41.2578 233.973C41.2578 234.941 42.2121 235.725 43.3892 235.725Z" fill="white"/>
<path d="M50.5445 235.344C51.7216 235.344 52.6759 234.56 52.6759 233.592C52.6759 232.624 51.7216 231.84 50.5445 231.84C49.3673 231.84 48.4131 232.624 48.4131 233.592C48.4131 234.56 49.3673 235.344 50.5445 235.344Z" fill="white"/>
<path d="M57.7 235.04C58.8771 235.04 59.8314 234.255 59.8314 233.287C59.8314 232.32 58.8771 231.535 57.7 231.535C56.5229 231.535 55.5686 232.32 55.5686 233.287C55.5686 234.255 56.5229 235.04 57.7 235.04Z" fill="#E3087F"/>
<path d="M64.018 222.697C60.2119 227.954 10.5809 226.202 9.28687 223.078V212.336H63.5613C63.8657 213.174 63.9419 218.431 64.018 222.697Z" fill="url(#paint2_linear_3730_10867)"/>
<path d="M36.4621 215.307C51.4706 215.307 63.6374 213.977 63.6374 212.336C63.6374 210.695 51.4706 209.364 36.4621 209.364C21.4536 209.364 9.28687 210.695 9.28687 212.336C9.28687 213.977 21.4536 215.307 36.4621 215.307Z" fill="#642366"/>
<path d="M43.3892 222.011C44.5663 222.011 45.5206 221.227 45.5206 220.259C45.5206 219.291 44.5663 218.507 43.3892 218.507C42.2121 218.507 41.2578 219.291 41.2578 220.259C41.2578 221.227 42.2121 222.011 43.3892 222.011Z" fill="white"/>
<path d="M50.5445 221.707C51.7216 221.707 52.6759 220.922 52.6759 219.954C52.6759 218.987 51.7216 218.202 50.5445 218.202C49.3673 218.202 48.4131 218.987 48.4131 219.954C48.4131 220.922 49.3673 221.707 50.5445 221.707Z" fill="white"/>
<path d="M57.7 221.326C58.8771 221.326 59.8314 220.541 59.8314 219.574C59.8314 218.606 58.8771 217.821 57.7 217.821C56.5229 217.821 55.5686 218.606 55.5686 219.574C55.5686 220.541 56.5229 221.326 57.7 221.326Z" fill="#E3087F"/>
<path d="M64.018 209.06C60.2119 214.317 10.5809 212.564 9.28687 209.441V198.698H63.5613C63.8657 199.46 63.9419 204.717 64.018 209.06Z" fill="url(#paint3_linear_3730_10867)"/>
<path d="M36.4621 201.669C51.4706 201.669 63.6374 200.339 63.6374 198.698C63.6374 197.057 51.4706 195.727 36.4621 195.727C21.4536 195.727 9.28687 197.057 9.28687 198.698C9.28687 200.339 21.4536 201.669 36.4621 201.669Z" fill="#642366"/>
<path d="M43.3892 208.298C44.5663 208.298 45.5206 207.513 45.5206 206.545C45.5206 205.578 44.5663 204.793 43.3892 204.793C42.2121 204.793 41.2578 205.578 41.2578 206.545C41.2578 207.513 42.2121 208.298 43.3892 208.298Z" fill="white"/>
<path d="M50.5445 207.993C51.7216 207.993 52.6759 207.208 52.6759 206.241C52.6759 205.273 51.7216 204.488 50.5445 204.488C49.3673 204.488 48.4131 205.273 48.4131 206.241C48.4131 207.208 49.3673 207.993 50.5445 207.993Z" fill="white"/>
<path d="M57.7 207.612C58.8771 207.612 59.8314 206.828 59.8314 205.86C59.8314 204.892 58.8771 204.107 57.7 204.107C56.5229 204.107 55.5686 204.892 55.5686 205.86C55.5686 206.828 56.5229 207.612 57.7 207.612Z" fill="#E3087F"/>
<path d="M63.8656 195.27C60.0596 200.527 10.4286 198.774 9.13452 195.651V184.908H63.4089C63.7134 185.746 63.7895 191.003 63.8656 195.27Z" fill="url(#paint4_linear_3730_10867)"/>
<path d="M36.3098 187.879C51.3183 187.879 63.485 186.549 63.485 184.908C63.485 183.267 51.3183 181.937 36.3098 181.937C21.3013 181.937 9.13452 183.267 9.13452 184.908C9.13452 186.549 21.3013 187.879 36.3098 187.879Z" fill="#642366"/>
<path d="M43.2369 194.584C44.414 194.584 45.3683 193.799 45.3683 192.831C45.3683 191.864 44.414 191.079 43.2369 191.079C42.0597 191.079 41.1055 191.864 41.1055 192.831C41.1055 193.799 42.0597 194.584 43.2369 194.584Z" fill="white"/>
<path d="M50.3921 194.203C51.5693 194.203 52.5235 193.418 52.5235 192.451C52.5235 191.483 51.5693 190.698 50.3921 190.698C49.215 190.698 48.2607 191.483 48.2607 192.451C48.2607 193.418 49.215 194.203 50.3921 194.203Z" fill="white"/>
<path d="M57.5476 193.822C58.7248 193.822 59.679 193.037 59.679 192.07C59.679 191.102 58.7248 190.317 57.5476 190.317C56.3705 190.317 55.4163 191.102 55.4163 192.07C55.4163 193.037 56.3705 193.822 57.5476 193.822Z" fill="#E3087F"/>
<path d="M63.8656 181.556C60.0596 186.813 10.4286 185.06 9.13452 181.937V171.194H63.4089C63.7134 172.032 63.7895 177.289 63.8656 181.556Z" fill="url(#paint5_linear_3730_10867)"/>
<path d="M36.3098 174.165C51.3183 174.165 63.485 172.835 63.485 171.194C63.485 169.553 51.3183 168.223 36.3098 168.223C21.3013 168.223 9.13452 169.553 9.13452 171.194C9.13452 172.835 21.3013 174.165 36.3098 174.165Z" fill="#642366"/>
<path d="M43.2369 180.87C44.414 180.87 45.3683 180.085 45.3683 179.118C45.3683 178.15 44.414 177.365 43.2369 177.365C42.0597 177.365 41.1055 178.15 41.1055 179.118C41.1055 180.085 42.0597 180.87 43.2369 180.87Z" fill="white"/>
<path d="M50.3921 180.489C51.5693 180.489 52.5235 179.704 52.5235 178.737C52.5235 177.769 51.5693 176.984 50.3921 176.984C49.215 176.984 48.2607 177.769 48.2607 178.737C48.2607 179.704 49.215 180.489 50.3921 180.489Z" fill="white"/>
<path d="M57.5476 180.184C58.7248 180.184 59.679 179.4 59.679 178.432C59.679 177.464 58.7248 176.68 57.5476 176.68C56.3705 176.68 55.4163 177.464 55.4163 178.432C55.4163 179.4 56.3705 180.184 57.5476 180.184Z" fill="#E3087F"/>
<path d="M63.8656 167.613C60.0596 172.87 10.4286 171.118 9.13452 167.994V157.252H63.4089C63.7134 158.09 63.7895 163.347 63.8656 167.613Z" fill="url(#paint6_linear_3730_10867)"/>
<path d="M36.3098 160.223C51.3183 160.223 63.485 158.893 63.485 157.252C63.485 155.611 51.3183 154.28 36.3098 154.28C21.3013 154.28 9.13452 155.611 9.13452 157.252C9.13452 158.893 21.3013 160.223 36.3098 160.223Z" fill="#F096BD"/>
<path d="M43.2369 166.927C44.414 166.927 45.3683 166.143 45.3683 165.175C45.3683 164.207 44.414 163.423 43.2369 163.423C42.0597 163.423 41.1055 164.207 41.1055 165.175C41.1055 166.143 42.0597 166.927 43.2369 166.927Z" fill="white"/>
<path d="M50.3921 166.623C51.5693 166.623 52.5235 165.838 52.5235 164.87C52.5235 163.903 51.5693 163.118 50.3921 163.118C49.215 163.118 48.2607 163.903 48.2607 164.87C48.2607 165.838 49.215 166.623 50.3921 166.623Z" fill="white"/>
<path d="M57.5476 166.242C58.7248 166.242 59.679 165.457 59.679 164.49C59.679 163.522 58.7248 162.737 57.5476 162.737C56.3705 162.737 55.4163 163.522 55.4163 164.49C55.4163 165.457 56.3705 166.242 57.5476 166.242Z" fill="#E3087F"/>
<path d="M312.021 230.543H126.742V236.638H312.021V230.543Z" fill="url(#paint7_linear_3730_10867)"/>
<path d="M319.633 251.342H122.098C115.4 251.342 109.995 245.933 109.995 239.228C109.995 237.628 111.289 236.409 112.812 236.409H328.843C330.442 236.409 331.66 237.704 331.66 239.228C331.736 245.933 326.331 251.342 319.633 251.342Z" fill="url(#paint8_linear_3730_10867)"/>
<path d="M319.633 251.875H122.098C115.171 251.875 109.538 246.237 109.538 239.304C109.538 237.476 110.985 236.028 112.812 236.028H328.843C330.67 236.028 332.117 237.476 332.117 239.304C332.193 246.237 326.56 251.875 319.633 251.875ZM112.812 236.866C111.517 236.866 110.452 237.933 110.452 239.228C110.452 245.628 115.704 250.885 122.098 250.885H319.633C326.027 250.885 331.279 245.628 331.279 239.228C331.279 237.933 330.214 236.866 328.92 236.866H112.812Z" fill="url(#paint9_linear_3730_10867)"/>
<path d="M305.398 231.229H133.44C130.852 231.229 128.721 229.096 128.721 226.505V125.557C128.721 122.966 130.852 120.833 133.44 120.833H305.398C307.986 120.833 310.118 122.966 310.118 125.557V226.429C310.118 229.096 307.986 231.229 305.398 231.229Z" fill="url(#paint10_linear_3730_10867)"/>
<path d="M305.398 231.686H133.44C130.548 231.686 128.188 229.324 128.188 226.429V125.557C128.188 122.662 130.548 120.3 133.44 120.3H305.398C308.291 120.3 310.65 122.662 310.65 125.557V226.429C310.574 229.401 308.215 231.686 305.398 231.686ZM133.44 121.29C131.081 121.29 129.178 123.195 129.178 125.557V226.429C129.178 228.791 131.081 230.696 133.44 230.696H305.398C307.758 230.696 309.661 228.791 309.661 226.429V125.557C309.661 123.195 307.758 121.29 305.398 121.29H133.44Z" fill="url(#paint11_linear_3730_10867)"/>
<path d="M304.409 132.719H134.735V223.306H304.409V132.719Z" fill="url(#paint12_linear_3730_10867)"/>
<path d="M304.561 223.458H134.582V132.566H304.561V223.458ZM134.887 223.153H304.256V132.871H134.887V223.153Z" fill="url(#paint13_linear_3730_10867)"/>
<path d="M111.746 152.832C112.355 151.308 111.518 149.784 110.3 148.184C110.071 147.575 110.147 146.889 110.376 146.28L111.137 144.147C111.289 143.689 111.289 143.08 111.061 142.623L109.31 139.042C108.929 138.356 108.929 137.442 109.31 136.756C109.843 135.614 110.68 134.699 110.376 132.49C109.767 129.518 108.32 129.138 106.646 128.604C106.037 128.452 105.58 127.995 105.276 127.461C103.982 124.947 102.078 123.043 96.75 124.109C93.9335 124.642 91.4976 126.471 89.5185 129.671C89.214 130.128 88.9856 130.738 88.9095 131.271L88.4528 133.785C88.3006 134.775 87.6916 135.614 86.8543 136.147L83.2004 138.28C82.3631 138.813 80.9929 139.88 81.069 140.87L81.6019 143.004C81.8303 143.842 81.7541 144.832 81.3735 145.67C80.0034 147.575 77.9481 148.87 78.3287 152.299C78.557 154.737 80.3078 156.87 82.6676 157.556L111.746 152.832Z" fill="#2B2227"/>
<path d="M82.0586 158.47C77.7197 156.185 77.7197 154.204 77.7958 152.223V151.613C78.1764 148.947 80.3839 147.728 81.9064 146.814C82.5915 146.433 83.1243 146.128 83.0482 145.899L80.7645 140.642C80.7645 138.814 83.1243 136.528 86.093 136.528H86.1691V136.604C86.2453 136.757 86.3214 136.833 86.3975 136.833C86.702 136.909 87.311 136.376 87.9961 135.538C89.3662 133.709 90.4319 130.814 89.6707 129.138C89.9752 125.1 94.9231 123.729 96.3694 123.424C101.926 122.357 103.829 124.491 105.047 126.852C105.352 127.462 106.417 128.909 106.95 129.062C107.331 129.214 107.711 129.214 108.092 129.29C109.386 129.519 110.756 129.747 111.213 132.109C111.594 134.471 110.528 135.766 109.234 137.061C108.701 137.595 108.777 137.671 109.082 138.357V138.433C108.625 139.119 108.473 139.652 108.625 139.957C108.777 140.261 109.158 140.414 109.843 140.49H109.919V140.566C109.995 140.719 110.452 141.099 110.832 141.557C111.822 142.471 112.431 143.08 112.355 143.461C112.431 144.833 112.126 145.823 111.517 146.509C111.213 147.423 111.061 148.413 110.985 149.404C110.985 150.471 111.061 150.699 111.213 151.08C111.289 151.309 111.441 151.613 111.517 152.147V152.223L82.0586 158.47ZM111.365 152.147C111.289 151.613 111.213 151.385 111.137 151.156C110.985 150.851 110.832 150.471 110.909 149.404C110.832 148.413 111.365 146.509 111.441 146.356C112.126 145.747 112.355 144.833 112.279 143.461C112.355 143.233 111.365 142.318 110.756 141.709C110.3 141.252 109.919 140.947 109.843 140.719C109.158 140.642 108.701 140.414 108.549 140.033C108.32 139.652 108.473 139.119 109.005 138.357C108.625 137.671 108.549 137.442 109.158 136.833C110.452 135.538 111.441 134.319 111.061 132.033C110.604 129.824 109.386 129.595 108.092 129.367C107.711 129.29 107.331 129.214 106.95 129.138C106.265 128.909 105.199 127.309 104.971 126.776C103.829 124.414 102.002 122.433 96.5216 123.424C95.0753 123.729 90.2797 125.1 89.8991 128.986C90.8125 130.966 89.3662 133.938 88.1483 135.538C87.8438 135.995 87.0065 136.985 86.3975 136.909C86.3214 136.909 86.1691 136.833 86.0169 136.604C83.2004 136.604 80.9168 138.738 80.9168 140.49L83.2004 145.747C83.2765 146.128 82.7437 146.433 81.9064 146.89C80.4601 147.728 78.2525 148.947 77.9481 151.537V152.147C77.8719 154.128 77.8719 155.956 82.0586 158.165L111.365 152.147Z" fill="#2B2227"/>
<path d="M83.5809 155.27L83.7332 155.194C82.8958 152.985 83.5048 151.385 84.1899 149.861C84.5705 148.947 84.9511 148.033 84.9511 147.042C84.7988 146.128 84.4944 145.366 84.266 144.757C83.8854 143.919 83.657 143.233 84.1138 142.547C85.0272 141.328 86.4735 141.176 87.6915 141.023C88.7571 140.947 89.8228 140.795 90.3557 140.033C90.8885 139.043 90.9647 137.595 90.9647 136.071C91.0408 134.09 91.1169 131.881 92.2587 130.205C94.0095 127.843 96.5215 126.852 100.251 127.081V126.929C96.5215 126.7 93.9334 127.767 92.1065 130.129C90.8885 131.881 90.8124 134.09 90.8124 136.071C90.7363 137.595 90.7363 138.966 90.2035 139.957C89.6706 140.642 88.681 140.719 87.6153 140.871C86.3213 141.023 84.875 141.176 83.8854 142.395C83.4287 143.233 83.7332 143.919 84.0376 144.757C84.3421 145.442 84.5705 146.204 84.7227 146.966C84.7227 147.956 84.3421 148.795 83.9615 149.709C83.3526 151.385 82.6675 152.909 83.5809 155.27Z" fill="url(#paint14_linear_3730_10867)"/>
<path d="M90.8887 170.127C91.0409 174.47 91.3454 173.784 91.8782 177.137C99.1859 178.737 104.971 178.279 109.691 176.451C109.234 172.108 108.929 172.565 108.777 168.375L90.8887 170.127Z" fill="url(#paint15_linear_3730_10867)"/>
<path d="M120.043 156.641L135.724 156.946C136.104 156.946 136.409 156.718 136.637 156.413L142.499 145.518C142.879 144.832 142.423 144.07 141.661 144.07L124.915 143.461C124.534 143.461 124.153 143.69 123.925 144.07L119.129 155.27C118.901 155.88 119.358 156.641 120.043 156.641Z" fill="url(#paint16_linear_3730_10867)"/>
<path d="M135.724 157.556L120.043 157.251C119.51 157.251 118.977 156.946 118.749 156.489C118.444 156.032 118.444 155.499 118.597 154.965L123.392 143.766C123.621 143.156 124.306 142.775 124.915 142.775L141.661 143.385C142.194 143.385 142.727 143.69 143.031 144.223C143.336 144.756 143.336 145.29 143.031 145.823L137.17 156.718C136.866 157.251 136.333 157.556 135.724 157.556ZM120.119 156.032L135.8 156.337C135.952 156.337 136.104 156.261 136.181 156.108L142.042 145.213C142.118 145.061 142.042 144.909 142.042 144.832C142.042 144.756 141.89 144.604 141.737 144.604L124.991 143.994C124.839 143.994 124.686 144.071 124.61 144.223L119.815 155.423C119.738 155.575 119.815 155.727 119.815 155.803C119.815 155.956 119.891 156.032 120.119 156.032Z" fill="url(#paint17_linear_3730_10867)"/>
<path d="M131.461 158.47C135.572 156.26 136.866 153.518 135.876 149.404C135.648 148.718 135.343 148.642 135.039 149.327C134.811 148.946 134.658 149.175 134.582 149.861C134.354 149.175 134.125 149.556 133.973 150.47C133.593 149.708 133.364 150.318 133.136 151.384C132.984 152.299 132.831 153.213 132.451 153.67C131.994 154.203 131.081 154.051 130.167 154.813C129.558 155.499 129.254 156.337 129.33 157.403C126.513 159.079 130.167 161.746 131.461 158.47Z" fill="#F3A07D"/>
<path d="M79.851 170.356L95.7603 171.422C97.435 171.498 98.044 171.27 97.8917 170.737C95.4558 170.584 97.8917 167.232 98.5768 168.146C100.099 167.08 104.59 167.841 108.701 168.299C108.701 166.775 108.853 165.251 109.234 163.727C114.106 160.832 111.213 154.813 107.483 148.49C105.884 147.423 104.21 146.509 102.383 145.899C99.8709 145.442 97.3589 144.833 94.5424 146.28L89.1378 148.566C84.7989 152.451 81.2973 159.613 77.948 166.394C77.4151 168.299 77.5674 169.975 79.851 170.356ZM86.0168 165.48C87.387 163.88 88.5288 162.127 89.5184 160.375L90.3557 166.165C88.7572 165.708 87.3109 165.403 86.0168 165.48Z" fill="url(#paint18_linear_3730_10867)"/>
<path d="M95.9887 146.052C95.8365 145.671 95.0753 145.9 94.6186 146.204C94.238 147.271 95.3036 151.08 99.4903 151.08C103.372 150.928 104.895 148.262 102.84 146.204L95.9887 146.052Z" fill="#1F1F1D"/>
<path d="M95.9888 146.051V143.08L102.459 145.899C102.992 147.728 101.774 149.404 99.8709 149.556C97.8918 149.556 95.9888 148.718 95.9888 146.051Z" fill="#F3A07D"/>
<path d="M95.9888 143.08V141.328C97.8918 144.299 100.023 145.442 102.307 144.68L102.459 145.899C99.9471 146.357 97.7396 145.671 95.9888 143.08Z" fill="#E07753"/>
<path d="M95.9886 141.328C97.5871 144.375 99.3379 145.518 102.307 144.68C106.646 142.09 107.102 137.595 106.493 132.566L96.5214 136.452C95.9886 137.747 95.7602 139.347 95.9886 141.328Z" fill="#F3A07D"/>
<path d="M105.58 131.119C106.037 131.5 106.341 131.957 106.417 132.491C104.514 135.462 100.327 135.081 96.4453 136.376C96.9782 135.309 98.729 135.309 100.48 134.471C102.459 133.862 104.21 132.719 105.58 131.119Z" fill="#E07753"/>
<path d="M109.234 163.727C110.376 165.403 111.822 166.85 113.42 168.298C117.683 170.279 131.385 161.289 130.928 159.536C129.634 158.698 129.71 157.937 129.558 157.403C128.949 155.194 119.053 161.441 116.085 162.203C113.192 156.26 110.452 150.546 107.483 148.489C109.462 154.584 113.42 160.222 109.234 163.727ZM90.3557 166.165C93.629 166.47 95.532 167.308 98.1201 167.917C100.556 168.527 108.929 176.602 108.701 168.222C103.449 163.651 92.2588 169.822 89.6707 159.841L90.3557 166.165Z" fill="#1F1F1D"/>
<path d="M97.7394 170.508C102.383 173.861 104.743 172.87 107.864 170.661C108.396 170.127 108.092 169.823 107.559 169.823C107.864 169.518 107.483 169.365 106.874 169.594C107.331 169.137 106.95 169.061 106.037 169.289C106.493 168.756 106.113 168.68 104.895 168.908L103.144 169.289C102.611 169.442 102.154 169.213 101.85 168.832C100.936 167.537 99.4902 167.004 97.8155 168.07C95.8364 166.851 95.608 170.737 97.7394 170.508Z" fill="#F3A07D"/>
<path d="M90.8125 210.43L89.3662 239.991L98.1201 239.534C100.937 224.753 103.753 198.85 102.687 191.764C106.798 205.935 101.85 224.906 105.352 239.839L116.618 239.381C111.365 220.411 116.618 188.869 108.473 174.927L91.8782 177.06C86.3214 187.802 93.3245 195.878 90.8125 210.43Z" fill="#1E1E1C"/>
<path d="M108.244 238.695L107.559 243.267V247.838H108.777L109.005 244.714C109.843 246.771 110.832 248.676 112.355 249.971C118.368 251.19 119.358 248.752 116.465 245.857C115.019 245.247 114.334 244.409 113.801 243.419C113.344 242.048 113.268 240.371 113.344 238.619H108.244V238.695Z" fill="#1E1E1C"/>
<path d="M91.117 239.382L90.4319 243.953V248.524H91.6498L91.8782 245.401C92.7155 247.458 93.7051 249.362 95.2275 250.658C101.241 251.877 102.231 249.439 99.3381 246.543C97.8918 245.934 97.2067 245.096 96.6738 244.105C96.2171 242.734 96.141 241.058 96.2171 239.306H91.117V239.382Z" fill="#1E1E1C"/>
<path d="M45.7489 99.501L57.3193 105.291L55.0356 109.634C55.264 112.605 54.9595 113.291 52.9804 112.834C51.5341 113.443 52.3714 117.481 49.7833 115.424C48.946 114.358 48.337 113.824 48.0325 114.586L47.4235 118.624L42.7801 117.786L41.1055 106.129C41.7144 103.539 43.2369 101.329 45.7489 99.501Z" fill="#FFE9B0"/>
<path d="M48.0323 116.567C44.3024 118.853 43.6934 115.958 43.6934 115.958C35.0156 115.348 36.4619 130.129 35.6246 139.347C35.9291 143.69 31.3618 146.357 30.9812 150.014C39.05 152.375 45.1397 152.147 48.3368 147.957C48.6413 140.414 46.586 139.271 46.586 134.624C51.3056 132.338 53.2847 130.891 53.2086 126.548C52.3712 122.053 48.8697 122.357 48.0323 116.567Z" fill="url(#paint19_linear_3730_10867)"/>
<path d="M48.8698 131.576L41.1055 132.49C42.2473 137.747 48.946 141.709 58.4611 144.909C59.7552 145.519 60.7447 146.738 61.6582 147.804L71.7823 148.109C71.4778 146.052 69.8793 143.461 67.7479 142.014C65.4642 140.871 62.5716 142.623 60.2119 141.404C55.264 138.205 54.0461 135.081 48.8698 131.576Z" fill="#FFE9B0"/>
<path d="M54.8073 104.758C53.2848 103.386 51.3057 102.548 49.3265 101.863C48.6415 101.634 47.9564 102.015 47.8041 102.701C47.4996 103.767 47.4996 104.834 46.8145 105.596L45.3682 104.453C44.5309 102.625 43.5413 102.167 42.1712 103.844C41.8667 107.043 42.5518 108.186 43.9219 107.881C43.0085 111.615 45.1399 113.596 43.9219 115.424L43.5413 115.5C41.8667 115.729 40.3442 116.643 39.4308 118.091C38.8979 119.005 37.9845 119.081 37.5278 120.072C37.2233 123.271 34.6352 126.776 33.7978 126.167C31.4381 124.338 31.2858 125.938 32.656 123.881C31.6664 121.976 34.1784 119.843 34.1023 117.557C33.7978 114.662 36.6904 115.5 37.2994 112.072C37.9084 108.034 40.801 110.319 40.4965 105.443C41.1816 103.31 41.5622 101.406 41.9428 99.6532C42.4756 96.7581 46.6623 96.1486 52.9042 96.7581C56.4058 97.3676 59.3745 100.872 58.0805 105.443C54.8834 110.929 57.5476 115.272 54.8834 115.881C53.5893 116.719 52.143 117.405 53.1326 120.833C54.1222 123.5 54.1983 125.633 51.6863 126.624C50.849 122.89 48.1847 122.281 49.4027 118.243L47.6519 117.1L47.9564 114.51C48.7176 115.881 49.7071 116.795 51.1534 116.262C51.9908 115.653 52.5236 114.281 52.9042 112.757L54.9595 113.367C55.4924 112.072 55.264 109.024 55.264 109.024L55.5685 107.424C55.7207 106.282 55.4924 105.367 54.8073 104.758Z" fill="#1D1E1C"/>
<path d="M63.9418 158.47C60.7447 164.717 63.9418 173.479 62.7999 184.755L66.3015 185.364C66.7582 178.431 67.9762 171.879 67.4433 166.85V158.165L63.9418 158.47Z" fill="url(#paint20_linear_3730_10867)"/>
<path d="M30.9813 150.089C30.6007 157.175 35.1679 159.841 43.0845 159.308L65.6164 159.003C64.4746 167.993 71.0971 168.527 74.8271 187.345L79.166 185.593C76.1211 173.784 73.6852 161.594 72.0867 152.299C71.8583 151.08 70.8688 150.165 69.6508 149.937C59.9073 148.413 50.4683 151.08 48.2608 148.032C42.8562 150.546 37.071 151.156 30.9813 150.089Z" fill="url(#paint21_linear_3730_10867)"/>
<path d="M79.242 185.669C80.8406 186.964 82.1346 190.316 84.4183 191.993C88.7572 194.202 89.5184 195.878 87.9199 197.173L82.1346 196.869C80.5361 196.335 79.1659 193.669 77.7957 191.078V194.278H76.3494L76.045 190.545C74.827 189.326 74.827 187.65 74.9031 185.898L79.242 185.669Z" fill="#1D1E1C"/>
<path d="M66.2254 185.364C67.4433 185.745 67.9762 190.317 69.4225 191.459C72.0867 193.44 73.3808 195.269 71.4777 196.64C68.509 196.945 66.4537 195.878 65.1597 193.745L64.5507 189.402L63.9418 190.24L62.7999 192.526L62.191 192.221L63.0283 188.717C61.7342 187.726 61.582 186.355 62.7238 184.679L66.2254 185.364Z" fill="#1D1E1C"/>
<path d="M82.972 127.843L80.6884 127.233L73.1524 149.48H52.3713V151.233H74.5987L82.972 127.843Z" fill="#1D1E1C"/>
<path d="M52.6758 147.804L73.4569 148.108L73.1524 149.48H52.3713L52.6758 147.804Z" fill="#C9C7C2"/>
<path d="M368.883 184.069L345.819 185.365C341.404 199.612 343.916 220.182 346.732 241.058L352.746 241.667C355.258 227.42 351.452 205.859 356.856 197.631C356.247 204.259 358.531 228.944 361.88 242.581H367.894H370.101L367.285 215.002C368.655 208.754 367.97 196.031 368.883 184.069Z" fill="#1D1E1C"/>
<path d="M366.371 143.232C373.831 140.871 374.516 149.861 373.679 161.594L365.153 162.508C362.261 154.661 360.891 147.727 366.371 143.232Z" fill="#717270"/>
<path d="M348.026 143.537C342.545 145.442 339.501 151.232 339.805 162.508H344.829C343.763 153.822 344.448 146.966 348.026 143.537Z" fill="#717270"/>
<path d="M359.673 128.376L360.282 142.928L353.659 149.556L349.244 147.042L349.853 142.318C348.254 141.023 347.036 139.347 346.351 137.29C345.819 134.471 345.742 131.652 345.742 128.757L359.673 128.376Z" fill="#FFEAB1"/>
<path d="M360.358 140.109C362.717 140.719 365.305 142.014 366.371 143.309C361.652 152.833 369.873 172.108 368.883 184.451H346.123C343.306 166.166 342.012 143.005 349.32 143.614C349.32 145.9 349.929 147.195 353.735 147.423C358.683 146.281 359.672 143.309 360.358 140.109Z" fill="#E0E0DF"/>
<path d="M368.579 249.286C366.752 252.866 362.718 252.79 360.282 253.857C357.617 253.781 356.704 252.638 357.77 250.352C360.434 248.295 362.032 248.981 363.479 244.867L363.935 242.505L367.894 242.657C368.655 244.867 369.036 247.152 368.579 249.286Z" fill="#1D1E1C"/>
<path d="M351.451 241.439C352.746 244.41 352.898 246.543 352.365 248.067C350.69 249.21 349.016 249.743 347.341 249.362C345.133 251.038 343.307 253.705 340.414 253.171C337.75 252.791 336.379 251.876 337.902 249.667C341.099 248.676 343.459 246.619 345.514 243.953L347.113 243.039L347.722 240.829L351.451 241.439Z" fill="#1D1E1C"/>
<path d="M373.603 161.594L365.077 162.508L365.839 168.603C362.032 171.117 358.683 173.784 356.323 176.831L350.538 183.079C348.331 181.174 344.753 179.726 345.134 182.469L349.549 186.583C352.517 186.659 353.659 185.212 354.573 183.764L371.395 172.641C372.537 171.879 373.298 170.584 373.298 169.136L373.603 161.594Z" fill="#FFEAB1"/>
<path d="M360.053 136.604L360.358 139.804C358.378 143.004 355.181 145.747 349.625 144.833L349.32 141.633C351.832 146.128 358.683 140.338 360.053 136.604Z" fill="#FAD58A"/>
<path d="M339.805 127.386C341.556 130.052 344.068 130.89 347.113 130.586C349.016 129.976 350.919 128.833 352.822 127.386C353.583 128.224 353.735 129.138 352.822 130.205C354.42 130.205 356.019 128.3 357.237 129.29C357.541 130.357 357.77 131.652 357.541 134.014C359.444 133.1 359.901 130.433 360.738 131.195C361.271 132.49 360.129 135.309 359.14 137.976C361.271 136.223 362.717 132.566 363.555 127.386C363.098 121.672 359.444 119.157 352.517 119.462C346.808 120.757 346.504 125.481 341.784 125.176L344.296 126.471C342.85 127.843 341.327 127.995 339.805 127.386Z" fill="#1D1E1C"/>
<path d="M325.57 162.889L352.441 162.584L358.226 181.707L359.064 183.84L354.344 184.145L349.929 183.231C347.569 180.717 343.915 179.726 345.895 183.231H331.888L325.57 162.889Z" fill="#DAD2E9"/>
<path d="M190.379 148.261H168.532V149.48H190.379V148.261Z" fill="#1D1D1B"/>
<path d="M190.379 153.441H168.532V154.66H190.379V153.441Z" fill="#1D1D1B"/>
<path d="M190.379 158.317H168.532V159.536H190.379V158.317Z" fill="#1D1D1B"/>
<path d="M294.056 167.993H244.349V169.212H294.056V167.993Z" fill="#1D1D1B"/>
<path d="M294.056 179.422H244.349V180.641H294.056V179.422Z" fill="#1D1D1B"/>
<path d="M294.056 184.374H244.349V185.593H294.056V184.374Z" fill="#1D1D1B"/>
<path d="M294.056 189.25H244.349V190.469H294.056V189.25Z" fill="#1D1D1B"/>
<path d="M294.056 194.126H244.349V195.345H294.056V194.126Z" fill="#1D1D1B"/>
<path d="M294.056 198.926H244.349V200.145H294.056V198.926Z" fill="#1D1D1B"/>
<path d="M294.056 203.802H244.349V205.021H294.056V203.802Z" fill="#1D1D1B"/>
<path d="M294.056 208.068H244.349V209.287H294.056V208.068Z" fill="#1D1D1B"/>
<path d="M294.056 172.26H244.349V175.917H294.056V172.26Z" fill="#1D1D1B"/>
<path d="M294.056 212.259H244.349V215.916H294.056V212.259Z" fill="#1D1D1B"/>
<path d="M150.568 186.431L150.187 185.974L168.532 172.488L176.373 177.364L201.264 155.499L209.181 162.736L233.844 143.537L234.225 143.994L209.105 163.574L201.264 156.26L176.449 178.05L168.532 173.25L150.568 186.431Z" fill="#E1017F"/>
<path d="M150.948 187.421C151.621 187.421 152.166 186.876 152.166 186.202C152.166 185.529 151.621 184.983 150.948 184.983C150.276 184.983 149.73 185.529 149.73 186.202C149.73 186.876 150.276 187.421 150.948 187.421Z" fill="#E1017F"/>
<path d="M168.532 174.088C169.205 174.088 169.75 173.543 169.75 172.869C169.75 172.196 169.205 171.65 168.532 171.65C167.859 171.65 167.314 172.196 167.314 172.869C167.314 173.543 167.859 174.088 168.532 174.088Z" fill="#E1017F"/>
<path d="M176.449 178.964C177.122 178.964 177.667 178.419 177.667 177.745C177.667 177.072 177.122 176.526 176.449 176.526C175.776 176.526 175.231 177.072 175.231 177.745C175.231 178.419 175.776 178.964 176.449 178.964Z" fill="#E1017F"/>
<path d="M201.264 157.709C201.937 157.709 202.482 157.163 202.482 156.49C202.482 155.816 201.937 155.271 201.264 155.271C200.592 155.271 200.046 155.816 200.046 156.49C200.046 157.163 200.592 157.709 201.264 157.709Z" fill="#E1017F"/>
<path d="M209.181 164.336C209.853 164.336 210.399 163.791 210.399 163.117C210.399 162.444 209.853 161.898 209.181 161.898C208.508 161.898 207.963 162.444 207.963 163.117C207.963 163.791 208.508 164.336 209.181 164.336Z" fill="#E1017F"/>
<path d="M233.997 144.985C234.669 144.985 235.214 144.439 235.214 143.766C235.214 143.093 234.669 142.547 233.997 142.547C233.324 142.547 232.779 143.093 232.779 143.766C232.779 144.439 233.324 144.985 233.997 144.985Z" fill="#E1017F"/>
<path d="M237.65 151.004H230.952V217.744H237.65V151.004Z" fill="#E1017F"/>
<path d="M229.201 155.88H222.502V217.744H229.201V155.88Z" fill="#642366"/>
<path d="M220.675 167.993H213.977V217.744H220.675V167.993Z" fill="#F095BC"/>
<path d="M212.835 175.917H206.136V217.744H212.835V175.917Z" fill="#A95F9A"/>
<path d="M204.309 163.727H197.611V217.744H204.309V163.727Z" fill="#E1017F"/>
<path d="M195.86 171.65H189.161V217.744H195.86V171.65Z" fill="#642366"/>
<path d="M187.334 177.745H180.635V217.744H187.334V177.745Z" fill="#F095BC"/>
<path d="M179.494 188.641H172.795V217.744H179.494V188.641Z" fill="#A95F9A"/>
<path d="M171.044 184.983H164.345V217.744H171.044V184.983Z" fill="#E1017F"/>
<path d="M163.128 190.469H156.429V217.744H163.128V190.469Z" fill="#642366"/>
<path d="M154.678 201.974H147.979V217.744H154.678V201.974Z" fill="#F095BC"/>
<path d="M251.58 151.537C252.342 151.537 253.103 151.765 253.712 152.146L255.158 149.327C254.093 148.718 252.875 148.413 251.58 148.413C248.84 148.413 246.557 149.861 245.262 151.994L248.307 153.137C249.069 152.146 250.286 151.537 251.58 151.537Z" fill="#642366"/>
<path d="M258.888 155.575C258.888 152.832 257.366 150.546 255.158 149.251L253.712 152.07C254.854 152.756 255.691 154.051 255.691 155.498C255.691 157.708 253.94 159.46 251.733 159.536V162.736C255.691 162.66 258.888 159.536 258.888 155.575Z" fill="#E3087F"/>
<path d="M251.58 159.613C249.677 159.613 248.079 158.318 247.622 156.565H244.349C244.882 160.07 247.85 162.737 251.58 162.737C251.657 162.737 251.657 162.737 251.733 162.737V159.537C251.733 159.613 251.657 159.613 251.58 159.613Z" fill="#F095BC"/>
<path d="M273.351 155.118C273.351 155.879 273.123 156.565 272.666 157.175L275.482 158.698C276.091 157.708 276.472 156.489 276.548 155.194C276.624 152.527 275.254 150.165 273.047 148.87L271.829 151.841C272.818 152.68 273.351 153.822 273.351 155.118Z" fill="#E3087F"/>
<path d="M269.012 162.203C271.752 162.279 274.188 160.831 275.482 158.698L272.666 157.174C271.905 158.317 270.611 159.079 269.088 159.003C266.881 158.927 265.13 157.174 265.13 154.965L261.933 154.889C261.933 158.85 265.054 162.126 269.012 162.203Z" fill="#F095BC"/>
<path d="M265.206 154.889C265.282 152.984 266.652 151.461 268.403 151.08L268.479 147.88C264.902 148.261 262.085 151.156 262.009 154.813C262.009 154.889 262.009 154.889 262.009 154.965L265.206 155.042C265.206 154.965 265.206 154.965 265.206 154.889Z" fill="#642366"/>
<path d="M289.641 151.69C290.25 152.147 290.783 152.68 291.011 153.366L293.828 151.842C293.295 150.775 292.458 149.861 291.392 149.099C289.184 147.575 286.368 147.499 284.084 148.566L285.987 151.232C287.205 150.852 288.575 150.928 289.641 151.69Z" fill="#F095BC"/>
<path d="M293.371 159.08C294.893 156.87 295.046 154.051 293.904 151.766L291.087 153.289C291.62 154.508 291.544 156.032 290.707 157.251C289.489 159.08 286.977 159.537 285.15 158.394L283.323 160.984C286.672 163.194 291.087 162.356 293.371 159.08Z" fill="#642366"/>
<path d="M284.998 158.394C283.399 157.327 282.866 155.346 283.475 153.67L280.811 151.842C279.212 155.042 280.202 158.927 283.247 160.984C283.323 160.984 283.323 161.06 283.399 161.06L285.226 158.47C285.074 158.394 285.074 158.394 284.998 158.394Z" fill="#E3087F"/>
<path d="M155.744 149.404C156.657 149.404 157.571 149.633 158.332 150.09L160.083 146.585C158.789 145.9 157.342 145.442 155.744 145.442C152.471 145.442 149.578 147.195 148.056 149.861L151.786 151.233C152.699 150.166 154.145 149.404 155.744 149.404Z" fill="#642366"/>
<path d="M164.65 154.356C164.65 151.08 162.823 148.185 160.083 146.661L158.332 150.166C159.778 151.004 160.768 152.604 160.768 154.356C160.768 157.023 158.636 159.156 155.972 159.308V163.194C160.768 163.041 164.65 159.156 164.65 154.356Z" fill="#E3087F"/>
<path d="M155.744 159.308C153.384 159.308 151.481 157.708 150.948 155.651H146.914C147.523 159.918 151.253 163.194 155.744 163.194C155.82 163.194 155.896 163.194 155.896 163.194V159.308C155.896 159.308 155.82 159.308 155.744 159.308Z" fill="#F095BC"/>
<path d="M200.884 76.9497L94.0096 77.3306C93.7813 65.7501 100.404 60.8741 111.822 60.7217C111.061 47.3889 122.327 40.8367 133.288 44.9509C142.194 25.904 169.293 24.304 177.819 48.6079C191.597 48.9888 198.067 59.5789 193.576 69.7118C197.154 71.0832 199.742 73.3689 200.884 76.9497Z" fill="#EECBE2"/>
<path d="M201.264 76.9498C201.036 72.8357 197.23 71.0833 193.576 69.2548C200.884 60.3409 188.324 45.7891 177.362 48.1509C173.708 26.285 143.336 24.8375 134.43 42.513C147.447 33.4467 166.781 33.599 173.328 55.0839C184.289 53.484 192.739 61.9408 189.922 75.3499C191.521 75.3499 191.673 76.1117 191.978 76.9498H201.264Z" fill="#E1BFD6"/>
<path d="M100.861 71.2359C101.698 70.2455 102.764 69.3312 103.829 68.5694C104.971 67.8075 106.189 67.198 107.483 66.8171C108.777 66.4361 110.147 66.2076 111.441 66.1314C112.812 66.1314 114.182 66.2076 115.476 66.5123L115.095 66.8171C114.791 64.5314 114.715 62.1696 115.4 59.9602C115.704 58.8174 116.161 57.7507 116.77 56.8365C117.379 55.846 118.14 55.008 119.054 54.2461C118.292 55.0842 117.607 55.9984 117.074 56.9889C116.542 57.9793 116.085 59.0459 115.856 60.1125C115.324 62.322 115.4 64.5314 115.704 66.8171L115.78 67.198L115.4 67.1218C114.106 66.8932 112.812 66.7409 111.518 66.7409C110.223 66.7409 108.929 66.9694 107.635 67.2742C106.341 67.6551 105.199 68.1884 104.058 68.8741C102.916 69.4836 101.85 70.3217 100.861 71.2359Z" fill="#E1BED6"/>
<path d="M350.69 83.654L270.078 83.9588C269.926 75.1972 274.874 71.5402 283.475 71.464C282.942 61.4072 291.392 56.455 299.689 59.5787C306.388 45.1793 326.864 43.9603 333.258 62.3215C343.611 62.6262 348.559 70.5498 345.133 78.2447C347.874 79.3113 349.853 80.9875 350.69 83.654Z" fill="#EECBE2"/>
<path d="M350.995 83.6542C350.843 80.6067 347.95 79.2354 345.21 77.864C350.69 71.1595 341.251 60.1123 333.03 61.9408C330.29 45.4081 307.377 44.3414 300.679 57.6743C310.498 50.8936 325.114 50.9697 329.985 67.1215C338.206 65.9025 344.677 72.3023 342.469 82.4352C343.687 82.4352 343.763 83.0447 343.992 83.6542H350.995Z" fill="#E1BFD6"/>
<path d="M275.254 79.3874C275.939 78.6255 276.624 77.9398 277.462 77.3303C278.299 76.7208 279.212 76.2637 280.202 75.959C282.181 75.3495 284.313 75.3495 286.292 75.7304L285.911 76.0352C285.683 74.2828 285.607 72.5305 286.139 70.8544C286.368 70.0163 286.748 69.1783 287.205 68.4926C287.662 67.8069 288.271 67.1212 288.956 66.5879C288.347 67.1974 287.89 67.8831 287.434 68.645C287.053 69.4068 286.748 70.1687 286.52 71.0068C286.139 72.6829 286.216 74.359 286.444 76.0352L286.52 76.4923L286.063 76.4161C284.16 76.0352 282.105 76.0352 280.202 76.5685C279.289 76.797 278.375 77.178 277.462 77.7113C276.777 78.0922 276.015 78.7017 275.254 79.3874Z" fill="#EECBE2"/>
<path d="M301.288 92.187L141.281 92.7965C140.977 75.5019 150.872 68.1117 167.923 67.9593C166.858 47.9982 183.68 38.2461 200.047 44.265C213.368 15.7708 254.016 13.3328 266.729 49.7505C287.357 50.36 297.025 66.1308 290.402 81.2922C295.731 83.4254 299.613 86.8539 301.288 92.187Z" fill="white"/>
<path d="M301.897 92.1865C301.592 86.0915 295.883 83.3488 290.402 80.6822C301.288 67.3494 282.486 45.4835 266.196 49.1405C260.715 16.3799 215.271 14.2466 201.949 40.6837C221.513 27.1223 250.439 27.3509 260.106 59.502C276.472 57.064 289.184 69.7874 284.922 89.8247C287.357 89.8247 287.586 90.9675 287.966 92.2627H301.897V92.1865Z" fill="#EECBE2"/>
<path d="M151.557 83.6537C152.928 82.2062 154.374 80.8348 156.049 79.692C157.723 78.5491 159.55 77.7111 161.453 77.1016C163.356 76.4921 165.411 76.1873 167.391 76.1111C169.37 76.035 171.425 76.2635 173.404 76.6444L173.024 76.9492C172.491 73.5969 172.491 70.0161 173.404 66.7401C173.861 65.0639 174.546 63.464 175.459 62.0164C176.373 60.5689 177.515 59.2737 178.733 58.1309C177.515 59.3499 176.525 60.7212 175.688 62.1688C174.85 63.6164 174.241 65.2163 173.785 66.8162C173.024 70.0923 173.024 73.5208 173.556 76.873L173.633 77.254L173.252 77.1778C171.349 76.7968 169.37 76.5683 167.391 76.6444C165.411 76.6444 163.432 76.9492 161.605 77.4825C159.702 78.0158 157.875 78.8539 156.201 79.8443C154.602 81.0633 153.004 82.2823 151.557 83.6537Z" fill="#EECBE2"/>
<path opacity="0.25" d="M213.976 113.596L213.748 85.9399H221.056C222.198 85.9399 222.807 84.0352 222.045 82.8162L209.714 63.1598C209.257 62.4741 208.572 62.4741 208.115 63.1598L194.794 83.0447C193.957 84.2637 194.642 86.2446 195.784 86.2446L202.863 85.9399V113.596C202.863 114.967 203.624 116.11 204.614 116.11H212.15C213.215 116.11 213.976 114.967 213.976 113.596Z" fill="#EAB5CE"/>
<path d="M212.911 112.225L212.682 84.5688H219.99C221.132 84.5688 221.741 82.6641 220.98 81.4451L208.572 61.7887C208.115 61.103 207.43 61.103 206.973 61.7887L193.728 81.7498C192.891 82.9688 193.576 84.9497 194.718 84.9497L201.797 84.645V112.301C201.797 113.672 202.558 114.815 203.548 114.815H211.084C212.15 114.815 212.911 113.672 212.911 112.225Z" fill="#EAB5CE"/>
<path opacity="0.25" d="M234.529 63.8453L234.605 91.5014L227.298 91.4252C226.156 91.4252 225.547 93.3299 226.308 94.5489L238.487 114.281C238.944 114.967 239.629 114.967 240.086 114.358L253.483 94.4727C254.321 93.2537 253.712 91.2728 252.494 91.2728L245.415 91.5014L245.567 63.8453C245.567 62.4739 244.806 61.3311 243.816 61.3311L236.28 61.2549C235.367 61.2549 234.529 62.3977 234.529 63.8453Z" fill="#EAB5CE"/>
<path d="M233.768 62.7027L233.844 90.3588L226.536 90.2826C225.395 90.2826 224.786 92.1873 225.547 93.4063L237.726 113.139C238.183 113.825 238.868 113.825 239.325 113.215L252.722 93.3301C253.559 92.1111 252.951 90.1302 251.733 90.1302L244.653 90.3588L244.806 62.7027C244.806 61.3313 244.044 60.1885 243.055 60.1885L235.519 60.1123C234.605 60.1885 233.768 61.3313 233.768 62.7027Z" fill="#E1017F"/>
<defs>
<linearGradient id="paint0_linear_3730_10867" x1="9.2906" y1="246.634" x2="63.9959" y2="246.634" gradientUnits="userSpaceOnUse">
<stop stop-color="#F095BC"/>
<stop offset="1" stop-color="#642366"/>
</linearGradient>
<linearGradient id="paint1_linear_3730_10867" x1="9.2906" y1="232.932" x2="63.9959" y2="232.932" gradientUnits="userSpaceOnUse">
<stop stop-color="#F095BC"/>
<stop offset="1" stop-color="#642366"/>
</linearGradient>
<linearGradient id="paint2_linear_3730_10867" x1="9.2906" y1="219.229" x2="63.9959" y2="219.229" gradientUnits="userSpaceOnUse">
<stop stop-color="#F095BC"/>
<stop offset="1" stop-color="#642366"/>
</linearGradient>
<linearGradient id="paint3_linear_3730_10867" x1="9.2906" y1="205.526" x2="63.9959" y2="205.526" gradientUnits="userSpaceOnUse">
<stop stop-color="#F095BC"/>
<stop offset="1" stop-color="#642366"/>
</linearGradient>
<linearGradient id="paint4_linear_3730_10867" x1="9.15172" y1="191.767" x2="63.857" y2="191.767" gradientUnits="userSpaceOnUse">
<stop stop-color="#F095BC"/>
<stop offset="1" stop-color="#642366"/>
</linearGradient>
<linearGradient id="paint5_linear_3730_10867" x1="9.15172" y1="178.063" x2="63.857" y2="178.063" gradientUnits="userSpaceOnUse">
<stop stop-color="#F095BC"/>
<stop offset="1" stop-color="#642366"/>
</linearGradient>
<linearGradient id="paint6_linear_3730_10867" x1="9.15172" y1="164.147" x2="63.857" y2="164.147" gradientUnits="userSpaceOnUse">
<stop stop-color="#F095BC"/>
<stop offset="1" stop-color="#642366"/>
</linearGradient>
<linearGradient id="paint7_linear_3730_10867" x1="126.751" y1="233.598" x2="312.035" y2="233.598" gradientUnits="userSpaceOnUse">
<stop stop-color="#642366"/>
<stop offset="0.529" stop-color="#EDC3DC"/>
<stop offset="1" stop-color="#642366"/>
</linearGradient>
<linearGradient id="paint8_linear_3730_10867" x1="110.01" y1="243.9" x2="331.72" y2="243.9" gradientUnits="userSpaceOnUse">
<stop stop-color="#642366"/>
<stop offset="0.529" stop-color="#EDC3DC"/>
<stop offset="1" stop-color="#642366"/>
</linearGradient>
<linearGradient id="paint9_linear_3730_10867" x1="186.713" y1="187.632" x2="256.16" y2="295.201" gradientUnits="userSpaceOnUse">
<stop stop-color="#A95F9A"/>
<stop offset="1" stop-color="#642366"/>
</linearGradient>
<linearGradient id="paint10_linear_3730_10867" x1="185.302" y1="123.142" x2="242.975" y2="212.473" gradientUnits="userSpaceOnUse">
<stop stop-color="#642366"/>
<stop offset="0.529" stop-color="#EDC3DC"/>
<stop offset="1" stop-color="#642366"/>
</linearGradient>
<linearGradient id="paint11_linear_3730_10867" x1="168.342" y1="96.8261" x2="270.567" y2="255.165" gradientUnits="userSpaceOnUse">
<stop stop-color="#FBEBEF"/>
<stop offset="1" stop-color="#642366"/>
</linearGradient>
<linearGradient id="paint12_linear_3730_10867" x1="188.993" y1="130.589" x2="240.7" y2="210.68" gradientUnits="userSpaceOnUse">
<stop stop-color="#EDC3DC"/>
<stop offset="0.529" stop-color="white"/>
<stop offset="1" stop-color="#EDC3DC"/>
</linearGradient>
<linearGradient id="paint13_linear_3730_10867" x1="173.898" y1="107.168" x2="265.327" y2="248.785" gradientUnits="userSpaceOnUse">
<stop stop-color="#A95F9A"/>
<stop offset="1" stop-color="#642366"/>
</linearGradient>
<linearGradient id="paint14_linear_3730_10867" x1="100.252" y1="141.089" x2="83.1329" y2="141.089" gradientUnits="userSpaceOnUse">
<stop stop-color="#E3177F" stop-opacity="0"/>
<stop offset="0.5" stop-color="#E3177F"/>
<stop offset="1" stop-color="#E3177F" stop-opacity="0.8"/>
</linearGradient>
<linearGradient id="paint15_linear_3730_10867" x1="109.656" y1="173.168" x2="90.9098" y2="173.168" gradientUnits="userSpaceOnUse">
<stop stop-color="#1F1F1D"/>
<stop offset="1" stop-color="#737371"/>
</linearGradient>
<linearGradient id="paint16_linear_3730_10867" x1="119.096" y1="150.228" x2="142.647" y2="150.228" gradientUnits="userSpaceOnUse">
<stop stop-color="#FBEBEF"/>
<stop offset="1" stop-color="#642366"/>
</linearGradient>
<linearGradient id="paint17_linear_3730_10867" x1="118.491" y1="150.228" x2="143.253" y2="150.228" gradientUnits="userSpaceOnUse">
<stop stop-color="#642366"/>
<stop offset="1" stop-color="#E1A8CD"/>
</linearGradient>
<linearGradient id="paint18_linear_3730_10867" x1="111.837" y1="158.377" x2="77.6914" y2="158.377" gradientUnits="userSpaceOnUse">
<stop stop-color="#1F1F1D"/>
<stop offset="1" stop-color="#737371"/>
</linearGradient>
<linearGradient id="paint19_linear_3730_10867" x1="53.228" y1="133.78" x2="30.99" y2="133.78" gradientUnits="userSpaceOnUse">
<stop stop-color="#1D1E1C"/>
<stop offset="1" stop-color="#727270"/>
</linearGradient>
<linearGradient id="paint20_linear_3730_10867" x1="67.4893" y1="171.771" x2="62.4262" y2="171.771" gradientUnits="userSpaceOnUse">
<stop stop-color="#1D1E1C"/>
<stop offset="1" stop-color="#727270"/>
</linearGradient>
<linearGradient id="paint21_linear_3730_10867" x1="81.5871" y1="183.265" x2="39.6809" y2="141.396" gradientUnits="userSpaceOnUse">
<stop stop-color="#1D1E1C"/>
<stop offset="1" stop-color="#727270"/>
</linearGradient>
</defs>
</svg>
