<svg width="353" height="443" viewBox="0 0 353 443" fill="none" xmlns="http://www.w3.org/2000/svg">
<path d="M149.904 291.855L151.977 126.818L200.333 157.089L201.714 186.806L253.78 216.524L254.471 281.903L206.55 310.515V327.101L149.904 291.855Z" fill="#5E2467"/>
<path d="M254.103 281.608L206.55 310.515L254.906 340.233L303.953 310.515L254.103 281.608Z" fill="#F197BE"/>
<path d="M254.906 372.714V340.232L206.55 310.515V345.761L254.906 372.714Z" fill="#502055"/>
<path d="M299.808 221.361L253.524 246.656L305.335 278.723L351.618 250.388L299.808 221.361Z" fill="#F197BE"/>
<path d="M303.953 310.515L305.335 278.724L253.524 246.656V281.903L303.953 310.515Z" fill="#502055"/>
<path d="M206.55 345.761L156.122 375.202L204.478 404.92L257.67 372.023L206.55 345.761Z" fill="#F197BE"/>
<path d="M204.478 437.402V404.92L156.122 375.202V410.449L204.478 437.402Z" fill="#502055"/>
<path d="M250.761 161.235L201.714 186.806L252.834 216.524L299.808 187.497L250.761 161.235Z" fill="#F197BE"/>
<path d="M299.808 221.361V187.497L252.833 216.524L253.317 246.449L299.808 221.361Z" fill="#502055"/>
<path d="M201.024 101.109L151.977 126.819L200.333 157.089L250.07 127.51L201.024 101.109Z" fill="#F197BE"/>
<path d="M250.07 161.374V127.51L200.333 157.089L201.714 186.807L250.07 161.374Z" fill="#502055"/>
<path d="M351.618 250.389L305.335 278.724L303.953 310.515L254.906 340.233V372.715L204.478 404.92V437.402L350.237 352.673L351.618 250.389Z" fill="#502055"/>
<path opacity="0.7" d="M193.425 430.076L163.72 413.49V380.317L213.458 352.672V318.117L261.123 289.781L260.433 255.226L270.104 251.079L261.123 244.168L260.433 211.686L213.458 181.278L212.767 148.796L165.793 118.387L194.116 100.418L241.09 129.444L241.781 164L289.446 193.717L290.137 226.891L328.822 249.697L290.137 271.122L290.828 306.368L243.162 335.395V368.568L193.425 398.285V430.076Z" fill="#E1017F"/>
<path d="M203.925 3.66309V122.741C245.028 104.91 257.117 67.5214 258.222 22.8068C238.189 19.6968 220.159 13.1313 203.925 3.66309Z" fill="#1D1D1B"/>
<path d="M203.856 122.672V3.66309C202.889 4.21597 200.885 3.93953 199.918 4.49241C184.444 13.1313 168.487 19.9041 149.559 22.8068C150.664 67.5214 162.753 104.91 203.856 122.672Z" fill="#1D1D1B"/>
<path d="M199.918 4.49219V120.806C239.225 103.39 250.762 66.8992 251.867 23.1521C232.662 20.1112 215.462 13.753 199.918 4.49219Z" fill="#30302F"/>
<path d="M199.849 120.806V4.49219C184.306 13.753 167.105 20.1803 147.901 23.1521C149.006 66.8992 160.543 103.39 199.849 120.806Z" fill="#30302F"/>
<path d="M200.057 114.172C235.011 98.7599 245.235 66.347 246.202 27.5758C229.139 24.8805 213.873 19.2134 200.057 10.9893V114.172Z" fill="#C50A77"/>
<path d="M199.987 114.172C165.102 98.6908 154.809 66.347 153.842 27.5758C170.905 24.8805 186.171 19.2134 199.987 10.9893V114.172Z" fill="#E3087F"/>
<path opacity="0.11" d="M196.948 66.6925L220.573 42.3655C222.3 40.5686 225.202 40.5686 226.86 42.4346L230.176 45.8902C231.764 47.6179 231.764 50.2441 230.176 51.9028L200.471 82.8644C198.813 84.5922 195.981 84.6613 194.254 82.9335L178.918 67.7983C177.191 66.0705 177.191 63.237 178.987 61.5092L182.51 58.1919C184.237 56.5332 186.931 56.6023 188.658 58.261L196.948 66.6925Z" fill="#FAFCFF"/>
<path d="M192.043 66.6925L215.669 42.3655C217.396 40.5686 220.297 40.5686 221.955 42.4346L225.271 45.8902C226.86 47.6179 226.86 50.2441 225.271 51.9028L195.566 82.8644C193.908 84.5922 191.076 84.6613 189.349 82.9335L174.013 67.7983C172.286 66.0705 172.286 63.237 174.082 61.5092L177.605 58.1919C179.332 56.5332 182.027 56.6023 183.754 58.261L192.043 66.6925Z" fill="#FAFCFF"/>
<path d="M71.9817 365.803C104.869 365.803 131.529 351.724 131.529 334.358C131.529 316.991 104.869 302.912 71.9817 302.912C39.0947 302.912 12.4346 316.991 12.4346 334.358C12.4346 351.724 39.0947 365.803 71.9817 365.803Z" fill="#1D1D1B"/>
<path d="M72.3963 360.965C105.283 360.965 131.943 346.886 131.943 329.52C131.943 312.153 105.283 298.074 72.3963 298.074C39.5093 298.074 12.8491 312.153 12.8491 329.52C12.8491 346.886 39.5093 360.965 72.3963 360.965Z" fill="#2D2D2B"/>
<path d="M105.9 217.491L69.771 289.85C100.166 291.509 118.818 272.434 133.048 245.55C121.857 237.672 112.877 228.203 105.9 217.491Z" fill="#1D1D1B"/>
<path d="M69.7711 289.85L105.9 217.491C105.14 217.56 103.966 216.731 103.206 216.8C91.186 217.353 79.4423 216.593 67.077 212.653C54.1589 240.229 50.1523 266.56 69.7711 289.85Z" fill="#1D1D1B"/>
<path d="M103.206 216.8L67.9751 287.569C97.127 288.882 115.226 270.222 129.111 243.96C118.404 236.289 109.838 227.166 103.206 216.8Z" fill="#30302F"/>
<path d="M67.9059 287.5L103.206 216.8C90.9786 217.698 78.5442 216.385 65.9716 212.377C53.3299 239.33 49.3233 265.039 67.9059 287.5Z" fill="#30302F"/>
<path d="M70.0474 283.561C95.9524 284.805 112.048 268.219 124.344 244.928C114.811 238.156 107.213 230.07 101.272 220.878L70.0474 283.561Z" fill="#C50A77"/>
<path d="M70.0473 283.492C53.4681 263.519 57.0603 240.712 68.2513 216.869C79.4422 220.394 90.426 221.638 101.341 220.808L70.0473 283.492Z" fill="#E3087F"/>
<path opacity="0.11" d="M82.5509 253.705L104.242 246.103C105.831 245.55 107.558 246.449 108.041 248.038L109.009 251.148C109.492 252.669 108.663 254.258 107.143 254.811L79.7186 264.625C78.1297 265.178 76.4718 264.348 75.9191 262.759L71.2217 248.937C70.669 247.347 71.5671 245.619 73.1559 245.136L76.2646 244.168C77.7843 243.684 79.4422 244.514 79.9949 246.034L82.5509 253.705Z" fill="#FAFCFF"/>
<path d="M79.5806 252.254L101.272 244.652C102.861 244.099 104.588 244.998 105.071 246.587L106.038 249.697C106.522 251.218 105.693 252.807 104.173 253.36L76.7483 263.174C75.1595 263.727 73.5016 262.897 72.9489 261.308L68.2515 247.486C67.6988 245.896 68.5969 244.168 70.1857 243.684L73.2943 242.717C74.8141 242.233 76.472 243.062 77.0247 244.583L79.5806 252.254Z" fill="#FAFCFF"/>
<path d="M52.6392 229.724L73.2942 307.957C97.1959 289.159 98.6466 262.482 91.6004 232.903C77.9225 234.285 65.0045 233.179 52.6392 229.724Z" fill="#1D1D1B"/>
<path d="M73.225 307.957L52.57 229.724C52.0174 230.277 50.6358 230.415 50.0831 230.968C41.379 239.33 32.0532 246.518 20.1714 251.701C28.7373 280.935 43.1751 303.396 73.225 307.957Z" fill="#1D1D1B"/>
<path d="M50.1523 230.968L70.3238 307.404C93.1203 289.159 94.3637 263.173 87.5248 234.216C74.3995 235.598 61.9651 234.354 50.1523 230.968Z" fill="#30302F"/>
<path d="M70.3237 307.404L50.1523 230.968C41.5864 239.745 31.3625 246.932 19.2734 252.254C27.5631 280.797 41.4482 302.774 70.3237 307.404Z" fill="#30302F"/>
<path d="M69.2873 302.981C89.5278 286.81 90.7022 263.727 84.6231 238.086C72.9485 239.261 61.8957 238.225 51.3955 235.253L69.2873 302.981Z" fill="#C50A77"/>
<path d="M69.2185 302.981C43.5897 298.904 31.2244 279.415 23.9019 254.12C34.6093 249.421 43.7279 243.062 51.3267 235.253L69.2185 302.981Z" fill="#E3087F"/>
<path opacity="0.11" d="M58.9947 272.365L70.2548 252.323C71.0838 250.872 72.9489 250.388 74.3996 251.286L77.1628 253.014C78.4754 253.843 78.9589 255.571 78.199 256.953L64.0376 282.455C63.2086 283.907 61.4126 284.39 59.9619 283.561L47.2511 276.304C45.8004 275.475 45.3169 273.609 46.2149 272.158L47.9419 269.324C48.7709 267.942 50.5669 267.458 51.9486 268.288L58.9947 272.365Z" fill="#FAFCFF"/>
<path d="M55.817 273.194L67.0771 253.152C67.906 251.701 69.7712 251.217 71.2219 252.115L73.9851 253.843C75.2976 254.673 75.7812 256.4 75.0213 257.783L60.8599 283.284C60.0309 284.736 58.2348 285.22 56.7841 284.39L44.0734 277.134C42.6227 276.304 42.1391 274.438 43.0372 272.987L44.7642 270.153C45.5931 268.771 47.3892 268.287 48.7708 269.117L55.817 273.194Z" fill="#FAFCFF"/>
<path d="M87.7321 358.201L17.063 340.647V272.435H88.4229L87.7321 358.201Z" fill="#642366"/>
<path d="M77.7156 328.898L16.7178 315.076L17.0632 272.435H88.4231L77.7156 328.898Z" fill="#431B47"/>
<path d="M17.3393 272.435H88.4229L76.7484 314.385L4.14502 299.941L17.3393 272.435Z" fill="#642366"/>
<path d="M87.7319 358.201L127.177 336.431L125.035 269.739L88.4227 272.435L87.7319 358.201Z" fill="#512056"/>
<path d="M88.4229 272.435L100.028 340.232L127.177 326.41L125.035 269.739L88.4229 272.435Z" fill="#331537"/>
<path d="M137.47 305.4L100.995 319.914L88.4229 272.435L125.035 269.739L137.47 305.4Z" fill="#512056"/>
<path d="M167.174 260.755C168.21 264.556 168.28 268.219 167.865 271.813C168.487 275.268 167.727 278.309 166.207 281.005C165.585 282.249 164.273 283.009 162.891 283.009C161.855 283.009 160.681 282.94 159.506 282.871V290.473H150.526V280.797L153.289 264.902C158.816 261.93 163.927 259.58 167.174 260.755Z" fill="#FFEAB1"/>
<path d="M172.01 255.917C171.319 263.519 164.411 260.755 163.72 262.828C163.928 264.763 163.651 266.491 161.648 267.666V271.813H160.266C159.023 269.601 157.434 269.048 155.431 270.43C154.049 272.504 155.569 274.439 158.194 275.959C159.092 278.378 158.747 281.834 156.122 283.562C144.792 285.013 139.542 274.577 140.233 264.902C140.924 256.608 148.246 254.811 158.194 255.226C163.03 255.917 169.178 258.474 172.01 255.917Z" fill="#1D1D1B"/>
<path d="M123.653 410.726L121.581 416.946L127.107 421.783L131.252 414.872L123.653 410.726Z" fill="#FFEAB1"/>
<path d="M196.188 384.463L196.879 391.374L187.898 392.756L187.208 382.39L196.188 384.463Z" fill="#FFEAB1"/>
<path d="M137.47 338.159C135.673 350.737 136.157 363.385 138.851 376.17C130.838 383.703 125.795 396.973 121.581 412.108C128.973 413.974 129.111 417.775 128.489 421.783C134.154 418.051 144.93 398.839 154.74 382.39C156.881 369.19 158.194 357.165 156.812 349.217C163.789 354.262 172.769 355.783 183.27 354.815C183.546 354.815 183.684 355.022 183.684 355.23C182.164 363.108 182.993 374.373 184.444 386.537C189.072 389.854 193.701 388.956 198.26 385.155L196.948 350.945C196.879 349.286 196.395 347.628 195.428 346.245C189.694 337.745 172.77 335.257 167.174 334.013L137.47 338.159Z" fill="#1D1D1B"/>
<path d="M180.299 309.824C184.789 309.755 188.658 308.787 191.352 305.677C193.355 301.323 190.661 298.075 186.516 299.457L184.375 300.77C183.822 301.116 183.062 300.701 183.062 300.01V298.766C182.233 296.278 181.543 296.624 180.99 298.766L180.299 302.222C180.714 303.811 179.125 304.848 176.845 305.677L180.299 309.824Z" fill="#FFEAB1"/>
<path d="M178.227 304.295L181.681 310.515C181.059 314.869 176.223 317.012 170.628 318.808L171.319 305.677C173.46 304.295 175.671 303.673 178.227 304.295Z" fill="url(#paint0_linear_3730_16483)"/>
<path d="M144.378 287.708C147.832 284.252 154.187 289.297 160.266 288.399C165.793 290.472 170.421 294.342 171.319 297.383C176.846 313.279 166.484 327.101 172.701 341.614C167.865 350.598 143.549 348.111 135.397 339.541C139.542 312.588 137.47 293.928 144.378 287.708Z" fill="url(#paint1_linear_3730_16483)"/>
<path d="M168.349 343.066C168.487 347.558 169.523 351.428 172.701 354.054C177.122 355.99 180.3 353.225 178.78 349.079L177.467 347.005C177.122 346.452 177.536 345.692 178.158 345.692H179.401C181.888 344.794 181.543 344.103 179.332 343.619L175.878 342.997C174.29 343.411 173.253 341.891 172.355 339.61L168.349 343.066Z" fill="#FFEAB1"/>
<path d="M162.339 289.09C154.256 290.887 153.358 303.05 152.322 315.214C152.046 318.047 152.322 320.95 153.151 323.645C155.638 332.146 160.75 339.817 167.243 347.143C169.592 344.171 172.148 341.96 175.533 341.614L164.411 321.157C163.582 319.637 163.444 317.84 164.066 316.25L170.697 298.765C169.592 292.614 166.829 289.435 162.339 289.09Z" fill="url(#paint2_linear_3730_16483)"/>
<path d="M128.489 421.783C127.177 417.913 124.552 415.494 120.89 414.181C119.509 416.807 118.265 419.571 116.745 422.474C114.742 425.791 116.055 428.694 118.818 431.458C122.272 432.841 122.963 436.987 127.798 439.061C134.016 439.752 137.47 433.532 131.943 430.767L127.798 430.076L128.489 421.783Z" fill="#1D1D1B"/>
<path d="M186.517 390.683C184.582 392.826 184.72 395.867 186.517 399.668C190.109 400.566 193.563 399.46 196.879 396.903C199.987 394.692 204.477 397.594 208.622 392.757C209.313 386.537 204.477 384.463 198.951 387.228L196.188 389.301C193.632 391.444 190.385 391.789 186.517 390.683Z" fill="#1D1D1B"/>
<defs>
<linearGradient id="paint0_linear_3730_16483" x1="170.638" y1="311.426" x2="181.691" y2="311.426" gradientUnits="userSpaceOnUse">
<stop stop-color="#402051"/>
<stop offset="0.2164" stop-color="#32173C"/>
<stop offset="0.4533" stop-color="#28192A"/>
<stop offset="0.7062" stop-color="#201D1F"/>
<stop offset="1" stop-color="#1E1E1C"/>
</linearGradient>
<linearGradient id="paint1_linear_3730_16483" x1="135.408" y1="316.862" x2="173.017" y2="316.862" gradientUnits="userSpaceOnUse">
<stop stop-color="#402051"/>
<stop offset="0.2164" stop-color="#32173C"/>
<stop offset="0.4533" stop-color="#28192A"/>
<stop offset="0.7062" stop-color="#201D1F"/>
<stop offset="1" stop-color="#1E1E1C"/>
</linearGradient>
<linearGradient id="paint2_linear_3730_16483" x1="152.223" y1="318.1" x2="175.474" y2="318.1" gradientUnits="userSpaceOnUse">
<stop stop-color="#402051"/>
<stop offset="0.2164" stop-color="#32173C"/>
<stop offset="0.4533" stop-color="#28192A"/>
<stop offset="0.7062" stop-color="#201D1F"/>
<stop offset="1" stop-color="#1E1E1C"/>
</linearGradient>
</defs>
</svg>
