<svg width="384" height="261" viewBox="0 0 384 261" fill="none" xmlns="http://www.w3.org/2000/svg">
<path d="M344.848 132.756C329.293 68.7473 316.368 38.4352 253.169 29.1836C187.416 30.2366 160.363 71.4551 137.293 123.053C81.3838 100.714 20.6652 134.336 15.1043 188.567C13.6766 215.569 -14.5035 236.404 20.7404 259.044L335.981 258.818C386.63 235.802 403.613 157.427 344.848 132.756Z" fill="#FBEBEF"/>
<path opacity="0.58" d="M94.1589 223.467H51.4004V258.969H94.1589V223.467Z" fill="#502055"/>
<path opacity="0.58" d="M141.351 201.278H98.5928V258.894H141.351V201.278Z" fill="#502055"/>
<path opacity="0.58" d="M190.422 174.652H147.664V258.894H190.422V174.652Z" fill="#502055"/>
<path opacity="0.58" d="M239.568 159.383H195.532V258.894H239.568V159.383Z" fill="#502055"/>
<path opacity="0.58" d="M286.685 138.172H243.926V258.894H286.685V138.172Z" fill="#502055"/>
<path opacity="0.58" d="M333.952 119.519H291.194V258.969H333.952V119.519Z" fill="#502055"/>
<path d="M223.411 106.506L146.16 105.904C146.987 146.22 153.374 178.714 178.849 184.355L177.121 214.817L168.629 223.843H203.647L192.901 215.344L191.774 184.28C215.671 180.143 225.365 152.764 223.411 106.506Z" fill="#F49B1A"/>
<path d="M224.012 175.103C222.209 175.103 220.481 174.802 218.752 174.2C215.521 172.997 213.342 170.139 212.891 166.679C212.44 163.144 214.018 159.759 216.873 157.803C219.353 156.149 222.359 154.644 225.515 153.14C234.984 148.552 244.828 143.813 245.053 132.079C243.4 122.903 232.429 118.766 222.284 118.691C220.856 118.691 219.654 117.487 219.654 116.058C219.654 114.629 220.856 113.426 222.284 113.426C234.758 113.501 248.285 119.142 250.239 131.402V131.628V131.854C250.088 147.047 237.689 153.065 227.77 157.879C224.764 159.308 221.908 160.737 219.804 162.166C218.527 163.068 217.926 164.498 218.076 166.077C218.151 166.754 218.602 168.559 220.48 169.236C221.608 169.612 222.735 169.838 223.937 169.838C225.365 169.838 226.567 171.041 226.567 172.47C226.567 173.9 225.44 175.103 224.012 175.103Z" fill="#F49B1A"/>
<path d="M147.363 176.005C145.935 176.005 144.733 174.877 144.733 173.448C144.733 172.019 145.86 170.815 147.288 170.74C150.068 170.665 152.022 169.913 152.999 168.484C153.6 167.732 153.75 166.829 153.6 165.851C153.45 164.873 152.924 164.046 152.172 163.444C149.993 161.79 146.837 160.285 143.455 158.63C133.686 153.967 121.587 148.1 120.986 133.508C120.911 132.756 120.986 132.079 121.061 131.553V131.477C123.391 119.593 136.692 114.253 148.866 114.178C150.293 114.178 151.496 115.381 151.496 116.81C151.496 118.239 150.369 119.443 148.866 119.443C138.871 119.518 127.975 123.58 126.171 132.455C126.171 132.606 126.096 132.756 126.096 132.831V133.132C126.472 144.64 136.166 149.304 145.559 153.817C149.166 155.547 152.548 157.201 155.178 159.157C157.057 160.511 158.259 162.617 158.635 164.873C159.01 167.205 158.484 169.537 157.057 171.417C155.253 174.426 151.947 175.93 147.363 176.005Z" fill="#F49B1A"/>
<path d="M201.694 106.205C206.954 152.313 194.555 176.833 162.768 174.501C150.068 162.918 146.16 140.353 146.386 106.205H201.694Z" fill="#FBBB0C"/>
<path d="M190.121 106.506C194.63 131.327 197.035 157.502 173.739 158.405C153.224 156.901 152.022 133.734 152.849 106.506H190.121Z" fill="#FCC802"/>
<path d="M165.849 111.019C165.849 118.39 160.814 121.85 153.45 123.429C160.514 124.557 165.323 127.641 165.849 134.712C167.953 128.017 171.861 124.106 177.722 123.429C170.959 121.774 166.976 117.638 165.849 111.019Z" fill="white"/>
<path d="M176.37 129.146C176.37 131.403 174.792 132.456 172.537 132.983C174.716 133.283 176.144 134.261 176.37 136.442C177.046 134.412 178.248 133.208 179.977 132.983C177.873 132.456 176.67 131.177 176.37 129.146Z" fill="white"/>
<path d="M183.959 184.956L182.231 217.149L177.722 223.918H168.705L176.595 215.419L178.849 184.354C180.578 184.956 182.231 184.956 183.959 184.956Z" fill="#FBBB0C"/>
<path d="M203.648 223.918H168.705V226.174H203.648V223.918Z" fill="#803B12"/>
<path d="M222.885 226.175H148.415V251.598H222.885V226.175Z" fill="#803B12"/>
<path d="M228.521 250.996H142.779V257.766H228.521V250.996Z" fill="#803B12"/>
<path d="M211.162 249.342H159.536C157.733 249.342 156.305 247.913 156.305 246.108V234.524C156.305 232.719 157.733 231.29 159.536 231.29H211.162C212.966 231.29 214.394 232.719 214.394 234.524V246.108C214.394 247.838 212.966 249.342 211.162 249.342Z" fill="#F4BC58"/>
<path d="M160.213 236.931C161.167 236.931 161.941 236.156 161.941 235.201C161.941 234.245 161.167 233.471 160.213 233.471C159.258 233.471 158.484 234.245 158.484 235.201C158.484 236.156 159.258 236.931 160.213 236.931Z" fill="#803B12"/>
<path d="M210.411 236.931C211.366 236.931 212.139 236.156 212.139 235.201C212.139 234.245 211.366 233.471 210.411 233.471C209.456 233.471 208.683 234.245 208.683 235.201C208.683 236.156 209.456 236.931 210.411 236.931Z" fill="#803B12"/>
<path d="M210.411 247.686C211.366 247.686 212.139 246.912 212.139 245.957C212.139 245.001 211.366 244.227 210.411 244.227C209.456 244.227 208.683 245.001 208.683 245.957C208.683 246.912 209.456 247.686 210.411 247.686Z" fill="#803B12"/>
<path d="M160.213 247.686C161.167 247.686 161.941 246.912 161.941 245.957C161.941 245.001 161.167 244.227 160.213 244.227C159.258 244.227 158.484 245.001 158.484 245.957C158.484 246.912 159.258 247.686 160.213 247.686Z" fill="#803B12"/>
<path d="M305.621 236.78L306.749 237.758L305.697 239.187L304.72 238.209L305.621 236.78Z" fill="#F3A07D"/>
<path d="M259.933 254.306L259.106 255.885H261.511V254.757L259.933 254.306Z" fill="#F3A07D"/>
<path d="M266.996 211.207C261.21 212.862 254.973 234.975 255.198 235.803C257.453 243.098 257.152 250.996 258.956 255.509L261.586 254.682C260.985 248.288 264.667 241.143 262.337 237.382C265.869 230.913 268.499 223.918 272.257 222.264C274.436 225.799 277.141 229.033 280.372 231.966C286.535 234.524 295.477 237.006 305.321 239.338L306.073 237.232C298.408 232.192 290.968 227.754 284.881 227.679C283.679 222.715 282.176 218.277 279.997 214.667C280.448 212.711 280.222 210.605 279.771 208.349L266.996 211.207Z" fill="#1D1D1B"/>
<path d="M260.383 176.457C263.765 177.36 266.621 178.939 268.274 182.023C267.898 183.753 267.447 185.408 265.493 186.009V189.545H261.586L260.759 186.386C258.73 185.859 257.828 183.076 257.603 179.24L260.383 176.457Z" fill="#F3A07D"/>
<path d="M252.493 195.412C252.944 197.367 254.071 198.721 255.649 199.774L260.008 196.991C259.933 202.407 259.707 208.349 260.834 209.628H266.771L263.239 189.47C262.863 188.642 261.511 188.191 260.459 188.642C256.401 191.125 254.447 194.509 252.493 195.412Z" fill="url(#paint0_linear_3730_15490)"/>
<path d="M263.089 189.545C263.089 192.704 260.308 194.66 260.684 198.27C260.759 199.774 261.736 200.376 263.089 200.677C263.99 203.986 264.742 206.995 265.493 209.778C266.545 212.636 269.476 214.893 278.945 214.141C282.401 209.552 270.829 198.496 264.366 189.62H263.089V189.545Z" fill="white"/>
<path d="M263.915 188.341C267.898 189.169 274.21 183.979 277.742 183.227C278.268 185.483 278.794 186.611 280.898 187.589L272.632 191.952C276.615 196.389 279.32 203.836 281.349 212.937C278.869 213.84 274.586 213.388 269.927 212.711C269.175 212.636 268.574 212.034 268.349 211.282C266.169 203.159 264.591 195.336 263.915 188.341Z" fill="url(#paint1_linear_3730_15490)"/>
<path d="M260.008 175.63C260.609 171.643 263.239 170.966 265.869 172.17C268.574 173.749 269.476 176.382 269.476 179.541C269.476 180.142 269.777 180.669 270.228 181.045C272.858 182.925 275.187 185.032 275.338 188.567C275.338 189.244 275.187 189.845 274.887 190.372C273.684 192.252 271.881 193.155 269.101 192.854C268.499 192.779 267.898 192.478 267.522 192.027C265.118 189.093 266.019 184.655 267.447 182.098C263.991 181.271 261.36 179.691 259.933 176.983C257.979 180.142 258.355 185.708 261.511 186.085C262.638 189.921 261.135 192.704 255.198 193.606C250.464 189.244 256.401 188.04 257.603 184.129C257.152 180.744 256.025 180.594 256.025 177.811C256.401 176.231 258.43 175.855 259.482 176.382C259.782 176.156 260.008 175.93 260.008 175.63Z" fill="#1D1D1B"/>
<path d="M261.736 182.926C262.412 183.151 263.239 183.227 264.141 183.151C263.765 183.528 263.615 184.054 263.314 184.355C262.938 184.806 262.187 184.731 261.886 184.129C261.736 183.828 261.661 183.452 261.736 182.926Z" fill="url(#paint2_linear_3730_15490)"/>
<path d="M277.742 183.152C278.644 182.701 279.921 182.325 281.274 181.948C281.575 180.895 284.054 175.555 283.754 174.728C285.182 174.352 284.355 175.329 286.008 175.329C285.557 177.887 285.708 181.422 285.182 183.453C284.956 184.28 284.505 184.957 283.829 185.484C282.476 186.386 281.274 187.063 280.147 187.514C278.043 187.138 277.366 185.559 277.742 183.152Z" fill="#F3A07D"/>
<path d="M252.869 195.863C251.817 196.164 250.614 196.841 249.487 197.819C249.112 198.119 248.586 198.119 248.285 197.819C247.308 196.916 246.331 195.562 245.429 193.983C244.227 194.434 243.776 193.682 242.649 193.531C244.302 196.916 245.354 200.752 247.158 202.858C247.909 203.685 249.187 203.911 250.164 203.309C252.117 202.106 253.921 200.827 255.649 199.473L252.869 195.863Z" fill="#F3A07D"/>
<path d="M261.51 255.51L259.106 255.134C255.95 256.713 253.545 254.758 252.793 257.917H261.886C262.037 256.789 262.037 255.811 261.51 255.51Z" fill="#1D1D1B"/>
<path d="M306.523 237.382L305.246 239.262C305.622 239.939 305.847 240.992 305.847 242.346C304.72 242.647 303.743 243.926 304.269 244.678C305.396 245.204 306.598 245.204 307.726 244.001L308.703 238.886C308.853 238.284 308.402 237.683 307.726 237.532L306.523 237.382Z" fill="#1D1D1B"/>
<path d="M285.783 176.232L286.234 174.05C287.06 172.847 288.037 171.568 287.812 170.59C287.286 168.108 284.881 167.883 283.904 169.387C283.528 170.139 284.205 170.59 284.054 172.17L283.303 171.267C283.002 171.117 282.927 171.267 282.852 171.643L283.829 173.749L283.153 177.51L285.783 176.232Z" fill="#F3A07D"/>
<path d="M243.024 194.434L241.972 192.478C240.845 191.575 239.493 190.598 239.568 189.545C239.417 186.987 241.672 186.16 242.949 187.363C243.55 187.965 243.024 188.642 243.626 190.071L244.077 189.018C244.302 188.792 244.452 188.868 244.603 189.244L244.227 191.575L245.955 195.035L243.024 194.434Z" fill="#F3A07D"/>
<path d="M81.9101 140.88L81.0835 138.849C81.0835 137.345 81.2338 135.765 80.4823 135.088C78.6788 133.358 76.5747 134.486 76.5747 136.292C76.6499 137.119 77.4765 137.194 78.2279 138.548L77.1759 138.247C76.8753 138.247 76.8001 138.473 77.0256 138.774L79.0545 139.977L80.5575 143.512L81.9101 140.88Z" fill="#F3A07D"/>
<path d="M55.9844 132.455L57.1116 130.575C57.337 129.146 57.4122 127.491 58.3891 126.964C60.4932 125.535 62.3718 127.04 62.0713 128.77C61.8458 129.597 61.0192 129.447 60.0423 130.725L61.1695 130.575C61.4701 130.65 61.4701 130.876 61.2446 131.101L59.0654 131.929L56.9613 135.163L55.9844 132.455Z" fill="#F3A07D"/>
<path d="M68.3084 142.083C65.7534 143.286 64.1753 145.317 63.1984 147.724C63.1232 148.928 63.3487 150.131 64.3256 151.109V155.622C65.5279 157.427 66.8054 158.33 68.3084 155.622V151.41C69.661 150.733 70.4876 149.078 71.0888 147.198C71.1639 144.339 70.1119 142.76 68.3084 142.083Z" fill="#F3A07D"/>
<path d="M68.9099 142.61C67.8578 144.716 65.4531 146.521 64.1756 147.875C66.5052 158.029 60.9443 164.648 55.9846 175.93C48.7706 177.435 43.886 176.758 41.857 173.674C39.9784 169.01 49.2214 168.033 50.3486 164.046C47.8688 156.75 51.4007 155.095 55.4586 153.892C56.4355 145.543 59.5165 140.88 65.0774 140.353C69.8868 140.278 72.8927 142.91 71.8406 151.109C71.9909 153.742 70.488 154.719 68.459 155.095V151.109C71.4649 148.251 70.5631 144.34 68.9099 142.61Z" fill="#1D1D1B"/>
<path d="M38.7758 213.087L37.874 214.215L39.3018 215.419L40.0533 214.215L38.7758 213.087Z" fill="#F3A07D"/>
<path d="M87.396 219.33L88.5232 220.684L86.1936 221.286L85.8931 220.157L87.396 219.33Z" fill="#F3A07D"/>
<path d="M70.3378 179.089C76.3495 179.39 87.6215 199.397 87.5464 200.225C87.0204 207.821 89.1996 215.418 88.5233 220.232L85.7429 220.082C84.8411 213.688 79.5808 207.671 80.9335 203.459C75.9738 198.043 71.8407 191.8 67.7828 191.123C66.5053 195.11 64.6266 198.871 62.1468 202.481C56.7362 206.468 48.6204 210.905 39.6027 215.493L38.4004 213.613C44.6376 206.919 50.8748 200.826 56.7362 199.322C56.7362 194.207 57.1871 189.544 58.4646 185.557C57.5628 183.827 57.2622 181.646 57.1871 179.39L70.3378 179.089Z" fill="#1D1D1B"/>
<path d="M86.1184 220.91L88.2977 219.932C91.7544 220.759 93.558 218.277 95.0609 221.135L86.1936 223.241C85.893 222.264 85.5924 221.286 86.1184 220.91Z" fill="#1D1D1B"/>
<path d="M38.0244 213.914L39.6777 215.418C39.4522 216.171 39.4522 217.224 39.8279 218.577C40.9551 218.577 42.2326 219.63 41.8569 220.458C40.88 221.21 39.7528 221.511 38.325 220.608L36.1458 215.87C35.8452 215.268 36.1458 214.591 36.7469 214.365L38.0244 213.914Z" fill="#1D1D1B"/>
<path d="M81.835 139.827L78.9794 140.955L81.2338 149.454C78.3782 151.184 74.4706 152.162 71.615 154.569L68.2334 154.719C68.1583 155.772 67.6322 156.525 66.5802 156.825C64.7766 156.374 64.2506 155.547 64.4009 154.644L59.817 154.569C58.0886 151.259 54.707 148.928 53.5798 146.069L58.6898 133.659L56.4354 131.402C52.0017 136.216 49.2964 141.03 48.0941 145.994C48.0189 146.446 47.9438 146.897 48.0189 147.273C48.9207 152.538 51.7011 156.374 55.233 159.608C55.6839 168.108 54.6318 176.006 54.6318 182.775C62.1465 183.828 69.8866 182.85 77.777 180.518C76.0487 172.846 74.7712 165.701 74.3954 159.608C79.1297 157.427 83.7136 155.171 85.7426 152.463C86.1183 152.012 86.1935 151.41 86.1183 150.808C85.8177 146.972 83.413 143.437 81.835 139.827Z" fill="url(#paint3_linear_3730_15490)"/>
<path d="M260.083 128.244L258.88 127.341C259.632 126.439 260.308 125.386 260.985 124.333L262.262 125.16C261.586 126.213 260.834 127.266 260.083 128.244ZM264.141 121.7L262.788 121.023C263.314 119.895 263.84 118.767 264.216 117.638L265.644 118.165C265.193 119.443 264.742 120.572 264.141 121.7ZM266.846 114.554L265.418 114.178C265.719 112.975 266.019 111.771 266.17 110.568L267.673 110.794C267.447 112.072 267.147 113.351 266.846 114.554ZM268.048 106.958L266.545 106.882C266.545 106.506 266.545 106.055 266.545 105.679C266.545 104.852 266.47 104.024 266.395 103.197L267.898 103.046C267.973 103.874 268.048 104.776 268.048 105.679C268.048 106.13 268.048 106.582 268.048 106.958ZM253.921 100.339C253.32 100.339 252.718 100.263 252.117 100.038L252.643 98.6086C253.62 98.9847 254.747 98.9095 255.724 98.383L256.401 99.7368C255.574 100.188 254.747 100.339 253.921 100.339ZM265.794 99.7368C265.418 98.5334 264.967 97.4051 264.441 96.4273L265.719 95.6752C266.32 96.7282 266.846 98.0069 267.222 99.2855L265.794 99.7368ZM248.961 97.1795C248.736 96.653 248.51 96.0513 248.435 95.4495V95.3743C248.435 95.2991 248.435 95.1487 248.435 95.0734C248.435 94.3213 248.585 93.6443 248.811 92.9674L250.163 93.5691C249.938 94.0204 249.863 94.5469 249.863 95.0734C249.863 95.1487 249.863 95.2239 249.863 95.2991C249.938 95.7504 250.088 96.2017 250.239 96.653L248.961 97.1795ZM259.181 96.653L257.828 96.0512C258.204 95.1487 258.43 94.0956 258.43 92.8922V92.6665L259.932 92.5913V92.8922C259.857 94.3213 259.632 95.6 259.181 96.653ZM262.187 93.7195C261.511 93.1178 260.759 92.5913 259.932 92.2152C259.707 92.0648 259.482 91.9896 259.256 91.9144L259.857 90.5605C260.083 90.6357 260.383 90.7861 260.609 90.9366C261.586 91.3879 262.412 91.9896 263.239 92.6665L262.187 93.7195ZM252.493 91.3878L251.892 89.9587C253.094 89.5074 254.447 89.2818 255.95 89.4322L255.799 90.9366C254.522 90.8613 253.395 91.0118 252.493 91.3878ZM257.904 89.1314C257.678 87.9279 257.302 86.7245 256.851 85.6714L258.204 85.0697C258.655 86.1979 259.031 87.4766 259.331 88.8305L257.904 89.1314ZM255.123 82.5123C254.447 81.5345 253.62 80.6319 252.718 79.8798L253.695 78.7515C254.672 79.6541 255.574 80.5567 256.325 81.6098L255.123 82.5123ZM249.788 77.8489C248.811 77.3224 247.684 76.7959 246.481 76.3446L247.007 74.9155C248.285 75.3668 249.487 75.8933 250.539 76.4951L249.788 77.8489ZM242.949 75.3668C241.822 75.1412 240.62 74.9155 239.342 74.6899L239.568 73.1855C240.92 73.336 242.123 73.6368 243.325 73.8625L242.949 75.3668Z" fill="#E3117F"/>
<path d="M243.175 70.9287L238.666 73.7869L241.446 78.8264L232.429 73.1852L243.175 70.9287Z" fill="#E1017F"/>
<path d="M88.4476 72.2072C88.2973 71.0038 88.147 69.6499 88.147 68.3712H89.6499C89.6499 69.6499 89.8002 70.8533 89.9505 72.0568L88.4476 72.2072ZM89.8002 64.6856L88.2973 64.5352C88.3724 63.2565 88.5978 61.9778 88.8233 60.6992L90.3262 61C90.0256 62.2035 89.8753 63.4822 89.8002 64.6856ZM91.0777 57.3896L89.6499 57.0136C90.0256 55.7349 90.4014 54.5314 90.8523 53.4032L92.28 53.9297C91.8292 55.0579 91.4534 56.2614 91.0777 57.3896ZM109.714 52.0493C108.286 51.7484 107.009 50.8458 106.182 49.6424L107.46 48.815C108.061 49.7176 108.963 50.3193 110.015 50.545L109.714 52.0493ZM113.922 51.2219L113.096 49.9432C113.471 49.7176 113.772 49.4167 114.073 49.0406C114.373 48.5141 114.599 47.9876 114.674 47.3859L116.177 47.6115C116.102 48.4389 115.801 49.1911 115.275 49.868L115.2 49.9432C114.824 50.4698 114.373 50.8458 113.922 51.2219ZM93.783 50.6202L92.4303 49.868C93.0315 48.6646 93.783 47.6115 94.4593 46.6337L95.6616 47.5363C95.0605 48.4389 94.3842 49.492 93.783 50.6202ZM106.934 45.7311L105.431 45.5055C105.581 44.302 106.107 43.0234 106.934 41.7447L108.211 42.5721C107.535 43.6251 107.084 44.7533 106.934 45.7311ZM98.1415 44.8285L97.0894 43.7003C98.0663 42.7225 99.1935 41.9703 100.246 41.3686L100.997 42.7225C100.02 43.249 99.0433 43.926 98.1415 44.8285ZM113.847 44.4525C113.246 43.6251 112.344 42.9481 111.217 42.3464L111.893 40.9925C113.246 41.5943 114.373 42.4968 115.125 43.5499L113.847 44.4525ZM104.304 41.519L104.003 40.0147C105.055 39.7891 106.107 39.7891 107.159 39.8643C107.385 39.8643 107.685 39.9395 107.911 39.9395L107.76 41.4438C107.535 41.4438 107.309 41.3686 107.084 41.3686C106.107 41.2934 105.205 41.2934 104.304 41.519ZM110.39 39.7139L109.263 38.736C110.165 37.7582 111.142 36.8556 112.119 36.1035L113.021 37.3069C112.119 37.9839 111.217 38.736 110.39 39.7139ZM133.761 36.8556C132.559 36.3291 131.432 35.953 130.304 35.577L130.755 34.1479C131.882 34.5239 133.085 34.9752 134.362 35.5017L133.761 36.8556ZM116.177 35.4265L115.576 34.0726C116.778 33.5461 118.055 33.17 119.333 32.9444L119.558 34.4487C118.356 34.6744 117.229 34.9752 116.177 35.4265ZM126.772 34.6744C125.495 34.4487 124.293 34.2983 123.165 34.2231L123.241 32.7188C124.443 32.794 125.796 32.9444 127.073 33.17L126.772 34.6744Z" fill="#E3117F"/>
<path d="M132.409 31.666L134.813 36.4046L129.854 39.3381L140.449 39.1124L132.409 31.666Z" fill="#E1017F"/>
<path d="M227.319 83.3398H222.81V86.7246H227.319V83.3398Z" fill="#E1017F"/>
<path d="M102.125 103.647V109.289L106.633 106.506L102.125 103.647Z" fill="#E1017F"/>
<path d="M120.235 62.4297L120.761 68.1461L123.616 65.8896L120.235 62.4297Z" fill="#5E2467"/>
<path d="M279.245 116.059L278.118 121.173L283.228 119.519L279.245 116.059Z" fill="#F095BC"/>
<path d="M266.245 51.147V54.5318C266.245 54.5318 269.627 53.93 270.754 51.147C271.881 48.364 266.245 51.147 266.245 51.147Z" fill="#5E2467"/>
<path d="M231.302 56.2617L234.157 60.173L230.174 62.4294L231.302 56.2617Z" fill="#F095BC"/>
<path d="M212.139 35.9531L216.648 39.3379L212.139 41.5943V35.9531Z" fill="#5E2467"/>
<path d="M62.0713 83.9414L59.8169 87.8526L64.4008 88.9809L67.1813 85.5962L62.0713 83.9414Z" fill="#E1017F"/>
<path d="M276.991 14.5166H271.881V19.0296H276.991V14.5166Z" fill="#E1017F"/>
<path d="M81.3087 41.5947H76.1987V46.1077H81.3087V41.5947Z" fill="#5E2467"/>
<path d="M156.305 11.1318H151.195V15.6448H156.305V11.1318Z" fill="#E1017F"/>
<path d="M282.176 73.2607H277.066V77.7737H282.176V73.2607Z" fill="#5E2467"/>
<path d="M296.153 56.713V61.0755C296.153 61.0755 300.362 60.3234 301.789 56.713C303.217 53.1026 296.153 56.713 296.153 56.713Z" fill="#E1017F"/>
<path d="M259.482 139V142.384C259.482 142.384 262.864 141.783 263.991 139C265.118 136.217 259.482 139 259.482 139Z" fill="#5E2467"/>
<path d="M37.2728 126.815C38.2274 126.815 39.0012 125.939 39.0012 124.859C39.0012 123.779 38.2274 122.903 37.2728 122.903C36.3183 122.903 35.5444 123.779 35.5444 124.859C35.5444 125.939 36.3183 126.815 37.2728 126.815Z" fill="#5E2467"/>
<path d="M133.16 110.493C134.405 110.493 135.415 109.348 135.415 107.935C135.415 106.523 134.405 105.378 133.16 105.378C131.915 105.378 130.906 106.523 130.906 107.935C130.906 109.348 131.915 110.493 133.16 110.493Z" fill="#5E2467"/>
<path d="M304.87 100.263C305.949 100.263 306.824 99.2527 306.824 98.0065C306.824 96.7603 305.949 95.75 304.87 95.75C303.791 95.75 302.917 96.7603 302.917 98.0065C302.917 99.2527 303.791 100.263 304.87 100.263Z" fill="#F095BC"/>
<path d="M222.585 7.67215C223.664 7.67215 224.538 6.66189 224.538 5.41566C224.538 4.16944 223.664 3.15918 222.585 3.15918C221.506 3.15918 220.631 4.16944 220.631 5.41566C220.631 6.66189 221.506 7.67215 222.585 7.67215Z" fill="#E1017F"/>
<path d="M134.287 173.674C135.532 173.674 136.542 172.158 136.542 170.289C136.542 168.42 135.532 166.904 134.287 166.904C133.042 166.904 132.033 168.42 132.033 170.289C132.033 172.158 133.042 173.674 134.287 173.674Z" fill="#5E2467"/>
<path d="M155.704 199.624C156.949 199.624 157.959 197.974 157.959 195.939C157.959 193.903 156.949 192.253 155.704 192.253C154.459 192.253 153.45 193.903 153.45 195.939C153.45 197.974 154.459 199.624 155.704 199.624Z" fill="#E1017F"/>
<path d="M309.98 160.737C311.682 160.737 313.061 159.592 313.061 158.179C313.061 156.767 311.682 155.622 309.98 155.622C308.279 155.622 306.899 156.767 306.899 158.179C306.899 159.592 308.279 160.737 309.98 160.737Z" fill="#E1017F"/>
<path d="M161.34 89.0566C162.295 89.0566 163.069 88.2821 163.069 87.3266C163.069 86.3712 162.295 85.5967 161.34 85.5967C160.386 85.5967 159.612 86.3712 159.612 87.3266C159.612 88.2821 160.386 89.0566 161.34 89.0566Z" fill="#F095BC"/>
<path d="M146.762 57.6913L145.559 55.8861C145.259 54.457 145.108 52.8775 144.207 52.351C142.027 50.9971 140.224 52.5766 140.6 54.3066C140.825 55.134 141.652 54.9835 142.704 56.187L141.577 56.1118C141.276 56.187 141.276 56.4126 141.501 56.6383L143.681 57.3904L145.86 60.5495L146.762 57.6913Z" fill="#E5A951"/>
<path d="M188.468 46.6343L187.341 44.7539C186.138 43.8513 184.786 43.0239 184.711 41.9709C184.41 39.4887 186.589 38.4357 188.017 39.564C188.618 40.0905 188.167 40.8426 188.844 42.2717L189.22 41.2187C189.445 40.9931 189.595 41.0683 189.746 41.4444L189.52 43.7761L191.399 47.0856L188.468 46.6343Z" fill="#E5A951"/>
<path d="M181.104 67.5445C183.132 65.0624 186.138 62.3546 189.595 59.6468C188.994 55.6604 188.994 51.1474 187.867 46.1079L190.722 44.3779C193.052 50.2448 196.208 56.5629 195.832 60.775C192.601 66.7171 189.295 71.9823 185.687 75.4422L181.104 67.5445Z" fill="#E0E0DF"/>
<path d="M183.433 57.5411C183.433 60.3241 183.132 62.8814 181.93 64.837C181.63 66.3413 181.78 70.403 182.832 71.456L178.323 74.0886L174.265 70.3278C174.415 68.8235 174.04 65.89 174.866 65.7396C173.589 62.8062 173.213 60.0232 173.589 57.3906L183.433 57.5411Z" fill="#E5A951"/>
<path d="M182.457 63.1817C181.855 65.8143 180.803 67.8451 178.474 68.146C175.919 67.6947 174.716 65.5134 173.74 62.8057C173.589 61.7526 174.641 63.5578 175.543 63.7082C176.67 63.7082 176.67 62.0535 178.474 62.8057C180.052 62.0535 180.052 63.3322 180.803 63.7082C182.156 63.7835 182.983 62.0535 182.457 63.1817Z" fill="#1E1E1C"/>
<path d="M180.352 63.9343C179.901 64.8369 179.451 65.4386 178.323 65.213C177.121 65.213 176.67 64.6865 176.294 64.16C176.52 63.6334 177.422 63.5582 178.474 63.7839C179.3 63.5582 179.977 63.5582 180.352 63.9343Z" fill="#FDFFFF"/>
<path d="M182.832 61.0002C183.433 60.5489 183.809 59.4207 183.96 57.3899C185.237 55.4342 184.335 54.6069 182.682 54.306C182.457 52.576 181.329 52.1999 179.751 52.6512C178.624 51.8991 177.422 51.8239 176.52 52.8769C175.242 51.9743 174.266 52.3504 173.214 53.629C172.312 53.5538 172.086 54.9829 171.936 56.7129C172.086 58.3677 173.214 58.5181 173.439 60.8498L174.19 58.142L175.092 58.6685L176.896 57.7659L178.399 59.0446L179.902 57.7659L181.555 58.6685L183.133 58.5181L182.832 61.0002Z" fill="#1E1E1C"/>
<path d="M174.265 66.3408C172.762 66.7921 170.358 67.5443 169.306 68.6725C168.404 74.9907 167.728 89.0561 169.907 97.7059L185.462 96.9538C186.74 84.0166 186.89 67.6947 181.93 68.3717C182.005 70.0264 181.705 70.929 179 71.2299C175.618 70.6281 174.791 68.5973 174.265 66.3408Z" fill="#E0E0DF"/>
<path d="M169.831 76.0437C165.548 75.8181 161.19 75.9685 156.831 74.3138C153.374 72.5086 148.189 64.7613 143.305 57.9166C144.883 57.9166 145.785 56.8636 146.686 55.6602C150.669 61.9031 158.184 67.1682 157.958 69.1991C162.693 68.6725 169.23 66.9426 174.34 66.3408L169.831 76.0437Z" fill="#E0E0DF"/>
<path d="M189.595 127.416H186.74V129.146H189.595V127.416Z" fill="#E5A951"/>
<path d="M195.757 127.416V129.673H198.613V126.814L195.757 127.416Z" fill="#E5A951"/>
<path d="M169.832 96.8789C168.629 103.799 172.086 108.237 185.086 107.635C183.283 110.869 184.711 119.82 185.688 127.943H190.196C191.098 119.82 193.127 112.975 192.977 109.515C192.977 108.763 193.578 105.905 192.451 105.378C192.676 105.303 194.48 107.785 194.705 107.635C193.653 109.816 194.705 119.369 195.306 127.417L200.416 128.018C201.468 118.541 202.07 109.666 200.416 103.724C198.012 98.6841 192.601 96.9541 185.537 97.0293L169.832 96.8789Z" fill="#1D1D1B"/>
<path d="M186.214 129.071H189.596C190.122 129.823 190.723 130.275 191.324 130.2C192.677 130.5 194.029 130.726 193.578 132.456H186.064C185.838 132.456 185.688 132.306 185.688 132.08C185.538 131.102 185.462 129.899 186.214 129.071Z" fill="#1D1D1B"/>
<path d="M195.532 129.071H198.913C199.439 129.823 200.041 130.275 200.642 130.2C201.994 130.5 203.347 130.726 202.896 132.456H195.381C195.156 132.456 195.006 132.306 195.006 132.08C194.855 131.102 194.78 129.899 195.532 129.071Z" fill="#1D1D1B"/>
<defs>
<linearGradient id="paint0_linear_3730_15490" x1="266.676" y1="199.046" x2="252.457" y2="199.046" gradientUnits="userSpaceOnUse">
<stop stop-color="#402051"/>
<stop offset="0.2164" stop-color="#32173C"/>
<stop offset="0.4533" stop-color="#28192A"/>
<stop offset="0.7062" stop-color="#201D1F"/>
<stop offset="1" stop-color="#1E1E1C"/>
</linearGradient>
<linearGradient id="paint1_linear_3730_15490" x1="281.29" y1="198.334" x2="263.911" y2="198.334" gradientUnits="userSpaceOnUse">
<stop stop-color="#402051"/>
<stop offset="0.2164" stop-color="#32173C"/>
<stop offset="0.4533" stop-color="#28192A"/>
<stop offset="0.7062" stop-color="#201D1F"/>
<stop offset="1" stop-color="#1E1E1C"/>
</linearGradient>
<linearGradient id="paint2_linear_3730_15490" x1="263.841" y1="184.033" x2="261.558" y2="183.399" gradientUnits="userSpaceOnUse">
<stop stop-color="#FCF9F8"/>
<stop offset="0.9271" stop-color="#E1D2E8"/>
</linearGradient>
<linearGradient id="paint3_linear_3730_15490" x1="48.0649" y1="157.3" x2="86.3012" y2="157.3" gradientUnits="userSpaceOnUse">
<stop stop-color="#402051"/>
<stop offset="0.2164" stop-color="#32173C"/>
<stop offset="0.4533" stop-color="#28192A"/>
<stop offset="0.7062" stop-color="#201D1F"/>
<stop offset="1" stop-color="#1E1E1C"/>
</linearGradient>
</defs>
</svg>
