<svg width="346" height="284" viewBox="0 0 346 284" fill="none" xmlns="http://www.w3.org/2000/svg">
<path opacity="0.31" d="M293.592 180.002C302.462 168.439 307.473 154.104 309.098 137.199C312.212 123.878 318.239 115.155 325.619 108.596C303.275 104.742 283.232 113.262 264.68 132.263C254.997 144.772 248.565 160.392 247.007 180.678L293.592 180.002Z" fill="#F197BE"/>
<path opacity="0.31" d="M1.15106 132.398C28.3029 130.978 53.4912 133.953 74.2105 147.206L85.5859 163.029L80.2368 164.584C55.7256 143.623 36.9698 138.078 24.5111 139.363C42.9961 142.744 61.007 149.776 77.6638 166.072L65.8145 179.934C52.7464 179.528 39.272 177.567 31.9593 170.129C27.0164 164.99 23.1569 154.306 15.3025 143.893C11.2399 139.024 6.6356 135.846 1.15106 132.398Z" fill="#F197BE"/>
<path opacity="0.31" d="M339.229 129.152C313.499 137.875 291.222 149.844 277.138 169.521L272.737 188.049L278.29 187.508C292.915 159.446 308.15 147.545 320.202 144.096C304.358 153.969 290.41 166.951 281.201 187.913L297.587 196.095C309.572 190.956 321.353 184.127 325.213 174.728C327.854 168.236 327.244 157.147 330.494 144.772C332.458 138.822 335.437 134.224 339.229 129.152Z" fill="#F197BE"/>
<path opacity="0.31" d="M24.8497 71.8115C49.2254 83.7801 69.8094 98.6563 81.3878 120.362L83.6223 139.701L78.2054 138.484C67.0332 108.258 53.3557 94.2611 41.9127 89.3249C56.4027 101.293 68.6583 116.17 75.2939 138.552L58.2309 144.908C47.0587 138.213 36.1573 129.896 33.4489 119.821C31.6207 112.924 33.5166 101.699 31.6884 88.7839C30.4696 82.4953 28.0321 77.4915 24.8497 71.8115Z" fill="#F197BE"/>
<path opacity="0.31" d="M67.7781 9.53452C94.9299 8.11452 120.118 11.0898 140.838 24.3431L152.213 40.1659L146.864 41.7212C122.353 20.7593 103.597 15.2145 91.1382 16.4993C109.623 19.8802 127.634 26.9126 144.291 43.2088L132.441 57.0707C119.373 56.665 105.899 54.704 98.5863 47.2659C93.6434 42.1269 89.7839 31.4431 81.9295 21.0298C77.8669 16.0936 73.2626 12.9155 67.7781 9.53452Z" fill="#F197BE"/>
<path opacity="0.31" d="M295.759 4.66504C270.029 13.3879 247.752 25.3565 233.668 45.0336L229.267 63.5612L234.82 63.0203C249.445 34.9584 264.68 23.0574 276.732 19.6088C260.888 29.4812 246.94 42.4641 237.731 63.426L254.117 71.6079C266.102 66.4688 277.883 59.6393 281.743 50.2403C284.384 43.7488 283.774 32.6593 287.024 20.285C288.92 14.3346 291.967 9.80409 295.759 4.66504Z" fill="#F197BE"/>
<path opacity="0.31" d="M218.027 73.975C226.017 62.0064 231.705 47.9417 235.293 32.0512C239.424 19.2712 244.976 10.2778 251.205 3.11023C235.903 2.77213 220.397 13.5912 204.418 33.9445C195.683 46.9274 188.844 62.3445 184.782 81.3455L218.027 73.975Z" fill="#F197BE"/>
<path opacity="0.31" d="M89.784 139.025C79.2211 122.323 71.0959 103.187 65.1374 81.8191C58.908 64.5086 51.5276 52.0667 43.5378 41.9238C61.1425 43.2086 80.2368 59.1667 100.956 87.7695C112.467 105.891 122.082 126.989 128.853 152.481L89.784 139.025Z" fill="#F197BE"/>
<path opacity="0.31" d="M330.156 50.6465C304.426 59.3693 282.149 71.3379 268.065 91.0151L263.664 109.543L269.216 109.002C283.842 80.9398 299.077 69.0389 311.129 65.5903C295.285 75.4627 281.337 88.4455 272.128 109.407L288.514 117.589C300.499 112.45 312.28 105.621 316.14 96.2217C318.78 89.7303 318.171 78.6408 321.421 66.2665C323.385 60.3836 326.432 55.7855 330.156 50.6465Z" fill="#F197BE"/>
<path d="M78.4763 278.726C97.6228 278.726 113.144 273.034 113.144 266.013C113.144 258.992 97.6228 253.301 78.4763 253.301C59.3299 253.301 43.8086 258.992 43.8086 266.013C43.8086 273.034 59.3299 278.726 78.4763 278.726Z" fill="#8F798E"/>
<path d="M293.592 282.106C319.993 282.106 341.396 276.536 341.396 269.665C341.396 262.793 319.993 257.223 293.592 257.223C267.191 257.223 245.789 262.793 245.789 269.665C245.789 276.536 267.191 282.106 293.592 282.106Z" fill="#8F798E"/>
<path d="M193.922 243.361C276.791 243.361 343.969 238.941 343.969 233.489C343.969 228.036 276.791 223.616 193.922 223.616C111.054 223.616 43.8762 228.036 43.8762 233.489C43.8762 238.941 111.054 243.361 193.922 243.361Z" fill="#8F798E"/>
<path d="M101.769 30.5635L287.092 32.592C291.696 32.6597 295.15 36.7844 294.405 41.3149L268.065 196.298C267.456 199.882 264.341 202.519 260.685 202.519L69.8771 201.302C65.1374 201.302 61.6842 196.974 62.6321 192.376L94.456 36.5816C95.0654 33.0654 98.1801 30.5635 101.769 30.5635Z" fill="#642366"/>
<path d="M96.9612 27.9941L282.285 29.9551C286.889 30.0227 290.342 34.1475 289.597 38.6779L263.258 193.661C262.649 197.245 259.534 199.882 255.877 199.882L65.0019 198.732C60.2622 198.732 56.809 194.405 57.7569 189.807L89.5808 34.0122C90.2579 30.496 93.3726 27.9941 96.9612 27.9941Z" fill="url(#paint0_linear_3730_6363)"/>
<path d="M287.431 51.3902L85.5859 48.6179L89.0392 33.1331C89.784 29.8874 92.6955 27.5207 96.081 27.5883L282.149 29.6169C286.415 29.6845 290.478 33.4036 290.004 37.5959L287.431 51.3902Z" fill="#642366"/>
<path d="M75.1586 96.2217L130.749 96.5598C133.66 96.5598 136.098 95.2074 136.504 93.3141L143.275 63.0884C143.817 60.7893 141.108 58.7607 137.588 58.7607H81.9296C79.0858 58.7607 76.6482 60.1131 76.2419 62.0065L69.4709 91.8941C68.9969 94.1255 71.6376 96.2217 75.1586 96.2217Z" fill="#642366"/>
<path d="M72.4501 93.3819L128.04 93.72C130.952 93.72 133.389 92.3676 133.796 90.4742L140.567 60.2485C141.108 57.9495 138.4 55.9209 134.879 55.9209H79.2889C76.445 55.9209 74.0075 57.2733 73.6012 59.1666L66.8302 89.0542C66.2885 91.2857 68.9292 93.3819 72.4501 93.3819Z" fill="white"/>
<path d="M172.594 158.905L237.528 159.378C240.914 159.378 243.757 157.688 244.231 155.321L252.153 117.725C252.763 114.885 249.58 112.315 245.518 112.315H180.584C177.266 112.315 174.422 114.006 173.948 116.373L165.958 153.495C165.349 156.335 168.463 158.905 172.594 158.905Z" fill="#642366"/>
<path d="M169.411 155.388L234.346 155.862C237.731 155.862 240.575 154.171 241.049 151.805L248.971 114.208C249.58 111.368 246.398 108.799 242.335 108.799H177.401C174.083 108.799 171.24 110.489 170.766 112.856L162.843 149.979C162.234 152.819 165.349 155.388 169.411 155.388Z" fill="white"/>
<path d="M78.6117 219.626L149.098 220.1C152.755 220.1 155.869 218.342 156.411 215.84L165.01 176.283C165.687 173.307 162.234 170.603 157.765 170.603H87.2786C83.69 170.603 80.5753 172.428 80.0336 174.863L71.4344 213.946C70.7573 216.922 74.1428 219.559 78.6117 219.626Z" fill="#642366"/>
<path d="M75.1585 215.908L145.645 216.381C149.301 216.381 152.416 214.623 152.958 212.121L161.557 172.564C162.234 169.589 158.781 166.884 154.312 166.884H83.8254C80.2368 166.884 77.1221 168.71 76.5804 171.144L67.9812 210.228C67.3718 213.135 70.7573 215.84 75.1585 215.908Z" fill="white"/>
<path d="M174.287 191.903L211.189 192.106C213.085 192.106 214.71 191.363 214.98 190.416L219.449 174.593C219.788 173.376 218.027 172.294 215.658 172.294H178.755C176.86 172.294 175.234 173.038 174.964 173.984L170.495 189.604C170.224 190.754 171.984 191.836 174.287 191.903Z" fill="#642366"/>
<path d="M172.526 190.348L209.428 190.551C211.324 190.551 212.949 189.807 213.22 188.86L217.689 173.037C218.027 171.82 216.267 170.738 213.897 170.738H176.995C175.099 170.738 173.474 171.482 173.203 172.429L168.734 188.049C168.396 189.266 170.156 190.348 172.526 190.348Z" fill="white"/>
<path d="M90.7996 150.115L127.499 150.52C129.395 150.52 131.02 149.033 131.29 146.936L135.759 113.736C136.098 111.234 134.337 108.935 131.968 108.935H95.2685C93.3726 108.935 91.8153 110.422 91.4767 112.518L87.0078 145.381C86.737 147.816 88.4975 150.115 90.7996 150.115Z" fill="#642366"/>
<path d="M88.9714 147.004L125.67 147.41C127.566 147.41 129.191 145.922 129.462 143.826L133.931 110.625C134.27 108.123 132.509 105.824 130.139 105.824H93.4403C91.5444 105.824 89.9871 107.312 89.6485 109.408L85.1796 142.271C84.9088 144.705 86.6693 146.937 88.9714 147.004Z" fill="white"/>
<path d="M101.769 41.2479C103.302 41.2479 104.545 40.0067 104.545 38.4755C104.545 36.9444 103.302 35.7031 101.769 35.7031C100.235 35.7031 98.9926 36.9444 98.9926 38.4755C98.9926 40.0067 100.235 41.2479 101.769 41.2479Z" fill="white"/>
<path d="M109.081 41.7205C110.615 41.7205 111.858 40.4793 111.858 38.9482C111.858 37.417 110.615 36.1758 109.081 36.1758C107.548 36.1758 106.305 37.417 106.305 38.9482C106.305 40.4793 107.548 41.7205 109.081 41.7205Z" fill="white"/>
<path d="M116.8 41.7205C118.334 41.7205 119.577 40.4793 119.577 38.9482C119.577 37.417 118.334 36.1758 116.8 36.1758C115.267 36.1758 114.024 37.417 114.024 38.9482C114.024 40.4793 115.267 41.7205 116.8 41.7205Z" fill="white"/>
<path d="M154.177 76.0039L190.876 76.342C192.771 76.342 194.397 74.9896 194.667 73.0963L199.136 42.8706C199.475 40.5715 197.714 38.543 195.344 38.543H158.645C156.75 38.543 155.192 39.8953 154.854 41.7887L150.385 71.6763C150.114 73.9077 151.874 76.0039 154.177 76.0039Z" fill="#642366"/>
<path d="M152.416 73.1641L189.115 73.5022C191.011 73.5022 192.636 72.1498 192.907 70.2565L197.376 40.0307C197.714 37.7317 195.954 35.7031 193.584 35.7031H156.885C154.989 35.7031 153.432 37.0555 153.093 38.9488L148.624 68.8365C148.353 71.0679 150.114 73.1641 152.416 73.1641Z" fill="white"/>
<path d="M244.502 64.6437C245.924 65.5904 247.007 66.9428 247.617 68.4304L254.049 64.779C252.898 62.3447 251.07 60.1809 248.7 58.558C243.69 55.1094 237.393 54.9742 232.247 57.5437L234.616 63.2914L236.445 63.6294C239.085 62.6828 242.065 62.9533 244.502 64.6437Z" fill="#E78DB8"/>
<path d="M252.695 81.6164C256.284 76.4097 256.555 69.9859 254.049 64.7793L251.815 64.5088C253.101 67.3488 248.7 74.7193 246.737 77.5593C243.893 81.7516 238.273 82.9012 234.142 80.3316L229.944 86.4174C237.393 91.2859 247.549 89.1897 252.695 81.6164Z" fill="#421C49"/>
<path d="M233.872 80.1282C230.351 77.6939 229.267 73.5692 230.689 69.6473L224.663 65.793C221.007 73.1634 222.835 81.5482 229.674 86.2139C229.741 86.2815 229.877 86.3492 229.944 86.4168L234.142 80.3311C234.075 80.2634 233.939 80.1958 233.872 80.1282Z" fill="#CC127D"/>
<path d="M121.337 67.8897C122.691 67.8897 123.91 68.2954 124.926 68.904L127.363 63.9002C125.535 62.8859 123.504 62.2773 121.269 62.2773C116.665 62.2773 112.602 64.8469 110.436 68.6335L115.717 70.6621C117.071 69.0392 119.103 67.8897 121.337 67.8897Z" fill="#642366"/>
<path d="M133.796 74.9897C133.796 70.2563 131.223 66.1316 127.363 63.9678L124.926 68.9716C126.957 70.1887 128.311 72.4878 128.311 74.9897C128.311 78.844 125.332 81.9544 121.54 82.0221V87.5668C128.379 87.4992 133.796 81.8868 133.796 74.9897Z" fill="#E3087F"/>
<path d="M121.337 82.09C118.087 82.09 115.378 79.8585 114.566 76.748H109.014C109.894 82.9014 115.04 87.6347 121.337 87.6347C121.405 87.6347 121.472 87.6347 121.608 87.6347V82.09C121.472 82.09 121.405 82.09 121.337 82.09Z" fill="#F095BC"/>
<path d="M242.674 64.1704C244.096 65.1171 245.179 66.4695 245.856 67.9571L252.153 64.4409C250.935 62.0066 249.174 59.8428 246.737 58.22C241.726 54.7714 235.497 54.5685 230.418 57.0028L234.684 63.0209C237.257 62.2095 240.236 62.48 242.674 64.1704Z" fill="#F095BC"/>
<path d="M251.002 80.9395C254.456 75.868 254.726 69.5795 252.153 64.4404L245.856 67.9566C247.143 70.7966 246.94 74.1776 245.112 76.8823C242.335 80.9395 236.783 82.089 232.653 79.4519L228.59 85.4023C235.971 90.2709 245.992 88.3099 251.002 80.9395Z" fill="#642366"/>
<path d="M232.314 79.3174C228.793 76.8831 227.507 72.4878 228.861 68.6336L222.835 64.5088C219.246 71.6764 221.413 80.6021 228.252 85.2678C228.319 85.3355 228.455 85.4031 228.523 85.4707L232.585 79.5202C232.517 79.385 232.45 79.3174 232.314 79.3174Z" fill="#E3087F"/>
<path d="M170.969 68.4306H166.297L171.443 41.0449H176.115L170.969 68.4306Z" fill="#E3087F"/>
<path d="M176.318 68.4306H172.323L175.302 53.0811H179.365L176.318 68.4306Z" fill="#642366"/>
<path d="M164.739 68.4308H160.474L163.927 49.0918H168.599L164.739 68.4308Z" fill="#A95F9A"/>
<path d="M187.49 68.4307H184.172L186.745 56.3945H190.063L187.49 68.4307Z" fill="#A95F9A"/>
<path d="M158.916 68.4302H154.921L156.682 60.4512H160.677L158.916 68.4302Z" fill="#E3087F"/>
<path d="M182.141 68.4307H178.146L182.479 47.7393H186.474L182.141 68.4307Z" fill="#E3087F"/>
<path d="M104.139 143.149H98.9926L104.68 115.764H109.894L104.139 143.149Z" fill="#E3087F"/>
<path d="M110.097 143.149H105.628L109.014 127.8H113.483L110.097 143.149Z" fill="#642366"/>
<path d="M97.2321 143.149H92.4924L96.2841 123.742H101.498L97.2321 143.149Z" fill="#A95F9A"/>
<path d="M122.556 143.149H118.832L121.675 131.113H125.4L122.556 143.149Z" fill="#A95F9A"/>
<path d="M116.597 143.15H112.128L116.936 122.391H121.405L116.597 143.15Z" fill="#E3087F"/>
<path d="M123.91 145.516H87.9557L93.6434 111.301L94.7268 111.504L89.2423 144.366H123.91V145.516Z" fill="#1A1A1B"/>
<path d="M236.309 119.888H229.403V120.97H236.309V119.888Z" fill="#1A1A1B"/>
<path d="M235.429 125.027H225.543V126.109H235.429V125.027Z" fill="#1A1A1B"/>
<path d="M234.595 129.742L216.048 130.177L216.073 131.258L234.62 130.824L234.595 129.742Z" fill="#1A1A1B"/>
<path d="M212.611 66.9424H201.438V68.0243H212.611V66.9424Z" fill="#1A1A1B"/>
<path d="M212.678 71.2695H201.032V72.3514H212.678V71.2695Z" fill="#1A1A1B"/>
<path d="M211.324 77.2881H200.152V78.37H211.324V77.2881Z" fill="#1A1A1B"/>
<path d="M154.109 114.141C139.822 114.141 129.665 105.823 117.951 95.0044L118.696 94.1929C130.816 105.35 141.244 113.802 156.208 112.991C164.604 112.585 168.734 107.243 173.542 101.09C179.094 93.8548 185.459 85.6729 200.084 82.9005C210.579 81.6834 215.59 85.2672 220.33 88.7834C225.95 92.8405 231.231 96.6948 245.179 92.8405C254.591 88.851 258.789 81.6158 262.919 74.651C269.487 63.4263 275.717 52.7424 301.447 56.732L301.243 57.8139C276.258 53.9596 270.232 64.3053 263.867 75.192C259.669 82.3596 255.336 89.7977 245.586 93.8548H245.518C231.028 97.912 225.272 93.7196 219.652 89.6624C215.048 86.2815 210.241 82.8329 200.22 83.9824C186 86.6872 179.839 94.6663 174.422 101.766C169.479 108.19 165.213 113.667 156.276 114.141C155.531 114.141 154.786 114.141 154.109 114.141Z" fill="#E1017F"/>
<path d="M147.609 158.702C153.068 158.702 157.494 154.282 157.494 148.829C157.494 143.377 153.068 138.957 147.609 138.957C142.149 138.957 137.723 143.377 137.723 148.829C137.723 154.282 142.149 158.702 147.609 158.702Z" fill="#E3087F"/>
<path d="M145.036 153.293C144.223 153.293 143.478 152.887 143.004 152.211L139.416 147.207C138.874 146.463 139.077 145.381 139.822 144.908C140.567 144.367 141.65 144.57 142.124 145.313L145.036 149.371L153.161 137.605C153.703 136.861 154.718 136.658 155.463 137.199C156.208 137.74 156.411 138.754 155.869 139.498L147.067 152.211C146.661 152.819 145.848 153.225 145.036 153.293Z" fill="white"/>
<path d="M200.152 179.732H176.047C175.099 179.732 174.354 178.988 174.354 178.041C174.354 177.094 175.099 176.351 176.047 176.351H200.152C201.1 176.351 201.845 177.094 201.845 178.041C201.845 178.988 201.032 179.732 200.152 179.732Z" fill="#1D1D1B"/>
<path d="M210.918 184.87H174.287C173.339 184.87 172.594 184.126 172.594 183.18C172.594 182.233 173.339 181.489 174.287 181.489H210.918C211.866 181.489 212.611 182.233 212.611 183.18C212.611 184.126 211.798 184.87 210.918 184.87Z" fill="#1D1D1B"/>
<path d="M151.062 209.89L156.208 187.102C156.343 184.6 154.921 183.248 151.874 183.653C147.541 184.938 148.015 187.981 142.395 188.387C134.676 188.387 140.228 174.187 130.342 173.308C124.045 173.51 119.983 187.913 114.837 187.102C107.93 186.696 108.811 181.49 101.498 181.963C96.3518 182.504 92.0184 192.714 82.1327 198.327L79.9659 210.363L151.062 209.89Z" fill="#642366"/>
<path d="M151.807 210.025L155.26 195.081C155.395 193.391 153.973 192.512 150.926 192.85C146.593 193.729 147.067 195.69 141.447 195.96C133.728 195.96 139.28 186.629 129.395 186.088C123.097 186.223 119.035 195.69 113.889 195.149C106.982 194.878 107.863 191.497 100.55 191.768C95.4039 192.106 91.0705 198.8 81.1848 202.519L83.2838 210.296L151.807 210.025Z" fill="#E1017F"/>
<path d="M201.845 121.241C196.699 115.493 185.797 113.059 178.62 121.443L178.959 121.782C180.787 119.415 183.36 117.589 186.407 116.71C192.027 115.02 197.85 116.981 201.845 121.241Z" fill="#F095BC"/>
<path d="M200.897 122.052L201.98 121.444C201.912 121.376 201.845 121.309 201.845 121.241C197.85 116.981 192.027 115.088 186.407 116.711C183.36 117.59 180.854 119.415 178.958 121.782L190.672 132.533L200.897 122.052Z" fill="#F095BC"/>
<path d="M174.896 137.74C177.469 146.598 186.271 151.872 194.464 149.506C196.157 149.032 197.647 148.221 199.001 147.207C197.714 148.086 196.225 148.897 194.464 149.506L189.724 133.412L200.694 122.12C196.699 117.725 190.74 115.629 184.985 117.319C176.86 119.753 172.323 128.882 174.896 137.74Z" fill="#E20E7F"/>
<path d="M199.001 147.273C209.225 140.173 205.027 125.365 200.761 122.119L200.694 122.187C202.386 124.08 203.741 126.447 204.553 129.152C206.652 136.184 204.214 143.352 199.001 147.273Z" fill="#A95F9A"/>
<path d="M197.105 150.046C198.865 149.438 200.355 148.694 201.641 147.747C200.287 148.829 198.798 149.573 197.105 150.046C196.631 150.182 196.089 150.317 195.615 150.385C196.631 150.317 197.647 150.182 198.595 149.844C207.058 147.477 211.189 137.807 208.616 128.882C207.803 126.042 206.381 123.607 204.485 121.646C204.553 121.714 204.621 121.782 204.621 121.849L203.537 122.458L193.313 132.939L192.365 133.953L197.105 150.046Z" fill="#652265"/>
<path d="M197.105 150.046C198.865 149.437 200.355 148.693 201.641 147.747C206.855 143.893 209.293 136.657 207.194 129.625C206.381 126.92 205.027 124.553 203.334 122.66L192.365 133.953L197.105 150.046Z" fill="#A95F9A"/>
<path d="M98.0446 84.253H76.7836C75.8356 84.253 75.0908 83.5092 75.0908 82.5625C75.0908 81.6159 75.8356 80.8721 76.7836 80.8721H98.0446C98.9926 80.8721 99.7374 81.6159 99.7374 82.5625C99.7374 83.5092 98.9926 84.253 98.0446 84.253Z" fill="#871557"/>
<path d="M107.592 89.3917H75.294C74.346 89.3917 73.6012 88.6479 73.6012 87.7012C73.6012 86.7546 74.346 86.0107 75.294 86.0107H107.592C108.54 86.0107 109.285 86.7546 109.285 87.7012C109.217 88.6479 108.472 89.3917 107.592 89.3917Z" fill="#871557"/>
<path d="M102.852 73.0284H78.7472C77.7993 73.0284 77.0544 72.2846 77.0544 71.3379C77.0544 70.3913 77.7993 69.6475 78.7472 69.6475H102.852C103.8 69.6475 104.545 70.3913 104.545 71.3379C104.477 72.2846 103.732 73.0284 102.852 73.0284Z" fill="#871557"/>
<path d="M96.3519 78.2354H76.9867C76.0388 78.2354 75.2939 77.4916 75.2939 76.545C75.2939 75.5983 76.0388 74.8545 76.9867 74.8545H96.3519C97.2998 74.8545 98.0446 75.5983 98.0446 76.545C98.0446 77.4916 97.2998 78.2354 96.3519 78.2354Z" fill="#871557"/>
<path d="M98.9249 67.4835H79.5597C78.6118 67.4835 77.8669 66.7397 77.8669 65.793C77.8669 64.8463 78.6118 64.1025 79.5597 64.1025H98.9249C99.8728 64.1025 100.618 64.8463 100.618 65.793C100.618 66.7397 99.8728 67.4835 98.9249 67.4835Z" fill="#871557"/>
<path d="M189.047 96.2215L191.959 94.531C191.959 94.2606 191.959 94.0577 192.027 93.8548C192.094 93.652 192.094 93.3815 192.162 93.1786L189.792 90.8796L193.178 86.3491L196.089 88.0396C196.225 87.972 196.292 87.9044 196.428 87.9044L197.037 87.6339C197.173 87.5663 197.24 87.5663 197.376 87.4986L198.188 84.2529L203.808 84.9967V88.3101C204.011 88.4453 204.214 88.5805 204.418 88.7158C204.621 88.851 204.756 88.9863 204.959 89.1891L208.142 88.3101L210.308 93.5167L207.397 95.2072C207.397 95.4777 207.397 95.6806 207.329 95.8834C207.261 96.0863 207.261 96.3567 207.194 96.5596L209.564 98.8586L206.178 103.389L203.267 101.699C203.131 101.766 203.063 101.834 202.928 101.834L202.319 102.104C202.183 102.172 202.115 102.172 201.98 102.172L201.168 105.418L195.548 104.674V101.361C195.344 101.225 195.141 101.09 194.938 100.955C194.735 100.82 194.6 100.684 194.396 100.482L191.214 101.361L189.047 96.2215ZM191.688 97.1006L192.501 98.9939L195.141 98.2501C195.48 98.6558 195.886 99.0615 196.292 99.3996C196.699 99.7377 197.173 99.9406 197.647 100.143V102.916L199.678 103.186L200.355 100.482C200.626 100.482 200.897 100.414 201.1 100.346C201.371 100.279 201.641 100.211 201.845 100.076C202.048 99.9405 202.319 99.8729 202.589 99.7377C202.86 99.6025 203.063 99.4672 203.199 99.2644L205.636 100.684L206.855 99.0615L204.892 97.1006C205.095 96.6272 205.23 96.0863 205.298 95.5453C205.366 95.0044 205.366 94.4634 205.298 93.9225L207.668 92.5701L206.855 90.6767L204.214 91.4205C203.876 91.0148 203.47 90.6091 203.063 90.271C202.657 89.9329 202.183 89.7301 201.709 89.5272V86.7548L199.678 86.4844L199.001 89.1891C198.73 89.1891 198.459 89.2567 198.188 89.3244C197.917 89.392 197.647 89.4596 197.376 89.5948C197.105 89.7301 196.902 89.7977 196.631 89.9329C196.428 90.0682 196.225 90.2034 196.022 90.4063L193.584 88.9863L192.365 90.6091L194.329 92.5701C194.126 93.0434 193.99 93.5844 193.922 94.1253C193.855 94.6663 193.855 95.2072 193.922 95.7482L191.688 97.1006ZM196.36 96.2891C196.766 97.2358 197.376 97.8444 198.324 98.2501C199.272 98.6558 200.152 98.5882 201.1 98.2501C202.048 97.8444 202.657 97.2358 203.063 96.2891C203.47 95.3425 203.402 94.4634 203.063 93.5167C202.657 92.5701 201.98 91.9615 201.1 91.5558C200.152 91.2177 199.272 91.2177 198.324 91.5558C197.376 91.9615 196.766 92.5701 196.36 93.5167C195.954 94.4634 195.954 95.3425 196.36 96.2891Z" fill="#E20E7F"/>
<path d="M232.45 179.258L234.616 178.041C234.616 177.838 234.616 177.703 234.616 177.5C234.616 177.297 234.684 177.162 234.684 176.959L232.924 175.201L235.429 171.82L237.596 173.037C237.663 172.969 237.731 172.969 237.799 172.902L238.273 172.699C238.341 172.699 238.408 172.631 238.544 172.631L239.153 170.265L243.351 170.806V173.24C243.487 173.308 243.622 173.443 243.757 173.51C243.893 173.646 244.028 173.713 244.164 173.848L246.533 173.172L248.159 177.027L245.992 178.244C245.992 178.447 245.992 178.582 245.992 178.785C245.992 178.987 245.924 179.123 245.924 179.326L247.685 181.084L245.179 184.465L243.013 183.248C242.945 183.315 242.877 183.315 242.809 183.383L242.335 183.586C242.268 183.586 242.2 183.653 242.065 183.653L241.455 186.02L237.257 185.479V183.045C237.122 182.977 236.986 182.842 236.851 182.774C236.715 182.639 236.58 182.571 236.445 182.436L234.075 183.112L232.45 179.258ZM234.413 179.934L235.023 181.354L236.986 180.813C237.257 181.151 237.528 181.422 237.799 181.625C238.07 181.828 238.476 182.03 238.814 182.233V184.262L240.304 184.465L240.778 182.436C240.981 182.436 241.184 182.368 241.32 182.368C241.523 182.301 241.726 182.233 241.861 182.166C242.065 182.098 242.2 181.963 242.403 181.895C242.606 181.828 242.742 181.692 242.877 181.557L244.638 182.571L245.518 181.354L244.028 179.934C244.164 179.528 244.299 179.19 244.367 178.785C244.434 178.379 244.434 177.973 244.367 177.568L246.127 176.553L245.518 175.133L243.554 175.674C243.283 175.336 243.013 175.066 242.742 174.863C242.403 174.66 242.065 174.457 241.726 174.254V172.226L240.236 172.023L239.762 173.984C239.559 173.984 239.356 174.051 239.153 174.051C238.95 174.119 238.747 174.187 238.544 174.254C238.341 174.322 238.205 174.389 238.002 174.525C237.867 174.592 237.663 174.728 237.528 174.863L235.768 173.848L234.887 175.066L236.377 176.486C236.242 176.891 236.106 177.229 236.038 177.635C235.971 178.041 235.971 178.447 236.038 178.852L234.413 179.934ZM237.867 179.326C238.137 180.002 238.611 180.475 239.356 180.746C240.101 181.016 240.71 181.016 241.387 180.746C242.065 180.475 242.539 180.002 242.809 179.258C243.08 178.582 243.08 177.906 242.809 177.229C242.539 176.553 241.997 176.08 241.32 175.809C240.643 175.539 239.966 175.539 239.288 175.809C238.611 176.08 238.137 176.553 237.867 177.229C237.596 177.973 237.596 178.649 237.867 179.326Z" fill="#E20E7F"/>
<path d="M279.508 174.998L311.468 175.809C315.327 202.384 316.546 204.412 320.879 262.97L310.52 261.686C307.337 236.531 302.259 226.727 294.202 200.829C289.259 219.829 289.8 236.058 284.722 261.348L273.279 260.266C270.029 231.392 270.435 201.234 279.508 174.998Z" fill="url(#paint1_linear_3730_6363)"/>
<path d="M275.581 102.916C274.498 105.08 274.633 108.461 275.04 112.112C274.904 116.778 277.883 118.468 282.149 118.874L284.519 129.896L294.608 127.191L292.238 116.169L297.79 105.35L291.358 97.1006L275.581 102.916Z" fill="#FFE9B0"/>
<path d="M270.097 98.0477C271.315 104.471 278.29 104.404 286.686 102.646C286.753 104.471 285.738 104.742 284.722 105.215C290.613 103.998 291.832 106.771 289.8 112.18C292.847 109.137 294.405 106.027 293.728 110.828C292.983 112.315 291.899 113.871 290.41 115.493L291.155 117.86C297.181 110.151 301.04 103.592 299.009 100.144C296.233 95.0724 292.644 91.2858 286.753 91.3534C280.524 89.9334 276.665 96.4248 272.399 94.5315C276.394 98.1829 273.753 101.767 270.097 98.0477Z" fill="#1D1E1C"/>
<path d="M273.821 259.184C278.357 260.806 281.201 261.686 284.384 261.077C284.722 264.39 284.654 267.433 283.233 269.8C282.555 270.949 281.269 271.49 279.982 271.355L277.613 271.085C275.175 270.814 272.67 271.355 270.503 272.572C267.117 274.533 263.258 275.209 258.247 272.843C256.081 270.138 257.299 268.583 261.565 268.109C270.909 267.23 266.711 261.28 273.821 259.184Z" fill="#1D1E1C"/>
<path d="M309.233 260.738C313.905 262.632 318.103 263.173 321.692 261.888L320.609 267.23C320.338 268.514 319.593 269.596 318.442 270.205C315.53 271.828 312.619 274.397 309.775 277.237C305.848 280.754 300.77 279.672 300.296 275.614C301.785 272.91 304.155 270.205 307.067 267.5C308.015 266.621 308.556 265.404 308.488 264.119C308.488 262.834 308.759 261.685 309.233 260.738Z" fill="#1D1E1C"/>
<path d="M312.348 161.136C308.827 169.115 308.488 177.432 305.645 182.436L311.061 185.479C315.869 177.905 319.322 169.994 320.338 161.339L312.348 161.136Z" fill="#FFE9B0"/>
<path d="M292.983 119.618C315.598 121.782 322.708 137.875 321.827 163.638C317.765 163.503 313.905 162.962 310.181 162.083C311.806 154.915 311.468 149.573 309.233 145.99C310.723 152.954 309.64 166.275 307.744 181.557L281.133 181.828C277.816 169.521 275.581 157.485 277.206 146.531C272.263 156.809 266.779 161.745 260.55 160.595L260.076 149.235C271.045 144.029 268.269 134.697 273.347 128.544C275.378 125.772 279.373 123.878 283.029 123.067C287.498 131.113 293.389 128.138 292.983 119.618Z" fill="url(#paint2_linear_3730_6363)"/>
<path d="M318.103 262.7V262.565C313.364 231.122 308.759 198.8 307.067 175.674V175.539L309.572 175.742V175.877C311.265 200.288 315.869 233.286 320.135 262.362V262.497L318.103 262.7ZM307.337 175.81C309.03 198.868 313.634 231.054 318.374 262.362L319.796 262.227C315.53 233.218 310.994 200.288 309.301 175.945L307.337 175.81Z" fill="white"/>
<path d="M241.929 157.755C241.117 158.228 239.898 159.378 241.117 161.542C244.638 163.773 248.023 164.99 251.07 164.246L241.929 157.755Z" fill="#FFE9B0"/>
<path d="M147.744 126.515C153.229 156.064 181.667 175.539 211.256 170.062C222.158 168.033 231.637 162.894 239.018 155.794L276.935 181.76L311.874 204.344C316.681 207.59 323.182 206.373 326.432 201.64L326.973 200.828C330.223 196.027 329.072 189.536 324.265 186.29L251.476 137.74C255.471 128.273 256.893 117.589 254.862 106.702C249.377 77.153 220.939 57.6787 191.35 63.1558C161.76 68.5653 142.26 96.9653 147.744 126.515ZM194.261 78.7758C215.184 74.9215 235.294 88.6482 239.221 109.61C243.08 130.504 229.335 150.587 208.345 154.509C187.422 158.363 167.312 144.637 163.385 123.675C159.526 102.713 173.339 82.6301 194.261 78.7758Z" fill="#1D1E1C"/>
<path opacity="0.36" d="M201.303 155.05C222.581 155.05 239.83 137.824 239.83 116.575C239.83 95.3256 222.581 78.0996 201.303 78.0996C180.025 78.0996 162.776 95.3256 162.776 116.575C162.776 137.824 180.025 155.05 201.303 155.05Z" fill="url(#paint3_linear_3730_6363)"/>
<path opacity="0.54" d="M194.261 78.776C202.589 77.2208 210.715 78.5055 217.824 81.8865L220.126 94.2608C220.804 97.8446 218.434 101.361 214.777 101.969C211.121 102.578 207.668 100.279 207.058 96.6274L206.787 95.3427C206.246 92.4351 203.47 90.5417 200.558 91.0827C197.647 91.6236 195.751 94.396 196.292 97.3036L198.459 109.069C199.136 112.653 196.766 116.169 193.11 116.778C189.521 117.454 186 115.087 185.391 111.436L185.12 110.151C184.578 107.244 181.802 105.35 178.891 105.891C175.979 106.432 174.083 109.205 174.625 112.112L176.318 121.241C176.995 124.825 174.625 128.341 170.969 128.949C167.38 129.626 163.859 127.259 163.25 123.607C159.526 102.713 173.339 82.6303 194.261 78.776ZM196.631 135.035C200.22 134.359 202.589 130.91 201.98 127.326C201.303 123.743 197.85 121.376 194.261 121.985C190.672 122.661 188.303 126.109 188.912 129.693C189.521 133.277 193.042 135.711 196.631 135.035Z" fill="url(#paint4_linear_3730_6363)"/>
<path d="M88.0912 143.826C88.836 141.865 87.8204 139.837 86.1953 137.741C85.9245 136.929 85.9922 136.05 86.263 135.239L87.2787 132.466C87.4818 131.858 87.4818 131.114 87.211 130.505L84.9765 125.84C84.5025 124.893 84.5025 123.811 84.9765 122.864C85.6536 121.377 86.8047 120.227 86.3307 117.252C85.5182 113.398 83.6223 112.857 81.4556 112.181C80.6431 111.978 80.0337 111.437 79.6951 110.693C78.0701 107.38 75.4971 104.945 68.4552 106.298C64.7988 106.974 61.6164 109.341 58.9757 113.533C58.5695 114.142 58.2986 114.885 58.1632 115.629L57.5538 118.943C57.3507 120.227 56.5382 121.377 55.4548 121.985L50.6474 124.825C49.4963 125.502 47.8035 126.854 47.8035 128.274L48.4806 131.046C48.7515 132.196 48.6838 133.413 48.1421 134.495C46.3139 136.997 43.6732 138.687 44.0794 143.15C44.418 146.396 46.6524 149.101 49.8348 150.047L88.0912 143.826Z" fill="#2B2227"/>
<path d="M49.1576 151.129C43.4023 148.154 43.47 145.517 43.5377 143.015V142.271C44.0116 138.822 46.9232 137.132 48.8868 136.05C49.767 135.577 50.5118 135.103 50.4441 134.833L47.4649 127.936V127.868C47.4649 125.434 50.5796 122.459 54.439 122.459H54.5068L54.5745 122.526C54.6422 122.729 54.7099 122.864 54.913 122.864C55.3193 122.932 56.1318 122.323 57.012 121.174C58.8402 118.739 60.1944 114.953 59.1788 112.789V112.721C59.585 107.379 66.0175 105.621 67.9811 105.216C75.2938 103.863 77.7314 106.568 79.2887 109.678C79.6273 110.422 81.0492 112.383 81.7263 112.586C82.2003 112.721 82.742 112.789 83.216 112.924C84.9087 113.195 86.7369 113.533 87.3463 116.576C87.888 119.686 86.466 121.377 84.7733 123.067C84.0962 123.743 84.1639 123.879 84.6379 124.758L84.7056 124.825L84.6379 124.893C84.0962 125.772 83.8253 126.448 84.0962 126.921C84.2993 127.327 84.7733 127.53 85.6535 127.665H85.7212V127.733C85.7889 127.936 86.3983 128.477 86.94 129.018C88.2265 130.235 89.039 131.046 88.9036 131.519C89.039 133.345 88.6328 134.562 87.7525 135.441C87.414 136.659 87.1432 137.943 87.0754 139.296C87.0754 140.648 87.2109 141.054 87.414 141.459C87.5494 141.73 87.6848 142.136 87.8203 142.879V142.947L49.1576 151.129ZM87.6171 142.879C87.5494 142.203 87.414 141.933 87.2786 141.595C87.0754 141.189 86.94 140.716 86.94 139.363C86.8723 138.079 87.5494 135.509 87.6171 135.441V135.374C88.4974 134.562 88.8359 133.345 88.7682 131.587V131.519C88.9036 131.181 87.6171 130.032 86.8046 129.288C86.1952 128.747 85.7212 128.274 85.5858 128.003C84.7056 127.868 84.0962 127.598 83.8931 127.124C83.6222 126.583 83.8253 125.907 84.4347 124.96C83.9608 124.081 83.8931 123.811 84.6379 122.999C86.2629 121.377 87.6171 119.754 87.1432 116.711C86.6015 113.803 84.9087 113.533 83.216 113.262C82.742 113.195 82.2003 113.059 81.7263 112.924C80.8461 112.654 79.4242 110.558 79.0856 109.881C77.5283 106.839 75.1584 104.134 67.9811 105.554C66.0852 105.959 59.7204 107.718 59.3142 112.789C60.4653 115.359 58.6371 119.28 57.0797 121.377C56.6735 121.985 55.5901 123.27 54.7776 123.202C54.6422 123.202 54.439 123.067 54.3036 122.797C50.5795 122.864 47.6003 125.637 47.6003 127.936L50.5795 134.833C50.715 135.306 49.9702 135.712 48.9545 136.32C47.0586 137.402 44.2148 139.025 43.7408 142.339V143.082C43.6731 145.652 43.6054 148.086 49.1576 150.994L87.6171 142.879Z" fill="#2B2227"/>
<path d="M51.1213 146.936L51.3245 146.869C50.1734 143.961 51.0536 141.865 51.8662 139.904C52.4078 138.687 52.8818 137.47 52.8818 136.185C52.6787 134.968 52.3401 134.021 51.9339 133.21C51.4599 132.06 51.1213 131.249 51.7307 130.302C52.9495 128.679 54.7777 128.544 56.4028 128.341C57.8247 128.206 59.1789 128.071 59.9237 127.056C60.6008 125.704 60.6685 123.878 60.7362 121.85C60.8039 119.28 60.8716 116.373 62.429 114.209C64.7311 111.166 68.0489 109.881 72.8564 110.152V109.949C67.9135 109.678 64.528 111.031 62.2258 114.141C60.6008 116.373 60.5331 119.348 60.4654 121.917C60.3977 123.878 60.33 125.704 59.6528 126.921C58.9757 127.868 57.6892 127.935 56.335 128.071C54.6423 128.274 52.7464 128.409 51.4599 130.099C50.8505 131.181 51.2568 132.06 51.663 133.21C52.0693 134.156 52.3401 135.103 52.5433 136.117C52.5433 137.402 52.0693 138.552 51.5276 139.701C50.9182 141.865 50.038 143.894 51.1213 146.936Z" fill="url(#paint5_linear_3730_6363)"/>
<path d="M60.804 166.411C61.0071 172.158 61.3456 171.212 62.0904 175.539C71.7053 177.636 79.2212 177.027 85.3828 174.593C84.7057 168.913 84.3672 169.589 84.164 163.977L60.804 166.411Z" fill="url(#paint6_linear_3730_6363)"/>
<path d="M119.362 162.13L118.762 163.711L146.244 174.103L146.844 172.522L119.362 162.13Z" fill="#1F1F1D"/>
<path d="M99.7374 156.877C106.779 157.621 112.128 158.906 116.462 160.528C122.285 158.567 126.009 159.785 129.056 164.45C129.462 165.262 129.327 165.6 128.379 165.397C128.514 165.938 128.176 165.87 127.431 165.397C127.837 166.208 127.295 166.073 126.28 165.397C126.686 166.411 125.874 166.141 124.655 165.397C123.639 164.721 122.623 163.977 121.879 163.977C120.931 163.977 120.321 164.924 118.764 165.127C117.613 165.127 116.53 164.653 115.514 163.571C111.451 164.721 100.685 163.774 91.6798 163.368C90.1902 158.838 90.1225 155.187 99.7374 156.877Z" fill="#F3A07D"/>
<path d="M46.3139 166.749L67.1687 168.102C69.3354 168.169 70.148 167.899 69.9448 167.155C66.7624 166.952 69.9448 162.557 70.8928 163.707C72.8564 162.354 78.8149 163.301 84.164 163.909C84.0963 161.881 84.3671 159.92 84.8411 157.959C91.2736 154.172 87.4141 146.328 82.539 138.011C80.4399 136.591 78.2055 135.442 75.9033 134.563C72.6532 133.954 69.3354 133.21 65.6114 135.036L58.5018 138.011C52.7464 143.015 48.2098 152.414 43.8086 161.34C43.1315 164.045 43.2669 166.208 46.3139 166.749ZM54.3714 160.326C56.1996 158.229 57.6215 155.998 58.9757 153.699L60.1268 161.272C58.0278 160.664 56.0642 160.258 54.3714 160.326Z" fill="url(#paint7_linear_3730_6363)"/>
<path d="M67.4395 134.9C67.2364 134.427 66.2207 134.697 65.6113 135.103C65.1374 136.455 66.5593 141.527 72.0438 141.527C77.0544 141.324 79.0857 137.808 76.3773 135.103L67.4395 134.9Z" fill="#1F1F1D"/>
<path d="M67.4395 134.9V130.979L75.9033 134.63C76.5804 136.997 74.9554 139.228 72.4501 139.431C69.9448 139.499 67.5072 138.417 67.4395 134.9Z" fill="#F3A07D"/>
<path d="M67.4395 130.979V128.68C69.9448 132.534 72.7209 134.022 75.7002 133.007L75.9033 134.63C72.6532 135.306 69.7417 134.427 67.4395 130.979Z" fill="#E07753"/>
<path d="M67.4395 128.747C69.5386 132.669 71.773 134.224 75.7002 133.075C81.4556 129.694 81.9973 123.811 81.1848 117.252L68.1166 122.256C67.5073 124.081 67.1687 126.178 67.4395 128.747Z" fill="#F3A07D"/>
<path d="M80.0337 115.426C80.5753 115.967 81.0493 116.575 81.1847 117.251C78.6795 121.173 73.1949 120.7 68.1166 122.255C68.7937 120.903 71.0959 120.903 73.398 119.753C75.971 119.01 78.2732 117.454 80.0337 115.426Z" fill="#E07753"/>
<path d="M84.8411 158.026C86.3308 160.19 88.2266 162.151 90.3257 163.977C95.1331 165.803 114.16 164.45 115.243 163.909C114.566 160.596 116.665 161.069 116.53 160.461C115.785 157.891 98.0447 156.404 93.8466 156.066C90.0548 148.289 86.3985 140.784 82.539 138.146C85.112 146.126 90.3257 153.428 84.8411 158.026ZM60.1268 161.205C64.3926 161.543 66.8979 162.692 70.2834 163.504C73.4658 164.247 84.4349 174.864 84.164 163.977C77.2576 158.026 62.6321 166.006 59.1789 152.955L60.1268 161.205Z" fill="#1F1F1D"/>
<path d="M71.0959 163.977C78.2732 161.813 80.7108 163.977 83.69 167.899C84.164 168.846 83.6223 169.048 83.0129 168.846C83.216 169.319 82.7421 169.386 82.065 168.846C82.4035 169.589 81.9295 169.522 80.9139 168.846C81.3201 169.657 80.7785 169.657 79.2888 168.846L77.3252 167.628C76.7835 167.29 76.0387 167.29 75.4971 167.696C73.8043 168.913 71.8407 168.913 70.1479 167.02C67.1687 167.628 68.5906 162.827 71.0959 163.977Z" fill="#F3A07D"/>
<path d="M60.7362 219.086L58.8403 257.764L70.2834 257.155C74.0075 237.749 77.5961 203.939 76.2419 194.743C81.591 213.271 75.0908 238.087 79.6951 257.629L94.5237 257.02C87.6172 232.204 94.5237 190.956 83.8255 172.699L62.0904 175.539C54.7777 189.536 63.9186 200.085 60.7362 219.086Z" fill="#1E1E1C"/>
<path d="M83.4869 256.073L82.5389 262.024V267.974H84.0963L84.4348 263.917C85.5859 266.622 86.8047 269.124 88.836 270.814C96.6904 272.37 97.9769 269.259 94.1851 265.473C92.2892 264.661 91.409 263.512 90.7319 262.294C90.1225 260.469 90.0548 258.237 90.1225 256.006H83.4869V256.073Z" fill="#1E1E1C"/>
<path d="M61.1425 257.021L60.1945 262.971V268.922H61.7519L62.0904 264.865C63.2415 267.569 64.4603 270.071 66.4916 271.762C74.346 273.317 75.6325 270.206 71.8407 266.42C69.9448 265.608 69.0646 264.459 68.3875 263.242C67.7781 261.416 67.7104 259.185 67.7781 256.953H61.1425V257.021Z" fill="#1E1E1C"/>
<defs>
<linearGradient id="paint0_linear_3730_6363" x1="57.5487" y1="113.977" x2="289.646" y2="113.977" gradientUnits="userSpaceOnUse">
<stop stop-color="#EDC3DC"/>
<stop offset="0.529" stop-color="white"/>
<stop offset="1" stop-color="#EDC3DC"/>
</linearGradient>
<linearGradient id="paint1_linear_3730_6363" x1="328.278" y1="224.626" x2="270.865" y2="213.67" gradientUnits="userSpaceOnUse">
<stop stop-color="#402051"/>
<stop offset="1" stop-color="#1E1E1C"/>
</linearGradient>
<linearGradient id="paint2_linear_3730_6363" x1="323.195" y1="157.208" x2="260.981" y2="145.336" gradientUnits="userSpaceOnUse">
<stop stop-color="#402051"/>
<stop offset="1" stop-color="#1E1E1C"/>
</linearGradient>
<linearGradient id="paint3_linear_3730_6363" x1="163.604" y1="123.736" x2="239.379" y2="109.619" gradientUnits="userSpaceOnUse">
<stop stop-color="#DEF0F8"/>
<stop offset="0.282" stop-color="#D1EAF6"/>
<stop offset="0.823" stop-color="#AEDDF0"/>
<stop offset="1" stop-color="#A3D9EF"/>
</linearGradient>
<linearGradient id="paint4_linear_3730_6363" x1="196.997" y1="76.387" x2="186.171" y2="133.27" gradientUnits="userSpaceOnUse">
<stop stop-color="#DDF0F8"/>
<stop offset="0.723" stop-color="#EBF6FB"/>
<stop offset="1" stop-color="#F0F8FC"/>
</linearGradient>
<linearGradient id="paint5_linear_3730_6363" x1="73.0466" y1="128.438" x2="50.6109" y2="128.438" gradientUnits="userSpaceOnUse">
<stop stop-color="#E3177F" stop-opacity="0"/>
<stop offset="0.5" stop-color="#E3177F"/>
<stop offset="1" stop-color="#E3177F" stop-opacity="0.8"/>
</linearGradient>
<linearGradient id="paint6_linear_3730_6363" x1="85.3706" y1="170.386" x2="60.8025" y2="170.386" gradientUnits="userSpaceOnUse">
<stop stop-color="#1F1F1D"/>
<stop offset="1" stop-color="#737371"/>
</linearGradient>
<linearGradient id="paint7_linear_3730_6363" x1="88.2291" y1="151.044" x2="43.4795" y2="151.044" gradientUnits="userSpaceOnUse">
<stop stop-color="#1F1F1D"/>
<stop offset="1" stop-color="#737371"/>
</linearGradient>
</defs>
</svg>
