<svg width="387" height="311" viewBox="0 0 387 311" fill="none" xmlns="http://www.w3.org/2000/svg">
<path d="M194.661 309.268C290.243 309.268 367.728 299.862 367.728 288.258C367.728 276.655 290.243 267.249 194.661 267.249C99.0792 267.249 21.5947 276.655 21.5947 288.258C21.5947 299.862 99.0792 309.268 194.661 309.268Z" fill="#90798F"/>
<path d="M348.3 179.748L350.39 195.034C351.474 195.411 352.48 195.863 353.409 196.465C354.337 196.992 355.266 197.595 356.195 198.272L370.746 192.248L384.369 214.839L371.83 224.252C371.907 224.779 371.985 225.381 371.985 225.833V229.071C371.985 229.598 371.985 230.126 371.907 230.653L384.601 239.84L371.288 262.581L356.659 256.707C355.731 257.385 354.802 257.988 353.873 258.515C352.867 259.042 351.938 259.569 350.932 259.945L349.074 275.232L322.139 275.382L320.049 260.096C318.966 259.719 317.959 259.268 317.031 258.665C316.102 258.138 315.173 257.536 314.244 256.858L299.693 262.882L286.071 240.291L298.609 230.879C298.532 230.351 298.455 229.749 298.455 229.297V226.059C298.455 225.532 298.532 225.005 298.687 224.478L285.993 215.291L299.306 192.549L313.78 198.423C314.709 197.745 315.637 197.143 316.566 196.616C317.572 196.089 318.501 195.562 319.507 195.185L321.365 179.899L348.3 179.748ZM339.786 189.311L330.111 189.387L328.486 202.038C325.932 202.715 323.61 203.619 321.442 204.899C319.275 206.179 317.34 207.685 315.56 209.417L303.408 204.598L298.687 212.731L309.291 220.411C308.904 221.541 308.594 222.671 308.439 223.951C308.284 225.156 308.207 226.436 308.207 227.716C308.207 228.996 308.284 230.276 308.517 231.481C308.671 232.686 308.981 233.891 309.368 235.02L298.919 242.852L303.795 250.909L315.87 245.788C317.65 247.596 319.662 249.102 321.829 250.307C323.997 251.511 326.396 252.415 328.873 253.093L330.576 265.744L340.251 265.668L341.876 253.018C344.43 252.34 346.752 251.436 348.919 250.156C351.087 248.876 353.022 247.37 354.802 245.638L366.954 250.457L371.675 242.325L361.071 234.794C361.458 233.589 361.768 232.385 361.923 231.18C362.077 229.975 362.155 228.695 362.155 227.339C362.155 226.059 362.077 224.854 361.845 223.65C361.69 222.445 361.381 221.24 360.994 220.11L371.443 212.279L366.567 204.221L354.492 209.342C352.712 207.535 350.7 206.029 348.532 204.824C346.365 203.619 343.966 202.715 341.489 202.038L339.786 189.311ZM334.833 210.848C330.111 210.848 326.086 212.505 322.758 215.818C319.43 219.131 317.805 223.047 317.805 227.641C317.805 232.234 319.507 236.15 322.913 239.388C326.319 242.626 330.343 244.207 335.065 244.207C339.864 244.207 343.966 242.55 347.217 239.237C350.467 235.924 352.093 232.008 352.093 227.415C352.093 222.821 350.39 218.905 347.062 215.667C343.734 212.429 339.631 210.773 334.833 210.848Z" fill="#642366"/>
<path d="M276.705 54.1426L277.402 59.1879C277.789 59.3385 278.098 59.4891 278.408 59.6397C278.718 59.7903 279.027 60.0162 279.337 60.2421L284.136 58.2089L288.625 65.6639L284.445 68.7513C284.445 68.9019 284.523 69.1278 284.523 69.2784V70.3326C284.523 70.4833 284.523 70.7092 284.523 70.8598L288.702 73.9472L284.29 81.4774L279.414 79.5196C279.105 79.7455 278.795 79.8961 278.485 80.122C278.176 80.2726 277.866 80.4985 277.479 80.5738L276.86 85.6191L267.882 85.6944L267.185 80.6491C266.798 80.4985 266.488 80.3479 266.179 80.1973C265.869 80.0467 265.56 79.8208 265.25 79.5949L260.451 81.628L255.962 74.1731L260.142 71.0857C260.142 70.9351 260.064 70.7092 260.064 70.5586V69.5043C260.064 69.3537 260.064 69.1278 260.142 68.9772L255.962 65.8898L260.374 58.3595L265.173 60.3174C265.482 60.0915 265.792 59.9409 266.101 59.715C266.411 59.5644 266.721 59.3385 267.108 59.2632L267.727 54.2179L276.705 54.1426ZM273.841 57.3053H270.668L270.126 61.5222C269.275 61.7481 268.501 62.0494 267.804 62.5012C267.108 62.8777 266.411 63.4048 265.869 64.0072L261.844 62.4259L260.296 65.1368L263.779 67.6971C263.624 68.0736 263.547 68.4501 263.47 68.9019C263.392 69.2784 263.392 69.7302 263.392 70.182C263.392 70.6339 263.392 71.0104 263.47 71.4622C263.547 71.914 263.624 72.2905 263.779 72.5917L260.296 75.152L261.922 77.8629L265.947 76.2063C266.566 76.8087 267.185 77.3358 267.959 77.7123C268.656 78.0888 269.43 78.39 270.281 78.6159L270.823 82.8329H273.996L274.538 78.6159C275.389 78.39 276.163 78.0888 276.86 77.637C277.557 77.2605 278.253 76.7334 278.795 76.131L282.82 77.7123L284.368 75.0014L280.885 72.5164C281.04 72.1399 281.117 71.6881 281.194 71.3116C281.272 70.9351 281.272 70.4833 281.272 70.0314C281.272 69.5796 281.272 69.2031 281.194 68.8266C281.117 68.4501 281.04 68.0736 280.885 67.6218L284.368 65.0615L282.742 62.3506L278.718 64.0072C278.098 63.4048 277.479 62.8777 276.705 62.5012C276.009 62.1247 275.235 61.8235 274.383 61.5975L273.841 57.3053ZM272.216 64.459C270.668 64.459 269.275 64.9862 268.191 66.1157C267.108 67.2452 266.566 68.5254 266.566 70.0314C266.566 71.5375 267.108 72.8929 268.269 73.9472C269.43 75.0014 270.745 75.5285 272.293 75.5285C273.919 75.5285 275.235 75.0014 276.318 73.8719C277.402 72.8176 277.944 71.4622 277.944 69.9561C277.944 68.4501 277.402 67.0946 276.241 66.0404C275.157 64.9862 273.841 64.459 272.216 64.459Z" fill="#642366"/>
<path d="M128.871 33.4346L130.806 47.8927C131.812 48.2692 132.741 48.721 133.67 49.2481C134.599 49.7752 135.45 50.3024 136.302 50.9048L150.156 45.1818L163.082 66.5677L151.162 75.4535C151.24 75.9806 151.317 76.5077 151.317 76.9595V80.0469C151.317 80.574 151.317 81.0259 151.24 81.553L163.314 90.2881L150.698 111.9L136.843 106.328C135.992 106.93 135.141 107.532 134.212 108.06C133.283 108.587 132.354 109.038 131.425 109.415L129.645 123.948L104.026 124.099L102.091 109.641C101.085 109.264 100.156 108.813 99.227 108.285C98.2982 107.758 97.4468 107.231 96.5954 106.629L82.8182 112.352L69.8924 90.9658L81.812 82.0801C81.7346 81.553 81.6572 81.0259 81.6572 80.574V77.4866C81.6572 76.9595 81.7346 76.5077 81.8894 75.9806L69.6602 67.2455L82.2764 45.6336L96.0536 51.206C96.905 50.6036 97.7564 50.0012 98.6852 49.474C99.614 48.9469 100.543 48.4951 101.472 48.1186L103.252 33.5852L128.871 33.4346ZM120.822 42.5462L111.611 42.6215L110.063 54.5946C107.664 55.197 105.419 56.1007 103.407 57.3055C101.394 58.5104 99.4592 59.9411 97.7564 61.5978L86.2238 57.0043L81.7346 64.7605L91.7966 72.0648C91.4096 73.1191 91.1774 74.2486 91.0226 75.3782C90.8678 76.5077 90.7904 77.7125 90.7904 78.9174C90.7904 80.1222 90.8678 81.3271 91.0226 82.4566C91.1774 83.6614 91.487 84.7157 91.874 85.7699L81.8894 93.2249L86.456 100.906L97.9112 96.0864C99.614 97.8183 101.549 99.2491 103.561 100.379C105.651 101.508 107.896 102.412 110.295 103.014L111.921 114.987L121.131 114.912L122.679 102.939C125.079 102.337 127.323 101.433 129.336 100.228C131.348 99.0232 133.283 97.5924 134.986 95.9358L146.518 100.529L151.008 92.7731L140.946 85.6193C141.333 84.4898 141.565 83.3602 141.72 82.2307C141.874 81.1012 141.952 79.8963 141.952 78.6162C141.952 77.4113 141.874 76.2065 141.72 75.0769C141.565 73.9474 141.255 72.8179 140.868 71.6883L150.853 64.2334L146.286 56.6278L134.831 61.4472C133.128 59.7152 131.193 58.2844 129.181 57.1549C127.091 56.0254 124.846 55.1217 122.447 54.5193L120.822 42.5462ZM116.1 62.9532C111.611 62.9532 107.741 64.5346 104.645 67.6973C101.472 70.7847 99.9236 74.5498 99.9236 78.9174C99.9236 83.2849 101.549 87.0501 104.8 90.0622C107.973 93.1496 111.843 94.6556 116.332 94.6556C120.899 94.6556 124.769 93.0743 127.865 89.9116C130.961 86.7489 132.509 83.059 132.509 78.6915C132.509 74.3239 130.884 70.5588 127.71 67.5467C124.537 64.4593 120.667 62.9532 116.1 62.9532Z" fill="#F095BC"/>
<path d="M74.9234 202.94L75.6974 208.739C76.0844 208.889 76.4714 209.04 76.8584 209.266C77.2454 209.492 77.555 209.718 77.942 209.944L83.5148 207.609L88.7006 216.194L83.9018 219.808C83.9018 220.034 83.9792 220.26 83.9792 220.411V221.615C83.9792 221.841 83.9792 221.992 83.9018 222.218L88.778 225.757L83.6696 234.417L78.0968 232.158C77.7872 232.384 77.4002 232.61 77.0132 232.836C76.6262 233.062 76.2392 233.212 75.9296 233.363L75.233 239.161L64.8614 239.462L64.0874 233.664C63.7004 233.513 63.3134 233.363 62.9264 233.137C62.5394 232.911 62.2298 232.685 61.8428 232.459L56.27 234.793L51.0842 226.134L55.883 222.519C55.883 222.293 55.8056 222.067 55.8056 221.917V220.712C55.8056 220.486 55.8056 220.335 55.883 220.109L51.0068 216.57L56.1152 207.91L61.688 210.169C61.9976 209.944 62.3846 209.718 62.7716 209.492C63.1586 209.266 63.5456 209.115 63.8552 208.965L64.5518 203.166L74.9234 202.94ZM71.6726 206.63H67.9574L67.3382 211.45C66.4094 211.676 65.4806 212.052 64.6292 212.504C63.7778 212.956 63.0812 213.558 62.3846 214.236L57.7406 212.429L55.9604 215.516L59.9852 218.453C59.8304 218.905 59.753 219.356 59.6756 219.808C59.5982 220.26 59.5982 220.787 59.5982 221.239C59.5982 221.691 59.5982 222.218 59.6756 222.67C59.753 223.122 59.8304 223.573 59.9852 224.025L55.9604 227.037L57.818 230.125L62.462 228.167C63.1586 228.845 63.9326 229.447 64.784 229.899C65.6354 230.351 66.4868 230.727 67.493 230.953L68.1122 235.772H71.8274L72.4466 230.953C73.3754 230.727 74.3042 230.351 75.1556 229.899C76.007 229.447 76.7036 228.845 77.4002 228.167L82.0442 229.974L83.8244 226.887L79.7996 224.025C79.9544 223.573 80.0318 223.122 80.1092 222.67C80.1866 222.218 80.1866 221.691 80.1866 221.239C80.1866 220.787 80.1866 220.26 80.1092 219.808C80.0318 219.356 79.9544 218.905 79.7996 218.453L83.8244 215.441L81.9668 212.353L77.3228 214.311C76.6262 213.633 75.8522 213.031 75.0008 212.579C74.1494 212.127 73.298 211.751 72.2918 211.525L71.6726 206.63ZM69.7376 214.838C67.9574 214.838 66.4094 215.516 65.0936 216.721C63.8552 218.001 63.1586 219.507 63.236 221.239C63.3134 222.971 63.9326 224.477 65.171 225.757C66.4868 226.962 68.0348 227.64 69.815 227.564C71.6726 227.564 73.2206 226.887 74.459 225.682C75.6974 224.402 76.3166 222.896 76.3166 221.164C76.3166 219.432 75.6974 217.926 74.3816 216.646C73.1432 215.441 71.5952 214.838 69.7376 214.838Z" fill="#642366"/>
<path d="M198.686 286.376C259.301 286.376 308.439 237.962 308.439 178.241C308.439 118.52 259.301 70.1064 198.686 70.1064C138.071 70.1064 88.9326 118.52 88.9326 178.241C88.9326 237.962 138.071 286.376 198.686 286.376Z" fill="#E1017F"/>
<path d="M198.686 260.772C244.938 260.772 282.433 223.822 282.433 178.241C282.433 132.66 244.938 95.709 198.686 95.709C152.434 95.709 114.939 132.66 114.939 178.241C114.939 223.822 152.434 260.772 198.686 260.772Z" fill="white"/>
<path d="M198.686 240.968C233.866 240.968 262.386 212.884 262.386 178.241C262.386 143.598 233.866 115.514 198.686 115.514C163.505 115.514 134.985 143.598 134.985 178.241C134.985 212.884 163.505 240.968 198.686 240.968Z" fill="#E1017F"/>
<path d="M198.686 221.841C223.137 221.841 242.959 202.321 242.959 178.241C242.959 154.161 223.137 134.641 198.686 134.641C174.235 134.641 154.413 154.161 154.413 178.241C154.413 202.321 174.235 221.841 198.686 221.841Z" fill="white"/>
<path d="M198.686 190.138C205.354 190.138 210.76 184.812 210.76 178.241C210.76 171.67 205.354 166.343 198.686 166.343C192.017 166.343 186.611 171.67 186.611 178.241C186.611 184.812 192.017 190.138 198.686 190.138Z" fill="#E1017F"/>
<path d="M273.067 117.999C274.305 104.369 281.116 94.5046 294.739 89.384C295.822 89.0075 296.906 89.8358 296.751 90.9654L295.435 100.228C295.203 101.884 296.442 103.39 298.144 103.466L307.51 104.068C308.671 104.143 309.29 105.348 308.671 106.327C302.711 114.987 290.25 122.442 275.234 120.71C273.996 120.559 272.989 119.354 273.067 117.999Z" fill="#1D1D1B"/>
<path d="M197.138 179.446L213.314 155.876L215.017 161.9C215.094 162.277 215.559 162.352 215.791 162.126L298.532 98.4955C300.002 97.3659 301.628 99.2485 300.08 100.905L218.113 165.515C217.881 165.665 217.881 166.042 218.19 166.193L224.615 169.732L197.138 179.446Z" fill="url(#paint0_linear_3730_27588)"/>
<path d="M119.97 286.225H114.939L145.822 80.498H150.389L119.97 286.225Z" fill="#1D1D1B"/>
<path d="M75.8521 285.396H70.5889L99.9235 80.8743L104.954 80.6484L75.8521 285.396Z" fill="#1D1D1B"/>
<path d="M128.485 190.516H87.4629V193.754H128.485V190.516Z" fill="#1D1D1B"/>
<path d="M126.24 209.943H84.8311V213.483H126.24V209.943Z" fill="#1D1D1B"/>
<path d="M122.757 229.823H81.3477V233.362H122.757V229.823Z" fill="#1D1D1B"/>
<path d="M118.19 251.059H76.7812V254.598H118.19V251.059Z" fill="#1D1D1B"/>
<path d="M114.707 271.767H73.2979V275.306H114.707V271.767Z" fill="#1D1D1B"/>
<path d="M142.726 88.4805H102.4V91.7185H142.726V88.4805Z" fill="#1D1D1B"/>
<path d="M139.243 109.188H98.5303V112.728H139.243V109.188Z" fill="#1D1D1B"/>
<path d="M136.224 129.144H95.5117V132.683H136.224V129.144Z" fill="#1D1D1B"/>
<path d="M133.593 150.379H92.8809V153.918H133.593V150.379Z" fill="#1D1D1B"/>
<path d="M129.877 171.087H89.5518V174.777H129.877V171.087Z" fill="#1D1D1B"/>
<path d="M146.054 80.498H143.267L112.385 285.999L115.403 286.225L146.054 80.498Z" fill="#6E6E69"/>
<path d="M71.0536 285.171L69.2734 285.397L97.9114 80.3477H100.388L71.0536 285.171Z" fill="#6E6E69"/>
<path d="M112.771 87.5016C110.991 88.3299 109.675 87.9534 108.592 87.1251L109.83 76.8086L113.391 78.164C115.016 82.8328 114.784 85.9202 112.771 87.5016Z" fill="#FFE9B0"/>
<path d="M109.521 85.7695H103.02V92.095H109.521V85.7695Z" fill="#FFE9B0"/>
<path d="M114.397 77.4113C114.784 79.6704 114.629 80.0469 112.849 79.2939C111.92 78.842 111.224 78.9926 110.682 79.6704C109.83 80.7999 110.063 84.1132 110.295 87.2759H102.864C100.465 84.0379 99.6137 80.9505 100.31 77.9384C101.626 74.1733 104.645 72.8178 108.902 73.1943C111.456 73.7215 113.778 74.6251 114.397 77.4113Z" fill="#1D1D1B"/>
<path d="M129.645 75.9052C130.883 77.1853 132.509 77.4112 134.521 76.6582L134.908 73.0437C135.682 70.4081 138.159 68.149 136.456 65.8146C135.372 64.8357 133.902 64.6098 132.122 64.8357L131.735 61.5977C131.038 60.1669 130.574 60.5434 130.187 61.8236L129.8 65.664C129.722 67.9984 129.567 70.1069 128.639 69.5045C127.632 68.6761 126.858 69.881 127.632 71.9894C128.406 72.5919 128.716 74.2485 129.645 75.9052Z" fill="#FFEAB1"/>
<path d="M86.146 129.52L89.0872 136.674C90.0934 138.783 89.8612 140.138 87.9262 137.879C87.694 137.653 87.307 137.804 87.307 138.105C87.307 139.686 87.3844 140.364 86.92 141.795C86.2234 142.171 85.9912 142.322 85.2172 141.644C84.598 142.021 83.9788 141.945 83.437 141.268C82.7404 141.644 82.1986 141.644 81.6568 140.891C81.0376 141.117 80.5732 140.967 80.5732 140.138C80.5732 138.256 81.8116 132.834 81.2698 128.843L86.146 129.52Z" fill="#FFE9B0"/>
<path d="M102.246 88.1046C102.865 89.0836 108.979 89.6107 110.295 88.3305C112.462 88.707 114.475 90.2884 116.332 91.192C123.376 89.8366 124.924 83.2099 128.639 75.002C130.729 75.9056 132.819 76.3574 134.754 76.0562C134.367 86.8245 129.026 93.4511 118.654 100.906C119.893 108.662 120.125 121.539 120.202 131.027C110.45 135.319 100.62 136.148 90.6356 132.91C90.7904 121.69 91.7192 111.674 94.3508 103.768C91.9514 107.608 90.0938 111.524 89.0876 115.59C88.4684 118.903 88.4684 125.756 88.4684 132.91C85.9916 133.663 83.5922 133.437 81.1928 132.533C81.038 124.25 80.8058 115.439 81.9668 112.352C85.6046 104.219 88.2362 96.3126 94.7378 91.5685C97.0598 90.1378 100.078 88.6317 102.246 88.1046Z" fill="url(#paint1_linear_3730_27588)"/>
<path d="M92.2602 132.684C90.0156 143.452 88.932 163.106 87.9258 183.362L96.7494 183.965C99.5358 166.118 102.245 149.552 104.954 137.804C106.579 149.175 111.842 166.871 117.493 185.471L125.929 183.965C123.375 162.955 120.666 142.774 117.338 131.178L92.2602 132.684Z" fill="#1D1D1B"/>
<path d="M89.0875 183.212L93.8089 183.814C93.8089 185.923 96.5179 187.655 95.7439 190.893H86.3011C86.1463 185.32 88.5457 185.471 89.0875 183.212Z" fill="#1D1D1B"/>
<path d="M118.499 184.718L118.731 190.591L126.239 190.516L126.936 185.621C125.078 184.417 125.775 184.417 125.001 183.362L118.499 184.718Z" fill="#1D1D1B"/>
<g opacity="0.31">
<path d="M346.675 125.831L344.74 145.636L324.693 138.708C327.17 129.897 337.851 123.421 346.675 125.831Z" fill="#F197BE"/>
<path d="M348.378 127.563L346.675 148.799L363.858 160.697C372.759 143.226 365.173 130.274 348.378 127.563Z" fill="#F197BE"/>
<path d="M344.12 169.658C352.866 170.185 359.6 167.399 363.857 160.697L346.674 148.799L344.12 169.658Z" fill="#F197BE"/>
<path d="M324.538 141.494L346.674 148.799L344.12 169.657C328.408 167.022 323.609 155.275 324.538 141.494Z" fill="#F197BE"/>
</g>
<path d="M204.104 19.2768C204.181 23.3431 203.562 26.9577 201.937 29.8192C201.395 32.0029 201.937 33.8102 203.562 35.3163L195.977 38.7049L189.243 34.7891C189.553 32.6807 190.172 31.2499 191.41 31.0993C189.553 26.8824 188.856 22.816 189.553 18.9756L204.104 19.2768Z" fill="#FFEAB1"/>
<path d="M214.63 27.1839L218.423 33.7352L224.924 26.3555C224.924 26.3555 224.924 10.9938 225.776 10.8432C227.091 10.6173 229.491 6.17441 228.717 6.09911C228.175 3.23761 224.382 1.88216 223.067 4.29185C222.68 5.19548 222.757 6.32502 223.067 7.45456C222.37 9.56303 222.37 11.6715 223.067 13.78C220.28 16.6415 219.042 20.3313 219.042 24.5483C217.648 24.8495 216.178 25.6778 214.63 27.1839Z" fill="#FFEAB1"/>
<path d="M175.078 48.7959L180.187 49.8501L181.038 60.3925H179.181L176.394 56.7027C174.846 54.6695 174.304 52.1092 174.924 49.6995L175.078 48.7959Z" fill="#FFEAB1"/>
<path d="M191.642 31.7021C185.063 31.7021 181.58 34.7142 178.639 38.2534C178.871 41.7926 175.698 44.5788 174.614 49.0217L180.264 49.85L208.98 48.2687L209.289 40.3619L219.274 34.0365L214.166 26.958L207.432 31.7021L202.014 30.4219C202.323 33.6599 200.621 35.919 197.138 37.2745C192.184 36.6721 191.023 34.5636 191.642 31.7021Z" fill="#E0E0DF"/>
<path d="M202.71 27.4847C201.859 31.3252 200.233 34.1867 196.75 34.5632C192.88 34.0361 191.1 30.7981 189.707 26.9576C189.475 25.3763 191.023 28.0119 192.416 28.2378C194.041 28.2378 194.041 25.9034 196.75 26.9576C199.15 25.9034 199.15 27.786 200.233 28.2378C202.168 28.2378 203.407 25.8281 202.71 27.4847Z" fill="#1D1E1C"/>
<path d="M199.46 28.5391C198.918 29.8192 198.144 30.6476 196.518 30.3464C194.661 30.3464 194.119 29.518 193.577 28.765C193.964 28.012 195.125 27.9367 196.828 28.2379C197.989 27.9367 198.995 27.9367 199.46 28.5391Z" fill="#FCFDFF"/>
<path d="M203.252 24.3223C204.103 23.6446 204.645 21.9879 204.877 19.0511C206.735 16.1896 205.419 15.0601 203.02 14.6083C202.633 12.1233 201.085 11.5961 198.685 12.2739C196.982 11.069 195.202 10.9937 193.809 12.5751C191.951 11.2949 190.403 11.8974 188.933 13.6293C187.54 13.4787 187.23 15.5872 187.075 18.0722C187.385 20.4066 188.933 20.7078 189.242 24.0964L190.326 20.1806L191.642 21.009L194.351 19.7288L196.518 21.5361L198.685 19.7288L201.085 21.009L203.484 20.7078L203.252 24.3223Z" fill="#1D1E1C"/>
<path d="M214.398 47.5156H180.265V67.772H214.398V47.5156Z" fill="#DAD2E9"/>
<path d="M225.776 62.5007C217.417 53.3138 201.704 67.7719 185.141 74.3232L180.265 76.4317L181.348 80.6486L188.933 79.3685C195.512 76.5823 202.865 74.5491 210.838 73.0431C219.042 71.2358 224.228 67.8472 225.776 62.5007Z" fill="url(#paint2_linear_3730_27588)"/>
<path d="M169.041 60.769C167.803 73.2692 190.636 72.5162 207.432 78.3145L212.54 79.8959L212.231 75.3777L208.051 72.1397C201.317 69.9559 194.351 66.6426 187.385 62.5763C180.032 58.5852 173.84 57.8322 169.041 60.769Z" fill="url(#paint3_linear_3730_27588)"/>
<path d="M180.264 76.4322C176.239 75.5286 173.376 77.1099 170.512 78.7666C169.583 80.7998 170.512 82.1552 174.304 82.4564C177.787 82.7576 180.729 78.3148 181.348 80.6492L180.264 76.4322Z" fill="#1D1E1C"/>
<path d="M212.23 75.3772C213.546 73.4194 215.017 73.0428 216.565 74.5489C218.035 75.9043 219.816 76.808 221.983 76.8833C224.382 78.8411 224.924 80.8743 224.382 82.9075C223.608 84.6395 221.828 83.0581 219.816 80.799C218.19 81.1002 215.636 80.6484 212.54 79.8201L212.23 75.3772Z" fill="#1D1E1C"/>
<path d="M306.194 274.479C307.665 275.533 309.213 275.985 311.071 274.855L311.922 282.461L310.684 282.235L310.297 278.319C308.981 279.072 307.82 281.03 306.504 283.44C304.879 284.87 302.711 285.247 300.157 284.87C298.996 283.665 298.3 282.461 301.241 281.406C302.402 280.503 304.259 277.566 306.194 274.479Z" fill="#1D1E1C"/>
<path d="M325.544 276.888C327.015 277.942 328.563 278.394 330.42 277.264L331.272 284.87L330.033 284.644L329.646 280.728C328.33 281.481 327.169 283.439 325.854 285.849C324.228 287.279 322.061 287.656 319.507 287.279C318.346 286.075 317.649 284.87 320.59 283.816C321.751 282.912 323.609 279.975 325.544 276.888Z" fill="#1D1E1C"/>
<path d="M304.259 217.098H326.241C330.885 222.67 322.68 233.137 323.454 251.21C327.944 257.836 329.801 267.852 330.188 278.168L325.312 277.942C324.074 262.731 312.851 259.192 313.934 234.944C313.315 240.517 312.464 246.014 311.38 251.36C315.173 257.083 308.826 265.141 310.529 275.834L306.272 275.457C302.402 255.502 302.17 235.02 304.259 217.098Z" fill="url(#paint4_linear_3730_27588)"/>
<path d="M297.758 195.486C301.473 191.043 305.343 187.73 309.136 184.793L307.665 196.088L302.402 200.607C301.318 198.649 299.693 196.917 297.758 195.486Z" fill="#CACACD"/>
<path d="M308.516 169.13C306.349 171.841 305.652 175.305 307.2 179.672C307.664 180.877 308.516 181.856 309.677 182.534C310.296 182.91 310.838 183.437 310.992 184.19L310.76 188.934H318.578L319.197 171.841L308.516 169.13Z" fill="#FFEAB1"/>
<path d="M333.052 182.534L327.17 179.446C324.848 180.877 323.61 183.211 322.913 185.998C321.984 184.717 320.668 184.567 319.353 184.793C314.476 189.01 310.065 189.085 310.684 183.964C302.402 189.311 302.402 194.582 306.04 200.832C306.582 206.028 305.962 211.45 304.337 217.098C312 219.055 319.12 219.507 325.467 217.098C324.616 209.116 324.616 201.209 325.467 193.227C328.873 190.215 331.427 186.675 333.052 182.534Z" fill="#E0E0DF"/>
<path d="M333.052 182.534C335.296 179.371 336.999 174.702 337.696 169.958C341.566 164.009 342.494 161.976 344.429 153.091L339.553 151.886C336.844 157.609 336.302 159.265 333.671 166.043C331.117 170.561 329.104 175.154 327.092 179.447L333.052 182.534Z" fill="#FFEAB1"/>
<path d="M338.935 154.069L344.121 154.973C345.049 152.112 345.282 149.099 346.288 146.991C346.365 145.033 345.669 143.678 344.895 142.774C343.656 141.268 341.644 141.268 339.322 141.946L339.244 144.28C337.309 143 337.155 144.581 338.393 146.991C339.864 147.819 339.554 150.756 338.935 154.069Z" fill="#FFEAB1"/>
<path d="M307.665 170.184C311.071 173.497 313.857 174.702 318.269 173.874C318.346 177.94 317.417 181.48 315.328 184.341C322.371 184.642 324.229 179.145 322.294 169.356C319.972 160.094 310.916 160.997 306.04 165.44C303.563 169.205 302.944 174.853 303.253 179.823C303.795 182.233 305.266 183.513 307.51 183.965C306.349 179.522 306.194 174.702 307.665 170.184Z" fill="#1D1E1C"/>
<path d="M297.99 195.637L296.442 196.54C297.525 192.022 294.507 187.881 296.829 183.588L293.268 181.932C292.185 185.019 290.946 191.344 291.798 197.745C292.185 203.092 296.984 203.769 302.169 199.628L297.99 195.637Z" fill="#FFEAB1"/>
<path d="M284.29 165.591C289.243 167.097 288.392 172.82 297.293 174.477L296.906 180.049C288.469 179.447 286.147 183.739 280.729 183.814L284.29 165.591Z" fill="url(#paint5_linear_3730_27588)"/>
<path d="M287.057 175.562C288.05 170.538 286.813 166.084 284.295 165.613C281.776 165.141 278.929 168.831 277.936 173.855C276.943 178.878 278.179 183.332 280.698 183.804C283.217 184.275 286.064 180.585 287.057 175.562Z" fill="#642366"/>
<path d="M285.683 174.778C284.909 178.844 282.896 181.857 281.194 181.555C279.491 181.254 278.794 177.715 279.646 173.649C280.42 169.582 282.432 166.57 284.135 166.871C285.838 167.173 286.457 170.712 285.683 174.778Z" fill="url(#paint6_linear_3730_27588)"/>
<path d="M285.758 174.837C286.081 173.203 285.662 171.751 284.823 171.594C283.983 171.437 283.041 172.634 282.718 174.268C282.395 175.901 282.813 177.353 283.653 177.51C284.492 177.667 285.435 176.47 285.758 174.837Z" fill="#1D1E1C"/>
<path d="M293.5 185.019H296.674L296.906 180.049H293.113L293.5 185.019Z" fill="url(#paint7_linear_3730_27588)"/>
<path d="M297.293 174.477L301.628 175.23C302.479 175.38 303.176 176.133 303.098 177.037V177.79C303.098 178.769 302.324 179.522 301.318 179.597L296.906 180.049L297.293 174.477Z" fill="#E3087F"/>
<path opacity="0.31" d="M44.9698 227.188H36.8428V275.834H44.9698V227.188Z" fill="#F197BE"/>
<path opacity="0.31" d="M32.8171 237.73H25.3867V275.834H32.8171V237.73Z" fill="#F197BE"/>
<path opacity="0.31" d="M21.3624 246.917H13.2354V275.833H21.3624V246.917Z" fill="#F197BE"/>
<path opacity="0.31" d="M10.5261 257.46H3.0957V275.834H10.5261V257.46Z" fill="#F197BE"/>
<path opacity="0.31" d="M56.4247 141.117H32.1211V172.669H56.4247V141.117Z" fill="#F197BE"/>
<path opacity="0.31" d="M68.6535 151.659H46.3623V181.856H68.6535V151.659Z" fill="#F197BE"/>
<path opacity="0.31" d="M58.36 83.8867L58.6696 86.2211C58.8244 86.2964 58.9792 86.3717 59.134 86.447C59.2888 86.5223 59.4436 86.5976 59.521 86.7482L61.6882 85.8446L63.778 89.2332L61.9204 90.664C61.9204 90.7393 61.9204 90.8146 61.9204 90.8899V91.3417C61.9204 91.417 61.9204 91.4923 61.9204 91.5676L63.8554 92.923L61.843 96.387L59.5984 95.4833C59.4436 95.5586 59.2888 95.6339 59.2114 95.7845C59.0566 95.8598 58.9018 95.9351 58.747 96.0104L58.4374 98.3448H54.3352L54.0256 96.0104C53.8708 95.9351 53.716 95.8598 53.5612 95.7845C53.4064 95.7092 53.2516 95.6339 53.1742 95.4833L51.007 96.387L48.9172 92.9983L50.7748 91.5676C50.7748 91.4923 50.7748 91.417 50.7748 91.3417V90.8899C50.7748 90.8146 50.7748 90.7393 50.7748 90.664L48.8398 89.3085L50.8522 85.8446L53.0194 86.7482C53.1742 86.6729 53.329 86.5976 53.4064 86.447C53.5612 86.3717 53.716 86.2964 53.8708 86.2211L54.1804 83.8867H58.36ZM57.1216 85.3928H55.651L55.4188 87.2753C55.0318 87.3506 54.7222 87.5012 54.3352 87.7272C53.9482 87.9531 53.716 88.179 53.4064 88.4049L51.5488 87.6519L50.8522 88.8567L52.4776 89.9862C52.4002 90.1368 52.4002 90.3627 52.3228 90.5133C52.3228 90.664 52.3228 90.8899 52.3228 91.1158C52.3228 91.3417 52.3228 91.4923 52.4002 91.7182C52.4002 91.8688 52.4776 92.0947 52.555 92.2453L51.007 93.4502L51.7036 94.655L53.5612 93.902C53.8708 94.2032 54.103 94.4291 54.49 94.5797C54.877 94.7303 55.1866 94.8809 55.5736 95.0315L55.8058 96.9141H57.2764L57.5086 95.0315C57.8956 94.9562 58.2052 94.8056 58.5922 94.5797C58.9018 94.4291 59.2114 94.1279 59.521 93.902L61.3786 94.655L61.9204 93.3749L60.295 92.2453C60.3724 92.0947 60.3724 91.8688 60.4498 91.7182C60.5272 91.5676 60.4498 91.3417 60.4498 91.1158C60.4498 90.8899 60.4498 90.7393 60.3724 90.5887C60.3724 90.4381 60.295 90.2121 60.2176 90.0615L61.7656 88.8567L61.069 87.6519L59.2114 88.4049C58.9018 88.1037 58.6696 87.8778 58.2826 87.7272C57.973 87.5765 57.586 87.4259 57.199 87.2753L57.1216 85.3928ZM56.3476 88.6308C55.651 88.6308 55.0318 88.8567 54.49 89.3838C54.0256 89.9109 53.716 90.438 53.716 91.1911C53.716 91.8688 53.9482 92.4712 54.49 92.9983C55.0318 93.4502 55.5736 93.7514 56.3476 93.7514C57.0442 93.7514 57.6634 93.5255 58.2052 92.9983C58.747 92.4712 58.9792 91.9441 58.9792 91.1911C58.9792 90.5134 58.747 89.9109 58.2052 89.3838C57.6634 88.8567 57.0442 88.6308 56.3476 88.6308Z" fill="#F197BE"/>
<path opacity="0.31" d="M64.5513 109.565L65.0157 112.728C65.2479 112.803 65.4027 112.879 65.6349 113.029C65.8671 113.18 66.0219 113.255 66.1767 113.406L69.1953 112.126L71.9817 116.794L69.4275 118.752C69.4275 118.903 69.4275 118.978 69.4275 119.054V119.731C69.4275 119.807 69.4275 119.957 69.4275 120.032L72.0591 121.915L69.3501 126.584L66.3315 125.379C66.1767 125.53 65.9445 125.605 65.7897 125.756C65.5575 125.906 65.4027 125.981 65.1705 126.057L64.7835 129.219H59.2107L58.7463 126.057C58.5141 125.981 58.3593 125.906 58.1271 125.756C57.8949 125.605 57.7401 125.53 57.5853 125.379L54.5667 126.659L51.7803 121.99L54.3345 120.032C54.3345 119.882 54.3345 119.807 54.3345 119.731V119.054C54.3345 118.978 54.3345 118.828 54.4119 118.752L51.7803 116.87L54.4893 112.201L57.5079 113.406C57.6627 113.255 57.8949 113.18 58.0497 113.029C58.2045 112.879 58.4367 112.803 58.6689 112.728L59.0559 109.565H64.5513ZM62.7711 111.523H60.7587L60.4491 114.159C59.9073 114.31 59.4429 114.46 58.9785 114.761C58.5141 114.987 58.1271 115.364 57.7401 115.665L55.2633 114.686L54.2571 116.343L56.4243 117.924C56.3469 118.15 56.2695 118.376 56.2695 118.677C56.2695 118.978 56.1921 119.204 56.1921 119.43C56.1921 119.656 56.1921 119.957 56.2695 120.183C56.3469 120.409 56.3469 120.71 56.4243 120.936L54.2571 122.517L55.2633 124.174L57.7401 123.12C58.1271 123.496 58.5141 123.798 58.9785 124.024C59.4429 124.249 59.9073 124.475 60.4491 124.626L60.7587 127.186H62.7711L63.0807 124.551C63.6225 124.4 64.0869 124.249 64.5513 123.948C65.0157 123.722 65.4027 123.346 65.7897 123.045L68.2665 124.024L69.2727 122.367L67.1055 120.786C67.1829 120.56 67.2603 120.258 67.2603 120.032C67.2603 119.807 67.3377 119.505 67.3377 119.279C67.3377 119.054 67.3377 118.752 67.2603 118.526C67.2603 118.301 67.1829 117.999 67.1055 117.773L69.2727 116.192L68.2665 114.535L65.7897 115.59C65.4027 115.213 65.0157 114.912 64.5513 114.686C64.0869 114.46 63.6225 114.234 63.0807 114.084L62.7711 111.523ZM61.7649 115.966C60.7587 115.966 59.9847 116.343 59.2881 117.02C58.5915 117.698 58.2819 118.526 58.2819 119.43C58.2819 120.334 58.6689 121.162 59.3655 121.84C60.0621 122.517 60.9135 122.819 61.8423 122.819C62.8485 122.819 63.6999 122.442 64.3191 121.764C64.9383 121.087 65.3253 120.258 65.3253 119.355C65.3253 118.451 64.9383 117.623 64.3191 116.945C63.5451 116.267 62.7711 115.966 61.7649 115.966Z" fill="#F197BE"/>
<path opacity="0.31" d="M331.659 85.6944L330.266 83.8119C330.111 83.8119 329.956 83.8119 329.724 83.8119C329.569 83.8119 329.414 83.8119 329.26 83.8119L327.789 85.6191L324.306 83.6613L325.235 81.5528C325.158 81.4775 325.157 81.4022 325.08 81.3269L324.848 80.8751C324.771 80.7998 324.77 80.7245 324.77 80.6492L322.371 80.3479V76.4322L324.77 76.131C324.848 75.9804 324.925 75.8298 325.003 75.6792C325.08 75.5286 325.157 75.378 325.312 75.3027L324.383 73.1942L327.944 71.2363L329.337 73.1189C329.492 73.1189 329.647 73.1189 329.879 73.1189C330.034 73.1189 330.188 73.1189 330.343 73.1189L331.814 71.3116L335.297 73.2695L334.368 75.378C334.445 75.4533 334.446 75.5286 334.523 75.6039L334.755 76.0557C334.832 76.131 334.832 76.2063 334.832 76.2816L337.232 76.5828V80.4986L334.91 80.7998C334.833 80.9504 334.755 81.101 334.678 81.2516C334.6 81.4022 334.523 81.5528 334.368 81.6281L335.297 83.7366L331.659 85.6944ZM332.046 83.8119L333.284 83.1342L332.51 81.3269C332.82 81.0257 333.052 80.7998 333.207 80.4233C333.362 80.0467 333.517 79.7455 333.671 79.369L335.606 79.1431V77.7124L333.594 77.4865C333.594 77.3358 333.517 77.1099 333.439 76.9593C333.362 76.8087 333.284 76.5828 333.207 76.4322C333.13 76.2816 332.975 76.131 332.897 75.9804C332.82 75.8298 332.665 75.6792 332.51 75.6039L333.284 73.7966L332.046 73.1189L330.808 74.6249C330.421 74.5496 330.034 74.4743 329.647 74.4743C329.26 74.4743 328.873 74.5496 328.486 74.6249L327.325 73.1189L326.086 73.7966L326.86 75.6039C326.551 75.9051 326.318 76.131 326.164 76.5075C326.009 76.8087 325.854 77.1852 325.699 77.5618L323.764 77.7877V79.2184L325.699 79.4443C325.699 79.5949 325.777 79.8208 325.854 79.9714C325.931 80.122 326.009 80.348 326.086 80.4986C326.164 80.6492 326.319 80.7998 326.396 80.9504C326.473 81.101 326.628 81.2516 326.783 81.3269L326.009 83.1342L327.247 83.8119L328.486 82.3058C328.873 82.3811 329.26 82.4564 329.647 82.4564C330.034 82.4564 330.421 82.3811 330.808 82.3058L332.046 83.8119ZM331.117 80.6492C331.736 80.2726 332.123 79.8208 332.356 79.1431C332.588 78.4654 332.433 77.863 332.123 77.2605C331.736 76.6581 331.272 76.2816 330.575 76.0557C329.879 75.8298 329.26 75.9804 328.64 76.2816C328.021 76.6581 327.634 77.1099 327.402 77.7877C327.247 78.4654 327.325 79.0678 327.634 79.6702C328.021 80.2727 328.486 80.6492 329.182 80.8751C329.879 81.101 330.421 80.9504 331.117 80.6492Z" fill="#F197BE"/>
<path opacity="0.31" d="M313.393 66.2665L311.458 63.7062C311.226 63.7062 310.993 63.7815 310.761 63.7815C310.529 63.7815 310.297 63.7815 310.065 63.7062L308.052 66.1912L303.253 63.4803L304.569 60.5435C304.492 60.4682 304.414 60.3929 304.414 60.2423L304.105 59.6399C304.027 59.5646 304.027 59.414 303.95 59.3387L300.699 58.9622V53.5404L303.95 53.1638C304.027 52.9379 304.182 52.7873 304.26 52.5614C304.337 52.3355 304.492 52.1849 304.647 52.0343L303.408 49.0975L308.207 46.4619L310.142 49.0222C310.374 49.0222 310.606 48.9469 310.839 48.9469C311.071 48.9469 311.303 48.9469 311.535 49.0222L313.548 46.5372L318.346 49.2481L317.031 52.1849C317.108 52.2602 317.185 52.3355 317.185 52.4861L317.495 53.0885C317.572 53.1639 317.572 53.3145 317.65 53.3898L320.901 53.7663V59.1881L317.727 59.5646C317.65 59.7905 317.495 59.9411 317.418 60.167C317.34 60.3929 317.185 60.5435 317.031 60.6941L318.269 63.6309L313.393 66.2665ZM313.935 63.7062L315.637 62.7273L314.631 60.3176C315.018 59.9411 315.328 59.5646 315.56 59.1128C315.792 58.6609 316.024 58.2091 316.179 57.7573L318.888 57.4561V55.4982L316.179 55.1217C316.102 54.8958 316.102 54.6699 315.947 54.444C315.87 54.2181 315.715 53.9922 315.56 53.7663C315.405 53.5404 315.25 53.3145 315.096 53.0885C314.941 52.8626 314.786 52.712 314.554 52.5614L315.637 50.1517L313.935 49.1728L312.309 51.2813C311.767 51.1307 311.303 51.0554 310.761 51.0554C310.219 51.0554 309.755 51.1307 309.213 51.2813L307.588 49.1728L305.885 50.1517L306.891 52.5614C306.504 52.9379 306.195 53.3145 305.962 53.7663C305.73 54.2181 305.498 54.6699 305.343 55.1217L302.634 55.4229V57.3808L305.343 57.682C305.421 57.9079 305.498 58.2091 305.575 58.435C305.653 58.6609 305.808 58.8869 305.962 59.1128C306.117 59.3387 306.272 59.5646 306.427 59.7152C306.582 59.9411 306.736 60.0917 306.969 60.2423L305.885 62.652L307.588 63.6309L309.213 61.5224C309.755 61.673 310.219 61.7484 310.761 61.7484C311.303 61.7484 311.767 61.673 312.309 61.5224L313.935 63.7062ZM312.619 59.3387C313.47 58.8869 314.012 58.2091 314.244 57.2302C314.476 56.2513 314.399 55.4229 313.935 54.5946C313.47 53.7663 312.774 53.2392 311.767 53.0132C310.839 52.7873 309.91 52.8626 309.058 53.3145C308.207 53.7663 307.665 54.5193 307.356 55.4229C307.046 56.3266 307.201 57.2302 307.743 58.0585C308.284 58.8869 308.904 59.414 309.832 59.6399C310.839 59.9411 311.767 59.7905 312.619 59.3387Z" fill="#F197BE"/>
<defs>
<linearGradient id="paint0_linear_3730_27588" x1="199.365" y1="181.753" x2="292.246" y2="90.3425" gradientUnits="userSpaceOnUse">
<stop stop-color="#642366"/>
<stop offset="0.5955" stop-color="#393937"/>
<stop offset="1" stop-color="#642366"/>
</linearGradient>
<linearGradient id="paint1_linear_3730_27588" x1="81.1438" y1="104.865" x2="134.813" y2="104.865" gradientUnits="userSpaceOnUse">
<stop stop-color="#402051"/>
<stop offset="0.2164" stop-color="#32173C"/>
<stop offset="0.4533" stop-color="#28192A"/>
<stop offset="0.7062" stop-color="#201D1F"/>
<stop offset="1" stop-color="#1E1E1C"/>
</linearGradient>
<linearGradient id="paint2_linear_3730_27588" x1="192.761" y1="87.0814" x2="211.413" y2="53.8768" gradientUnits="userSpaceOnUse">
<stop stop-color="#1D1E1C"/>
<stop offset="0.4668" stop-color="#717270"/>
<stop offset="1" stop-color="#1F201E"/>
</linearGradient>
<linearGradient id="paint3_linear_3730_27588" x1="208.533" y1="64.505" x2="173.48" y2="76.3101" gradientUnits="userSpaceOnUse">
<stop stop-color="#1D1E1C"/>
<stop offset="0.4668" stop-color="#717270"/>
<stop offset="1" stop-color="#1F201E"/>
</linearGradient>
<linearGradient id="paint4_linear_3730_27588" x1="302.966" y1="247.618" x2="330.284" y2="247.618" gradientUnits="userSpaceOnUse">
<stop stop-color="#1D1E1C"/>
<stop offset="1" stop-color="#717270"/>
</linearGradient>
<linearGradient id="paint5_linear_3730_27588" x1="280.714" y1="174.713" x2="297.308" y2="174.713" gradientUnits="userSpaceOnUse">
<stop stop-color="#FCF9F8"/>
<stop offset="0.9271" stop-color="#E1D2E8"/>
</linearGradient>
<linearGradient id="paint6_linear_3730_27588" x1="279.249" y1="174.122" x2="286.052" y2="173.987" gradientUnits="userSpaceOnUse">
<stop stop-color="#E8E9F0"/>
<stop offset="1" stop-color="#717270"/>
</linearGradient>
<linearGradient id="paint7_linear_3730_27588" x1="293.08" y1="182.528" x2="296.885" y2="182.528" gradientUnits="userSpaceOnUse">
<stop stop-color="#FCF9F8"/>
<stop offset="0.9271" stop-color="#E1D2E8"/>
</linearGradient>
</defs>
</svg>
