<svg width="432" height="330" viewBox="0 0 432 330" fill="none" xmlns="http://www.w3.org/2000/svg">
<path d="M411.203 211.497H302.823C293.692 211.497 286.337 218.93 286.337 227.968V280.42C286.337 289.542 293.777 296.89 302.823 296.89H411.203C420.333 296.89 427.688 289.457 427.688 280.42V227.968C427.773 218.845 420.333 211.497 411.203 211.497Z" fill="#652265"/>
<path d="M414.923 226.531H299.188V247.309H414.923V226.531Z" fill="#F095BC"/>
<path d="M415.007 260.317H298.257V265.808H415.007V260.317Z" fill="white"/>
<path d="M359.38 276.956H297.919V283.46H359.38V276.956Z" fill="white"/>
<path d="M415.007 276.956H364.959V283.46H415.007V276.956Z" fill="white"/>
<path d="M117.595 238.272H26.4607C16.7386 238.272 8.96094 230.417 8.96094 220.788V96.9645C8.96094 87.2511 16.8232 79.4805 26.4607 79.4805H117.51C127.233 79.4805 135.01 87.3356 135.01 96.9645V220.788C135.095 230.417 127.233 238.272 117.595 238.272Z" fill="#652265"/>
<path d="M114.89 241.82H23.8401C14.118 241.82 6.34033 233.965 6.34033 224.336V100.512C6.34033 90.799 14.2026 83.0283 23.8401 83.0283H114.89C124.612 83.0283 132.39 90.8834 132.39 100.512V224.336C132.474 233.965 124.612 241.82 114.89 241.82Z" fill="white"/>
<path d="M120.385 91.4746H17.3306V100.259H120.385V91.4746Z" fill="#A95F9A"/>
<path d="M107.704 103.806H30.688V107.353H107.704V103.806Z" fill="#A95F9A"/>
<path d="M29.1661 149.923H28.4898C28.4052 147.474 26.799 145.531 24.77 145.531C22.741 145.531 21.1348 147.474 21.0502 149.923H20.543C19.5285 149.923 18.6831 150.768 18.6831 151.782V157.356C18.6831 158.37 19.5285 159.214 20.543 159.214H29.1661C30.1806 159.214 31.026 158.37 31.026 157.356V151.782C31.026 150.768 30.1806 149.923 29.1661 149.923ZM22.6565 149.754C22.6565 148.319 23.5864 147.221 24.77 147.221C25.9536 147.221 26.8835 148.403 26.8835 149.754C26.8835 149.839 26.8835 149.923 26.8835 149.923H22.741C22.6565 149.923 22.6565 149.839 22.6565 149.754ZM25.5309 155.16V157.018C25.5309 157.272 25.3618 157.441 25.1082 157.441H24.2628C24.0091 157.441 23.8401 157.272 23.8401 157.018V155.245C23.5019 155.076 23.2483 154.738 23.1637 154.315C23.1637 154.147 23.0792 154.062 23.0792 153.893C23.0792 153.049 23.7555 152.373 24.6855 152.373C24.6855 152.373 24.6855 152.373 24.77 152.373C25.6154 152.373 26.2917 153.049 26.2917 153.893C26.2917 154.062 26.2917 154.231 26.2072 154.4C26.0381 154.653 25.869 154.991 25.5309 155.16Z" fill="#E3147F"/>
<path d="M27.0526 135.142C28.4898 134.635 29.5043 133.284 29.5043 131.594C29.5043 129.567 27.898 127.878 25.9536 127.878C24.0092 127.878 22.4029 129.567 22.4029 131.594C22.4029 133.284 23.4174 134.635 24.8546 135.142C22.6566 135.649 21.0503 137.76 21.0503 140.21C21.0503 140.548 21.0503 140.885 21.1348 141.223H30.6879C30.7724 140.885 30.7724 140.548 30.7724 140.21C30.8569 137.676 29.2507 135.649 27.0526 135.142Z" fill="#E3147F"/>
<path d="M103.308 141.224H40.0717C37.451 141.224 35.2529 139.112 35.2529 136.409V133.622C35.2529 131.004 37.3664 128.808 40.0717 128.808H103.308C105.928 128.808 108.127 130.919 108.127 133.622V136.409C108.042 139.028 105.928 141.224 103.308 141.224Z" fill="#FBEBEF"/>
<path d="M103.308 157.947H40.0717C37.451 157.947 35.2529 155.836 35.2529 153.133V150.346C35.2529 147.727 37.3664 145.531 40.0717 145.531H103.308C105.928 145.531 108.127 147.643 108.127 150.346V153.133C108.042 155.751 105.928 157.947 103.308 157.947Z" fill="#FBEBEF"/>
<path d="M43.0307 138.014C44.6648 138.014 45.9896 136.69 45.9896 135.058C45.9896 133.425 44.6648 132.102 43.0307 132.102C41.3965 132.102 40.0718 133.425 40.0718 135.058C40.0718 136.69 41.3965 138.014 43.0307 138.014Z" fill="#E3147F"/>
<path d="M52.8373 138.014C54.4715 138.014 55.7962 136.69 55.7962 135.058C55.7962 133.425 54.4715 132.102 52.8373 132.102C51.2032 132.102 49.8784 133.425 49.8784 135.058C49.8784 136.69 51.2032 138.014 52.8373 138.014Z" fill="#E3147F"/>
<path d="M62.5595 138.014C64.1936 138.014 65.5184 136.69 65.5184 135.058C65.5184 133.425 64.1936 132.102 62.5595 132.102C60.9253 132.102 59.6006 133.425 59.6006 135.058C59.6006 136.69 60.9253 138.014 62.5595 138.014Z" fill="#E3147F"/>
<path d="M72.2817 138.014C73.9158 138.014 75.2406 136.69 75.2406 135.058C75.2406 133.425 73.9158 132.102 72.2817 132.102C70.6475 132.102 69.3228 133.425 69.3228 135.058C69.3228 136.69 70.6475 138.014 72.2817 138.014Z" fill="#E3147F"/>
<path d="M82.0883 154.738C83.7225 154.738 85.0472 153.414 85.0472 151.781C85.0472 150.149 83.7225 148.825 82.0883 148.825C80.4541 148.825 79.1294 150.149 79.1294 151.781C79.1294 153.414 80.4541 154.738 82.0883 154.738Z" fill="#E3147F"/>
<path d="M92.1484 154.738C93.7825 154.738 95.1073 153.414 95.1073 151.781C95.1073 150.149 93.7825 148.825 92.1484 148.825C90.5142 148.825 89.1895 150.149 89.1895 151.781C89.1895 153.414 90.5142 154.738 92.1484 154.738Z" fill="#E3147F"/>
<path d="M82.0883 138.014C83.7225 138.014 85.0472 136.69 85.0472 135.058C85.0472 133.425 83.7225 132.102 82.0883 132.102C80.4541 132.102 79.1294 133.425 79.1294 135.058C79.1294 136.69 80.4541 138.014 82.0883 138.014Z" fill="#E3147F"/>
<path d="M43.0307 154.738C44.6648 154.738 45.9896 153.414 45.9896 151.781C45.9896 150.149 44.6648 148.825 43.0307 148.825C41.3965 148.825 40.0718 150.149 40.0718 151.781C40.0718 153.414 41.3965 154.738 43.0307 154.738Z" fill="#E3147F"/>
<path d="M52.8373 154.738C54.4715 154.738 55.7962 153.414 55.7962 151.781C55.7962 150.149 54.4715 148.825 52.8373 148.825C51.2032 148.825 49.8784 150.149 49.8784 151.781C49.8784 153.414 51.2032 154.738 52.8373 154.738Z" fill="#E3147F"/>
<path d="M62.5595 154.738C64.1936 154.738 65.5184 153.414 65.5184 151.781C65.5184 150.149 64.1936 148.825 62.5595 148.825C60.9253 148.825 59.6006 150.149 59.6006 151.781C59.6006 153.414 60.9253 154.738 62.5595 154.738Z" fill="#E3147F"/>
<path d="M72.2817 154.738C73.9158 154.738 75.2406 153.414 75.2406 151.781C75.2406 150.149 73.9158 148.825 72.2817 148.825C70.6475 148.825 69.3228 150.149 69.3228 151.781C69.3228 153.414 70.6475 154.738 72.2817 154.738Z" fill="#E3147F"/>
<path d="M111.339 222.055H49.4556C44.975 222.055 41.4243 218.423 41.4243 214.031V213.271C41.4243 208.795 45.0595 205.247 49.4556 205.247H111.339C115.82 205.247 119.37 208.879 119.37 213.271V214.031C119.455 218.423 115.82 222.055 111.339 222.055Z" fill="#F095BC"/>
<path d="M229.272 33.9541V304.238C313.305 264.371 338.752 181.174 341.711 81.3383C341.795 79.0578 340.189 77.1151 337.907 76.6928C297.919 69.4289 261.905 54.8167 229.272 33.9541Z" fill="#1D1E1C"/>
<path d="M229.103 304.238V33.9541C227.159 35.2211 222.847 34.6298 220.903 35.8123C188.778 55.4079 155.723 70.6958 116.581 77.284C119.032 178.894 143.972 263.78 229.103 304.238Z" fill="#1D1E1C"/>
<path d="M324.719 77.5376C286.591 70.4427 252.183 56.2527 220.988 35.8125V299.931C301.301 260.993 325.648 179.739 328.438 82.1831C328.523 79.9026 326.917 77.9599 324.719 77.5376Z" fill="#303130"/>
<path d="M113.368 82.1831C116.158 179.654 140.506 260.908 220.819 299.931V35.8125C189.708 56.1683 155.3 70.4427 117.088 77.5376C114.89 77.9599 113.368 79.9026 113.368 82.1831Z" fill="#303130"/>
<path d="M221.326 284.811C292.593 250.35 314.32 178.471 316.856 92.2339C316.941 89.9534 315.334 88.0107 313.052 87.5884C279.32 81.2536 248.886 68.6685 221.241 50.6777V284.811H221.326Z" fill="#C30B77"/>
<path d="M221.242 284.811C149.974 250.35 128.247 178.471 125.711 92.2339C125.627 89.9534 127.233 88.0107 129.515 87.5884C163.162 81.2536 193.681 68.6685 221.242 50.6777V284.811Z" fill="#E20E7F"/>
<path opacity="0.11" d="M256.833 149.5H252.014C251.422 132.016 239.671 117.995 225.215 117.995C210.758 117.995 199.007 132.016 198.415 149.5H194.949C187.51 149.5 181.507 155.497 181.507 162.93V202.712C181.507 210.145 187.51 216.142 194.949 216.142H256.833C264.272 216.142 270.274 210.145 270.274 202.712V162.93C270.274 155.581 264.272 149.5 256.833 149.5ZM210.166 148.064C210.166 137.929 216.845 129.736 225.215 129.736C233.499 129.736 240.263 137.929 240.263 148.064C240.263 148.571 240.263 149.078 240.178 149.5H210.251C210.166 149.078 210.166 148.571 210.166 148.064ZM230.963 187.002V200.178C230.963 201.783 229.611 203.135 228.004 203.135H221.918C220.311 203.135 218.959 201.783 218.959 200.178V187.255C216.422 185.735 214.563 183.37 213.802 180.498C213.548 179.569 213.463 178.64 213.463 177.627C213.463 171.461 218.536 166.393 224.876 166.393C224.961 166.393 225.045 166.393 225.215 166.393H225.299C231.386 166.562 236.289 171.545 236.289 177.627C236.289 178.809 236.12 179.992 235.698 181.09C234.768 183.539 233.077 185.651 230.963 187.002Z" fill="#FAFCFF"/>
<path d="M252.352 145.699H247.533C246.942 128.215 235.19 114.194 220.734 114.194C206.278 114.194 194.527 128.215 193.935 145.699H190.469C183.029 145.699 177.027 151.696 177.027 159.129V198.912C177.027 206.344 183.029 212.341 190.469 212.341H252.352C259.792 212.341 265.794 206.344 265.794 198.912V159.129C265.794 151.696 259.707 145.699 252.352 145.699ZM205.601 144.263C205.601 134.128 212.28 125.935 220.65 125.935C228.934 125.935 235.698 134.128 235.698 144.263C235.698 144.77 235.698 145.277 235.613 145.699H205.686C205.601 145.193 205.601 144.686 205.601 144.263ZM226.398 183.201V196.293C226.398 197.898 225.046 199.249 223.439 199.249H217.353C215.746 199.249 214.394 197.898 214.394 196.293V183.37C211.857 181.85 209.998 179.485 209.237 176.613C208.983 175.684 208.898 174.755 208.898 173.741C208.898 167.575 213.971 162.508 220.311 162.508C220.396 162.508 220.48 162.508 220.65 162.508H220.734C226.821 162.677 231.724 167.66 231.724 173.741C231.724 174.924 231.555 176.106 231.133 177.204C230.203 179.738 228.596 181.85 226.398 183.201Z" fill="white"/>
<path d="M134.419 307.026H89.866C80.1439 307.026 72.3662 299.171 72.3662 289.542V188.861C72.3662 179.148 80.2284 171.377 89.866 171.377H134.419C144.141 171.377 151.918 179.232 151.918 188.861V289.457C152.003 299.171 144.141 307.026 134.419 307.026Z" fill="#652265"/>
<path d="M132.728 310.067H88.1751C78.453 310.067 70.6753 302.212 70.6753 292.583V191.902C70.6753 182.189 78.5375 174.418 88.1751 174.418H132.728C142.45 174.418 150.228 182.273 150.228 191.902V292.498C150.312 302.212 142.45 310.067 132.728 310.067Z" fill="white"/>
<path d="M138.646 180.752H81.75V187.931H138.646V180.752Z" fill="#A95F9A"/>
<path d="M131.544 191.479H88.5977V194.689H131.544V191.479Z" fill="#F095BC"/>
<path d="M111.001 301.197C110.324 301.197 109.648 300.86 109.31 300.268L101.279 288.443C100.687 287.514 100.94 286.332 101.786 285.741C102.716 285.149 103.899 285.403 104.491 286.247L110.663 295.369L117.088 280.757C117.51 279.744 118.694 279.321 119.624 279.744C120.638 280.166 121.061 281.348 120.638 282.278L112.945 300.015C112.607 300.691 112.015 301.197 111.254 301.197C111.085 301.197 111.001 301.197 111.001 301.197Z" fill="#A95F9A"/>
<path d="M110.409 248.492C107.45 248.492 104.238 245.114 103.984 237.681C103.984 236.836 104.576 236.16 105.421 236.16C106.266 236.16 106.943 236.752 106.943 237.596C107.196 243.086 109.141 245.62 110.493 245.62C111.592 245.62 113.368 243.509 113.452 237.934C113.537 232.444 112.015 229.657 110.493 229.403C109.479 229.234 108.465 230.163 107.788 231.684C107.45 232.444 106.605 232.782 105.928 232.528C105.167 232.191 104.829 231.346 105.083 230.67C106.266 227.714 108.634 226.109 111.001 226.616C112.269 226.869 116.496 228.474 116.327 238.103C116.242 245.705 113.114 248.492 110.409 248.492C110.493 248.492 110.493 248.492 110.409 248.492Z" fill="#E3177F"/>
<path d="M120.723 238.778C120.638 238.778 120.638 238.778 120.554 238.778C119.709 238.694 119.117 238.018 119.201 237.174C119.455 234.724 118.948 232.359 117.68 229.825C117.341 229.065 117.68 228.22 118.356 227.883C119.117 227.545 119.962 227.883 120.3 228.558C121.737 231.514 122.329 234.555 122.076 237.427C122.16 238.187 121.484 238.778 120.723 238.778Z" fill="#E3177F"/>
<path d="M99.5878 244.269C98.8269 244.269 98.2351 243.762 98.1506 243.002C96.967 233.036 100.01 224.167 105.675 221.042C109.31 219.015 113.452 219.69 117.426 222.815C118.018 223.322 118.187 224.251 117.679 224.843C117.172 225.434 116.242 225.603 115.65 225.096C112.692 222.731 109.733 222.14 107.196 223.576C102.631 226.11 100.095 233.965 101.11 242.58C101.194 243.34 100.602 244.1 99.8414 244.185C99.7569 244.269 99.6723 244.269 99.5878 244.269Z" fill="#E3177F"/>
<path d="M94.4309 230.924C94.2619 230.924 94.0928 230.924 93.9237 230.84C93.1628 230.586 92.7401 229.742 93.0783 228.981C96.3754 220.028 102.04 214.454 108.465 213.525C114.467 212.764 120.385 215.974 125.204 222.731C125.711 223.407 125.542 224.336 124.865 224.758C124.189 225.265 123.259 225.096 122.836 224.42C118.694 218.592 113.706 215.721 108.803 216.396C103.477 217.072 98.7425 222.055 95.7836 229.911C95.53 230.586 95.0227 230.924 94.4309 230.924Z" fill="#E3177F"/>
<path d="M109.648 261.415C108.465 261.415 107.197 261.331 105.928 261.162C105.168 261.077 104.576 260.317 104.66 259.472C104.745 258.712 105.506 258.121 106.351 258.205C111.846 259.05 116.327 257.868 119.455 254.827C124.274 250.181 125.965 241.228 124.527 228.981C124.443 228.221 125.035 227.461 125.795 227.376C126.641 227.292 127.317 227.883 127.402 228.643C129.008 241.82 126.979 251.617 121.484 256.939C118.44 259.895 114.383 261.415 109.648 261.415Z" fill="#E3177F"/>
<path d="M110.578 255.165C107.028 255.165 103.308 253.306 100.772 250.181C100.264 249.59 100.349 248.661 100.941 248.154C101.532 247.647 102.462 247.732 102.97 248.323C105.252 251.11 108.718 252.631 111.593 252.124C114.298 251.702 116.411 249.59 117.68 246.127C117.933 245.367 118.779 245.029 119.539 245.282C120.3 245.536 120.638 246.38 120.385 247.141C118.271 252.884 114.636 254.573 112.015 254.996C111.593 255.165 111.085 255.165 110.578 255.165Z" fill="#E3177F"/>
<path d="M100.602 257.952C100.18 257.952 99.7569 257.783 99.5033 257.445C94.2618 251.448 91.7256 244.691 91.9792 237.258C91.9792 236.498 92.6555 235.822 93.4164 235.822C93.4164 235.822 93.4164 235.822 93.5009 235.822C94.3463 235.822 94.9381 236.498 94.9381 237.343C94.6845 244.015 96.9671 250.097 101.701 255.502C102.209 256.094 102.209 257.023 101.532 257.529C101.279 257.783 100.94 257.952 100.602 257.952Z" fill="#E3177F"/>
<path d="M89.8658 251.448C89.1895 251.448 88.5977 251.026 88.4286 250.266C85.4697 236.921 87.4142 224.504 93.8392 216.311C98.0662 210.906 103.899 207.781 110.325 207.527C116.158 207.358 121.737 209.977 126.134 214.96C132.559 222.308 135.264 233.711 133.319 244.607C133.15 245.367 132.389 245.958 131.629 245.789C130.868 245.62 130.276 244.86 130.445 244.1C132.22 234.049 129.769 223.575 123.935 216.818C120.216 212.511 115.397 210.23 110.494 210.399C104.998 210.568 99.9261 213.271 96.2063 218.001C90.3731 225.518 88.5977 237.005 91.3875 249.506C91.5566 250.266 91.0494 251.111 90.2885 251.279C90.0349 251.448 89.9504 251.448 89.8658 251.448Z" fill="#E3177F"/>
<path d="M114.551 266.99C113.875 266.99 113.283 266.568 113.114 265.892C112.945 265.132 113.368 264.287 114.129 264.118C120.469 262.429 125.034 258.29 128.162 251.617C128.5 250.857 129.346 250.604 130.107 250.942C130.868 251.28 131.121 252.124 130.783 252.884C127.232 260.486 122.075 265.047 114.889 266.99C114.805 266.99 114.72 266.99 114.551 266.99Z" fill="#E3177F"/>
<path d="M110.071 267.328C103.815 267.328 98.0663 264.541 93.0785 259.051C92.5712 258.459 92.5712 257.53 93.163 257.023C93.7548 256.517 94.6847 256.517 95.192 257.108C99.8417 262.26 104.914 264.625 110.663 264.456C111.424 264.456 112.185 265.048 112.185 265.892C112.185 266.737 111.593 267.413 110.747 267.413C110.494 267.328 110.24 267.328 110.071 267.328Z" fill="#E3177F"/>
<path d="M110.155 242.833C109.31 242.833 108.718 242.157 108.718 241.397V233.964C108.718 233.12 109.395 232.528 110.155 232.528C110.916 232.528 111.593 233.204 111.593 233.964V241.397C111.677 242.157 111.001 242.833 110.155 242.833Z" fill="#E3177F"/>
<path d="M289.972 52.2829H284.308V51.5227C283.97 50.4247 283.209 50.4247 283.209 51.5227V52.2829C283.125 52.6208 282.786 52.8742 282.11 53.0431C280.25 53.3809 280.588 57.1818 282.11 57.1818C283.97 57.1818 286.253 56.844 287.436 56.0838C288.112 55.3236 289.465 55.3236 290.818 55.3236L289.972 52.2829Z" fill="#FFEAB2"/>
<path d="M307.05 30.3221C305.781 25.5922 299.695 26.5213 299.441 30.66L298.68 46.2013C298.596 47.046 298.257 48.4818 297.581 48.8197C295.383 50.8468 292.678 51.607 289.634 51.8604C289.888 53.1274 289.972 54.3943 289.634 55.6613C294.96 55.8302 300.033 55.3234 304.091 52.3672C304.767 51.8604 305.274 51.1847 305.528 50.34C307.641 43.9208 307.979 37.1637 307.05 30.3221Z" fill="#1D1E1C"/>
<path d="M297.243 14.1897C296.82 16.6391 296.059 24.5787 298.68 25.001C299.779 25.001 301.723 25.001 302.822 24.6632V28.8019L301.808 33.363L308.064 28.8019C307.557 24.0719 307.979 19.4264 309.163 14.7809C306.204 12.4159 301.47 11.9936 297.243 14.1897Z" fill="#FFEAB2"/>
<path d="M302.907 24.5792V24.917C305.527 24.917 307.472 24.1569 307.979 23.1433L307.895 20.6094C306.796 21.7074 305.105 23.9035 302.907 24.5792Z" fill="#FAD58B"/>
<path d="M291.832 13.3451C293.016 13.9363 294.284 13.8519 295.383 12.7539L293.438 11.6558C297.243 12.0781 297.665 8.36174 302.23 7.60156C307.641 7.68603 310.515 9.79762 310.6 14.3587C309.67 18.4129 308.402 21.2847 306.627 22.6361C307.556 20.5245 308.571 18.3285 308.148 17.3149C307.556 16.7236 307.049 18.8352 305.528 19.4265C305.781 17.5683 305.697 16.4703 305.443 15.6256C304.513 14.781 303.16 16.2169 301.892 16.2169C302.653 15.3722 302.569 14.6965 301.977 14.0208C300.455 15.0344 298.849 15.7945 297.327 16.3013C295.045 16.3013 293.1 15.5412 291.832 13.3451Z" fill="#1E1E1C"/>
<path d="M298.342 76.8623L301.723 78.0448L301.385 81.0855L296.482 79.5651L298.342 76.8623Z" fill="#FFEAB2"/>
<path d="M269.936 92.8256L266.301 92.4033L265.709 96.6265H269.176L269.936 92.8256Z" fill="#FFEAB2"/>
<path d="M300.624 77.2842L305.359 77.622C305.697 77.622 305.866 77.9599 305.781 78.2133L305.19 80.6627C303.33 83.7034 304.851 84.0413 302.569 90.1227C299.61 90.4605 299.61 87.2509 300.286 83.2811C300.624 81.5918 300.117 82.0986 299.948 80.6627C300.709 79.8181 300.793 78.6356 300.624 77.2842Z" fill="#1D1D1B"/>
<path d="M269.26 96.2041L269.767 100.85C269.767 101.187 269.514 101.441 269.26 101.441L266.724 101.272C263.427 99.9205 263.258 101.525 256.917 100.343C256.072 97.471 259.2 96.8798 263.258 96.8798C264.948 96.8798 264.441 96.4575 265.794 96.0352C266.724 96.7109 267.992 96.5419 269.26 96.2041Z" fill="#1D1D1B"/>
<path d="M314.235 61.405C314.235 75.426 299.863 71.6252 287.351 73.5678C291.24 73.3989 294.537 76.1862 298.764 76.9464L298.003 80.7472C291.832 80.7472 284.223 78.2978 276.361 75.426C276.361 79.5648 271.796 84.886 270.274 93.2479L266.132 92.91C266.132 84.4637 266.977 76.3551 269.006 68.8379C269.26 67.8243 269.852 66.7263 271.12 66.3039C277.545 63.0099 286.168 59.5468 297.158 59.209L314.235 61.405Z" fill="url(#paint0_linear_3730_18168)"/>
<path d="M310.093 26.099L307.81 25.3389C307.05 27.6194 304.767 27.6194 302.907 26.8592C301.808 27.1971 301.132 28.2106 300.625 29.4776C298.511 35.3056 299.103 46.5393 295.721 59.3778C296.82 63.1786 313.136 64.699 315.419 60.8981C316.518 46.2014 316.518 32.1804 310.093 26.099Z" fill="url(#paint1_linear_3730_18168)"/>
<path d="M296.313 54.1416L282.025 54.4795L282.194 56.4221H297.581L297.496 55.1552C297.412 54.6484 296.904 54.1416 296.313 54.1416Z" fill="#C9C7C2"/>
<path d="M268.415 45.4414H282.448L286.253 56.4217H297.581V57.6042L272.219 57.942L268.415 45.4414Z" fill="url(#paint2_linear_3730_18168)"/>
<path d="M293.777 54.5632H288.112V53.803C287.774 52.705 287.013 52.705 287.013 53.803V54.5632C286.929 54.901 286.591 55.1544 285.914 55.3234C284.054 55.6612 284.393 59.4621 285.914 59.4621C287.774 59.4621 290.057 59.1242 291.24 58.3641C291.917 57.6039 293.269 57.6039 294.622 57.6039L293.777 54.5632Z" fill="#FFEAB2"/>
<path d="M310.854 32.6024C309.586 27.8724 303.499 28.8015 303.245 32.9403L302.484 48.4816C302.4 49.3262 302.062 50.7621 301.385 51.1C299.187 53.1271 296.482 53.8873 293.438 54.1407C293.692 55.4076 293.777 56.6746 293.438 57.9415C298.765 58.1105 303.837 57.6037 307.895 54.6474C308.571 54.1407 309.078 53.465 309.332 52.6203C311.446 46.2011 311.784 39.444 310.854 32.6024Z" fill="#1D1E1C"/>
<path d="M275.939 75.0037C275.262 74.8348 274.586 74.5814 273.91 74.2436C273.318 73.9057 272.642 73.4834 272.219 72.9766C271.712 72.4698 271.458 71.7096 271.458 71.0339C271.458 70.2738 271.712 69.598 272.134 69.0068C272.557 68.4155 273.064 67.9088 273.656 67.4865C273.91 67.2331 274.248 67.0641 274.586 66.8952C274.924 66.7263 275.178 66.5573 275.516 66.3884C276.784 65.7972 278.137 65.2059 279.405 64.6991C282.026 63.6856 284.731 62.672 287.436 61.7429C290.141 60.8138 292.847 60.0536 295.636 59.3779H295.806L295.89 59.5469C296.059 59.9692 296.313 60.307 296.566 60.5604C296.905 60.8138 297.243 61.0672 297.581 61.3206C298.342 61.7429 299.187 61.9963 300.033 62.2497C301.723 62.672 303.499 62.9254 305.274 63.0099C307.049 63.0943 308.825 63.0943 310.6 62.9254C311.445 62.8409 312.375 62.672 313.221 62.4186C313.644 62.3342 314.066 62.1652 314.489 61.9118C314.912 61.7429 315.25 61.4051 315.419 60.9827C315.25 61.4051 314.827 61.6585 314.489 61.9118C314.066 62.1652 313.644 62.2497 313.221 62.4186C312.375 62.672 311.445 62.8409 310.6 62.9254C308.825 63.1788 307.049 63.1788 305.274 63.0943C303.499 63.0099 301.723 62.8409 299.948 62.3342C299.103 62.0808 298.257 61.8274 297.412 61.4051C296.989 61.1517 296.651 60.8983 296.313 60.6449C295.975 60.307 295.721 59.9692 295.552 59.4624L295.721 59.5469C292.931 60.2226 290.226 61.0672 287.521 61.9118C284.815 62.8409 282.11 63.77 279.489 64.7836C278.137 65.2904 276.869 65.7972 275.6 66.4729C275.262 66.6418 274.924 66.8107 274.671 66.9797C274.417 67.1486 274.079 67.3175 273.825 67.5709C273.233 67.9932 272.726 68.5 272.303 69.0068C271.881 69.598 271.627 70.2738 271.627 70.9495C271.627 71.6252 271.881 72.3009 272.388 72.8921C272.811 73.3989 273.402 73.8212 274.079 74.1591C274.586 74.5814 275.262 74.8348 275.939 75.0037Z" fill="#1D1E1C"/>
<defs>
<linearGradient id="paint0_linear_3730_18168" x1="266.121" y1="76.1383" x2="314.277" y2="76.1383" gradientUnits="userSpaceOnUse">
<stop stop-color="#402051"/>
<stop offset="0.2164" stop-color="#32173C"/>
<stop offset="0.4533" stop-color="#28192A"/>
<stop offset="0.7062" stop-color="#201D1F"/>
<stop offset="1" stop-color="#1E1E1C"/>
</linearGradient>
<linearGradient id="paint1_linear_3730_18168" x1="295.698" y1="44.2769" x2="315.988" y2="44.2769" gradientUnits="userSpaceOnUse">
<stop stop-color="#402051"/>
<stop offset="0.2164" stop-color="#32173C"/>
<stop offset="0.4533" stop-color="#28192A"/>
<stop offset="0.7062" stop-color="#201D1F"/>
<stop offset="1" stop-color="#1E1E1C"/>
</linearGradient>
<linearGradient id="paint2_linear_3730_18168" x1="268.397" y1="51.7036" x2="297.593" y2="51.7036" gradientUnits="userSpaceOnUse">
<stop stop-color="#642366"/>
<stop offset="0.529" stop-color="#EDC3DC"/>
<stop offset="0.5865" stop-color="#E7BCD7"/>
<stop offset="0.6676" stop-color="#D8AAC9"/>
<stop offset="0.763" stop-color="#BE8CB3"/>
<stop offset="0.8691" stop-color="#996194"/>
<stop offset="0.9828" stop-color="#6C2C6C"/>
<stop offset="1" stop-color="#642366"/>
</linearGradient>
</defs>
</svg>
