<svg width="457" height="310" viewBox="0 0 457 310" fill="none" xmlns="http://www.w3.org/2000/svg">
<path d="M441.17 145.502C465.951 71.7555 409.592 19.9921 346.106 27.375C313.12 32.1863 301.185 63.8748 275.658 66.2805C239.108 66.7782 253.695 31.8545 213.416 26.2966C181.838 24.7204 173.467 57.3215 151.007 56.9896C99.7872 49.4408 62.7398 59.4783 45.0864 109.5C34.312 147.161 47.9872 174.287 75.2547 195.523C77.0781 196.933 76.4979 199.92 74.2601 200.5C47.2413 207.966 32.4886 223.977 38.456 254.421C44.5891 274.91 61.3309 285.031 89.8416 283.869C100.284 284.367 108.49 290.091 115.534 294.239C122.662 298.884 126.226 291.418 138.575 300.875L354.892 301.953C354.892 296.81 358.538 295.4 366.329 298.221C398.818 306.267 424.428 295.4 440.175 257.158C453.933 213.939 426.417 207.137 426.417 181.089C427.246 167.816 436.197 161.014 441.17 145.502Z" fill="#FBEBEF"/>
<path d="M404.536 237.581H404.288V236.668H404.536C405.199 236.668 405.78 236.668 406.443 236.668V237.581C405.78 237.498 405.199 237.581 404.536 237.581ZM402.133 237.498C401.387 237.498 400.724 237.415 399.978 237.332L400.061 236.42C400.724 236.502 401.47 236.502 402.133 236.585V237.498ZM408.597 237.332L408.515 236.42C409.178 236.337 409.924 236.254 410.587 236.171L410.669 237.083C410.006 237.249 409.343 237.332 408.597 237.332ZM397.823 237.083C397.077 237 396.414 236.834 395.668 236.751L395.834 235.839C396.497 236.005 397.243 236.088 397.906 236.171L397.823 237.083ZM412.907 236.751L412.741 235.839C413.405 235.673 414.15 235.59 414.813 235.424L414.979 236.254C414.316 236.502 413.57 236.668 412.907 236.751ZM393.596 236.254C392.933 236.088 392.187 235.922 391.524 235.673L391.773 234.843C392.436 235.009 393.099 235.258 393.845 235.424L393.596 236.254ZM417.051 235.756L416.803 234.926C417.466 234.76 418.129 234.512 418.792 234.263L419.04 235.092C418.46 235.341 417.797 235.59 417.051 235.756ZM389.452 235.009C388.789 234.76 388.126 234.512 387.463 234.263L387.795 233.433C388.458 233.682 389.121 233.931 389.784 234.18L389.452 235.009ZM421.195 234.429L420.864 233.599C421.527 233.35 422.19 233.101 422.853 232.77L423.184 233.599C422.521 233.848 421.858 234.18 421.195 234.429ZM385.391 233.35C384.728 233.018 384.065 232.77 383.485 232.438L383.899 231.608C384.562 231.94 385.142 232.272 385.806 232.521L385.391 233.35ZM425.091 232.687L424.676 231.857C425.339 231.525 425.919 231.193 426.5 230.862L426.914 231.608C426.417 231.94 425.754 232.355 425.091 232.687ZM381.579 231.359C380.998 231.027 380.335 230.613 379.755 230.198L380.253 229.451C380.833 229.866 381.413 230.198 382.076 230.53L381.579 231.359ZM428.903 230.53L428.406 229.783C428.986 229.368 429.566 229.037 430.146 228.622L430.644 229.368C430.063 229.7 429.483 230.115 428.903 230.53ZM377.932 229.037C377.352 228.622 376.772 228.207 376.191 227.709L376.772 227.046C377.352 227.46 377.932 227.875 378.429 228.29L377.932 229.037ZM432.384 228.041L431.804 227.295C432.384 226.88 432.881 226.382 433.461 225.967L434.042 226.631C433.544 227.129 432.964 227.626 432.384 228.041ZM374.617 226.299C374.037 225.801 373.539 225.304 373.042 224.806L373.622 224.142C374.119 224.64 374.617 225.138 375.197 225.552L374.617 226.299ZM435.699 225.221L435.119 224.557C435.616 224.059 436.114 223.562 436.611 223.064L437.274 223.645C436.694 224.225 436.197 224.723 435.699 225.221ZM371.467 223.313C370.97 222.815 370.473 222.234 370.058 221.737L370.721 221.156C371.219 221.654 371.633 222.234 372.13 222.732L371.467 223.313ZM438.683 222.151L438.02 221.571C438.517 221.073 438.932 220.492 439.346 219.912L440.009 220.492C439.595 221.073 439.18 221.571 438.683 222.151ZM368.649 220.078C368.235 219.497 367.738 218.916 367.323 218.335L368.069 217.838C368.484 218.418 368.898 218.999 369.312 219.497L368.649 220.078ZM441.418 218.75L440.672 218.253C441.086 217.672 441.501 217.091 441.915 216.51L442.661 217.008C442.247 217.589 441.832 218.17 441.418 218.75ZM366.163 216.51C365.749 215.93 365.417 215.266 365.086 214.685L365.831 214.271C366.163 214.851 366.577 215.515 366.909 216.096L366.163 216.51ZM443.739 215.1L442.993 214.685C443.324 214.105 443.656 213.441 443.987 212.861L444.816 213.275C444.485 213.856 444.153 214.52 443.739 215.1ZM364.008 212.778C363.677 212.114 363.345 211.45 363.096 210.87L363.925 210.538C364.174 211.201 364.505 211.782 364.837 212.446L364.008 212.778ZM445.728 211.284L444.899 210.87C445.23 210.206 445.479 209.542 445.728 208.962L446.557 209.293C446.391 209.957 446.059 210.621 445.728 211.284ZM362.268 208.879C362.019 208.215 361.77 207.551 361.522 206.888L362.351 206.639C362.599 207.303 362.848 207.966 363.096 208.63L362.268 208.879ZM447.385 207.303L446.557 206.971C446.805 206.307 446.971 205.643 447.22 204.98L448.048 205.229C447.883 205.892 447.634 206.639 447.385 207.303ZM360.859 204.731C360.693 204.067 360.444 203.321 360.279 202.657L361.107 202.491C361.273 203.155 361.439 203.901 361.605 204.565L360.859 204.731ZM448.629 203.155L447.8 202.906C447.965 202.242 448.131 201.496 448.214 200.832L449.126 200.998C448.96 201.745 448.794 202.408 448.629 203.155ZM359.864 200.5C359.698 199.754 359.615 199.09 359.533 198.344L360.444 198.261C360.527 198.924 360.61 199.671 360.776 200.334L359.864 200.5ZM449.457 198.924L448.546 198.758C448.629 198.095 448.711 197.348 448.794 196.684L449.706 196.767C449.623 197.431 449.54 198.178 449.457 198.924ZM359.284 196.27C359.201 195.523 359.201 194.859 359.118 194.113H360.03C360.03 194.859 360.113 195.523 360.196 196.27H359.284ZM449.872 194.611L448.96 194.528C448.96 193.864 449.043 193.117 449.043 192.371H449.955C449.955 193.117 449.872 193.864 449.872 194.611ZM360.03 191.956H359.118C359.118 191.209 359.118 190.546 359.201 189.799L360.113 189.882C360.03 190.546 360.03 191.209 360.03 191.956ZM449.043 191.292C449.043 190.546 448.96 189.882 448.96 189.136L449.872 189.053C449.955 189.799 449.955 190.463 449.955 191.209L449.043 191.292ZM360.279 187.725L359.367 187.642C359.45 186.896 359.533 186.232 359.615 185.486L360.527 185.652C360.444 186.315 360.361 186.979 360.279 187.725ZM448.711 187.062C448.629 186.398 448.546 185.652 448.38 184.988L449.292 184.822C449.374 185.569 449.54 186.232 449.623 186.979L448.711 187.062ZM360.942 183.495L360.03 183.329C360.196 182.665 360.361 181.919 360.527 181.255L361.356 181.504C361.273 182.167 361.107 182.831 360.942 183.495ZM447.965 182.831C447.8 182.167 447.634 181.421 447.468 180.757L448.297 180.508C448.463 181.172 448.629 181.919 448.794 182.582L447.965 182.831ZM362.019 179.43L361.19 179.181C361.439 178.517 361.605 177.771 361.853 177.107L362.682 177.439C362.433 178.103 362.185 178.766 362.019 179.43ZM446.888 178.766C446.639 178.103 446.474 177.439 446.142 176.775L446.971 176.444C447.22 177.107 447.468 177.771 447.717 178.517L446.888 178.766ZM363.428 175.448L362.599 175.116C362.848 174.453 363.179 173.789 363.511 173.125L364.34 173.54C364.008 174.121 363.677 174.785 363.428 175.448ZM445.396 174.785C445.148 174.121 444.816 173.457 444.485 172.877L445.313 172.462C445.645 173.125 445.976 173.789 446.225 174.453L445.396 174.785ZM365.251 171.632L364.505 171.217C364.837 170.554 365.168 169.973 365.583 169.31L366.329 169.807C365.914 170.388 365.583 170.969 365.251 171.632ZM443.49 171.052C443.158 170.471 442.827 169.807 442.413 169.227L443.158 168.729C443.573 169.31 443.904 169.973 444.236 170.554L443.49 171.052ZM367.489 167.982L366.743 167.485C367.158 166.904 367.572 166.323 367.986 165.742L368.732 166.24C368.235 166.821 367.821 167.402 367.489 167.982ZM441.252 167.402C440.838 166.821 440.423 166.24 440.009 165.66L440.755 165.079C441.169 165.66 441.584 166.24 441.998 166.821L441.252 167.402ZM369.975 164.581L369.312 164C369.727 163.42 370.224 162.922 370.721 162.341L371.384 162.922C370.887 163.503 370.39 164 369.975 164.581ZM438.683 164.083C438.269 163.586 437.771 163.005 437.274 162.507L437.937 161.927C438.434 162.424 438.932 163.005 439.346 163.586L438.683 164.083ZM372.793 161.429L372.13 160.765C372.628 160.268 373.125 159.77 373.705 159.272L374.285 159.936C373.788 160.433 373.291 160.931 372.793 161.429ZM435.782 160.931C435.285 160.433 434.788 159.936 434.207 159.521L434.788 158.857C435.285 159.355 435.865 159.853 436.362 160.35L435.782 160.931ZM375.943 158.525L375.363 157.862C375.943 157.364 376.523 156.949 377.02 156.535L377.518 157.281C377.02 157.613 376.44 158.111 375.943 158.525ZM432.633 158.111C432.053 157.696 431.555 157.198 430.975 156.783L431.472 156.037C432.053 156.452 432.633 156.866 433.213 157.364L432.633 158.111ZM379.341 155.954L378.844 155.207C379.424 154.793 380.004 154.378 380.667 154.046L381.164 154.793C380.501 155.207 379.838 155.622 379.341 155.954ZM429.235 155.622C428.654 155.207 428.074 154.875 427.411 154.461L427.909 153.714C428.489 154.046 429.152 154.461 429.732 154.875L429.235 155.622ZM382.905 153.797L382.49 153.05C383.153 152.719 383.734 152.387 384.397 152.055L384.811 152.885C384.148 153.05 383.485 153.382 382.905 153.797ZM425.588 153.465C425.008 153.133 424.345 152.802 423.682 152.47L424.096 151.64C424.759 151.972 425.422 152.304 426.002 152.636L425.588 153.465ZM386.717 151.889L386.386 151.06C387.049 150.811 387.712 150.479 388.375 150.23L388.706 151.06C387.96 151.308 387.297 151.64 386.717 151.889ZM421.775 151.64C421.112 151.391 420.449 151.143 419.786 150.894L420.118 150.064C420.781 150.313 421.444 150.562 422.107 150.811L421.775 151.64ZM390.613 150.396L390.364 149.566C391.027 149.318 391.773 149.152 392.436 148.986L392.685 149.815C392.021 149.981 391.276 150.147 390.613 150.396ZM417.714 150.147C417.051 149.898 416.388 149.732 415.642 149.566L415.891 148.737C416.554 148.903 417.3 149.152 417.963 149.318L417.714 150.147ZM394.757 149.235L394.591 148.322C395.254 148.156 396 147.99 396.746 147.907L396.911 148.82C396.083 148.986 395.42 149.152 394.757 149.235ZM413.653 149.152C412.99 148.986 412.244 148.903 411.581 148.737L411.747 147.824C412.493 147.907 413.156 148.073 413.902 148.239L413.653 149.152ZM398.901 148.571L398.818 147.658C399.564 147.576 400.227 147.493 400.973 147.41L401.055 148.322C400.31 148.405 399.564 148.488 398.901 148.571ZM409.509 148.488C408.846 148.405 408.1 148.322 407.437 148.322L407.52 147.41C408.266 147.493 408.929 147.493 409.675 147.576L409.509 148.488ZM403.127 148.239V147.327C403.873 147.327 404.536 147.327 405.282 147.327V148.239C404.536 148.156 403.79 148.156 403.127 148.239Z" fill="#E3117F"/>
<path d="M68.21 154.627V153.714C68.9559 153.714 69.619 153.714 70.3649 153.714V154.627C69.619 154.627 68.8731 154.627 68.21 154.627ZM66.0551 154.544C65.3092 154.544 64.6462 154.461 63.9003 154.461L63.9831 153.548C64.6462 153.631 65.3921 153.631 66.138 153.631L66.0551 154.544ZM72.5198 154.461L72.4369 153.548C73.0999 153.465 73.8459 153.465 74.5918 153.382V154.295C73.9287 154.378 73.1828 154.461 72.5198 154.461ZM61.7454 154.295C60.9995 154.212 60.3364 154.129 59.5905 154.046L59.6734 153.134C60.3364 153.217 61.0823 153.299 61.7454 153.382V154.295ZM76.7467 154.046L76.6638 153.134C77.3268 153.051 78.0727 152.968 78.7358 152.802L78.9015 153.714C78.1556 153.88 77.4926 153.963 76.7467 154.046ZM57.4356 153.797C56.6897 153.714 56.0267 153.548 55.2808 153.382L55.4465 152.47C56.1096 152.636 56.8555 152.719 57.5185 152.885L57.4356 153.797ZM81.0564 153.382L80.8907 152.47C81.5537 152.304 82.2996 152.221 82.9627 152.055L83.1284 152.885C82.4654 153.051 81.7195 153.216 81.0564 153.382ZM53.2088 152.968C52.5457 152.802 51.7998 152.636 51.1368 152.47L51.3854 151.64C52.0484 151.806 52.7944 151.972 53.4574 152.138L53.2088 152.968ZM85.2004 152.387L84.9518 151.557C85.6148 151.391 86.3607 151.143 87.0238 150.977L87.2724 151.806C86.6094 152.055 85.9463 152.221 85.2004 152.387ZM49.0648 151.806C48.4017 151.64 47.6558 151.391 46.9928 151.143L47.2414 150.313C47.9044 150.562 48.5675 150.728 49.3134 150.977L49.0648 151.806ZM89.3444 151.143L89.0958 150.313C89.7588 150.064 90.4218 149.815 91.0849 149.567L91.4164 150.396C90.6705 150.728 90.0074 150.977 89.3444 151.143ZM45.0036 150.479C44.3406 150.23 43.6776 149.981 43.0145 149.732L43.346 148.903C44.0091 149.152 44.6721 149.401 45.3352 149.649L45.0036 150.479ZM93.4055 149.649L93.074 148.82C93.737 148.571 94.4001 148.239 95.0631 147.99L95.3946 148.82C94.7316 149.152 94.0686 149.401 93.4055 149.649ZM40.9425 148.82C40.2795 148.488 39.6164 148.239 38.9534 147.907L39.3678 147.078C40.0308 147.41 40.611 147.659 41.274 147.99L40.9425 148.82ZM97.3009 147.907L96.8865 147.078C97.5495 146.746 98.1297 146.414 98.7927 146.082L99.2071 146.912C98.5441 147.244 97.9639 147.576 97.3009 147.907ZM37.0472 146.912C36.3841 146.58 35.804 146.248 35.1409 145.834L35.5553 145.087C36.1355 145.419 36.7985 145.751 37.4616 146.082L37.0472 146.912ZM101.113 145.917L100.699 145.17C101.279 144.838 101.942 144.423 102.522 144.092L103.02 144.838C102.357 145.17 101.694 145.585 101.113 145.917ZM33.3176 144.755C32.7374 144.34 32.0744 144.009 31.4942 143.594L31.9915 142.847C32.5716 143.262 33.1518 143.594 33.8148 144.009L33.3176 144.755ZM104.76 143.677L104.263 142.93C104.843 142.515 105.423 142.101 106.003 141.769L106.501 142.515C105.92 142.847 105.34 143.262 104.76 143.677ZM29.7537 142.432C29.1736 142.018 28.5934 141.603 28.0133 141.188L28.5105 140.442C29.0907 140.856 29.6709 141.271 30.251 141.686L29.7537 142.432ZM108.241 141.188L107.744 140.442C108.324 140.027 108.904 139.612 109.401 139.114L109.982 139.778C109.401 140.276 108.821 140.773 108.241 141.188ZM26.2728 139.778C25.6926 139.363 25.1953 138.865 24.6152 138.368L25.1953 137.704C25.6926 138.202 26.2728 138.617 26.8529 139.031L26.2728 139.778ZM111.639 138.451L111.059 137.787C111.556 137.289 112.136 136.875 112.634 136.377L113.214 137.04C112.717 137.538 112.136 138.036 111.639 138.451ZM23.0405 136.957C22.5432 136.46 21.963 135.962 21.4657 135.464L22.1288 134.801C22.6261 135.298 23.1233 135.796 23.7035 136.294L23.0405 136.957ZM114.789 135.547L114.126 134.884C114.623 134.386 115.12 133.888 115.617 133.39L116.28 133.971C115.866 134.552 115.286 135.05 114.789 135.547ZM19.9739 133.971C19.4766 133.473 18.9793 132.893 18.4821 132.395L19.1451 131.814C19.6424 132.312 20.1397 132.893 20.5541 133.39L19.9739 133.971ZM117.772 132.478L117.109 131.897C117.606 131.4 118.021 130.819 118.518 130.321L119.181 130.902C118.767 131.4 118.27 131.897 117.772 132.478ZM17.0731 130.819C16.5758 130.238 16.1614 129.74 15.747 129.16L16.4101 128.579C16.8245 129.16 17.3217 129.657 17.7361 130.238L17.0731 130.819ZM120.59 129.16L119.927 128.579C120.342 127.998 120.839 127.418 121.253 126.92L121.999 127.418C121.419 127.998 121.005 128.579 120.59 129.16ZM14.4209 127.418C14.0065 126.837 13.5921 126.256 13.1777 125.676L13.9237 125.178C14.3381 125.759 14.7525 126.339 15.1669 126.92L14.4209 127.418ZM123.159 125.676L122.414 125.178C122.828 124.597 123.242 124.017 123.574 123.436L124.32 123.934C123.988 124.514 123.574 125.095 123.159 125.676ZM11.9345 123.851C11.5201 123.27 11.1886 122.606 10.7742 122.026L11.5201 121.528C11.8517 122.109 12.2661 122.772 12.6805 123.353L11.9345 123.851ZM125.48 122.026L124.734 121.528C125.066 120.947 125.48 120.284 125.812 119.703L126.558 120.118C126.226 120.864 125.812 121.445 125.48 122.026ZM9.77967 120.201C9.44815 119.537 9.11663 118.956 8.78511 118.293L9.61391 117.878C9.94543 118.542 10.2769 119.122 10.6085 119.786L9.77967 120.201ZM127.552 118.293L126.723 117.878C127.055 117.214 127.386 116.634 127.635 115.97L128.464 116.385C128.215 117.048 127.884 117.629 127.552 118.293ZM7.79055 116.385C7.45903 115.721 7.21039 115.058 6.87887 114.394L7.70767 114.062C7.95631 114.726 8.28783 115.389 8.61935 115.97L7.79055 116.385ZM129.458 114.394L128.63 114.062C128.878 113.398 129.21 112.735 129.458 112.071L130.287 112.403C130.038 113.067 129.707 113.73 129.458 114.394ZM6.05007 112.403C5.80143 111.739 5.55279 111.076 5.30415 110.412L6.13295 110.08C6.38159 110.744 6.63023 111.408 6.87887 112.071L6.05007 112.403ZM131.033 110.412L130.204 110.08C130.453 109.417 130.701 108.753 130.867 108.089L131.696 108.338C131.53 109.002 131.282 109.748 131.033 110.412ZM4.55823 108.338C4.30959 107.675 4.14383 106.928 3.89519 106.264L4.72399 106.016C4.88975 106.679 5.13839 107.343 5.38703 108.006L4.55823 108.338ZM132.442 106.264L131.613 106.016C131.779 105.352 132.028 104.688 132.193 103.942L133.022 104.191C132.773 104.937 132.608 105.601 132.442 106.264ZM3.39791 104.191C3.23215 103.527 3.06639 102.78 2.90063 102.117L3.72943 101.951C3.89519 102.614 4.06095 103.361 4.22671 104.025L3.39791 104.191ZM133.519 102.117L132.691 101.951C132.856 101.287 133.022 100.541 133.105 99.8769L134.017 100.043C133.768 100.706 133.602 101.453 133.519 102.117ZM2.40336 100.043C2.2376 99.3792 2.15472 98.6326 2.07184 97.886L2.98351 97.7201C3.06639 98.3837 3.23215 99.1303 3.31503 99.794L2.40336 100.043ZM134.265 97.886L133.354 97.7201C133.437 97.0565 133.602 96.3099 133.685 95.6462L134.597 95.7292C134.514 96.4758 134.431 97.1394 134.265 97.886ZM1.74032 95.7292C1.65744 94.9826 1.57456 94.319 1.49168 93.5724L2.40336 93.4894C2.48624 94.1531 2.56912 94.8997 2.652 95.5633L1.74032 95.7292ZM134.845 93.5724L133.934 93.4894C134.017 92.8258 134.017 92.0792 134.1 91.3326L135.011 91.4156C134.928 92.1622 134.928 92.9088 134.845 93.5724ZM1.32592 91.4985C1.24304 90.752 1.24304 90.0883 1.24304 89.3417H2.15472C2.15472 90.0883 2.2376 90.752 2.2376 91.4985H1.32592ZM135.094 89.2588H134.182C134.182 88.5951 134.182 87.8485 134.182 87.102H135.094V87.1849C135.177 87.8485 135.094 88.5951 135.094 89.2588ZM2.07184 87.1849H1.16016C1.16016 86.4383 1.16016 85.7747 1.16016 85.0281H2.07184C2.07184 85.7747 2.07184 86.4383 2.07184 87.1849ZM134.182 84.9451C134.182 84.1986 134.1 83.5349 134.1 82.7883L135.011 82.7054C135.094 83.452 135.094 84.1156 135.094 84.8622L134.182 84.9451ZM2.2376 82.9542L1.32592 82.8713C1.4088 82.1247 1.4088 81.4611 1.49168 80.7145L2.40336 80.7974C2.32048 81.4611 2.2376 82.2077 2.2376 82.9542ZM133.934 80.7145C133.851 80.0509 133.768 79.3043 133.685 78.6406L134.597 78.5577C134.68 79.3043 134.763 79.9679 134.845 80.7145H133.934ZM2.652 78.6406L1.74032 78.5577C1.8232 77.8111 1.90608 77.1474 2.07184 76.4009L2.98351 76.5668C2.81775 77.2304 2.73488 77.977 2.652 78.6406ZM133.437 76.4838C133.354 75.8202 133.188 75.0736 133.105 74.41L134.017 74.2441C134.182 74.9077 134.265 75.6543 134.431 76.4009L133.437 76.4838ZM3.31503 74.4929L2.40336 74.327C2.56912 73.6634 2.652 72.9168 2.81775 72.2531L3.64655 72.4191C3.56367 73.0827 3.39791 73.7463 3.31503 74.4929ZM132.608 72.3361C132.442 71.6725 132.276 70.9259 132.11 70.2622L132.939 70.0134C133.105 70.677 133.271 71.4236 133.437 72.0872L132.608 72.3361ZM4.22671 70.3452L3.39791 70.0963C3.56367 69.4327 3.72943 68.6861 3.97807 68.0225L4.80687 68.2713C4.55823 68.935 4.39247 69.6816 4.22671 70.3452ZM131.53 68.1884C131.365 67.5248 131.116 66.8611 130.867 66.1975L131.696 65.9486C131.945 66.6123 132.11 67.3588 132.359 68.0225L131.53 68.1884ZM5.38703 66.2804L4.55823 66.0316C4.80687 65.3679 5.05551 64.6214 5.30415 63.9577L6.13295 64.2895C5.88431 64.8702 5.63567 65.5339 5.38703 66.2804ZM130.204 64.2066C129.956 63.543 129.707 62.8793 129.458 62.2157L130.287 61.8839C130.536 62.5475 130.784 63.2111 131.033 63.8748L130.204 64.2066ZM6.87887 62.2157L6.05007 61.8839C6.29871 61.2202 6.63023 60.5566 6.87887 59.893L7.70767 60.2248C7.37615 60.8884 7.12751 61.5521 6.87887 62.2157ZM128.63 60.2248C128.381 59.5611 128.049 58.8975 127.718 58.3168L128.547 57.9021C128.878 58.5657 129.127 59.2293 129.458 59.893L128.63 60.2248ZM8.61935 58.3168L7.79055 57.9021C8.12207 57.2384 8.45359 56.5748 8.78511 55.9941L9.61391 56.4089C9.19951 57.0725 8.86799 57.6532 8.61935 58.3168ZM126.806 56.4089C126.475 55.7453 126.143 55.1646 125.812 54.5009L126.558 54.0862C126.889 54.7498 127.221 55.3305 127.552 55.9941L126.806 56.4089ZM10.5256 54.5839L9.77967 54.1691C10.1112 53.5055 10.5256 52.9248 10.8571 52.2612L11.603 52.7589C11.2715 53.3396 10.8571 53.9203 10.5256 54.5839ZM124.734 52.6759C124.403 52.0953 123.988 51.4316 123.574 50.851L124.32 50.3532C124.734 50.9339 125.066 51.5975 125.48 52.1782L124.734 52.6759ZM12.7633 50.9339L12.0174 50.4362C12.4318 49.8555 12.8462 49.1919 13.1777 48.6112L13.9237 49.1089C13.5093 49.6896 13.0949 50.2703 12.7633 50.9339ZM122.414 49.1089C121.999 48.5282 121.585 47.9476 121.17 47.3669L121.916 46.8691C122.331 47.4498 122.745 48.0305 123.159 48.6112L122.414 49.1089ZM15.1669 47.3669L14.4209 46.8691C14.8353 46.2885 15.2497 45.7078 15.747 45.1271L16.4101 45.7078C15.9957 46.2885 15.5813 46.7862 15.1669 47.3669ZM119.927 45.7078C119.513 45.1271 119.015 44.6294 118.601 44.0487L119.264 43.468C119.761 44.0487 120.176 44.5464 120.59 45.1271L119.927 45.7078ZM17.819 44.0487L17.156 43.468C17.6533 42.8873 18.0677 42.3896 18.5649 41.8089L19.228 42.3896C18.7307 42.9703 18.2334 43.551 17.819 44.0487ZM117.192 42.4726C116.695 41.9748 116.198 41.3942 115.783 40.8964L116.446 40.3158C116.943 40.8135 117.441 41.3942 117.938 41.8919L117.192 42.4726ZM20.6369 40.8964L19.9739 40.3158C20.4712 39.818 20.9685 39.3203 21.4657 38.8226L22.1288 39.4862C21.6315 39.901 21.1342 40.3987 20.6369 40.8964ZM114.208 39.4033C113.711 38.9055 113.214 38.4078 112.634 37.9101L113.214 37.2465C113.711 37.7442 114.291 38.2419 114.789 38.7396L114.208 39.4033ZM23.7035 37.9101L23.1233 37.2465C23.6206 36.7487 24.2008 36.251 24.6981 35.8362L25.2782 36.4999C24.6981 36.9976 24.2008 37.4124 23.7035 37.9101ZM111.059 36.4999C110.562 36.0021 109.982 35.5874 109.401 35.1726L109.982 34.509C110.562 34.9237 111.059 35.4215 111.639 35.9192L111.059 36.4999ZM26.9358 35.1726L26.3557 34.509C26.9358 34.0942 27.516 33.5965 28.0133 33.1817L28.5105 33.9283C28.0133 34.2601 27.4331 34.6749 26.9358 35.1726ZM107.744 33.8453C107.164 33.4306 106.583 33.0158 106.003 32.601L106.501 31.8544C107.081 32.2692 107.661 32.684 108.241 33.0987L107.744 33.8453ZM30.251 32.601L29.7537 31.8544C30.3339 31.4397 30.9141 31.0249 31.4942 30.6101L31.9915 31.3567C31.4113 31.7715 30.8312 32.1862 30.251 32.601ZM104.263 31.3567C103.683 30.9419 103.102 30.6101 102.439 30.1953L102.937 29.4488C103.517 29.8635 104.18 30.1953 104.76 30.6101L104.263 31.3567ZM33.8148 30.2783L33.3176 29.5317C33.8977 29.1169 34.5608 28.7851 35.1409 28.4533L35.5553 29.1999C35.0581 29.5317 34.395 29.8635 33.8148 30.2783ZM100.699 29.1999C100.119 28.8681 99.4558 28.5363 98.7927 28.2044L99.2071 27.3749C99.8702 27.7067 100.45 28.0385 101.113 28.4533L100.699 29.1999ZM37.5444 28.1215L37.13 27.2919C37.7931 26.9601 38.3732 26.6283 39.0363 26.2965L39.4507 27.126C38.7876 27.4579 38.1246 27.7897 37.5444 28.1215ZM96.8865 27.209C96.2234 26.8772 95.6433 26.6283 94.9802 26.2965L95.3118 25.467C95.9748 25.7988 96.6378 26.0476 97.3009 26.3794L96.8865 27.209ZM41.3569 26.2965L41.0254 25.467C41.6884 25.1351 42.3515 24.8863 43.0145 24.6374L43.346 25.467C42.6001 25.7158 41.9371 25.9647 41.3569 26.2965ZM92.9911 25.467C92.3281 25.2181 91.665 24.9692 91.002 24.7204L91.3335 23.8908C91.9966 24.1397 92.6596 24.3885 93.3226 24.6374L92.9911 25.467ZM45.2523 24.6374L44.9208 23.8079C45.5838 23.559 46.2468 23.3101 46.9928 23.0613L47.2414 23.8908C46.5784 24.2226 45.9153 24.3885 45.2523 24.6374ZM89.0129 23.9738C88.3498 23.7249 87.6868 23.559 86.9409 23.3101L87.1895 22.4806C87.8526 22.6465 88.5985 22.8954 89.2615 23.1442L89.0129 23.9738ZM49.3134 23.3101L49.0648 22.4806C49.7278 22.3147 50.4737 22.0658 51.1368 21.8999L51.3854 22.7295C50.6395 22.8954 49.9764 23.1442 49.3134 23.3101ZM84.9518 22.7295C84.2887 22.5636 83.5428 22.3976 82.8798 22.2317L83.0455 21.4022C83.7086 21.5681 84.4545 21.734 85.1175 21.8999L84.9518 22.7295ZM53.3745 22.2317L53.2088 21.4022C53.8718 21.2363 54.6177 21.0704 55.2808 20.9874L55.4465 21.8999C54.7835 21.8999 54.0376 22.0658 53.3745 22.2317ZM80.8078 21.817C80.1447 21.6511 79.3988 21.5681 78.7358 21.4851L78.9015 20.5727C79.6475 20.6556 80.3105 20.8215 81.0564 20.9874L80.8078 21.817ZM57.5185 21.4022L57.3527 20.4897C58.0158 20.4067 58.7617 20.2408 59.5076 20.1579L59.5905 21.0704C58.9275 21.2363 58.2644 21.3192 57.5185 21.4022ZM76.5809 21.0704C75.9179 20.9874 75.1719 20.9045 74.5089 20.8215L74.5918 19.909C75.3377 19.992 76.0007 20.0749 76.7467 20.1579L76.5809 21.0704ZM61.7454 20.9045L61.6625 19.992C62.4084 19.909 63.0715 19.8261 63.8174 19.8261L63.9003 20.7386C63.1543 20.7386 62.4913 20.8215 61.7454 20.9045ZM72.354 20.6556C71.691 20.5727 70.9451 20.5727 70.1991 20.5727V19.6602C70.9451 19.6602 71.6081 19.7431 72.354 19.7431V20.6556ZM65.9723 20.5727V19.6602C66.7182 19.6602 67.3812 19.6602 68.1271 19.6602V20.5727C67.4641 20.5727 66.7182 20.5727 65.9723 20.5727Z" fill="#E3117F"/>
<path d="M124.9 64.2895C124.154 64.2895 123.408 64.2066 122.745 64.1236L122.911 63.2111C123.574 63.294 124.32 63.377 124.983 63.377L124.9 64.2895ZM127.055 64.2066L126.972 63.2941C127.635 63.2111 128.381 63.0452 129.044 62.8793L129.293 63.7088C128.547 63.9577 127.801 64.1236 127.055 64.2066ZM120.508 63.7088C119.845 63.5429 119.099 63.2941 118.436 62.9622L118.767 62.1327C119.43 62.3816 120.093 62.6304 120.756 62.7963L120.508 63.7088ZM131.282 63.0452L130.951 62.2156C131.614 61.9668 132.194 61.635 132.857 61.3032L133.271 62.0497C132.691 62.4645 132.028 62.7963 131.282 63.0452ZM116.529 61.9668C115.866 61.552 115.286 61.1372 114.706 60.7225L115.286 60.0588C115.866 60.4736 116.364 60.8884 117.027 61.2202L116.529 61.9668ZM135.095 60.8884L134.597 60.1418C135.177 59.727 135.675 59.2293 136.172 58.8145L136.835 59.4782C136.255 59.9759 135.675 60.4736 135.095 60.8884ZM113.048 59.2293C112.551 58.7316 112.054 58.1509 111.64 57.5702L112.385 57.0725C112.8 57.6532 113.214 58.1509 113.712 58.6486L113.048 59.2293ZM138.244 57.8191L137.498 57.2384C137.912 56.6577 138.327 56.077 138.658 55.4964L139.404 55.9111C139.073 56.6577 138.658 57.2384 138.244 57.8191ZM110.479 55.6623C110.148 54.9986 109.816 54.335 109.568 53.6714L110.396 53.3395C110.645 54.0032 110.977 54.5839 111.308 55.2475L110.479 55.6623ZM140.482 54.0032L139.653 53.6714C139.902 53.0077 140.15 52.3441 140.316 51.6805L141.145 51.9293C140.979 52.6759 140.73 53.3395 140.482 54.0032ZM108.904 51.5975C108.739 50.8509 108.573 50.1873 108.49 49.4407L109.402 49.3577C109.485 50.0214 109.568 50.768 109.733 51.4316L108.904 51.5975ZM141.559 49.7725L140.648 49.6896C140.73 49.0259 140.813 48.2793 140.813 47.6157H141.725C141.725 48.3623 141.725 49.1089 141.559 49.7725ZM109.319 47.2839H108.407C108.407 46.5373 108.49 45.7907 108.573 45.1271L109.485 45.293C109.319 45.8737 109.319 46.5373 109.319 47.2839ZM140.813 46.2055C140.73 45.5418 140.648 44.7953 140.482 44.1316L141.393 43.9657C141.559 44.7123 141.642 45.3759 141.725 46.1225L140.813 46.2055ZM109.899 43.1362L109.07 42.8873C109.236 42.2237 109.568 41.4771 109.816 40.8135L110.645 41.1453C110.313 41.8089 110.065 42.4725 109.899 43.1362ZM139.902 42.1407C139.653 41.4771 139.404 40.8135 139.073 40.2328L139.902 39.818C140.233 40.4816 140.565 41.1453 140.813 41.8089L139.902 42.1407ZM111.557 39.3203L110.811 38.8225C111.225 38.1589 111.64 37.5782 112.054 36.9976L112.717 37.5782C112.385 38.1589 111.971 38.7396 111.557 39.3203ZM137.912 38.4907C137.498 37.9101 137.084 37.4123 136.586 36.9146L137.249 36.3339C137.747 36.8316 138.244 37.4123 138.658 38.076L137.912 38.4907ZM114.209 36.168L113.629 35.5044C114.126 35.0067 114.706 34.5089 115.286 34.0942L115.784 34.8407C115.286 35.1726 114.706 35.6703 114.209 36.168ZM135.095 35.4214C134.597 35.0067 134.017 34.5919 133.437 34.1771L133.934 33.4305C134.514 33.8453 135.177 34.2601 135.675 34.7578L135.095 35.4214ZM117.607 33.6794L117.192 32.9328C117.856 32.601 118.519 32.2692 119.182 32.0203L119.513 32.8498C118.85 33.0987 118.187 33.3476 117.607 33.6794ZM131.614 33.2646C130.951 33.0157 130.37 32.7669 129.707 32.518L129.956 31.6885C130.619 31.9373 131.365 32.1862 132.028 32.4351L131.614 33.2646ZM121.419 32.1862L121.254 31.3567C122 31.1908 122.663 31.1078 123.408 31.0249L123.491 31.9373C122.828 31.9373 122.082 32.1033 121.419 32.1862ZM127.635 32.0203C126.972 31.9373 126.226 31.8544 125.563 31.8544V30.9419C126.309 30.9419 127.055 31.0248 127.718 31.1908L127.635 32.0203Z" fill="#E3117F"/>
<path d="M257.508 234.429H228.583V295.317H257.508V234.429Z" fill="url(#paint0_linear_2787_3303)"/>
<path d="M304.749 288.681H163.688V300.626H304.749V288.681Z" fill="url(#paint1_linear_2787_3303)"/>
<path d="M384.48 71.8384L101.445 72.502C98.6269 72.502 96.3891 74.7418 96.3891 77.5622L96.0576 231.276C96.0576 234.097 98.3783 236.42 101.196 236.42L383.9 235.922C386.718 235.922 388.955 233.682 388.955 230.862L389.618 76.9815C389.618 74.0781 387.298 71.8384 384.48 71.8384Z" fill="url(#paint2_linear_2787_3303)"/>
<path d="M383.651 78.2261H101.113V229.949H383.651V78.2261Z" fill="url(#paint3_linear_2787_3303)"/>
<path d="M383.651 230.032H100.947V78.1431H383.651V230.032ZM101.196 229.866H383.485V78.309H101.196V229.866Z" fill="url(#paint4_linear_2787_3303)"/>
<path d="M302.678 217.174H114.706C112.717 217.174 111.143 215.598 111.143 213.607V192.537C111.143 190.546 112.717 188.97 114.706 188.97H302.678C304.667 188.97 306.242 190.546 306.242 192.537V213.607C306.242 215.598 304.667 217.174 302.678 217.174Z" fill="white"/>
<path d="M302.429 217.257H114.955C112.8 217.257 111.06 215.515 111.06 213.358V192.869C111.06 190.712 112.8 188.97 114.955 188.97H302.346C304.501 188.97 306.242 190.712 306.242 192.869V213.358C306.325 215.515 304.584 217.257 302.429 217.257ZM114.955 189.053C112.883 189.053 111.225 190.712 111.225 192.786V213.275C111.225 215.349 112.883 217.008 114.955 217.008H302.346C304.418 217.008 306.076 215.349 306.076 213.275V192.786C306.076 190.712 304.418 189.053 302.346 189.053H114.955Z" fill="url(#paint5_linear_2787_3303)"/>
<path d="M52.4629 286.358H50.308V285.446H52.4629C52.7944 285.446 53.2088 285.446 53.5403 285.363L53.7061 286.275C53.2917 286.358 52.8773 286.358 52.4629 286.358ZM48.236 286.358H46.0811V285.446H48.236V286.358ZM43.9262 286.358H41.7714V285.446H43.9262V286.358ZM39.6165 286.358H37.4616V285.446H39.6165V286.358ZM35.3896 286.358H33.2347V285.446H35.3896V286.358ZM31.0798 286.358H28.925V285.446H31.0798V286.358ZM26.7701 286.275C26.0242 286.192 25.2783 285.943 24.6152 285.612L25.0296 284.782C25.6098 285.114 26.2728 285.28 26.9358 285.363L26.7701 286.275ZM55.861 285.446L55.4466 284.699C56.0267 284.367 56.524 283.953 57.0213 283.455L57.6843 284.036C57.1041 284.616 56.524 285.114 55.861 285.446ZM22.709 284.284C22.2117 283.704 21.7144 283.123 21.3829 282.376L22.2117 281.962C22.4603 282.542 22.8747 283.123 23.372 283.621L22.709 284.284ZM58.8446 282.128L58.0158 281.796C58.2645 281.215 58.4302 280.551 58.4302 279.888L59.3419 279.971C59.259 280.634 59.0933 281.381 58.8446 282.128ZM20.8856 280.22C20.8856 279.971 20.8856 279.722 20.8856 279.556V278.063H21.7973V279.556C21.7973 279.722 21.7973 279.971 21.7973 280.137L20.8856 280.22ZM59.3419 277.731H58.4302V275.574H59.3419V277.731ZM21.7144 275.823H20.8027V273.749H21.7144V275.823ZM59.3419 273.417H58.4302V271.261H59.3419V273.417ZM21.7144 271.592H20.8027V269.436H21.7144V271.592ZM59.3419 269.187H58.4302V267.03H59.3419V269.187ZM21.7144 267.279H20.8027V265.122H21.7144V267.279ZM59.3419 264.873H58.4302V262.716H59.3419V264.873ZM21.7144 262.965H20.8027V260.808H21.7144V262.965ZM59.3419 260.559H58.4302V258.403H59.3419V260.559ZM21.7144 258.734H20.8027V257.49C20.8027 257.158 20.8027 256.827 20.8856 256.495L21.7973 256.661C21.7973 256.909 21.7144 257.241 21.7144 257.49V258.734ZM58.3473 256.412C58.1816 255.748 58.0158 255.167 57.6843 254.587L58.4302 254.172C58.8446 254.836 59.0933 255.582 59.259 256.329L58.3473 256.412ZM22.3775 254.753L21.5487 254.338C21.8802 253.674 22.3775 253.011 22.9576 252.513L23.5378 253.177C23.1234 253.674 22.709 254.172 22.3775 254.753ZM56.3582 253.011C55.861 252.596 55.2808 252.264 54.7006 252.015L55.0322 251.186C55.7781 251.435 56.3582 251.849 56.9384 252.347L56.3582 253.011ZM25.1954 252.098L24.8639 251.269C25.5269 250.937 26.2728 250.771 27.1016 250.688L27.1845 251.6C26.4386 251.6 25.8584 251.766 25.1954 252.098ZM52.7944 251.517C52.7115 251.517 52.6286 251.517 52.5458 251.517H50.7224V250.605H52.5458C52.6286 250.605 52.7115 250.605 52.8773 250.605L52.7944 251.517ZM48.4846 251.517H46.3298V250.605H48.4846V251.517ZM44.1749 251.517H42.02V250.605H44.1749V251.517ZM39.948 251.517H37.7931V250.605H39.948V251.517ZM35.6382 251.517H33.4834V250.605H35.6382V251.517ZM31.4114 251.517H29.2565V250.605H31.4114V251.517Z" fill="#E3117F"/>
<path d="M157.389 256.91H155.235V255.997H157.389C157.721 255.997 158.135 255.997 158.467 255.914L158.633 256.827C158.135 256.827 157.804 256.91 157.389 256.91ZM153.08 256.91H150.925V255.997H153.08V256.91ZM148.77 256.91H146.615V255.997H148.77V256.91ZM144.543 256.91H142.388V255.997H144.543V256.91ZM140.233 256.91H138.078V255.997H140.233V256.91ZM135.924 256.91H133.769V255.997H135.924V256.91ZM131.614 256.827C130.868 256.744 130.122 256.495 129.459 256.163L129.873 255.333C130.454 255.665 131.117 255.831 131.78 255.914L131.614 256.827ZM160.705 255.997L160.29 255.25C160.87 254.919 161.368 254.504 161.865 254.006L162.528 254.587C161.948 255.167 161.368 255.665 160.705 255.997ZM127.636 254.836C127.138 254.255 126.641 253.674 126.31 252.928L127.138 252.513C127.387 253.094 127.801 253.674 128.299 254.172L127.636 254.836ZM163.688 252.679L162.86 252.347C163.108 251.766 163.274 251.103 163.274 250.439L164.186 250.522C164.186 251.186 164.02 251.932 163.688 252.679ZM125.729 250.771C125.729 250.522 125.729 250.273 125.729 250.107V248.614H126.641V250.107C126.641 250.273 126.641 250.522 126.641 250.688L125.729 250.771ZM164.186 248.282H163.274V246.125H164.186V248.282ZM126.558 246.374H125.646V244.218H126.558V246.374ZM164.186 243.969H163.274V241.812H164.186V243.969ZM126.558 242.144H125.646V239.987H126.558V242.144ZM164.186 239.655H163.274V237.498H164.186V239.655ZM126.558 237.83H125.646V235.673H126.558V237.83ZM164.186 235.424H163.274V233.268H164.186V235.424ZM126.558 233.516H125.646V231.443H126.558V233.516ZM164.186 231.111H163.274V228.954H164.186V231.111ZM126.558 229.286H125.646V228.041C125.646 227.71 125.646 227.378 125.729 227.046L126.641 227.212C126.641 227.461 126.558 227.793 126.558 228.041V229.286ZM163.191 226.963C163.025 226.299 162.86 225.719 162.528 225.138L163.274 224.723C163.688 225.387 163.937 226.133 164.103 226.88L163.191 226.963ZM127.221 225.304L126.392 224.889C126.724 224.226 127.221 223.562 127.801 223.064L128.382 223.728C127.967 224.143 127.553 224.723 127.221 225.304ZM161.285 223.562C160.788 223.147 160.207 222.815 159.627 222.566L159.959 221.737C160.705 221.986 161.285 222.401 161.865 222.898L161.285 223.562ZM130.122 222.649L129.79 221.82C130.454 221.488 131.199 221.322 132.028 221.239L132.111 222.152C131.365 222.152 130.702 222.318 130.122 222.649ZM157.638 222.069C157.555 222.069 157.472 222.069 157.389 222.069H155.566V221.156H157.389C157.472 221.156 157.555 221.156 157.721 221.156L157.638 222.069ZM153.328 222.069H151.173V221.156H153.328V222.069ZM149.101 222.069H146.947V221.156H149.101V222.069ZM144.792 222.069H142.637V221.156H144.792V222.069ZM140.482 222.069H138.41V221.156H140.565V222.069H140.482ZM136.255 222.069H134.1V221.156H136.255V222.069Z" fill="#E3117F"/>
<path d="M399.398 87.3509H397.243V86.4384H399.398C399.73 86.4384 400.144 86.4384 400.476 86.3555L400.641 87.268C400.227 87.268 399.813 87.3509 399.398 87.3509ZM395.089 87.3509H392.934V86.4384H395.089V87.3509ZM390.779 87.3509H388.707V86.4384H390.862V87.3509H390.779ZM386.552 87.3509H384.397V86.4384H386.552V87.3509ZM382.242 87.3509H380.087V86.4384H382.242V87.3509ZM377.932 87.3509H375.777V86.4384H377.932V87.3509ZM373.623 87.268C372.877 87.185 372.131 86.9362 371.468 86.6043L371.882 85.7748C372.462 86.1066 373.125 86.2725 373.788 86.3555L373.623 87.268ZM402.713 86.4384L402.299 85.6919C402.879 85.36 403.377 84.9453 403.874 84.4475L404.537 85.0282C403.957 85.6089 403.377 86.0237 402.713 86.4384ZM369.644 85.1941C369.147 84.6134 368.65 84.0328 368.318 83.2862L369.147 82.8714C369.396 83.4521 369.81 84.0328 370.307 84.5305L369.644 85.1941ZM405.697 83.0373L404.868 82.7055C405.117 82.1248 405.283 81.4612 405.283 80.7976L406.194 80.8805C406.194 81.6271 406.029 82.3737 405.697 83.0373ZM367.738 81.1294C367.738 80.8805 367.738 80.6316 367.738 80.4657V78.9726H368.65V80.4657C368.65 80.6316 368.65 80.8805 368.65 81.0464L367.738 81.1294ZM406.194 78.6407H405.283V76.4839H406.194V78.6407ZM368.567 76.8157H367.655V74.6589H368.567V76.8157ZM406.194 74.4101H405.283V72.2533H406.194V74.4101ZM368.567 72.5021H367.655V70.3453H368.567V72.5021ZM406.194 70.0965H405.283V67.9396H406.194V70.0965ZM368.567 68.2715H367.655V66.1146H368.567V68.2715ZM406.194 65.8658H405.283V63.709H406.194V65.8658ZM368.567 63.9578H367.655V61.801H368.567V63.9578ZM406.194 61.5522H405.283V59.3954H406.194V61.5522ZM368.567 59.7272H367.655V58.4829C367.655 58.151 367.655 57.8192 367.738 57.4874L368.65 57.6533C368.65 57.9022 368.567 58.234 368.567 58.4829V59.7272ZM405.2 57.3215C405.034 56.6579 404.868 56.0772 404.537 55.4965L405.283 55.0817C405.697 55.7454 405.946 56.492 406.112 57.2385L405.2 57.3215ZM369.23 55.7454L368.401 55.3306C368.733 54.667 369.23 54.0033 369.81 53.5056L370.39 54.1692C369.976 54.584 369.562 55.1647 369.23 55.7454ZM403.294 54.0033C402.796 53.5886 402.216 53.2567 401.636 53.0079L401.968 52.1783C402.713 52.4272 403.294 52.842 403.874 53.3397L403.294 54.0033ZM372.131 53.0079L371.799 52.1783C372.462 51.8465 373.208 51.6806 374.037 51.5977L374.12 52.5102C373.374 52.5931 372.711 52.759 372.131 53.0079ZM399.647 52.5102C399.564 52.5102 399.481 52.5102 399.398 52.5102H397.575V51.5977H399.398C399.481 51.5977 399.564 51.5977 399.73 51.5977L399.647 52.5102ZM395.337 52.5102H393.182V51.5977H395.337V52.5102ZM391.11 52.5102H388.955V51.5977H391.11V52.5102ZM386.801 52.5102H384.646V51.5977H386.801V52.5102ZM382.574 52.5102H380.419V51.5977H382.574V52.5102ZM378.264 52.5102H376.109V51.5977H378.264V52.5102Z" fill="#E3117F"/>
<path d="M309.971 34.8411C310.054 38.9059 309.473 42.4729 307.899 45.3763C307.401 47.5331 307.65 53.4229 309.225 54.999L302.677 58.8149L296.71 53.257C296.958 51.1002 296.378 46.7866 297.622 46.7036C295.798 42.4729 295.135 38.4082 295.798 34.5923L309.971 34.8411Z" fill="#E5A950"/>
<path d="M308.644 42.9703C307.815 46.7862 306.241 49.6896 302.843 50.1043C299.03 49.5237 297.29 46.2884 295.964 42.4726C295.715 40.8964 297.29 43.551 298.616 43.7998C300.19 43.7998 300.19 41.3941 302.843 42.4726C305.246 41.3941 305.246 43.3021 306.241 43.7998C308.147 43.7998 309.307 41.3112 308.644 42.9703Z" fill="#1D1E1C"/>
<path d="M305.495 44.2149C304.998 45.3762 304.169 46.0399 302.594 45.791C300.854 45.791 300.191 45.1274 299.693 44.4637C300.025 43.8831 301.268 43.8001 302.843 44.049C304.003 43.8001 304.998 43.7171 305.495 44.2149Z" fill="#FCFDFF"/>
<path d="M309.142 39.8182C309.971 39.1546 310.551 37.4955 310.716 34.5091C312.54 31.6057 311.297 30.5273 308.893 30.0296C308.562 27.541 306.987 26.9603 304.666 27.6239C303.009 26.4626 301.268 26.3796 299.942 27.8728C298.119 26.5455 296.627 27.1262 295.218 28.9512C293.892 28.7853 293.56 30.9421 293.395 33.4307C293.643 35.8364 295.218 36.0853 295.467 39.4864L296.544 35.5046L297.124 38.5739L300.191 37.1637L302.926 35.7535L304.666 34.9239L307.07 36.2512L309.473 36.0023L309.142 39.8182Z" fill="#1D1E1C"/>
<path d="M321.491 65.5342C324.143 72.5023 321.159 84.033 320.082 88.5125C319.916 89.342 318.756 91.167 318.01 91.4989C316.518 92.3284 315.855 93.3238 313.949 93.4898C313.949 93.4898 314.031 90.6693 313.7 89.5909C312.871 89.5909 310.965 89.0102 312.042 88.5125C313.7 87.683 314.777 87.9318 316.767 86.2727C317.927 82.7057 316.269 71.8387 314.86 66.8614L321.491 65.5342Z" fill="#E5A950"/>
<path d="M342.874 94.5676L313.12 113.647C311.462 114.725 309.224 114.228 308.147 112.569L294.803 91.7472C293.726 90.0881 294.223 87.8483 295.881 86.7699L325.634 67.7734C327.292 66.695 329.53 67.1927 330.607 68.8518L343.951 89.5903C345.028 91.2494 344.531 93.4892 342.874 94.5676Z" fill="white"/>
<path d="M311.296 114.228C309.97 114.228 308.727 113.564 307.981 112.403L294.886 91.9133C293.726 90.0883 294.223 87.6826 296.046 86.5213L325.386 67.6907C327.209 66.5293 329.613 67.027 330.773 68.852L343.868 89.3417C344.448 90.2542 344.614 91.2497 344.365 92.3281C344.117 93.3235 343.536 94.236 342.625 94.8167L313.285 113.647C312.705 113.979 311.959 114.228 311.296 114.228ZM327.541 67.2759C326.878 67.2759 326.132 67.4418 325.551 67.8566L296.212 86.6872C294.472 87.7656 293.974 90.0883 295.052 91.8303L308.147 112.32C309.224 114.062 311.545 114.56 313.285 113.481L342.625 94.6508C343.454 94.0701 344.034 93.2406 344.282 92.3281C344.531 91.3326 344.282 90.3372 343.785 89.5076L330.69 68.935C329.944 67.8566 328.784 67.2759 327.541 67.2759Z" fill="url(#paint6_linear_2787_3303)"/>
<path d="M300.898 89.3142L300.136 89.8149L311.643 107.358L312.405 106.858L300.898 89.3142Z" fill="black"/>
<path d="M316.767 78.8896L319.419 83.2862L305.827 92.743L303.009 88.0976L316.767 78.8896Z" fill="#E3087F"/>
<path d="M305.826 92.9917L302.843 88.0144L316.849 78.5576L319.75 83.286L305.826 92.9917ZM303.257 88.1803L305.909 92.4939L319.17 83.286L316.684 79.1383L303.257 88.1803Z" fill="#B51256"/>
<path d="M324.641 82.9546L327.293 87.3512L310.302 99.1307L307.484 94.4852L324.641 82.9546Z" fill="#E3087F"/>
<path d="M310.219 99.3793L307.235 94.4021L324.723 82.6226L327.624 87.351L310.219 99.3793ZM307.733 94.568L310.385 98.8816L327.127 87.268L324.64 83.1203L307.733 94.568Z" fill="#B51256"/>
<path d="M334.005 85.9409L336.74 90.3375L314.363 105.518L311.545 100.873L334.005 85.9409Z" fill="#E3087F"/>
<path d="M314.28 105.767L311.296 100.79L334.088 85.6089L336.989 90.3373L336.823 90.4202L314.28 105.767ZM311.793 100.955L314.445 105.269L336.491 90.2543L334.005 86.1066L311.793 100.955Z" fill="#B51256"/>
<path d="M281.874 65.7827C278.31 70.5941 287.758 81.7929 289.416 85.5258C289.582 86.3554 290.742 88.1804 291.488 88.5122C292.98 89.3417 293.643 90.3372 295.549 90.5031C296.627 89.8394 296.378 87.102 295.798 86.6042C295.964 86.5213 296.875 85.8576 297.455 85.5258C295.798 84.6963 294.72 84.9451 292.731 83.2861C291.322 78.3088 287.841 70.9259 287.095 65.7827H281.874Z" fill="#E5A950"/>
<path d="M296.876 47.5332C296.627 53.9207 305.744 54.7502 307.153 48.1139C319.585 51.1832 317.927 56.4093 321.822 65.8661C319.668 66.5297 317.347 67.4422 314.861 68.6036C314.197 66.6127 313.783 65.0365 313.452 63.6263L312.374 71.0922H290.742L290.494 62.2161L287.759 68.6036L280.797 65.8661C284.609 57.4877 284.112 50.2707 296.876 47.5332Z" fill="url(#paint7_linear_2787_3303)"/>
<path opacity="0.31" d="M57.0215 41.9749L73.1002 41.6431L65.8068 53.5885L57.0215 41.9749Z" fill="#F197BE"/>
<path opacity="0.31" d="M65.8068 72.5851L57.0215 60.9715L73.1002 60.6396" fill="#F197BE"/>
<path opacity="0.31" d="M65.8068 92.5768L57.0215 80.9632L73.1002 80.6313" fill="#F197BE"/>
<path opacity="0.31" d="M65.8068 111.49L57.0215 99.8767L73.1002 99.5449" fill="#F197BE"/>
<path opacity="0.31" d="M65.8068 130.819L57.0215 119.205L73.1002 118.791" fill="#F197BE"/>
<path opacity="0.31" d="M396.581 119.288L396.332 109.5L403.625 113.979L396.581 119.288Z" fill="#F197BE"/>
<path opacity="0.31" d="M415.229 113.979L408.101 119.288L407.936 109.5" fill="#F197BE"/>
<path opacity="0.31" d="M427.412 113.979L420.284 119.288L420.118 109.5" fill="#F197BE"/>
<path opacity="0.31" d="M438.932 113.979L431.887 119.288L431.639 109.5" fill="#F197BE"/>
<path opacity="0.31" d="M450.702 113.979L443.574 119.288L443.408 109.5" fill="#F197BE"/>
<path d="M422.854 196.602V218.833C422.854 220.741 421.279 222.318 419.373 222.318H380.834C378.927 222.318 377.353 220.741 377.353 218.833V196.602C377.353 194.694 378.927 193.118 380.834 193.118H419.373C421.279 193.118 422.854 194.694 422.854 196.602Z" fill="white"/>
<path d="M418.958 222.483H381.082C378.927 222.483 377.187 220.741 377.187 218.585V197.017C377.187 194.86 378.927 193.118 381.082 193.118H418.958C421.113 193.118 422.853 194.86 422.853 197.017V218.585C422.936 220.658 421.196 222.483 418.958 222.483ZM381.082 193.201C379.01 193.201 377.352 194.86 377.352 196.934V218.502C377.352 220.576 379.01 222.235 381.082 222.235H418.958C421.03 222.235 422.688 220.576 422.688 218.502V196.934C422.688 194.86 421.03 193.201 418.958 193.201H381.082Z" fill="url(#paint8_linear_2787_3303)"/>
<path d="M381.072 196.677L381.068 197.424L416.375 197.602L416.379 196.856L381.072 196.677Z" fill="black"/>
<path d="M416.389 200.5H400.891V201.247H416.389V200.5Z" fill="black"/>
<path d="M406.029 209.211H386.055V214.935H406.029V209.211Z" fill="#F095BC"/>
<path d="M416.968 215.018H385.723V209.128H416.968V215.018ZM386.303 214.52H416.471V209.709H386.303V214.52Z" fill="#642265"/>
<path d="M348.427 174.287V212.363C348.427 214.52 346.687 216.262 344.532 216.262H315.275C313.12 216.262 311.38 214.52 311.38 212.363V174.287C311.38 172.13 313.12 170.388 315.275 170.388H344.532C346.687 170.388 348.427 172.13 348.427 174.287Z" fill="white"/>
<path d="M344.615 216.345H315.275C313.12 216.345 311.38 214.603 311.38 212.446V174.287C311.38 172.13 313.12 170.388 315.275 170.388H344.615C346.77 170.388 348.51 172.13 348.51 174.287V212.446C348.51 214.603 346.77 216.345 344.615 216.345ZM344.615 170.471H315.275C313.203 170.471 311.546 172.13 311.546 174.204V212.363C311.546 214.437 313.203 216.096 315.275 216.096H344.615C346.687 216.096 348.344 214.437 348.344 212.363V174.204C348.344 172.213 346.687 170.471 344.615 170.471Z" fill="url(#paint9_linear_2787_3303)"/>
<path d="M339.102 172.13L337.858 172.139L338.126 212.04L339.369 212.031L339.102 172.13Z" fill="black"/>
<path d="M330.814 172.379L329.57 172.387L329.838 212.288L331.081 212.28L330.814 172.379Z" fill="black"/>
<path d="M321.696 172.379L320.453 172.388L320.721 212.289L321.964 212.28L321.696 172.379Z" fill="black"/>
<path d="M321.325 191.459H320.745C318.922 191.459 317.43 189.966 317.43 188.141V181.836C317.43 180.011 318.922 178.518 320.745 178.518H321.325C323.148 178.518 324.64 180.011 324.64 181.836V188.141C324.64 190.049 323.148 191.459 321.325 191.459Z" fill="white"/>
<path d="M323.48 191.956H318.756C317.845 191.956 317.099 191.21 317.099 190.297V179.845C317.099 178.933 317.845 178.186 318.756 178.186H323.48C324.392 178.186 325.138 178.933 325.138 179.845V190.297C325.055 191.21 324.309 191.956 323.48 191.956ZM318.673 179.099C318.259 179.099 317.927 179.43 317.927 179.845V190.297C317.927 190.712 318.259 191.044 318.673 191.044H323.398C323.812 191.044 324.143 190.712 324.143 190.297V179.845C324.143 179.43 323.812 179.099 323.398 179.099H318.673Z" fill="black"/>
<path d="M330.607 201.994H330.027C328.204 201.994 326.712 200.5 326.712 198.675V192.454C326.712 190.629 328.204 189.136 330.027 189.136H330.607C332.431 189.136 333.922 190.629 333.922 192.454V198.758C333.922 200.5 332.431 201.994 330.607 201.994Z" fill="white"/>
<path d="M332.68 202.492H327.955C327.044 202.492 326.298 201.745 326.298 200.833V190.38C326.298 189.468 327.044 188.721 327.955 188.721H332.68C333.591 188.721 334.337 189.468 334.337 190.38V200.833C334.337 201.745 333.591 202.492 332.68 202.492ZM327.955 189.634C327.541 189.634 327.21 189.966 327.21 190.38V200.833C327.21 201.247 327.541 201.579 327.955 201.579H332.68C333.094 201.579 333.426 201.247 333.426 200.833V190.38C333.426 189.966 333.094 189.634 332.68 189.634H327.955Z" fill="black"/>
<path d="M339.144 195.44H338.564C336.741 195.44 335.249 193.947 335.249 192.122V185.818C335.249 183.993 336.741 182.5 338.564 182.5H339.144C340.968 182.5 342.46 183.993 342.46 185.818V192.122C342.46 193.947 340.968 195.44 339.144 195.44Z" fill="white"/>
<path d="M341.3 195.855H336.493C335.581 195.855 334.835 195.109 334.835 194.196V183.744C334.835 182.832 335.581 182.085 336.493 182.085H341.217C342.128 182.085 342.874 182.832 342.874 183.744V194.196C342.874 195.109 342.211 195.855 341.3 195.855ZM336.493 182.997C336.078 182.997 335.747 183.329 335.747 183.744V194.196C335.747 194.611 336.078 194.943 336.493 194.943H341.217C341.631 194.943 341.963 194.611 341.963 194.196V183.744C341.963 183.329 341.631 182.997 341.217 182.997H336.493Z" fill="black"/>
<path d="M260.575 177.771H204.714C202.559 177.771 200.818 176.029 200.818 173.872V143.511C200.818 141.354 202.559 139.612 204.714 139.612H260.575C262.73 139.612 264.47 141.354 264.47 143.511V173.872C264.553 175.946 262.813 177.771 260.575 177.771Z" fill="white"/>
<path d="M260.658 177.854H204.714C202.559 177.854 200.818 176.112 200.818 173.955V143.428C200.818 141.271 202.559 139.529 204.714 139.529H260.741C262.895 139.529 264.636 141.271 264.636 143.428V173.955C264.636 176.029 262.813 177.854 260.658 177.854ZM204.714 139.612C202.642 139.612 200.984 141.271 200.984 143.345V173.872C200.984 175.946 202.642 177.605 204.714 177.605H260.741C262.813 177.605 264.47 175.946 264.47 173.872V143.345C264.47 141.271 262.813 139.612 260.741 139.612H204.714Z" fill="url(#paint10_linear_2787_3303)"/>
<path d="M212.173 152.802C209.852 152.802 207.863 150.894 207.863 148.571C207.863 146.248 209.77 144.34 212.173 144.34C214.577 144.34 216.483 146.248 216.483 148.571C216.483 150.977 214.577 152.802 212.173 152.802ZM212.173 145.17C210.184 145.17 208.609 146.746 208.609 148.654C208.609 150.562 210.184 152.138 212.173 152.138C214.162 152.138 215.737 150.562 215.737 148.654C215.737 146.746 214.162 145.17 212.173 145.17Z" fill="black"/>
<path d="M259.249 145.335H247.646V146.082H259.249V145.335Z" fill="black"/>
<path d="M259.249 147.99H247.646V148.737H259.249V147.99Z" fill="black"/>
<path d="M262.067 171.964H202.891V172.71H262.067V171.964Z" fill="black"/>
<path d="M251.624 169.226C246.983 161.843 244.993 150.147 241.43 149.732C238.197 149.898 238.197 153.382 236.457 153.797C234.965 154.046 234.716 152.386 233.888 151.308C233.307 150.561 231.898 150.561 231.733 151.474C231.07 154.46 231.981 161.18 229.826 161.511C228.5 161.428 228.169 160.184 227.672 159.023C226.594 158.857 227.506 162.59 226.263 162.756C223.776 162.424 223.445 157.613 220.544 157.032C215.405 157.364 216.068 162.922 214.328 162.922C213.416 161.346 213.085 160.184 212.753 160.101C211.344 159.935 211.593 163.668 210.432 163.668C208.443 163.834 207.863 160.433 206.371 160.267C204.88 160.267 205.045 164.83 205.128 169.226H251.624Z" fill="#E3087F"/>
<path d="M251.955 169.392H204.88V168.563C204.797 164.83 204.797 161.346 205.708 160.35C205.874 160.184 206.123 160.101 206.289 160.101C207.035 160.184 207.615 160.931 208.112 161.76C208.692 162.673 209.355 163.585 210.35 163.502C210.764 163.502 211.013 162.673 211.261 161.926C211.51 160.931 211.842 159.852 212.753 159.935H212.836C213.085 160.018 213.333 160.433 213.665 161.18C213.914 161.594 214.162 162.175 214.494 162.839C214.991 162.756 215.24 162.092 215.654 161.18C216.317 159.521 217.312 157.198 220.627 156.949C222.202 157.198 223.03 158.691 223.776 160.101C224.522 161.346 225.185 162.507 226.263 162.673C226.76 162.59 226.843 161.594 226.843 160.765C226.926 160.018 226.926 159.355 227.257 159.023C227.34 158.94 227.506 158.857 227.672 158.94H227.755V159.023C227.837 159.106 227.837 159.272 227.92 159.355C228.335 160.35 228.666 161.346 229.744 161.428C230.987 161.263 231.07 158.193 231.153 155.456C231.235 153.963 231.235 152.552 231.484 151.557C231.567 151.142 231.899 150.81 232.396 150.727C232.976 150.561 233.639 150.81 233.971 151.308C234.219 151.64 234.385 151.972 234.551 152.304C234.965 153.133 235.379 153.88 236.374 153.797C236.954 153.631 237.369 152.967 237.866 152.304C238.529 151.225 239.441 149.815 241.43 149.732C243.585 149.981 245.159 153.88 247.066 158.857C248.392 162.258 249.883 166.157 251.79 169.226L251.955 169.392ZM205.211 169.06H251.292C249.469 165.991 247.977 162.258 246.734 158.857C244.911 154.211 243.419 150.147 241.43 149.898C239.606 149.981 238.86 151.225 238.197 152.304C237.7 153.05 237.286 153.797 236.457 153.963C235.214 154.129 234.716 153.216 234.219 152.304C234.053 151.972 233.888 151.64 233.722 151.391C233.39 150.976 232.893 150.893 232.479 150.976C232.313 150.976 231.981 151.142 231.899 151.557C231.733 152.552 231.65 153.963 231.567 155.373C231.484 158.359 231.401 161.428 229.827 161.677C228.5 161.594 228.086 160.516 227.672 159.438C227.672 159.355 227.589 159.272 227.589 159.189C227.589 159.189 227.589 159.189 227.506 159.189C227.257 159.355 227.257 160.018 227.174 160.682C227.091 161.677 227.009 162.839 226.263 162.922C224.937 162.756 224.274 161.511 223.445 160.184C222.699 158.857 221.87 157.53 220.544 157.281C217.395 157.53 216.566 159.686 215.903 161.263C215.488 162.341 215.157 163.171 214.328 163.171H214.245L214.162 163.088C213.748 162.424 213.499 161.843 213.251 161.346C213.002 160.848 212.836 160.433 212.67 160.35C212.67 160.35 212.67 160.35 212.587 160.35C212.09 160.35 211.842 161.097 211.593 162.092C211.344 163.005 211.096 163.917 210.35 163.917C209.189 164 208.443 162.922 207.78 162.009C207.283 161.263 206.786 160.599 206.206 160.516C206.04 160.516 205.957 160.599 205.874 160.682C205.045 161.511 205.128 165.161 205.128 168.646L205.211 169.06Z" fill="#B51256"/>
<path d="M171.396 182.416H114.541C112.634 182.416 111.143 180.923 111.143 179.015V141.852C111.143 139.944 112.634 138.451 114.541 138.451H171.396C173.303 138.451 174.794 139.944 174.794 141.852V178.932C174.794 180.84 173.303 182.416 171.396 182.416Z" fill="white"/>
<path d="M170.982 182.499H114.955C112.8 182.499 111.06 180.757 111.06 178.601V142.35C111.06 140.193 112.8 138.451 114.955 138.451H170.982C173.137 138.451 174.877 140.193 174.877 142.35V178.601C174.877 180.674 173.137 182.499 170.982 182.499ZM114.955 138.534C112.883 138.534 111.225 140.193 111.225 142.267V178.518C111.225 180.591 112.883 182.251 114.955 182.251H170.982C173.054 182.251 174.711 180.591 174.711 178.518V142.267C174.711 140.193 173.054 138.534 170.982 138.534H114.955Z" fill="url(#paint11_linear_2787_3303)"/>
<path d="M114.872 176.61L114.043 175.946C114.955 174.868 115.783 172.794 116.529 170.72C117.773 167.568 118.85 164.581 120.839 164.498C122.745 164.747 123.74 166.323 124.734 167.899C125.729 169.475 126.641 170.886 128.464 171.135C129.293 171.052 130.039 170.222 130.868 169.227C132.028 167.816 133.52 166.074 136.089 165.908H136.172H136.255C137.581 166.074 138.575 167.153 139.653 168.231C140.896 169.558 142.139 170.886 143.88 170.886C146.035 170.803 147.029 166.24 148.024 161.927C149.35 156.286 150.676 150.479 154.737 150.562H154.82H154.903C156.892 151.06 158.301 153.548 160.041 156.452C161.533 158.94 163.108 161.761 165.346 163.669L164.6 164.498C162.279 162.424 160.621 159.521 159.13 157.032C157.555 154.378 156.229 152.055 154.737 151.64C151.588 151.64 150.344 157.032 149.101 162.176C147.941 167.153 146.863 171.798 143.88 171.964H143.797C141.642 171.964 140.15 170.388 138.907 168.978C137.995 167.982 137.084 167.07 136.255 166.987C134.183 167.153 132.94 168.563 131.779 169.89C130.785 171.052 129.873 172.13 128.547 172.13C126.226 171.881 125.066 170.056 123.989 168.397C123.077 166.987 122.248 165.743 120.922 165.494C119.762 165.577 118.601 168.48 117.607 171.052C116.778 173.125 115.949 175.365 114.872 176.61Z" fill="#E3117F"/>
<path d="M118.353 161.263L117.524 161.014L118.105 158.94L118.933 159.189L118.353 161.263ZM119.431 157.115L118.602 156.866L119.182 154.792L120.011 155.041L119.431 157.115ZM120.508 152.967L119.679 152.719L120.259 150.645L121.088 150.894L120.508 152.967ZM121.586 148.82L120.757 148.571L120.922 147.99L121.751 148.239L121.586 148.82Z" fill="#E3117F"/>
<path d="M145.206 147.576H121.337V148.322H145.206V147.576Z" fill="black"/>
<path d="M145.124 144.423H126.559V145.17H145.124V144.423Z" fill="black"/>
<path d="M170.484 132.063H115.038C112.8 132.063 110.894 130.238 110.894 127.915V92.2449C110.894 90.0051 112.717 88.0972 115.038 88.0972H170.484C172.722 88.0972 174.628 89.9222 174.628 92.2449V127.915C174.628 130.155 172.805 132.063 170.484 132.063Z" fill="white"/>
<path d="M170.816 132.146H114.789C112.634 132.146 110.894 130.404 110.894 128.247V91.996C110.894 89.8392 112.634 88.0972 114.789 88.0972H170.816C172.971 88.0972 174.711 89.8392 174.711 91.996V128.247C174.711 130.404 172.971 132.146 170.816 132.146ZM114.789 88.1801C112.717 88.1801 111.059 89.8392 111.059 91.9131V128.164C111.059 130.238 112.717 131.897 114.789 131.897H170.816C172.888 131.897 174.545 130.238 174.545 128.164V91.9131C174.545 89.8392 172.888 88.1801 170.816 88.1801H114.789Z" fill="url(#paint12_linear_2787_3303)"/>
<path d="M168.495 96.3926H142.471V97.8028H168.495V96.3926Z" fill="black"/>
<path d="M168.495 99.5449H154.405V100.789H168.495V99.5449Z" fill="black"/>
<path d="M168.33 108.587H141.394V109.334H168.33V108.587Z" fill="black"/>
<path d="M168.412 112.154H147.94V113.232H168.412V112.154Z" fill="black"/>
<path d="M168.329 118.956H141.725V120.034H168.329V118.956Z" fill="black"/>
<path d="M162.362 121.776H152.499V123.021H162.362V121.776Z" fill="black"/>
<path d="M126.723 97.3882C120.673 97.5541 118.104 100.955 118.352 106.679C118.85 111.076 122.994 113.067 123.822 118.541C125.812 119.952 127.966 119.786 130.453 118.044C130.95 112.735 135.177 111.739 135.923 106.181C135.674 99.8768 131.447 97.3052 126.723 97.3882Z" fill="#E20E7F"/>
<path d="M130.37 118.044C127.717 119.371 125.645 119.205 123.739 118.542C123.739 121.86 124.402 124.266 126.972 124.266C129.458 123.768 130.37 121.445 130.37 118.044Z" fill="#652265"/>
<path opacity="0.34" d="M124.651 119.371L124.236 106.181L124.319 106.098C124.485 105.932 124.651 105.684 124.899 105.684C125.065 105.684 125.231 105.767 125.397 106.015C125.48 106.098 125.562 106.181 125.645 106.181C125.728 106.181 125.811 106.181 125.894 106.098C126.225 105.684 126.64 105.684 127.054 106.098C127.22 106.264 127.552 106.264 127.717 106.098C128.049 105.767 128.215 105.849 128.712 105.932C128.878 105.932 128.96 106.015 129.209 106.015H129.292L128.546 118.956H128.38L129.126 106.181C128.96 106.181 128.795 106.098 128.712 106.098C128.215 105.932 128.132 105.932 127.883 106.181C127.634 106.43 127.22 106.43 126.971 106.181C126.557 105.767 126.308 106.015 126.06 106.181C125.977 106.264 125.811 106.347 125.645 106.347C125.48 106.347 125.314 106.264 125.231 106.098C125.148 105.932 124.982 105.849 124.899 105.849C124.734 105.849 124.568 106.015 124.402 106.181L124.816 119.288L124.651 119.371Z" fill="#642265"/>
<path opacity="0.66" d="M133.271 100.374C132.028 99.7107 133.685 104.937 133.768 106.679C133.602 110.827 132.691 111.49 131.613 113.066C133.52 110.992 135.011 108.753 135.26 106.015C135.343 104.107 134.597 102.448 133.685 100.789C133.602 100.54 133.437 100.457 133.271 100.374Z" fill="#FBEBEF"/>
<path d="M263.558 133.142H203.139C200.818 133.142 198.912 131.234 198.912 128.911V92.1623C198.912 89.8396 200.818 87.9316 203.139 87.9316H263.558C265.879 87.9316 267.785 89.8396 267.785 92.1623V128.911C267.702 131.234 265.879 133.142 263.558 133.142Z" fill="white"/>
<path d="M263.89 133.225H202.724C200.57 133.225 198.829 131.483 198.829 129.326V91.8305C198.829 89.6737 200.57 87.9316 202.724 87.9316H263.89C266.045 87.9316 267.785 89.6737 267.785 91.8305V129.326C267.785 131.4 266.045 133.225 263.89 133.225ZM202.724 88.0146C200.652 88.0146 198.995 89.6737 198.995 91.7475V129.243C198.995 131.317 200.652 132.976 202.724 132.976H263.89C265.962 132.976 267.619 131.317 267.619 129.243V91.7475C267.619 89.6737 265.962 88.0146 263.89 88.0146H202.724Z" fill="url(#paint13_linear_2787_3303)"/>
<path d="M262.481 121.943H203.305V122.689H262.481V121.943Z" fill="black"/>
<path d="M262.315 98.3838H214.162V99.1304H262.315V98.3838Z" fill="black"/>
<path d="M262.149 112.818H218.803V113.564H262.149V112.818Z" fill="black"/>
<path d="M261.984 105.518H235.214V106.265H261.984V105.518Z" fill="black"/>
<path d="M444.734 225.801L317.762 288.846V292.414L452.939 225.801H444.734Z" fill="#1D1D1B"/>
<path d="M325.967 225.801L452.939 288.846V292.414L317.762 225.801H325.967Z" fill="#1D1D1B"/>
<path d="M456.171 300.128L450.784 300.294L450.949 226.88L322.071 227.129L322.734 300.46H316.85L317.015 220.824H456.171V300.128Z" fill="#3C3B3D"/>
<path d="M338.564 263.297V297.64C338.564 299.88 336.741 301.622 334.586 301.622H300.688C298.45 301.622 296.71 299.797 296.71 297.64V263.297C296.71 261.057 298.533 259.315 300.688 259.315H334.586C336.741 259.315 338.564 261.14 338.564 263.297Z" fill="white"/>
<path d="M300.522 301.705C298.367 301.705 296.627 299.963 296.627 297.806V263.214C296.627 261.057 298.367 259.315 300.522 259.315H334.752C336.907 259.315 338.647 261.057 338.647 263.214V297.806C338.647 299.963 336.907 301.705 334.752 301.705H300.522ZM300.522 259.398C298.45 259.398 296.793 261.057 296.793 263.131V297.806C296.793 299.88 298.45 301.539 300.522 301.539H334.752C336.824 301.539 338.481 299.88 338.481 297.806V263.214C338.481 261.14 336.824 259.481 334.752 259.481H300.522V259.398Z" fill="url(#paint14_linear_2787_3303)"/>
<path d="M317.015 280.054C317.761 280.054 318.341 279.722 318.839 279.141C319.336 278.561 319.585 277.814 319.585 276.984C319.585 276.155 319.336 275.408 318.839 274.828C318.341 274.247 317.678 273.915 317.015 273.915C316.269 273.915 315.689 274.247 315.192 274.828C314.695 275.408 314.446 276.155 314.446 276.984C314.446 277.814 314.695 278.561 315.192 279.141C315.689 279.722 316.269 280.054 317.015 280.054ZM317.015 291.087C319.667 288.266 321.574 285.695 322.9 283.372C324.226 281.049 324.806 279.058 324.806 277.233C324.806 274.496 324.06 272.256 322.568 270.514C321.076 268.772 319.253 267.859 317.015 267.859C314.86 267.859 312.954 268.772 311.462 270.514C309.97 272.256 309.225 274.496 309.225 277.233C309.225 279.058 309.888 281.049 311.131 283.372C312.374 285.695 314.363 288.266 317.015 291.087ZM317.015 295.068C313.534 291.584 310.965 288.432 309.225 285.446C307.484 282.459 306.655 279.722 306.655 277.233C306.655 273.5 307.733 270.431 309.805 268.191C311.877 265.951 314.28 264.873 317.098 264.873C319.833 264.873 322.237 265.951 324.392 268.191C326.464 270.431 327.541 273.417 327.541 277.233C327.541 279.722 326.712 282.459 324.972 285.446C323.066 288.432 320.496 291.667 317.015 295.068Z" fill="#E3087F"/>
<path d="M196.177 309.668H191.121L222.367 117.048H227.008L196.177 309.668Z" fill="#1D1D1B"/>
<path d="M151.588 308.922H146.283L175.954 117.38L181.01 117.131L151.588 308.922Z" fill="#1D1D1B"/>
<path d="M204.879 220.077H163.356V223.146H204.879V220.077Z" fill="#1D1D1B"/>
<path d="M202.641 238.162H160.704V241.48H202.641V238.162Z" fill="#1D1D1B"/>
<path d="M199.161 256.826H157.224V260.144H199.161V256.826Z" fill="#1D1D1B"/>
<path d="M194.519 276.735H152.582V280.054H194.519V276.735Z" fill="#1D1D1B"/>
<path d="M190.956 296.146H149.019V299.465H190.956V296.146Z" fill="#1D1D1B"/>
<path d="M219.3 124.514H178.523V127.583H219.3V124.514Z" fill="#1D1D1B"/>
<path d="M215.736 143.925H174.545V147.243H215.736V143.925Z" fill="#1D1D1B"/>
<path d="M212.67 162.507H171.479V165.825H212.67V162.507Z" fill="#1D1D1B"/>
<path d="M210.017 182.416H168.826V185.734H210.017V182.416Z" fill="#1D1D1B"/>
<path d="M206.206 201.828H165.429V205.312H206.206V201.828Z" fill="#1D1D1B"/>
<path d="M222.615 117.048H219.88L188.552 309.419L191.618 309.668L222.615 117.048Z" fill="#6E6E69"/>
<path d="M146.78 308.673L144.957 308.921L173.882 116.882H176.451L146.78 308.673Z" fill="#6E6E69"/>
<path d="M369.148 125.51C367.656 125.51 366.33 123.353 365.087 121.196L359.948 123.519C360.446 126.339 361.274 128.994 363.015 131.4C366.496 130.985 368.734 129.243 369.148 125.51Z" fill="#FAD58B"/>
<path d="M363.429 113.896L352.737 117.297C354.726 121.611 357.71 124.431 360.777 126.256C363.429 127.003 365.086 124.597 366.495 121.279C367.076 118.127 365.832 115.721 363.429 113.896Z" fill="#FFE9B0"/>
<path d="M366.247 122.523C365.087 122.357 364.755 121.528 365.004 120.367C365.833 119.122 366.164 117.961 365.17 116.965C362.434 115.721 360.114 115.804 358.042 116.965C356.136 118.21 353.981 118.459 351.66 117.878C349.008 113.813 353.649 111.988 356.301 108.753C360.86 107.177 365.087 106.845 367.324 111.822L367.656 116.468C368.236 119.288 368.319 121.777 366.247 122.523Z" fill="#1D1D1B"/>
<path d="M343.869 160.185L336.493 162.258C334.421 163.337 335.996 163.669 339.311 163.752C339.477 163.752 339.56 164 339.394 164.083C337.405 164.996 335.25 166.24 335.084 167.65C335.25 168.397 335.333 168.646 336.244 168.646C336.41 169.31 336.824 169.641 337.57 169.558C337.736 170.222 338.151 170.637 338.896 170.471C339.145 171.052 339.477 171.217 340.057 170.72C341.3 169.558 344.201 165.245 347.267 163.005L343.869 160.185Z" fill="#FFE9B0"/>
<path d="M368.235 125.178C378.181 125.344 385.226 137.621 390.862 155.539C389.287 157.613 387.381 156.783 385.309 154.626C382.242 163.005 371.716 165.908 362.102 159.604C358.29 153.963 361.937 145.999 356.549 145.502C355.555 151.889 353.317 157.696 349.753 163.005C346.521 164 344.2 163.254 342.957 160.682C343.537 152.387 348.676 140.939 353.151 129.657C354.394 127.915 357.627 125.924 361.025 126.09C361.439 128.081 360.859 129.657 363.014 130.155C367.158 129.574 368.318 127.666 368.235 125.178Z" fill="url(#paint15_linear_2787_3303)"/>
<path d="M339.973 163.751L294.887 195.108C292.897 196.518 290.162 196.021 288.836 194.03L272.26 170.139C270.851 168.148 271.349 165.41 273.338 164.083L318.425 132.726C320.414 131.316 323.149 131.814 324.475 133.805L341.051 157.696C342.46 159.604 341.962 162.341 339.973 163.751Z" fill="white"/>
<path d="M292.235 196.187C291.24 196.187 290.246 195.855 289.417 195.108L271.432 169.144C270.686 167.153 271.349 165.245 272.841 164.249L319.419 131.897C321.409 131.15 323.315 131.814 324.309 133.307L341.88 158.691C342.626 160.682 341.963 162.59 340.471 163.586L294.473 195.606C293.81 195.938 293.064 196.187 292.235 196.187ZM320.994 131.731C320.248 131.731 319.502 131.98 318.839 132.395L269.774 166.489L291.24 197.431L340.803 162.922C342.129 161.429 342.211 159.521 341.217 158.111L323.563 132.727C322.9 132.063 321.906 131.731 320.994 131.731Z" fill="url(#paint16_linear_2787_3303)"/>
<path d="M325.884 156.7C325.801 158.276 325.387 159.77 324.558 161.014L330.194 164.166C331.437 162.092 332.183 159.604 332.266 156.949C332.432 151.391 329.614 146.497 325.387 143.842L322.9 150.064C324.724 151.557 325.967 154.046 325.884 156.7Z" fill="#E3087F"/>
<path d="M317.347 171.383C322.735 171.549 327.624 168.646 330.194 164.166L324.558 161.014C323.066 163.42 320.414 164.913 317.513 164.83C313.121 164.664 309.722 161.014 309.722 156.535L303.341 156.369C303.258 164.415 309.474 171.135 317.347 171.383Z" fill="#F095BC"/>
<path d="M309.64 156.203C309.722 152.304 312.458 149.151 315.938 148.322L316.104 141.686C309.059 142.515 303.424 148.488 303.258 156.037C303.258 156.12 303.258 156.203 303.258 156.368L309.64 156.534C309.64 156.451 309.64 156.285 309.64 156.203Z" fill="#642366"/>
<path d="M294.983 156.209L279.268 167.296L279.697 167.906L295.412 156.819L294.983 156.209Z" fill="black"/>
<path d="M300.364 163.905L284.648 174.993L285.078 175.603L300.793 164.516L300.364 163.905Z" fill="black"/>
<path d="M305.022 170.533L289.307 181.621L289.736 182.231L305.452 171.144L305.022 170.533Z" fill="black"/>
<path d="M288.867 163.629L280.727 169.492L281.162 170.098L289.302 164.235L288.867 163.629Z" fill="black"/>
<path d="M300.118 177.413L291.978 183.276L292.413 183.882L300.553 178.019L300.118 177.413Z" fill="black"/>
<path d="M299.2 168.218L286.507 176.975L286.93 177.589L299.623 168.833L299.2 168.218Z" fill="black"/>
<path d="M343.704 154.709L335.996 154.875C333.675 155.373 335.084 156.12 338.399 156.949C338.565 157.032 338.565 157.281 338.399 157.281C336.245 157.696 333.841 158.359 333.344 159.604C333.344 160.35 333.344 160.599 334.255 160.848C334.255 161.512 334.587 161.926 335.333 162.092C335.333 162.839 335.581 163.254 336.41 163.337C336.493 163.917 336.825 164.166 337.488 163.834C338.98 163.005 342.875 159.521 346.439 158.111L343.704 154.709Z" fill="#FFE9B0"/>
<path d="M377.021 129.575C378.928 138.949 366.91 146.829 348.179 160.351C345.527 158.526 343.621 156.12 342.792 153.051C350.666 148.074 358.871 138.119 367.407 132.312" fill="url(#paint17_linear_2787_3303)"/>
<path d="M348.262 160.434C345.444 158.443 343.621 156.037 342.792 153.051V152.968H342.875C346.853 150.479 350.831 146.746 355.058 142.764C359.119 139.031 363.263 135.133 367.49 132.229L367.573 132.395C363.346 135.216 359.202 139.114 355.141 142.847C350.914 146.746 346.936 150.479 342.958 153.051C343.704 155.954 345.444 158.277 348.179 160.185C349.505 159.272 350.748 158.36 351.992 157.447C368.651 145.419 378.762 138.202 376.939 129.492H377.104C377.933 133.639 376.193 137.621 371.468 142.35C367.076 146.746 360.445 151.558 352.075 157.53C350.914 158.526 349.588 159.438 348.262 160.434Z" fill="black"/>
<path d="M386.386 211.699L385.723 216.345L382.159 216.179L381.579 211.202L386.386 211.699Z" fill="#FFE9B0"/>
<path d="M357.71 210.123L356.799 216.179L350.914 215.1L352.157 209.459L357.71 210.123Z" fill="#FFE9B0"/>
<path d="M388.708 155.124C390.78 168.646 388.542 189.716 387.464 212.777L380.171 212.612L374.121 170.139C371.469 184.656 365.998 198.758 358.456 212.446H350.417C353.732 193.366 357.793 175.199 362.517 157.862C370.64 153.963 379.425 153.382 388.708 155.124Z" fill="#1D1D1B"/>
<path d="M385.889 215.1H381.993C381.496 217.091 379.507 218.004 379.673 220.658H386.801C387.132 218.335 385.723 217.423 385.889 215.1Z" fill="#1D1D1B"/>
<path d="M357.876 215.1V221.156L353.566 220.99L353.898 218.17C352.406 218.585 352.323 220.824 349.588 221.239H342.792C342.792 220.078 343.041 218.999 343.869 218.17L347.765 216.925L349.754 214.105C352.323 215.017 354.81 215.1 357.213 214.105L357.876 215.1Z" fill="#1D1D1B"/>
<path d="M288.008 199.919L296.545 193.283C297.042 192.537 296.628 191.956 295.799 192.371L293.644 193.781L295.965 191.126C296.296 190.214 295.716 190.048 295.053 190.38L292.566 192.371L295.053 189.135C295.384 188.057 294.97 187.891 294.141 188.223L291.075 191.458L293.064 188.389C293.561 187.31 293.064 187.144 292.318 187.476L288.588 191.043L287.013 189.052C285.77 187.393 285.107 187.31 285.605 190.463C286.185 192.205 287.345 194.196 286.35 195.274L284.361 197.099L288.008 199.919Z" fill="#FFE9B0"/>
<path d="M279.969 181.255C279.223 182.582 280.466 184.075 280.715 185.983L280.217 188.804L283.781 191.873C284.859 190.878 285.356 189.716 285.19 188.638L279.969 181.255Z" fill="#FFE9B0"/>
<path d="M279.969 187.808L284.03 191.541C281.212 199.505 273.173 206.888 264.056 214.105L261.569 207.883C269.277 200.666 275.576 193.947 279.969 187.808Z" fill="url(#paint18_linear_2787_3303)"/>
<path d="M261.238 229.617C260.658 231.608 261.569 235.341 261.569 239.655L250.712 239.489C250.546 235.756 250.629 232.604 250.712 229.7H261.238V229.617Z" fill="#FFE9B0"/>
<path d="M288.505 200.168C286.599 199.339 285.19 198.178 284.775 196.436C278.476 202.989 272.012 209.21 262.149 210.04C259.994 210.372 256.845 210.87 257.01 208.962C251.706 210.04 250.297 219.497 249.883 230.944L261.818 230.779C263.392 224.391 267.205 222.732 261.983 218.501C273.504 215.764 281.294 208.298 288.505 200.168Z" fill="url(#paint19_linear_2787_3303)"/>
<path d="M256.265 210.289C257.093 209.128 257.674 207.717 257.839 205.809L258.005 198.675H268.034C268.697 202.242 268.614 205.561 267.868 208.298C266.625 209.376 264.47 209.21 261.983 208.464L261.818 211.699L256.265 210.289Z" fill="#FFE9B0"/>
<path d="M268.365 200.5C268.365 193.366 263.061 193.117 257.84 195.108C257.923 189.965 254.773 188.887 251.789 191.209C249.634 193.864 251.292 196.85 256.099 196.933C252.95 201.911 253.033 205.809 258.088 207.966L259.663 205.312C258.834 203.57 258.751 202.242 259.497 201.579C260.906 201.247 261.403 200.832 262.149 202.325L263.061 201.579C262.978 199.588 265.299 197.597 268.365 200.5Z" fill="#1D1D1B"/>
<path d="M229.992 291.003C228.168 291.999 227.008 292.994 226.759 294.156C226.677 294.653 226.842 295.151 227.174 295.483C229.163 297.474 231.069 299.133 232.81 300.46H244.744C245.49 298.635 243.75 297.474 241.678 296.395L229.992 291.003Z" fill="#1D1D1B"/>
<path d="M290.825 300.626C289.085 296.478 286.101 295.151 282.289 295.483L271.266 299.382L272.177 300.792L290.825 300.626Z" fill="#1D1D1B"/>
<path d="M251.044 237.415L261.238 238.162C263.476 241.065 265.382 244.051 265.299 247.618C267.702 251.268 269.774 254.752 270.437 257.656L274.499 267.693C276.322 270.016 277.731 272.256 278.394 274.496L278.725 283.621C282.869 287.271 285.356 291.335 284.444 296.147L273.421 300.792C267.454 300.709 265.382 296.147 265.05 289.925C265.299 287.188 265.216 284.616 264.719 282.459C264.387 281.298 264.304 280.054 264.304 278.892C264.304 275.408 263.061 271.675 261.652 267.776C261.404 267.196 261.238 266.532 261.155 265.868L259.912 257.241C258.503 261.804 257.177 266.366 255.353 268.938C254.939 269.518 254.69 270.182 254.607 270.846C254.276 273.583 253.281 276.155 251.707 278.56C251.375 279.058 251.209 279.722 251.209 280.385C251.209 283.372 250.298 286.192 248.474 288.681C248.143 289.178 247.894 289.676 247.894 290.257C247.48 294.073 246.319 296.976 243.336 297.723C237.7 297.889 232.644 295.234 228.003 289.842C228.583 284.948 231.401 280.634 235.213 276.569C235.794 275.906 236.125 275.076 236.042 274.164C235.711 269.767 236.871 266.449 240.186 264.79C240.932 264.458 241.347 263.712 241.429 262.882C241.678 259.149 243.087 256.577 245.408 255.001C246.237 254.421 246.651 253.508 246.651 252.596C246.402 245.876 247.231 240.318 251.044 237.415Z" fill="url(#paint20_linear_2787_3303)"/>
<path d="M70.0331 226.797H67.8782V225.884H70.0331V226.797ZM65.7234 226.797H63.5685V225.884H65.7234V226.797ZM61.4965 226.797H59.3416V225.884H61.4965V226.797ZM57.1867 226.797H54.7832V226.133H55.1976V225.884H57.1867V226.797ZM70.4475 224.557H69.6187V222.4H70.4475V224.557ZM55.6949 224.059H54.7832V221.903H55.6949V224.059ZM70.4475 220.326H69.6187V218.17H70.4475V220.326ZM55.6949 219.746H54.7832V217.589H55.6949V219.746ZM70.4475 216.013H69.6187V213.856H70.4475V216.013ZM55.6949 215.515H54.7832V213.358H55.6949V215.515ZM70.0331 211.865H68.2098V210.953H70.4475V211.782H70.0331V211.865ZM66.1378 211.865H63.9829V210.953H66.1378V211.865ZM61.828 211.865H59.6731V210.953H61.828V211.865ZM57.5182 211.865H55.3634V210.953H57.5182V211.865Z" fill="#E3117F"/>
<path d="M62.9056 223.396L62.0768 223.064C62.4083 222.4 62.657 221.736 62.9885 221.073L63.8173 221.405C63.4858 222.068 63.1543 222.732 62.9056 223.396ZM60.9165 221.736L59.7562 219.911L60.5021 219.414L61.6624 221.239L60.9165 221.736ZM64.6461 219.497L63.8173 219.082C64.1488 218.418 64.4803 217.755 64.8119 217.174L65.5578 217.589C65.3091 218.252 64.9776 218.833 64.6461 219.497ZM58.5959 218.169L57.4355 216.344L58.1815 215.847L59.3418 217.672L58.5959 218.169ZM66.7181 215.764L65.9722 215.266C66.3866 214.602 66.801 214.022 67.1325 213.441L67.8784 213.939C67.464 214.602 67.0496 215.183 66.7181 215.764ZM69.1216 212.363L68.4586 211.782C68.9559 211.201 69.4531 210.704 69.9504 210.206L70.5306 210.869C70.1162 211.284 69.6189 211.782 69.1216 212.363ZM72.1882 209.542L71.6909 208.796C72.2711 208.381 72.9341 207.966 73.5971 207.634L74.0115 208.464C73.3485 208.796 72.7683 209.127 72.1882 209.542ZM75.9178 207.8L75.6691 206.971C75.9178 206.888 76.1664 206.888 76.4979 206.805L76.6637 207.717C76.4151 207.634 76.1664 207.717 75.9178 207.8Z" fill="white"/>
<path d="M106.667 210.953C107.247 209.46 106.501 207.967 105.258 206.39C105.092 205.81 105.092 205.146 105.341 204.566L106.087 202.492C106.253 201.994 106.253 201.496 106.004 200.998L104.346 197.514C104.015 196.851 104.015 195.938 104.346 195.275C104.844 194.196 105.672 193.284 105.341 191.127C104.761 188.224 103.352 187.892 101.694 187.311C101.114 187.145 100.617 186.73 100.368 186.233C99.1249 183.744 97.2187 181.919 91.9972 182.914C89.2622 183.412 86.8587 185.154 84.9524 188.306C84.7038 188.804 84.4551 189.302 84.3723 189.883L83.9579 192.371C83.7921 193.367 83.2119 194.196 82.3831 194.694L78.8193 196.851C77.9905 197.348 76.6644 198.427 76.7473 199.422L77.2446 201.496C77.4932 202.326 77.4104 203.238 76.996 204.068C75.6699 205.893 73.6808 207.137 74.0123 210.538C74.2609 212.944 75.9185 214.935 78.2392 215.681L106.667 210.953Z" fill="#2B2227"/>
<path d="M77.7412 216.345C73.5144 214.105 73.5144 212.197 73.5972 210.289V209.708C73.9288 207.137 76.0836 205.893 77.5755 205.063C78.2385 204.648 78.7358 204.399 78.7358 204.151L76.498 199.007C76.498 197.182 78.8187 195.026 81.7195 195.026H81.8023V195.109C81.8852 195.274 81.8852 195.357 82.051 195.357C82.3825 195.44 82.9627 194.943 83.6257 194.113C84.9518 192.288 86.0292 189.468 85.2833 187.891C85.6148 183.91 90.4219 182.582 91.8308 182.334C97.218 181.338 99.0414 183.329 100.285 185.652C100.533 186.232 101.611 187.643 102.108 187.809C102.439 187.891 102.854 187.974 103.185 188.057C104.429 188.306 105.755 188.472 106.252 190.795C106.666 193.118 105.589 194.362 104.346 195.689C103.848 196.187 103.848 196.27 104.263 196.934V197.016C103.848 197.68 103.683 198.178 103.848 198.51C104.014 198.759 104.346 199.007 105.009 199.09H105.092V199.173C105.174 199.339 105.589 199.754 106.003 200.086C106.998 200.998 107.578 201.579 107.495 201.911C107.578 203.238 107.329 204.233 106.666 204.814C106.418 205.727 106.252 206.722 106.169 207.635C106.169 208.63 106.252 208.962 106.418 209.211C106.501 209.46 106.666 209.708 106.666 210.289V210.372L77.7412 216.345ZM106.335 210.206C106.252 209.708 106.169 209.46 106.086 209.294C105.92 208.962 105.838 208.63 105.838 207.635C105.755 206.639 106.335 204.814 106.335 204.731C106.998 204.151 107.246 203.238 107.164 201.911C107.246 201.662 106.335 200.749 105.755 200.252C105.34 199.837 104.926 199.505 104.843 199.339C104.18 199.256 103.766 199.007 103.6 198.676C103.434 198.261 103.517 197.763 104.014 197.016C103.683 196.353 103.6 196.187 104.18 195.523C105.423 194.279 106.418 193.118 106.003 190.795C105.589 188.638 104.346 188.389 103.102 188.223C102.688 188.14 102.357 188.057 102.025 187.974C101.362 187.809 100.285 186.232 100.119 185.735C98.9585 183.495 97.218 181.504 91.9137 182.499C90.5047 182.831 85.7806 184.076 85.4491 187.891C86.2779 189.799 84.9518 192.786 83.7915 194.279C83.4599 194.694 82.714 195.689 82.051 195.606C81.9681 195.606 81.8023 195.523 81.7195 195.274C78.9844 195.274 76.7467 197.348 76.7467 199.09L78.9844 204.233C79.0673 204.565 78.57 204.897 77.7412 205.312C76.3323 206.141 74.1774 207.303 73.8459 209.791V210.372C73.763 212.28 73.763 214.105 77.907 216.262L106.335 210.206Z" fill="#2B2227"/>
<path d="M79.2337 213.276L79.3994 213.193C78.5706 211.036 79.2337 209.46 79.8138 207.966C80.2282 207.054 80.5597 206.142 80.5597 205.146C80.394 204.234 80.1453 203.57 79.8967 202.906C79.5652 202.077 79.3165 201.413 79.7309 200.749C80.6426 199.588 82.0516 199.422 83.2119 199.339C84.2893 199.256 85.2839 199.173 85.8641 198.427C86.3613 197.431 86.4442 196.021 86.4442 194.611C86.5271 192.703 86.5271 190.546 87.6874 188.887C89.4279 186.647 91.8314 185.652 95.4781 185.818V185.652C91.8314 185.486 89.345 186.398 87.6045 188.721C86.4442 190.38 86.3613 192.537 86.2785 194.528C86.1956 195.938 86.1956 197.348 85.6983 198.261C85.201 198.924 84.2065 199.007 83.2119 199.09C81.9687 199.256 80.5597 199.339 79.5652 200.584C79.0679 201.33 79.3994 202.077 79.7309 202.906C80.0625 203.57 80.2282 204.317 80.394 205.063C80.394 205.976 79.9796 206.888 79.6481 207.718C79.0679 209.46 78.4049 210.953 79.2337 213.276Z" fill="url(#paint21_linear_2787_3303)"/>
<path d="M86.3613 227.709C86.5271 231.94 86.7757 231.276 87.273 234.512C94.4007 236.088 100.037 235.673 104.595 233.848C104.098 229.617 103.849 230.115 103.683 225.967L86.3613 227.709Z" fill="url(#paint22_linear_2787_3303)"/>
<path d="M114.789 214.603L130.039 214.934C130.37 214.934 130.702 214.768 130.951 214.437L136.669 203.818C137.001 203.155 136.586 202.408 135.841 202.408L119.513 201.745C119.099 201.745 118.767 201.993 118.602 202.325L113.877 213.192C113.712 213.939 114.126 214.603 114.789 214.603Z" fill="url(#paint23_linear_2787_3303)"/>
<path d="M130.122 215.1L114.872 214.768C114.457 214.768 114.126 214.603 113.96 214.271C113.711 213.939 113.711 213.524 113.877 213.192L118.601 202.325C118.767 201.911 119.264 201.579 119.679 201.662L136.006 202.325C136.421 202.325 136.752 202.574 137.001 202.906C137.167 203.238 137.167 203.653 137.001 204.067L131.282 214.686C130.951 214.851 130.536 215.1 130.122 215.1ZM119.513 201.911C119.182 201.911 118.933 202.076 118.767 202.408L114.043 213.275C113.96 213.524 113.96 213.773 114.126 214.022C114.292 214.271 114.54 214.354 114.789 214.354L130.039 214.686C130.37 214.686 130.619 214.52 130.785 214.271L136.503 203.653C136.669 203.404 136.669 203.155 136.503 202.906C136.338 202.657 136.089 202.491 135.84 202.491L119.513 201.911Z" fill="url(#paint24_linear_2787_3303)"/>
<path d="M125.895 216.428C129.873 214.271 131.117 211.616 130.205 207.634C129.956 206.971 129.708 206.888 129.376 207.551C129.128 207.22 129.045 207.386 128.879 208.049C128.63 207.386 128.465 207.717 128.299 208.713C127.967 207.966 127.719 208.547 127.47 209.625C127.304 210.538 127.221 211.45 126.807 211.865C126.31 212.363 125.481 212.28 124.569 212.943C123.989 213.607 123.657 214.437 123.74 215.515C121.088 217.008 124.652 219.58 125.895 216.428Z" fill="#F3A07D"/>
<path d="M75.6696 227.959L91.1682 228.954C92.8258 229.037 93.4059 228.788 93.2402 228.29C90.9195 228.124 93.2402 224.889 93.9032 225.719C95.395 224.723 99.7877 225.387 103.766 225.885C103.766 224.391 103.932 222.898 104.263 221.488C109.07 218.668 106.169 212.778 102.523 206.639C100.948 205.561 99.2904 204.731 97.5499 204.068C95.1464 203.57 92.66 203.072 89.8421 204.4L84.5378 206.639C80.3109 210.372 76.8299 217.423 73.5976 224.06C73.2661 225.968 73.349 227.627 75.6696 227.959ZM81.637 223.23C82.9631 221.654 84.0405 219.995 85.035 218.253L85.8638 223.894C84.372 223.479 82.8802 223.147 81.637 223.23Z" fill="url(#paint25_linear_2787_3303)"/>
<path d="M91.3343 204.234C91.1685 203.902 90.4226 204.068 90.0082 204.4C89.6767 205.395 90.6713 209.211 94.8152 209.211C98.5448 209.045 100.037 206.473 98.0476 204.4L91.3343 204.234Z" fill="#1F1F1D"/>
<path d="M91.334 204.233V201.33L97.6329 204.068C98.1301 205.81 96.9698 207.469 95.0636 207.635C93.2402 207.718 91.334 206.888 91.334 204.233Z" fill="#F3A07D"/>
<path d="M91.334 201.33V199.588C93.2402 202.491 95.2293 203.57 97.4671 202.823L97.6329 203.984C95.2293 204.565 93.0745 203.902 91.334 201.33Z" fill="#E07753"/>
<path d="M91.3336 199.671C92.9084 202.575 94.566 203.736 97.4668 202.906C101.694 200.335 102.191 196.021 101.528 191.127L91.8309 194.86C91.3336 196.187 91.1679 197.763 91.3336 199.671Z" fill="#F3A07D"/>
<path d="M100.699 189.799C101.114 190.214 101.445 190.629 101.528 191.127C99.6218 194.03 95.5607 193.698 91.8311 194.86C92.3283 193.864 94.0688 193.864 95.7264 192.952C97.6326 192.371 99.3731 191.292 100.699 189.799Z" fill="#E07753"/>
<path d="M104.264 221.488C105.341 223.147 106.75 224.557 108.325 225.884C112.469 227.792 125.895 218.999 125.398 217.34C124.155 216.594 124.238 215.764 124.072 215.266C123.492 213.11 113.795 219.165 110.977 219.912C108.159 214.105 105.424 208.547 102.523 206.556C104.429 212.612 108.408 218.087 104.264 221.488ZM85.8642 223.894C89.0136 224.142 90.9199 224.972 93.4063 225.636C95.8098 226.216 103.932 234.097 103.766 225.967C98.6277 221.571 87.7704 227.544 85.2012 217.755L85.8642 223.894Z" fill="#1F1F1D"/>
<path d="M93.0745 228.124C97.6329 231.359 99.8707 230.364 102.937 228.29C103.517 227.709 103.186 227.461 102.689 227.461C102.937 227.212 102.606 227.046 102.026 227.212C102.44 226.714 102.108 226.714 101.197 226.963C101.694 226.465 101.28 226.382 100.036 226.548L98.2959 226.963C97.7987 227.046 97.3014 226.88 97.0528 226.465C96.1411 225.221 94.7321 224.723 93.0745 225.719C91.1683 224.557 91.0025 228.373 93.0745 228.124Z" fill="#F3A07D"/>
<path d="M86.3611 267.03L84.9521 295.815L93.4888 295.317C96.2238 280.883 98.9589 255.665 97.8814 248.78C101.86 262.633 97.0526 281.049 100.451 295.649L111.474 295.151C106.335 276.653 111.474 245.959 103.517 232.355L87.3557 234.429C81.8856 244.964 88.7646 252.845 86.3611 267.03Z" fill="#1E1E1C"/>
<path d="M103.269 294.571L102.605 299.05V303.53H103.766L104.014 300.461C104.843 302.451 105.755 304.359 107.33 305.604C113.214 306.765 114.126 304.442 111.308 301.622C109.899 301.041 109.236 300.212 108.739 299.299C108.241 297.889 108.241 296.313 108.241 294.571H103.269Z" fill="#1E1E1C"/>
<path d="M86.6093 295.234L85.9463 299.714V304.193H87.1066L87.3553 301.124C88.1841 303.115 89.0957 305.023 90.6704 306.267C96.5549 307.429 97.4666 305.106 94.6487 302.285C93.2397 301.705 92.5767 300.875 92.0794 299.963C91.5821 298.553 91.5821 296.976 91.5821 295.234H86.6093Z" fill="#1E1E1C"/>
<path d="M190.955 123.518C189.297 124.265 188.137 123.933 187.143 123.187L188.303 113.564L191.535 114.808C192.944 119.205 192.778 122.025 190.955 123.518Z" fill="#FFE9B0"/>
<path d="M187.888 121.942H182.004V127.832H187.888V121.942Z" fill="#FFE9B0"/>
<path d="M192.364 114.062C192.696 116.219 192.53 116.55 190.955 115.887C190.126 115.472 189.463 115.555 188.966 116.219C188.22 117.297 188.469 120.366 188.635 123.353H181.838C179.684 120.283 178.855 117.38 179.518 114.642C180.678 111.075 183.496 109.831 187.391 110.163C189.795 110.661 191.867 111.49 192.364 114.062Z" fill="#1D1D1B"/>
<path d="M206.288 112.652C207.365 113.896 208.94 114.062 210.763 113.398L211.095 109.997C211.841 107.508 214.078 105.435 212.504 103.195C211.509 102.282 210.183 102.116 208.608 102.282L208.277 99.213C207.697 97.8858 207.199 98.2176 206.868 99.3789L206.536 102.946C206.453 105.103 206.288 107.094 205.459 106.513C204.547 105.766 203.801 106.845 204.547 108.836C205.127 109.582 205.459 111.158 206.288 112.652Z" fill="#FFEAB1"/>
<path d="M166.754 162.922L169.406 169.641C170.318 171.632 170.152 172.876 168.329 170.72C168.163 170.471 167.749 170.637 167.832 170.968C167.832 172.462 167.914 173.042 167.5 174.37C166.837 174.784 166.588 174.867 166.008 174.204C165.428 174.536 164.931 174.453 164.434 173.872C163.853 174.204 163.273 174.204 162.859 173.54C162.279 173.706 161.864 173.623 161.864 172.876C161.864 171.134 163.025 166.074 162.527 162.258L166.754 162.922Z" fill="#FFE9B0"/>
<path d="M181.341 124.099C181.921 125.012 187.474 125.51 188.635 124.265C190.624 124.597 192.447 126.09 194.188 126.92C200.569 125.676 202.061 119.454 205.459 111.739C207.366 112.569 209.272 112.984 211.012 112.735C210.681 122.855 205.791 129.077 196.342 136.045C197.42 143.345 197.669 155.373 197.751 164.249C188.883 168.231 179.932 168.978 170.815 166.074C170.898 155.622 171.81 146.165 174.214 138.782C172.059 142.349 170.318 146.082 169.407 149.815C168.826 152.885 168.826 159.355 168.909 166.074C166.671 166.821 164.517 166.572 162.279 165.742C162.196 158.028 161.947 149.732 163.025 146.829C166.34 139.197 168.743 131.814 174.628 127.335C176.617 126.007 179.352 124.597 181.341 124.099Z" fill="url(#paint26_linear_2787_3303)"/>
<path d="M172.224 165.825C170.235 175.946 169.241 194.361 168.329 213.275L176.368 213.773C178.855 197.099 181.424 181.587 183.828 170.554C185.319 181.172 190.044 197.763 195.265 215.183L202.973 213.773C200.652 194.03 198.166 175.199 195.099 164.332L172.224 165.825Z" fill="#1D1D1B"/>
<path d="M169.407 213.192L173.716 213.69C173.716 215.681 176.203 217.34 175.54 220.326H167.003C166.672 215.1 168.827 215.349 169.407 213.192Z" fill="#1D1D1B"/>
<path d="M196.094 214.602L196.26 220.16L203.139 220.077L203.802 215.515C202.144 214.353 202.724 214.353 201.978 213.358L196.094 214.602Z" fill="#1D1D1B"/>
<path d="M330.608 41.0623C333.177 37.91 335.083 34.343 336.161 30.3612L371.219 30.1953C373.291 30.1953 374.865 28.5362 374.865 26.4623V5.1431C374.865 3.06924 373.208 1.41016 371.136 1.41016H330.027C327.955 1.41016 326.298 3.06924 326.298 5.1431V26.5453C326.298 28.6191 328.038 30.3612 330.11 30.2782H330.939C331.354 33.0157 331.105 36.9146 330.608 41.0623Z" fill="white"/>
<path d="M338.067 7.54883H332.183V25.7158H338.067V7.54883Z" fill="#E3117F"/>
<path d="M347.929 10.7842H342.542V25.633H347.929V10.7842Z" fill="#642366"/>
<path d="M357.544 13.6045H351.825V25.7158H357.544V13.6045Z" fill="#A95F9A"/>
<path d="M367.738 7.38281H362.02V25.5498H367.738V7.38281Z" fill="#F095BC"/>
<path d="M362.766 99.7112L362.434 97.2226C362.268 97.1396 362.103 97.0567 361.937 96.9737C361.771 96.8908 361.605 96.8078 361.522 96.6419L359.202 97.6374L357.047 93.9874L359.036 92.4942C359.036 92.4113 359.036 92.3283 359.036 92.2453V91.7476C359.036 91.6647 359.036 91.5817 359.036 91.4988L357.047 90.0056L359.202 86.3556L361.522 87.351C361.688 87.2681 361.854 87.1851 361.937 87.0192C362.02 86.8533 362.268 86.8533 362.434 86.7704L362.766 84.2817H366.992L367.324 86.7704C367.49 86.8533 367.656 86.9363 367.821 87.0192C367.987 87.1022 368.153 87.1851 368.236 87.351L370.556 86.3556L372.711 90.0056L370.722 91.4988C370.722 91.5817 370.722 91.6647 370.722 91.7476V92.2453C370.722 92.3283 370.722 92.4113 370.722 92.4942L372.711 93.9874L370.556 97.6374L368.236 96.6419C368.07 96.7249 367.904 96.8078 367.821 96.9737C367.656 97.0567 367.49 97.1396 367.324 97.2226L366.992 99.7112H362.766ZM364.092 98.1351H365.584L365.832 96.0612C366.247 95.9783 366.578 95.8124 366.91 95.6465C367.241 95.4806 367.573 95.2317 367.821 94.8999L369.728 95.7294L370.473 94.4022L368.816 93.1578C368.899 92.9919 368.899 92.826 368.982 92.5772C368.982 92.4113 368.982 92.1624 368.982 91.9965C368.982 91.8306 368.982 91.5817 368.982 91.4158C368.982 91.2499 368.899 91.001 368.816 90.8351L370.473 89.5908L369.728 88.2635L367.821 89.0931C367.573 88.7613 367.241 88.5124 366.91 88.3465C366.578 88.1806 366.164 88.0147 365.832 87.9317L365.584 85.8579H364.092L363.843 87.9317C363.429 88.0147 363.097 88.1806 362.766 88.3465C362.434 88.5124 362.103 88.7613 361.854 89.0931L359.948 88.2635L359.202 89.5908L360.859 90.8351C360.776 91.001 360.776 91.2499 360.694 91.4158C360.694 91.5817 360.694 91.8306 360.694 91.9965C360.694 92.1624 360.694 92.4113 360.694 92.5772C360.694 92.7431 360.776 92.9919 360.859 93.1578L359.202 94.4022L359.948 95.7294L361.854 94.8999C362.103 95.2317 362.434 95.4806 362.766 95.6465C363.097 95.8124 363.512 95.9783 363.843 96.0612L364.092 98.1351ZM364.92 94.651C365.666 94.651 366.329 94.4022 366.827 93.8215C367.324 93.3238 367.656 92.6601 367.656 91.9135C367.656 91.1669 367.407 90.5033 366.827 90.0056C366.329 89.5079 365.666 89.176 364.92 89.176C364.175 89.176 363.512 89.4249 363.014 90.0056C362.517 90.5033 362.268 91.1669 362.268 91.9135C362.268 92.6601 362.517 93.3238 363.014 93.8215C363.512 94.4022 364.175 94.651 364.92 94.651Z" fill="#E3087F"/>
<defs>
<linearGradient id="paint0_linear_2787_3303" x1="228.589" y1="264.845" x2="257.481" y2="264.845" gradientUnits="userSpaceOnUse">
<stop stop-color="#FBEBEF"/>
<stop offset="1" stop-color="#642366"/>
</linearGradient>
<linearGradient id="paint1_linear_2787_3303" x1="163.671" y1="294.655" x2="304.742" y2="294.655" gradientUnits="userSpaceOnUse">
<stop stop-color="#FBEBEF"/>
<stop offset="1" stop-color="#642366"/>
</linearGradient>
<linearGradient id="paint2_linear_2787_3303" x1="96.0895" y1="154.084" x2="389.612" y2="154.084" gradientUnits="userSpaceOnUse">
<stop stop-color="#FBEBEF"/>
<stop offset="1" stop-color="#642366"/>
</linearGradient>
<linearGradient id="paint3_linear_2787_3303" x1="101.072" y1="154.083" x2="383.57" y2="154.083" gradientUnits="userSpaceOnUse">
<stop stop-color="#EDC3DC"/>
<stop offset="0.529" stop-color="white"/>
<stop offset="1" stop-color="#EDC3DC"/>
</linearGradient>
<linearGradient id="paint4_linear_2787_3303" x1="100.983" y1="154.083" x2="383.659" y2="154.083" gradientUnits="userSpaceOnUse">
<stop stop-color="#642366"/>
<stop offset="1" stop-color="#E1A8CD"/>
</linearGradient>
<linearGradient id="paint5_linear_2787_3303" x1="111.06" y1="203.082" x2="306.348" y2="203.082" gradientUnits="userSpaceOnUse">
<stop stop-color="#642366"/>
<stop offset="1" stop-color="#E1A8CD"/>
</linearGradient>
<linearGradient id="paint6_linear_2787_3303" x1="301.328" y1="102.25" x2="337.332" y2="79.2513" gradientUnits="userSpaceOnUse">
<stop stop-color="#642366"/>
<stop offset="1" stop-color="#E1A8CD"/>
</linearGradient>
<linearGradient id="paint7_linear_2787_3303" x1="280.768" y1="59.3008" x2="321.768" y2="59.3008" gradientUnits="userSpaceOnUse">
<stop stop-color="#1D1E1C"/>
<stop offset="1" stop-color="#727270"/>
</linearGradient>
<linearGradient id="paint8_linear_2787_3303" x1="399.979" y1="222.45" x2="399.979" y2="193.007" gradientUnits="userSpaceOnUse">
<stop stop-color="#642366"/>
<stop offset="1" stop-color="#E1A8CD"/>
</linearGradient>
<linearGradient id="paint9_linear_2787_3303" x1="329.874" y1="216.381" x2="329.874" y2="170.327" gradientUnits="userSpaceOnUse">
<stop stop-color="#642366"/>
<stop offset="1" stop-color="#E1A8CD"/>
</linearGradient>
<linearGradient id="paint10_linear_2787_3303" x1="200.767" y1="158.634" x2="264.615" y2="158.634" gradientUnits="userSpaceOnUse">
<stop stop-color="#642366"/>
<stop offset="1" stop-color="#E1A8CD"/>
</linearGradient>
<linearGradient id="paint11_linear_2787_3303" x1="111.06" y1="160.42" x2="174.908" y2="160.42" gradientUnits="userSpaceOnUse">
<stop stop-color="#642366"/>
<stop offset="1" stop-color="#E1A8CD"/>
</linearGradient>
<linearGradient id="paint12_linear_2787_3303" x1="110.881" y1="110.081" x2="174.729" y2="110.081" gradientUnits="userSpaceOnUse">
<stop stop-color="#642366"/>
<stop offset="1" stop-color="#E1A8CD"/>
</linearGradient>
<linearGradient id="paint13_linear_2787_3303" x1="198.805" y1="110.528" x2="267.825" y2="110.528" gradientUnits="userSpaceOnUse">
<stop stop-color="#642366"/>
<stop offset="1" stop-color="#E1A8CD"/>
</linearGradient>
<linearGradient id="paint14_linear_2787_3303" x1="317.539" y1="301.716" x2="317.539" y2="259.222" gradientUnits="userSpaceOnUse">
<stop stop-color="#642366"/>
<stop offset="1" stop-color="#E1A8CD"/>
</linearGradient>
<linearGradient id="paint15_linear_2787_3303" x1="343.086" y1="144.301" x2="390.883" y2="144.301" gradientUnits="userSpaceOnUse">
<stop stop-color="#402051"/>
<stop offset="0.2164" stop-color="#32173C"/>
<stop offset="0.4533" stop-color="#28192A"/>
<stop offset="0.7062" stop-color="#201D1F"/>
<stop offset="1" stop-color="#1E1E1C"/>
</linearGradient>
<linearGradient id="paint16_linear_2787_3303" x1="280.489" y1="182.171" x2="332.941" y2="145.736" gradientUnits="userSpaceOnUse">
<stop stop-color="#642366"/>
<stop offset="1" stop-color="#E1A8CD"/>
</linearGradient>
<linearGradient id="paint17_linear_2787_3303" x1="342.909" y1="144.934" x2="377.267" y2="144.934" gradientUnits="userSpaceOnUse">
<stop stop-color="#402051"/>
<stop offset="0.2164" stop-color="#32173C"/>
<stop offset="0.4533" stop-color="#28192A"/>
<stop offset="0.7062" stop-color="#201D1F"/>
<stop offset="1" stop-color="#1E1E1C"/>
</linearGradient>
<linearGradient id="paint18_linear_2787_3303" x1="261.583" y1="200.94" x2="284.028" y2="200.94" gradientUnits="userSpaceOnUse">
<stop stop-color="#402051"/>
<stop offset="0.2164" stop-color="#32173C"/>
<stop offset="0.4533" stop-color="#28192A"/>
<stop offset="0.7062" stop-color="#201D1F"/>
<stop offset="1" stop-color="#1E1E1C"/>
</linearGradient>
<linearGradient id="paint19_linear_2787_3303" x1="249.812" y1="213.614" x2="288.513" y2="213.614" gradientUnits="userSpaceOnUse">
<stop stop-color="#402051"/>
<stop offset="0.2164" stop-color="#32173C"/>
<stop offset="0.4533" stop-color="#28192A"/>
<stop offset="0.7062" stop-color="#201D1F"/>
<stop offset="1" stop-color="#1E1E1C"/>
</linearGradient>
<linearGradient id="paint20_linear_2787_3303" x1="228.054" y1="269.04" x2="284.777" y2="269.04" gradientUnits="userSpaceOnUse">
<stop stop-color="#402051"/>
<stop offset="0.2164" stop-color="#32173C"/>
<stop offset="0.4533" stop-color="#28192A"/>
<stop offset="0.7062" stop-color="#201D1F"/>
<stop offset="1" stop-color="#1E1E1C"/>
</linearGradient>
<linearGradient id="paint21_linear_2787_3303" x1="95.5058" y1="199.448" x2="78.8211" y2="199.448" gradientUnits="userSpaceOnUse">
<stop stop-color="#E3177F" stop-opacity="0"/>
<stop offset="0.5" stop-color="#E3177F"/>
<stop offset="1" stop-color="#E3177F" stop-opacity="0.8"/>
</linearGradient>
<linearGradient id="paint22_linear_2787_3303" x1="104.671" y1="230.713" x2="86.4004" y2="230.713" gradientUnits="userSpaceOnUse">
<stop stop-color="#1F1F1D"/>
<stop offset="1" stop-color="#737371"/>
</linearGradient>
<linearGradient id="paint23_linear_2787_3303" x1="113.872" y1="208.354" x2="136.825" y2="208.354" gradientUnits="userSpaceOnUse">
<stop stop-color="#FBEBEF"/>
<stop offset="1" stop-color="#642366"/>
</linearGradient>
<linearGradient id="paint24_linear_2787_3303" x1="113.694" y1="208.354" x2="137.003" y2="208.354" gradientUnits="userSpaceOnUse">
<stop stop-color="#642366"/>
<stop offset="1" stop-color="#E1A8CD"/>
</linearGradient>
<linearGradient id="paint25_linear_2787_3303" x1="106.796" y1="216.297" x2="73.5176" y2="216.297" gradientUnits="userSpaceOnUse">
<stop stop-color="#1F1F1D"/>
<stop offset="1" stop-color="#737371"/>
</linearGradient>
<linearGradient id="paint26_linear_2787_3303" x1="162.137" y1="139.814" x2="210.99" y2="139.814" gradientUnits="userSpaceOnUse">
<stop stop-color="#402051"/>
<stop offset="0.2164" stop-color="#32173C"/>
<stop offset="0.4533" stop-color="#28192A"/>
<stop offset="0.7062" stop-color="#201D1F"/>
<stop offset="1" stop-color="#1E1E1C"/>
</linearGradient>
</defs>
</svg>
