<svg width="428" height="408" viewBox="0 0 428 408" fill="none" xmlns="http://www.w3.org/2000/svg">
<path d="M305.379 337.32C319.534 337.32 331.009 332.821 331.009 327.271C331.009 321.721 319.534 317.222 305.379 317.222C291.224 317.222 279.749 321.721 279.749 327.271C279.749 332.821 291.224 337.32 305.379 337.32Z" fill="#90798F"/>
<path d="M377.745 397.616C404.991 397.616 427.078 385.168 427.078 369.813C427.078 354.458 404.991 342.01 377.745 342.01C350.499 342.01 328.412 354.458 328.412 369.813C328.412 385.168 350.499 397.616 377.745 397.616Z" fill="#90798F"/>
<path d="M212.827 406.493C250.204 406.493 280.503 393.22 280.503 376.847C280.503 360.475 250.204 347.202 212.827 347.202C175.451 347.202 145.151 360.475 145.151 376.847C145.151 393.22 175.451 406.493 212.827 406.493Z" fill="#90798F"/>
<path d="M148.753 280.626L149.758 275.601L238.457 246.123C241.64 247.882 242.896 251.483 242.226 257.01L179.659 296.453C176.058 297.542 173.21 296.788 170.865 294.778L148.753 280.626Z" fill="#642366"/>
<path d="M275.477 17C285.193 20.4335 289.13 25.9606 288.041 33.2463L85.6833 319.232C76.6375 323.419 69.0156 317.305 66.6704 310.857L64.3252 153.67C65.079 147.054 68.2618 141.527 74.2086 137.256L275.477 17Z" fill="#642366"/>
<path d="M217.685 234.147L238.541 246.039C241.388 247.63 241.472 251.901 238.708 253.744L178.905 292.517C177.565 293.354 175.89 293.354 174.55 292.433L149.758 275.517L217.685 234.147Z" fill="url(#paint0_linear_3730_27184)"/>
<path d="M277.488 26.7147L76.8887 146.05C74.711 147.39 73.2871 149.902 73.2871 152.665L74.9623 312.7C74.9623 318.562 80.909 322.247 85.5994 319.316L286.45 194.119C288.627 192.779 290.051 190.183 289.967 187.419L288.125 33.2467C288.041 27.3847 282.178 23.7837 277.488 26.7147Z" fill="url(#paint1_linear_3730_27184)"/>
<path d="M283.351 30.5664L79.9043 152.414L81.1607 309.182L285.445 184.906L283.351 30.5664Z" fill="url(#paint2_linear_3730_27184)"/>
<path d="M339.971 62.6407C356.022 62.6407 369.035 49.3306 369.035 32.9117C369.035 16.4928 356.022 3.18262 339.971 3.18262C323.92 3.18262 310.907 16.4928 310.907 32.9117C310.907 49.3306 323.92 62.6407 339.971 62.6407Z" fill="#E3087F"/>
<path d="M339.971 56.6954C352.785 56.6954 363.172 46.0473 363.172 32.9122C363.172 19.777 352.785 9.12891 339.971 9.12891C327.158 9.12891 316.771 19.777 316.771 32.9122C316.771 46.0473 327.158 56.6954 339.971 56.6954Z" fill="white"/>
<path d="M340.177 32.4602L327.781 39.9619L328.735 41.5381L341.132 34.0363L340.177 32.4602Z" fill="#1D1E1C"/>
<path d="M338.962 17.213L339.323 34.7119L340.914 34.6791L340.553 17.1801L338.962 17.213Z" fill="#1D1E1C"/>
<path d="M340.808 11.1387H338.966V15.0746H340.808V11.1387Z" fill="#1D1E1C"/>
<path d="M330.758 14.5723H328.664V16.6659H330.758V14.5723Z" fill="#1D1E1C"/>
<path d="M323.387 21.6904H321.293V23.784H323.387V21.6904Z" fill="#1D1E1C"/>
<path d="M351.279 14.0693H349.185V16.1629H351.279V14.0693Z" fill="#1D1E1C"/>
<path d="M358.649 21.4385H356.555V23.5321H358.649V21.4385Z" fill="#1D1E1C"/>
<path d="M358.649 42.207H356.555V44.3006H358.649V42.207Z" fill="#1D1E1C"/>
<path d="M351.529 49.5771H349.436V51.6707H351.529V49.5771Z" fill="#1D1E1C"/>
<path d="M331.344 49.3252H329.25V51.4188H331.344V49.3252Z" fill="#1D1E1C"/>
<path d="M323.387 42.207H321.293V44.3006H323.387V42.207Z" fill="#1D1E1C"/>
<path d="M318.702 32.2319V34.0742H322.639V32.2319H318.702Z" fill="#1D1E1C"/>
<path d="M357.116 32.2026V34.0449H361.053V32.2026H357.116Z" fill="#1D1E1C"/>
<path d="M341.059 50.0791H339.217V54.0151H341.059V50.0791Z" fill="#1D1E1C"/>
<path d="M98.1639 31.4873L104.948 34.9208L46.0668 140.857L40.4551 137.842V64.8174L98.1639 31.4873Z" fill="#642366"/>
<path d="M104.948 34.9209L46.0664 68.6697V140.857L104.529 107.527L104.948 34.9209Z" fill="#FCEBEE"/>
<path d="M306.217 44.2168L302.448 42.5419C301.024 41.9557 299.432 42.0395 298.092 42.7932L103.775 154.842C102.351 155.68 101.346 157.187 101.262 158.778L101.179 159.783L106.204 162.128L306.217 44.2168Z" fill="url(#paint3_linear_3730_27184)"/>
<path d="M101.263 158.778L106.791 161.039V296.621L102.854 293.69C102.017 293.103 101.514 292.099 101.514 291.094L101.263 158.778Z" fill="#632264"/>
<path d="M304.877 44.8033L108.466 158.109C107.042 158.946 106.121 160.454 106.121 162.128L105.199 293.104C105.199 296.202 108.466 298.128 111.146 296.537L306.971 183.567C308.143 182.897 308.897 181.557 308.897 180.133L308.227 46.7294C308.311 45.0546 306.384 43.9659 304.877 44.8033Z" fill="url(#paint4_linear_3730_27184)"/>
<path d="M305.295 47.9014L109.471 161.458V294.359L305.965 180.803L305.295 47.9014Z" fill="#80358A"/>
<path d="M287.873 70.0938L276.817 76.2071V79.4731L287.873 73.1923V70.0938Z" fill="white"/>
<path d="M287.873 75.1182L276.817 81.4827V84.5812L287.873 78.2167V75.1182Z" fill="white"/>
<path d="M287.873 80.1426L276.817 86.5071V89.6056L287.873 83.2411V80.1426Z" fill="white"/>
<path d="M287.873 85.6699L276.817 92.0345V95.3005L287.873 88.7684V85.6699Z" fill="white"/>
<path d="M287.706 64.9014L276.65 71.0147V74.2807L287.706 67.9999V64.9014Z" fill="#E3147F"/>
<path d="M287.538 104.094L276.482 110.207V113.473L287.538 107.192V104.094Z" fill="#E3147F"/>
<path d="M287.371 98.9014L276.315 105.015V108.281L287.371 102V98.9014Z" fill="white"/>
<path d="M287.79 123.354L276.734 129.719V132.734L287.79 126.369V123.354Z" fill="white"/>
<path d="M287.79 128.882L276.734 135.246V138.512L287.79 131.98V128.882Z" fill="white"/>
<path d="M287.538 148.311L276.482 154.424V157.69L287.538 151.325V148.311Z" fill="white"/>
<path d="M287.538 153.335L276.482 159.699V162.714L287.538 156.433V153.335Z" fill="white"/>
<path d="M287.538 158.359L276.482 164.724V167.739L287.538 161.458V158.359Z" fill="white"/>
<path d="M287.538 163.887L276.482 170.251V173.517L287.538 166.985V163.887Z" fill="white"/>
<path d="M287.371 143.118L276.315 149.231V152.497L287.371 146.133V143.118Z" fill="#E3147F"/>
<path d="M287.873 182.562L276.817 188.675V192.025L287.873 185.66V182.562Z" fill="#E3147F"/>
<path d="M287.706 177.369L276.65 183.566V186.832L287.706 180.468V177.369Z" fill="white"/>
<path d="M299.516 57.7832L294.239 60.6305V66.2413L299.6 63.5615L299.516 57.7832Z" fill="#652264"/>
<path d="M299.516 64.6504L294.239 67.4139V73.0248L299.6 70.4287L299.516 64.6504Z" fill="#652264"/>
<path d="M299.516 71.7686L294.239 74.5321V80.1429L299.6 77.4631L299.516 71.7686Z" fill="#652264"/>
<path d="M299.516 78.5518L294.239 81.399V87.0099L299.6 84.3301L299.516 78.5518Z" fill="#652264"/>
<path d="M299.516 85.335L294.239 88.1823V93.7931L299.6 91.1133L299.516 85.335Z" fill="#652264"/>
<path d="M299.516 92.2021L294.239 94.9657V100.577L299.6 97.9805L299.516 92.2021Z" fill="#652264"/>
<path d="M299.516 99.3203L294.239 102.084V107.695L299.6 105.015L299.516 99.3203Z" fill="#652264"/>
<path d="M299.516 106.104L294.239 108.951V114.562L299.6 111.882L299.516 106.104Z" fill="#652264"/>
<path d="M299.516 112.971L294.239 115.734V121.345L299.6 118.665L299.516 112.971Z" fill="#652264"/>
<path d="M299.516 119.754L294.239 122.517V128.212L299.6 125.532L299.516 119.754Z" fill="#652264"/>
<path d="M299.516 126.872L294.239 129.636V135.33L299.6 132.65L299.516 126.872Z" fill="#652264"/>
<path d="M299.516 133.655L294.239 136.503V142.113L299.6 139.434L299.516 133.655Z" fill="#652264"/>
<path d="M269.028 85.5029L253.784 94.0448V97.3108L269.028 88.6015V85.5029Z" fill="#EF95BC"/>
<path d="M269.363 163.803L254.119 172.345V175.611L269.363 166.901" fill="#EF95BC"/>
<path d="M237.619 176.951L219.695 187.503V190.769L237.619 180.05" fill="#E3147F"/>
<path d="M237.619 98.6504L219.695 109.118V112.384L237.619 101.749" fill="#E3147F"/>
<path d="M259.313 164.39L241.473 174.858V178.124L259.313 167.488" fill="white"/>
<path d="M258.307 86.5908L240.467 97.0588V100.325L258.307 89.6056" fill="white"/>
<path d="M272.043 73.8623L254.119 84.3303V87.5963L272.043 76.9608" fill="white"/>
<path d="M251.942 85.4189L223.381 101.916V105.182L251.942 88.5175" fill="white"/>
<path d="M251.607 95.4678L209.059 120.256V123.606L251.607 98.4826" fill="white"/>
<path d="M272.378 88.6006L202.692 128.463V131.729L272.378 91.6991" fill="white"/>
<path d="M272.713 93.458L203.027 133.32V136.586L272.713 96.5565" fill="#98C01F"/>
<path d="M261.658 104.345L233.097 120.759V124.108L261.658 107.36" fill="white"/>
<path d="M230.918 122.015L208.723 134.827V138.093L230.918 125.113" fill="white"/>
<path d="M216.512 110.793L202.692 119V122.266L216.512 113.891" fill="white"/>
<path d="M208.555 154.759L202.357 158.527V161.793L208.555 157.857" fill="white"/>
<path d="M272.379 117.827L266.181 121.679V124.945L272.379 120.926" fill="white"/>
<path d="M265.008 122.518L258.81 126.286V129.552L265.008 125.616" fill="white"/>
<path d="M256.967 126.872L228.406 143.37V146.636L256.967 129.887" fill="white"/>
<path d="M226.228 144.709L212.408 152.832V156.182L226.228 147.808" fill="#98C01F"/>
<path d="M238.96 132.566L210.398 149.064V152.33L238.96 135.581" fill="white"/>
<path d="M272.379 113.138L243.817 129.635V132.901L272.379 116.236" fill="#E3147F"/>
<path d="M264.003 127.626L235.441 144.124V147.39L264.003 130.725" fill="white"/>
<path d="M245.576 147.808L203.027 172.68V175.946L245.576 150.906" fill="white"/>
<path d="M251.942 173.601L209.394 198.389V201.655L251.942 176.615" fill="white"/>
<path d="M272.378 166.817L202.692 206.679V209.945L272.378 169.916" fill="white"/>
<path d="M272.713 171.675L203.027 211.537V214.803L272.713 174.69" fill="#98C01F"/>
<path d="M261.993 182.646L233.432 199.143V202.409L261.993 185.744" fill="white"/>
<path d="M231.254 200.315L209.059 213.212V216.478L231.254 203.414" fill="white"/>
<path d="M225.558 164.306L203.362 177.118V180.384L225.558 167.404" fill="white"/>
<path d="M272.379 137.256L229.746 162.044V165.31L272.379 140.271" fill="#98C01F"/>
<path d="M272.044 132.482L250.1 145.295V148.561L272.044 135.581" fill="white"/>
<path d="M272.044 151.911L250.1 164.724V167.99L272.044 155.01" fill="white"/>
<path d="M245.576 167.32L223.716 180.133V183.399L245.576 170.335" fill="white"/>
<path d="M216.512 188.675L202.692 196.882V200.148L216.512 191.773" fill="white"/>
<path d="M238.96 210.532L210.398 226.946V230.296L238.96 213.547" fill="white"/>
<path d="M272.714 191.104L241.473 208.941V212.207L272.714 194.202" fill="#EF95BC"/>
<path d="M150.511 146.133L146.072 148.561V149.901L150.511 147.389V146.133Z" fill="#98C01F"/>
<path d="M150.511 148.143L146.072 150.655V151.911L150.511 149.315V148.143Z" fill="#98C01F"/>
<path d="M150.511 150.152L146.072 152.665V153.837L150.511 151.325V150.152Z" fill="#98C01F"/>
<path d="M150.511 152.33L146.072 154.842V156.182L150.511 153.586V152.33Z" fill="#98C01F"/>
<path d="M150.428 144.039L146.072 146.468V147.808L150.428 145.295V144.039Z" fill="#98C01F"/>
<path d="M150.345 159.616L145.989 162.045V163.385L150.345 160.872V159.616Z" fill="#98C01F"/>
<path d="M150.261 157.605L145.905 160.034V161.29L150.261 158.778V157.605Z" fill="#98C01F"/>
<path d="M150.428 167.32L146.072 169.833V171.005L150.428 168.493V167.32Z" fill="#98C01F"/>
<path d="M150.428 169.498L146.072 172.01V173.35L150.428 170.67V169.498Z" fill="#98C01F"/>
<path d="M142.974 152.246L136.943 155.68V156.936L142.974 153.502V152.246Z" fill="#98C01F"/>
<path d="M130.493 157.522L123.374 161.626V162.966L130.493 158.695" fill="#98C01F"/>
<path d="M138.785 152.665L131.666 156.852V158.108L138.785 153.921" fill="#98C01F"/>
<path d="M144.23 147.641L137.11 151.828V153.084L144.23 148.897" fill="#98C01F"/>
<path d="M136.189 152.246L124.882 158.778V160.118L136.189 153.419" fill="#98C01F"/>
<path d="M136.106 156.183L119.187 166.064V167.404L136.106 157.439" fill="#98C01F"/>
<path d="M144.314 153.503L116.674 169.331V170.67L144.314 154.675" fill="#98C01F"/>
<path d="M144.481 155.429L116.758 171.256V172.596L144.481 156.601" fill="#98C01F"/>
<path d="M140.043 159.699L128.735 166.315V167.571L140.043 160.955" fill="#98C01F"/>
<path d="M127.897 166.734L119.019 171.843V173.183L127.897 167.991" fill="#98C01F"/>
<path d="M122.118 162.296L116.674 165.562V166.818L122.118 163.552" fill="#98C01F"/>
<path d="M118.935 179.798L116.506 181.305V182.561L118.935 180.97" fill="#98C01F"/>
<path d="M144.314 165.143L141.885 166.65V167.906L144.314 166.315" fill="#98C01F"/>
<path d="M141.382 166.985L138.953 168.493V169.749L141.382 168.158" fill="#98C01F"/>
<path d="M138.2 168.66L126.893 175.276V176.532L138.2 169.916" fill="#98C01F"/>
<path d="M125.971 175.778L120.526 179.044V180.3L125.971 177.034" fill="#98C01F"/>
<path d="M131.08 170.921L119.689 177.537V178.793L131.08 172.177" fill="#98C01F"/>
<path d="M144.314 163.217L133.007 169.833V171.089L144.314 164.473" fill="#98C01F"/>
<path d="M140.963 168.995L129.656 175.527V176.867L140.963 170.251" fill="#98C01F"/>
<path d="M133.677 177.034L116.758 186.916V188.172L133.677 178.207" fill="#98C01F"/>
<path d="M125.719 183.566L116.925 188.675V190.015L125.719 184.823" fill="#98C01F"/>
<path d="M144.314 172.848L127.395 182.646V183.986L144.314 174.02" fill="#98C01F"/>
<path d="M144.23 170.921L135.52 176.029V177.285L144.23 172.177" fill="#98C01F"/>
<path d="M150.428 179.296L146.072 181.724V182.981L150.428 180.468V179.296Z" fill="white"/>
<path d="M150.428 181.306L146.072 183.818V184.99L150.428 182.478V181.306Z" fill="white"/>
<path d="M150.428 183.231L146.072 185.744V187L150.428 184.488V183.231Z" fill="white"/>
<path d="M150.428 185.492L146.072 188.005V189.261L150.428 186.665V185.492Z" fill="white"/>
<path d="M150.345 177.202L145.989 179.631V180.971L150.345 178.458V177.202Z" fill="white"/>
<path d="M150.344 192.778L145.905 195.207V196.547L150.344 194.034V192.778Z" fill="white"/>
<path d="M150.26 190.685L145.821 193.113V194.453L150.26 191.941V190.685Z" fill="white"/>
<path d="M150.428 200.399L145.989 202.912V204.168L150.428 201.656V200.399Z" fill="white"/>
<path d="M150.428 202.66L145.989 205.172V206.429L150.428 203.833V202.66Z" fill="white"/>
<path d="M142.974 185.409L136.943 188.759V190.099L142.974 186.665V185.409Z" fill="white"/>
<path d="M130.493 190.601L123.374 194.788V196.128L130.493 191.857" fill="white"/>
<path d="M138.702 185.828L131.583 190.015V191.271L138.702 187.001" fill="white"/>
<path d="M144.146 180.803L137.026 184.906V186.246L144.146 181.975" fill="white"/>
<path d="M136.189 185.325L124.798 191.941V193.197L136.189 186.581" fill="white"/>
<path d="M136.022 189.345L119.103 199.226V200.483L136.022 190.601" fill="white"/>
<path d="M144.314 186.581L116.59 202.492V203.749L144.314 187.837" fill="white"/>
<path d="M144.398 188.508L116.758 204.419V205.675L144.398 189.764" fill="white"/>
<path d="M140.042 192.862L128.651 199.394V200.734L140.042 194.118" fill="white"/>
<path d="M127.813 199.896L119.019 205.005V206.261L127.813 201.153" fill="white"/>
<path d="M122.118 195.458L116.59 198.724V199.98L122.118 196.63" fill="white"/>
<path d="M118.935 212.877L116.506 214.384V215.724L118.935 214.133" fill="white"/>
<path d="M144.314 198.222L141.801 199.729V201.069L144.314 199.478" fill="white"/>
<path d="M141.382 200.064L138.869 201.572V202.912L141.382 201.321" fill="white"/>
<path d="M138.2 201.822L126.809 208.354V209.694L138.2 203.078" fill="white"/>
<path d="M125.971 208.941L120.443 212.124V213.464L125.971 210.114" fill="white"/>
<path d="M130.997 204.084L119.689 210.616V211.956L130.997 205.34" fill="white"/>
<path d="M144.314 196.379L132.923 202.911V204.251L144.314 197.635" fill="white"/>
<path d="M140.963 202.157L129.572 208.689V210.029L140.963 203.33" fill="white"/>
<path d="M133.677 210.113L116.758 219.995V221.335L133.677 211.369" fill="white"/>
<path d="M125.72 216.729L116.842 221.838V223.094L125.72 217.902" fill="white"/>
<path d="M144.314 205.926L127.395 215.808V217.147L144.314 207.182" fill="white"/>
<path d="M144.146 204.084L135.436 209.192V210.449L144.146 205.256" fill="white"/>
<path d="M150.428 212.458L146.072 214.887V216.226L150.428 213.714V212.458Z" fill="#E3147F"/>
<path d="M150.428 214.468L146.072 216.98V218.236L150.428 215.724V214.468Z" fill="#E3147F"/>
<path d="M150.428 216.478L146.072 218.99V220.246L150.428 217.734V216.478Z" fill="#E3147F"/>
<path d="M150.428 218.655L146.072 221.168V222.507L150.428 219.911V218.655Z" fill="#E3147F"/>
<path d="M150.344 210.448L145.988 212.877V214.133L150.344 211.621V210.448Z" fill="#E3147F"/>
<path d="M150.343 226.024L145.904 228.453V229.709L150.343 227.197V226.024Z" fill="#E3147F"/>
<path d="M150.26 223.931L145.821 226.359V227.699L150.26 225.187V223.931Z" fill="#E3147F"/>
<path d="M150.427 233.646L145.988 236.158V237.414L150.427 234.902V233.646Z" fill="#E3147F"/>
<path d="M150.427 235.822L145.988 238.335V239.674L150.427 237.078V235.822Z" fill="#E3147F"/>
<path d="M142.973 218.655L136.942 222.005V223.261L142.973 219.828V218.655Z" fill="#E3147F"/>
<path d="M130.493 223.848L123.374 228.035V229.291L130.493 225.02" fill="#E3147F"/>
<path d="M138.701 218.99L131.582 223.177V224.517L138.701 220.246" fill="#E3147F"/>
<path d="M144.146 213.966L137.026 218.153V219.409L144.146 215.222" fill="#E3147F"/>
<path d="M136.189 218.571L124.798 225.103V226.443L136.189 219.827" fill="#E3147F"/>
<path d="M136.022 222.591L119.103 232.473V233.729L136.022 223.763" fill="#E3147F"/>
<path d="M144.314 219.827L116.59 235.655V236.995L144.314 221.083" fill="#E3147F"/>
<path d="M144.397 221.754L116.757 237.582V238.921L144.397 223.01" fill="#E3147F"/>
<path d="M140.041 226.108L128.65 232.64V233.897L140.041 227.281" fill="#E3147F"/>
<path d="M127.813 233.143L119.019 238.167V239.507L127.813 234.315" fill="#E3147F"/>
<path d="M122.118 228.704L116.59 231.886V233.226L122.118 229.877" fill="#E3147F"/>
<path d="M118.935 246.123L116.506 247.63V248.97L118.935 247.379" fill="#E3147F"/>
<path d="M144.314 231.468L141.801 232.975V234.231L144.314 232.64" fill="#E3147F"/>
<path d="M141.382 233.311L138.869 234.818V236.158L141.382 234.567" fill="#E3147F"/>
<path d="M138.199 235.069L126.808 241.601V242.858L138.199 236.242" fill="#E3147F"/>
<path d="M125.97 242.104L120.442 245.37V246.709L125.97 243.36" fill="#E3147F"/>
<path d="M130.996 237.33L119.688 243.862V245.118L130.996 238.502" fill="#E3147F"/>
<path d="M144.313 229.626L132.922 236.158V237.414L144.313 230.798" fill="#E3147F"/>
<path d="M140.963 235.32L129.572 241.936V243.192L140.963 236.576" fill="#E3147F"/>
<path d="M133.676 243.359L116.757 253.241V254.497L133.676 244.616" fill="#E3147F"/>
<path d="M125.719 249.976L116.841 255V256.34L125.719 251.148" fill="#E3147F"/>
<path d="M144.314 239.173L127.395 249.055V250.311L144.314 240.345" fill="#E3147F"/>
<path d="M144.145 237.246L135.435 242.354V243.694L144.145 238.502" fill="#E3147F"/>
<path d="M150.764 245.202L146.408 247.631V248.971L150.764 246.458V245.202Z" fill="#652264"/>
<path d="M150.764 247.212L146.408 249.724V250.98L150.764 248.468V247.212Z" fill="#652264"/>
<path d="M150.764 249.222L146.408 251.734V252.99L150.764 250.394V249.222Z" fill="#652264"/>
<path d="M150.764 251.399L146.408 253.912V255.252L150.764 252.656V251.399Z" fill="#652264"/>
<path d="M150.68 243.192L146.324 245.621V246.877L150.68 244.365V243.192Z" fill="#652264"/>
<path d="M150.679 258.685L146.24 261.197V262.453L150.679 259.941V258.685Z" fill="#652264"/>
<path d="M150.596 256.675L146.157 259.103V260.36L150.596 257.847V256.675Z" fill="#652264"/>
<path d="M143.309 251.315L137.278 254.749V256.005L143.309 252.572V251.315Z" fill="#652264"/>
<path d="M130.829 256.592L123.71 260.779V262.035L130.829 257.764" fill="#652264"/>
<path d="M139.037 251.734L131.918 255.922V257.261L139.037 252.991" fill="#652264"/>
<path d="M144.482 246.71L137.362 250.897V252.153L144.482 247.966" fill="#652264"/>
<path d="M136.525 251.315L125.134 257.847V259.187L136.525 252.572" fill="#652264"/>
<path d="M136.357 255.252L119.438 265.134V266.474L136.357 256.508" fill="#652264"/>
<path d="M144.649 252.571L116.926 268.399V269.739L144.649 253.827" fill="#652264"/>
<path d="M144.733 254.498L117.093 270.326V271.666L144.733 255.754" fill="#652264"/>
<path d="M140.377 258.853L128.986 265.385V266.641L140.377 260.025" fill="#652264"/>
<path d="M128.149 265.887L119.354 270.911V272.251L128.149 267.059" fill="#652264"/>
<path d="M122.454 261.365L116.926 264.631V265.971L122.454 262.621" fill="#652264"/>
<path d="M119.271 278.867L116.842 280.375V281.631L119.271 280.04" fill="#652264"/>
<path d="M144.649 264.212L142.137 265.719V266.975L144.649 265.384" fill="#652264"/>
<path d="M141.718 266.055L139.205 267.562V268.818L141.718 267.227" fill="#652264"/>
<path d="M138.535 267.813L127.144 274.346V275.602L138.535 268.986" fill="#652264"/>
<path d="M126.306 274.848L120.778 278.114V279.454L126.306 276.104" fill="#652264"/>
<path d="M131.332 269.99L120.024 276.606V277.862L131.332 271.246" fill="#652264"/>
<path d="M144.649 262.37L133.258 268.902V270.158L144.649 263.543" fill="#652264"/>
<path d="M141.299 268.064L129.908 274.68V275.936L141.299 269.321" fill="#652264"/>
<path d="M179.492 157.354L160.562 168.325V169.749L179.492 158.694" fill="white"/>
<path d="M169.86 155.931L159.977 161.625V163.049L169.86 157.271" fill="#98C01F"/>
<path d="M190.548 143.872L171.702 154.926V156.35L190.548 145.296" fill="white"/>
<path d="M191.134 150.571L181.502 156.182V157.69L191.134 151.911" fill="white"/>
<path d="M179.157 152.916L160.312 163.886V165.31L179.157 154.256" fill="white"/>
<path d="M170.278 160.369L160.479 166.064V167.487L170.278 161.709" fill="#98C01F"/>
<path d="M191.05 148.311L172.121 159.365V160.788L191.05 149.734" fill="white"/>
<path d="M190.883 146.049L181.167 151.743V153.251L190.883 147.472" fill="white"/>
<path d="M179.241 185.744L160.396 196.715V198.138L179.241 187.084" fill="white"/>
<path d="M169.608 184.32L159.725 190.015V191.439L169.608 185.66" fill="#98C01F"/>
<path d="M190.38 172.261L171.451 183.315V184.739L190.38 173.601" fill="white"/>
<path d="M190.967 178.961L181.251 184.572V186.079L190.967 180.301" fill="white"/>
<path d="M178.906 181.306L160.061 192.276V193.7L178.906 182.646" fill="white"/>
<path d="M170.027 188.759L160.228 194.453V195.877L170.027 190.099" fill="#98C01F"/>
<path d="M190.799 176.699L171.87 187.753V189.177L190.799 178.123" fill="white"/>
<path d="M190.632 174.438L180.916 180.133V181.64L190.632 175.862" fill="white"/>
<path d="M179.576 166.65L160.73 177.705V179.128L179.576 167.99" fill="white"/>
<path d="M169.944 165.227L160.061 170.921V172.429L169.944 166.65" fill="white"/>
<path d="M190.715 153.251L171.786 164.221V165.729L190.715 154.591" fill="white"/>
<path d="M191.302 159.867L181.586 165.562V166.985L191.302 161.207" fill="white"/>
<path d="M179.241 162.212L160.396 173.266V174.69L179.241 163.552" fill="white"/>
<path d="M170.362 169.749L160.562 175.36V176.867L170.362 171.089" fill="white"/>
<path d="M191.134 157.689L172.205 168.66V170.167L191.134 159.029" fill="white"/>
<path d="M190.967 155.429L181.251 161.123V162.547L190.967 156.769" fill="white"/>
<path d="M179.576 176.029L160.73 187V188.507L179.576 177.369" fill="white"/>
<path d="M169.944 174.606L160.061 180.301V181.725L169.944 175.946" fill="white"/>
<path d="M190.715 162.631L171.786 173.601V175.025L190.715 163.971" fill="white"/>
<path d="M191.302 169.246L181.586 174.941V176.364L191.302 170.586" fill="white"/>
<path d="M179.241 171.591L160.396 182.561V184.069L179.241 172.931" fill="white"/>
<path d="M170.362 179.044L160.562 184.739V186.162L170.362 180.384" fill="white"/>
<path d="M191.134 167.069L172.205 178.04V179.463L191.134 168.409" fill="#98C01F"/>
<path d="M190.967 164.808L181.251 170.502V171.926L190.967 166.148" fill="white"/>
<path d="M179.576 195.039L160.73 206.093V207.517L179.576 196.463" fill="#98C01F"/>
<path d="M169.944 193.616L160.061 199.311V200.818L169.944 195.04" fill="#98C01F"/>
<path d="M190.715 181.641L171.786 192.611V194.118L190.715 182.981" fill="white"/>
<path d="M191.302 188.256L181.586 193.95V195.374L191.302 189.596" fill="white"/>
<path d="M179.241 190.601L160.396 201.655V203.078L179.241 191.94" fill="white"/>
<path d="M170.362 198.138L160.562 203.749V205.256L170.362 199.478" fill="#F9F9F9"/>
<path d="M191.134 186.079L172.205 197.05V198.557L191.134 187.419" fill="white"/>
<path d="M190.967 183.817L181.251 189.512V190.936L190.967 185.157" fill="white"/>
<path d="M186.36 140.606C185.941 140.606 185.522 140.271 185.522 139.852C185.439 139.35 185.774 138.931 186.276 138.931C187.114 138.847 187.03 136.67 186.862 134.157V133.739V133.655C187.114 132.483 187.532 131.813 188.035 131.394C187.532 131.31 187.114 131.059 186.862 130.556L186.779 130.389V130.221C186.862 128.714 186.862 127.123 186.779 126.537C186.695 126.537 186.527 126.62 186.36 126.704C185.941 126.872 185.439 126.704 185.187 126.286C185.02 125.867 185.187 125.364 185.606 125.113C186.025 124.946 186.946 124.527 187.7 125.029C188.621 125.616 188.621 126.955 188.454 129.803C188.621 129.803 188.873 129.803 189.04 129.803C189.291 129.803 189.543 129.803 189.794 129.803C190.296 129.887 190.631 130.221 190.799 130.64C190.883 131.143 190.715 131.561 190.296 131.896C190.213 131.98 190.129 131.98 190.045 132.064C189.291 132.483 188.789 132.818 188.538 133.99V134.157C188.705 137.675 188.873 140.438 186.444 140.773C186.36 140.606 186.36 140.606 186.36 140.606Z" fill="white"/>
<path d="M167.933 150.823C167.514 150.823 167.096 150.488 167.096 150.069C167.012 149.566 167.347 149.148 167.849 149.148C168.687 149.064 168.603 146.887 168.436 144.374V143.956V143.872C168.687 142.699 169.106 142.029 169.608 141.611C169.106 141.527 168.687 141.276 168.436 140.773L168.352 140.606V140.438C168.436 138.931 168.436 137.34 168.352 136.754C168.268 136.754 168.101 136.837 167.933 136.921C167.514 137.089 167.012 136.921 166.76 136.502C166.593 136.084 166.76 135.581 167.179 135.33C167.598 135.162 168.519 134.744 169.273 135.246C170.195 135.832 170.195 137.172 170.027 140.02C170.195 140.02 170.446 140.02 170.613 140.02C170.865 140.02 171.116 140.02 171.367 140.02C171.87 140.103 172.205 140.438 172.372 140.857C172.456 141.359 172.288 141.778 171.87 142.113C171.786 142.197 171.702 142.197 171.618 142.281C170.865 142.699 170.362 143.034 170.111 144.207V144.374C170.278 147.891 170.446 150.655 168.017 150.99C168.017 150.823 167.933 150.823 167.933 150.823Z" fill="white"/>
<path d="M161.568 154.842H161.484C159.055 154.591 159.223 151.827 159.39 148.226V148.059C159.223 148.059 158.972 148.143 158.804 148.226L158.637 148.31H158.469C157.715 148.478 157.38 148.143 157.213 147.975C156.961 147.64 156.878 147.221 157.045 146.886C157.213 146.551 157.464 146.216 157.883 146.133C158.72 145.798 159.139 145.212 159.39 144.123C159.307 141.024 159.223 139.601 160.144 138.931C160.898 138.428 161.819 138.847 162.238 139.014C162.657 139.182 162.824 139.684 162.657 140.187C162.489 140.606 161.987 140.773 161.484 140.606C161.233 140.522 161.149 140.438 161.066 140.438C160.898 141.024 160.982 142.699 161.066 144.123V144.207V144.29C160.898 145.128 160.647 145.798 160.228 146.384C160.228 146.384 160.312 146.384 160.312 146.468C160.814 146.719 161.066 147.221 161.066 147.891V148.226C160.982 150.739 160.814 152.916 161.652 153C162.154 153.083 162.489 153.502 162.406 153.921C162.406 154.507 161.987 154.842 161.568 154.842Z" fill="white"/>
<path d="M180.078 144.04H179.994C177.565 143.788 177.733 141.025 177.9 137.424V137.256C177.733 137.256 177.481 137.34 177.314 137.424L177.146 137.508H176.979C176.225 137.675 175.89 137.34 175.722 137.173C175.471 136.838 175.387 136.419 175.555 136.084C175.722 135.749 175.974 135.414 176.392 135.33C177.23 134.995 177.816 134.074 177.9 133.404C177.733 130.222 177.733 128.798 178.654 128.212C179.408 127.71 180.329 128.128 180.748 128.296C181.167 128.463 181.334 128.966 181.167 129.468C180.999 129.887 180.497 130.054 179.994 129.887C179.743 129.803 179.659 129.719 179.575 129.719C179.408 130.306 179.492 131.98 179.575 133.404C179.575 134.074 179.24 134.911 178.738 135.581C178.821 135.581 178.821 135.581 178.905 135.665C179.408 135.916 179.659 136.419 179.659 137.089V137.424C179.575 139.936 179.408 142.113 180.245 142.197C180.748 142.281 181.083 142.7 180.999 143.118C180.832 143.705 180.497 144.04 180.078 144.04Z" fill="white"/>
<path d="M175.974 230.547L176.979 232.557L175.639 234.231L178.654 235.906L179.324 233.896H181.334V235.236L185.02 234.901V231.887L187.7 228.537L190.045 229.542L191.72 226.527L190.38 224.517L191.385 220.832L193.395 220.162V216.813H190.967L189.961 214.803L191.302 212.458L188.621 211.118L187.951 213.463H185.271L184.936 211.453L181.251 212.793L181.921 216.143L179.24 218.488L176.56 218.153L174.55 222.842L176.225 223.177L175.89 227.197H173.21L173.545 230.882L175.974 230.547ZM180.413 221.67C182.172 218.906 185.02 217.483 186.779 218.655C188.538 219.744 188.621 222.926 186.862 225.773C185.104 228.537 182.256 229.961 180.497 228.788C178.738 227.699 178.654 224.517 180.413 221.67Z" fill="white"/>
<path d="M163.075 247.547L163.912 249.138L162.824 250.478L165.253 251.818L165.755 250.227H167.347V251.316L170.278 251.065V248.636L172.456 245.956L174.382 246.794L175.722 244.365L174.633 242.774L175.471 239.843L177.062 239.34V236.661H175.136L174.298 235.069L175.387 233.143L173.21 232.055L172.707 233.981H170.529L170.278 232.39L167.347 233.478L167.849 236.158L165.671 238.084L163.494 237.833L161.902 241.601L163.242 241.853L162.991 245.119H160.813L161.065 248.05L163.075 247.547ZM166.676 240.345C168.1 238.084 170.362 236.996 171.869 237.917C173.293 238.838 173.293 241.35 171.953 243.611C170.529 245.872 168.268 246.961 166.76 246.04C165.336 245.202 165.253 242.606 166.676 240.345Z" fill="white"/>
<path d="M90.4582 78.8868L93.0546 73.3597L90.8769 71.6848L84.9302 72.1035L83.255 69.5075L86.6891 63.5617L84.4276 61.7193L81.5799 61.803L78.1458 66.9114H74.293L75.9681 62.2218L73.7904 60.5469L67.0061 64.3991L67.8437 70.3449L62.7345 76.2907L58.8816 74.1134L53.7724 81.8178L57.6253 84.4139L55.9501 90.3597L49.082 93.3745L49.9196 100.66L52.0973 102.335L55.5314 99.739L57.709 103.172L54.275 108.281L55.5314 110.877L58.1278 112.133L61.9807 106.187H66.2523V110.877L68.43 112.552L74.3768 107.862L73.5392 100.576L77.8108 96.7242L82.0824 98.3991L87.1916 90.6947L84.1764 87.2612L85.8515 81.3153L90.4582 78.8868ZM76.3869 89.6897C72.8691 95.7193 67.2574 98.9853 63.8233 96.9754C60.3893 94.9656 60.3893 88.4336 63.9071 82.404C67.4249 76.3745 73.0366 73.1084 76.4707 75.1183C79.9047 77.1281 79.9047 83.6602 76.3869 89.6897Z" fill="#642366"/>
<path d="M92.6357 80.6451L93.0545 73.3594L87.1077 73.7781L85.4325 71.182L88.8666 65.2362L84.595 61.8027L80.2396 68.6697H76.3867L75.968 62.2215L69.0999 66.0737L69.9374 72.0195L65.247 77.5466L60.9754 75.3692L55.8662 83.0737L59.719 86.0884L58.0439 92.0343L51.1758 95.049L52.0134 102.335L57.5413 101.497L59.719 104.931L55.4474 110.877L60.1378 113.891L63.9907 107.946H68.2623V112.635L76.3867 109.62L75.5492 102.335L79.8208 98.4825L84.0924 100.157L89.2016 92.453L86.1864 89.0195L87.8615 83.0737L92.6357 80.6451ZM78.5644 91.448C75.0466 97.4776 69.4349 100.744 66.0008 98.7338C62.5668 96.7239 62.5668 90.1919 66.0846 84.1623C69.6024 78.1328 75.2141 74.8668 78.6482 76.8766C82.0822 78.8865 81.9985 85.3347 78.5644 91.448Z" fill="#E1017F"/>
<path d="M114.915 84.749L116.506 81.3155L115.166 80.3106L111.481 80.5618L110.476 78.9707L112.57 75.286L111.23 74.1973L109.471 74.281L107.377 77.3796H105.031L106.037 74.5323L104.696 73.5273L100.509 75.8722L101.011 79.5569L97.9121 83.2416L95.5669 81.9017L92.4679 86.5914L94.8131 88.1825L93.808 91.8672L89.6201 93.7096L90.1227 98.148L91.4628 99.153L93.5567 97.5618L94.8968 99.6554L92.8029 102.754L93.5567 104.345L95.1481 105.099L97.4933 101.414H100.09V104.261L101.43 105.266L105.115 102.419L104.613 97.9805L107.209 95.6357L109.806 96.6406L112.905 91.951L111.062 89.8574L112.067 86.1727L114.915 84.749ZM106.372 91.3648C104.278 95.0495 100.76 97.0594 98.6659 95.8032C96.572 94.547 96.572 90.6111 98.6659 86.9264C100.76 83.2416 104.278 81.2318 106.372 82.4879C108.466 83.7441 108.466 87.5963 106.372 91.3648Z" fill="#642366"/>
<path d="M116.255 85.7539L116.506 81.3155L112.821 81.5667L111.816 79.9756L113.91 76.2909L111.313 74.1973L108.717 78.3845H106.372L106.12 74.4485L101.932 76.7933L102.435 80.4781L99.5872 83.9116L96.9907 82.5717L93.8917 87.2613L96.2369 89.1037L95.2318 92.7884L91.0439 94.6308L91.5465 99.0692L94.9805 98.5667L96.3207 100.66L93.7242 104.345L96.5719 106.187L98.9171 102.503H101.514V105.35L106.455 103.508L105.953 99.0692L108.549 96.7244L111.146 97.7293L114.245 93.0396L112.402 90.946L113.407 87.2613L116.255 85.7539ZM107.628 92.3697C105.534 96.0544 102.016 98.0643 99.9222 96.8081C97.8283 95.5519 97.8283 91.616 99.9222 87.9313C102.016 84.2465 105.534 82.2367 107.628 83.4928C109.722 84.749 109.806 88.685 107.628 92.3697Z" fill="#E1017F"/>
<path d="M292.983 238.252L290.387 303.153C290.387 308.5 298 312.5 305.5 309.5L303.783 242.272L292.983 238.252Z" fill="#212220"/>
<path d="M307.892 238.252L310.488 304.493C309.232 306.838 307.473 308.764 304.541 310.02L302.866 242.272L307.892 238.252Z" fill="#2F312F"/>
<path d="M300.438 242.522C304.555 242.522 307.892 240.61 307.892 238.251C307.892 235.893 304.555 233.98 300.438 233.98C296.321 233.98 292.983 235.893 292.983 238.251C292.983 240.61 296.321 242.522 300.438 242.522Z" fill="#1D1E1C"/>
<path d="M304.458 222.843L304.876 238.252C303.201 240.429 299.348 240.429 296.752 238.67V224.183L304.458 222.843Z" fill="#E1017F"/>
<path d="M351.865 137.843C355.048 152.498 350.609 172.68 338.882 191.439C331.177 203.749 321.545 213.463 311.745 219.744C322.299 213.715 332.349 204.084 340.139 191.606C351.53 173.35 355.299 153.335 351.865 137.843Z" fill="url(#paint5_linear_3730_27184)"/>
<path d="M277.321 153C295.245 124.36 323.555 109.705 340.557 120.34C345.248 123.271 348.598 127.877 350.608 133.572C348.096 126.119 343.656 119.921 337.291 115.986C317.44 103.508 286.45 117.242 268.024 146.636C249.681 176.03 250.853 209.862 270.788 222.34C273.216 223.848 275.897 225.02 278.661 225.774C277.572 225.355 276.567 224.769 275.645 224.183C258.559 213.547 259.397 181.641 277.321 153Z" fill="url(#paint6_linear_3730_27184)"/>
<path d="M278.661 225.774C288.042 229.71 300.019 227.281 311.745 219.828C300.438 226.193 288.712 228.537 278.661 225.774Z" fill="url(#paint7_linear_3730_27184)"/>
<path d="M338.798 191.438C350.524 172.68 354.963 152.497 351.781 137.842V137.758C351.781 137.675 351.781 137.591 351.697 137.507C351.362 136.167 351.027 134.827 350.608 133.571C348.598 127.877 345.247 123.271 340.557 120.34C323.554 109.704 295.244 124.359 277.32 153C259.396 181.64 258.559 213.547 275.561 224.182C276.566 224.768 277.572 225.355 278.577 225.773C288.628 228.537 300.437 226.192 311.661 219.827C321.544 213.547 331.092 203.749 338.798 191.438ZM277.404 215.975C277.237 215.724 276.985 215.473 276.818 215.305C269.112 208.02 271.792 181.64 283.602 159.616C296.166 136.251 314.509 122.015 328.161 123.438C329.166 123.522 330.171 124.024 330.841 124.778C339.301 134.157 336.285 156.517 323.303 181.389C309.902 207.015 284.691 225.438 277.404 215.975Z" fill="url(#paint8_linear_3730_27184)"/>
<path d="M338.798 191.438C350.524 172.68 354.963 152.497 351.781 137.842V137.758C351.781 137.675 351.781 137.591 351.697 137.507C351.362 136.167 351.027 134.827 350.608 133.571C348.598 127.877 345.247 123.271 340.557 120.34C323.554 109.704 295.244 124.359 277.32 153C259.396 181.64 258.559 213.547 275.561 224.182C276.566 224.768 277.572 225.355 278.577 225.773C288.628 228.537 300.437 226.192 311.661 219.827C321.544 213.547 331.092 203.749 338.798 191.438ZM277.404 215.975C277.237 215.724 276.985 215.473 276.818 215.305C269.112 208.02 271.792 181.64 283.602 159.616C296.166 136.251 314.509 122.015 328.161 123.438C329.166 123.522 330.171 124.024 330.841 124.778C339.301 134.157 336.285 156.517 323.303 181.389C309.902 207.015 284.691 225.438 277.404 215.975Z" fill="url(#paint9_linear_3730_27184)"/>
<path opacity="0.22" d="M334.359 125.03C333.689 124.276 329.166 123.607 328.077 123.439C314.425 122.015 295.998 136.168 283.518 159.616C271.709 181.641 269.028 207.937 276.734 215.306C276.985 215.474 281.173 219.661 281.341 219.912C295.831 219.493 316.351 208.355 329.166 182.311C343.824 157.941 342.819 134.409 334.359 125.03Z" fill="#80358A"/>
<path d="M334.359 125.03C348.849 133.656 350.189 158.779 330.506 190.35C313.922 215.222 297.59 223.346 281.341 219.828C299.851 217.986 314.76 207.099 326.235 187.336C343.154 160.035 344.41 139.937 334.359 125.03Z" fill="#80358A"/>
<path d="M357.979 185.577C356.806 182.562 358.398 179.463 360.91 176.365C361.329 175.109 361.245 173.769 360.827 172.596L359.319 168.325C358.984 167.32 358.984 166.232 359.486 165.311L362.92 158.192C363.591 156.769 363.674 155.094 362.92 153.67C361.915 151.409 360.156 149.65 360.827 145.128C361.999 139.266 365.014 138.429 368.281 137.424C369.454 137.089 370.459 136.251 370.961 135.163C373.474 130.138 377.327 126.37 388.048 128.463C393.659 129.468 398.434 133.069 402.454 139.517C403.04 140.522 403.459 141.611 403.627 142.7L404.548 147.724C404.883 149.65 406.056 151.409 407.814 152.414L415.101 156.769C416.86 157.774 419.457 159.867 419.373 161.961L418.368 166.232C417.949 167.99 418.117 169.833 418.87 171.508C421.634 175.276 425.655 177.872 424.985 184.655C424.482 189.596 421.048 193.7 416.274 195.123L357.979 185.577Z" fill="#2B2227"/>
<path d="M417.111 196.798L358.313 184.488V184.237C358.481 183.064 358.732 182.478 358.9 182.059C359.151 181.473 359.402 180.887 359.402 178.793C359.235 176.783 358.9 174.857 358.397 172.931C357.057 171.591 356.471 169.749 356.638 166.902C356.471 166.232 357.727 164.976 359.654 163.133C360.491 162.296 361.412 161.542 361.496 161.207V161.123H361.664C362.92 160.956 363.758 160.621 364.009 160.035C364.344 159.365 364.009 158.276 363.171 156.936L363.088 156.852L363.171 156.685C363.841 155.261 363.925 155.094 362.92 154.089C360.324 151.493 358.23 148.897 358.983 144.123C359.905 139.434 362.669 139.015 365.265 138.513C366.019 138.345 366.773 138.261 367.527 138.01C368.532 137.675 370.71 134.744 371.296 133.572C373.725 128.798 377.41 124.611 388.55 126.705C391.565 127.375 401.365 130.054 401.951 138.178V138.261C400.36 141.611 402.537 147.306 405.301 150.99C406.558 152.749 407.814 153.67 408.484 153.586C408.735 153.586 408.903 153.419 408.987 153.084L409.07 153H409.154C415.101 153 419.791 157.522 419.791 161.207V161.291L415.268 171.759C415.185 172.178 416.274 172.848 417.614 173.601C420.545 175.276 425.068 177.788 425.738 183.064V184.237C425.738 188.256 425.822 192.276 417.111 196.798ZM358.648 184.153L417.027 196.463C425.487 192.109 425.403 188.34 425.236 184.404V183.232C424.565 178.123 420.21 175.695 417.279 174.02C415.687 173.099 414.598 172.513 414.766 171.759L419.289 161.291C419.289 157.774 414.766 153.586 409.07 153.503C408.903 153.921 408.568 154.089 408.4 154.089C407.144 154.256 405.553 152.247 404.882 151.325C402.537 148.227 399.69 142.114 401.448 138.261C400.862 130.473 391.23 127.877 388.299 127.207C377.41 125.114 373.809 129.217 371.463 133.823C370.961 134.828 368.783 138.01 367.527 138.429C366.773 138.596 366.019 138.848 365.265 138.931C362.669 139.35 360.156 139.769 359.319 144.207C358.565 148.813 360.575 151.325 363.088 153.838C364.26 155.094 364.093 155.513 363.423 156.852C364.344 158.276 364.679 159.365 364.26 160.202C363.925 160.872 363.004 161.375 361.664 161.542C361.412 161.961 360.659 162.631 359.821 163.468C358.648 164.557 356.722 166.399 356.89 166.902V166.985C356.722 169.665 357.308 171.508 358.648 172.764V172.848C358.732 173.015 359.821 176.867 359.654 178.877C359.737 180.971 359.486 181.641 359.151 182.311C358.983 182.646 358.816 183.148 358.648 184.153Z" fill="#2B2227"/>
<path d="M414.096 190.35L413.761 190.183C415.52 185.744 414.18 182.562 412.924 179.547C412.086 177.705 411.332 175.862 411.332 173.853C411.584 172.01 412.17 170.587 412.756 169.33C413.426 167.572 414.013 166.316 413.091 164.892C411.249 162.463 408.401 162.212 405.972 161.961C403.794 161.793 401.784 161.542 400.611 160.035C399.523 158.025 399.439 155.178 399.355 152.163C399.271 148.227 399.104 143.788 396.759 140.522C393.241 135.917 388.215 133.907 380.845 134.325V133.99C388.383 133.572 393.492 135.582 397.01 140.355C399.439 143.788 399.523 148.227 399.69 152.247C399.774 155.178 399.858 158.025 400.946 159.951C401.952 161.375 403.962 161.542 406.056 161.71C408.652 161.961 411.5 162.296 413.51 164.808C414.431 166.399 413.845 167.823 413.175 169.582C412.589 171.005 412.086 172.513 411.835 174.02C411.835 175.946 412.589 177.705 413.343 179.547C414.515 182.646 415.855 185.744 414.096 190.35Z" fill="url(#paint10_linear_3730_27184)"/>
<path d="M399.439 219.995C399.104 228.705 398.601 227.281 397.512 233.897C382.939 237.079 371.38 236.158 362.083 232.473C363.088 223.764 363.674 224.769 363.926 216.311L399.439 219.995Z" fill="url(#paint11_linear_3730_27184)"/>
<path d="M341.311 193.197L310.07 193.867C309.316 193.867 308.646 193.449 308.311 192.862L296.585 171.257C295.915 169.917 296.753 168.325 298.26 168.325L331.596 167.069C332.433 167.069 333.187 167.488 333.522 168.242L343.154 190.518C343.657 191.69 342.735 193.114 341.311 193.197Z" fill="url(#paint12_linear_3730_27184)"/>
<path d="M310.07 194.286C309.148 194.286 308.394 193.783 307.976 193.03L296.25 171.424C295.831 170.67 295.831 169.833 296.25 169.079C296.668 168.325 297.422 167.907 298.26 167.823L331.595 166.567C332.6 166.483 333.522 167.153 333.94 167.99L343.573 190.266C343.908 191.02 343.824 191.857 343.405 192.527C342.986 193.197 342.232 193.616 341.395 193.616L310.07 194.286ZM331.679 167.32L298.26 168.577C297.674 168.577 297.255 168.911 296.92 169.33C296.668 169.833 296.668 170.335 296.92 170.838L308.646 192.444C308.897 192.946 309.483 193.281 310.07 193.281L341.311 192.611C341.814 192.611 342.316 192.36 342.567 191.857C342.819 191.439 342.902 190.852 342.651 190.35L333.019 168.074C332.852 167.739 332.265 167.32 331.679 167.32Z" fill="url(#paint13_linear_3730_27184)"/>
<path d="M318.613 196.798C310.405 192.36 307.892 186.917 309.819 178.71C310.238 177.454 310.824 177.286 311.578 178.542C311.997 177.789 312.332 178.207 312.499 179.547C313.002 178.207 313.42 178.961 313.672 180.803C314.425 179.212 314.928 180.468 315.347 182.562C315.598 184.404 315.933 186.247 316.687 187.168C317.692 188.257 319.367 187.922 321.21 189.429C322.466 190.685 323.052 192.444 322.885 194.621C328.497 198.055 321.294 203.33 318.613 196.798Z" fill="#F3A07D"/>
<path d="M425.32 212.459C418.703 198.892 411.751 184.572 403.04 176.867L392.235 172.345C386.54 169.582 381.514 170.67 376.573 171.675C373.055 173.015 369.621 174.774 366.438 176.867C359.068 189.429 353.205 201.404 362.92 207.183C363.674 210.114 364.009 213.212 363.925 216.227C372.134 215.222 381.096 213.798 384.111 215.892C385.535 214.133 390.309 220.749 385.535 221.084C385.2 222.089 386.372 222.592 389.723 222.508L421.467 220.414C426.157 219.66 426.325 216.394 425.32 212.459ZM400.527 212.124L402.286 200.651C404.296 204.168 406.474 207.601 409.238 210.784C406.642 210.616 403.71 211.202 400.527 212.124Z" fill="url(#paint14_linear_3730_27184)"/>
<path d="M389.388 172.01C389.723 171.34 391.231 171.675 392.152 172.345C392.822 174.438 390.728 182.143 382.353 182.143C374.647 181.808 371.632 176.532 375.736 172.345L389.388 172.01Z" fill="#1F1F1D"/>
<path d="M389.388 172.01V166.064L376.489 171.675C375.4 175.276 377.913 178.626 381.682 178.961C385.535 178.961 389.304 177.37 389.388 172.01Z" fill="#F3A07D"/>
<path d="M389.388 166.064V162.547C385.535 168.409 381.347 170.67 376.824 169.163L376.489 171.591C381.431 172.596 385.87 171.34 389.388 166.064Z" fill="#E07753"/>
<path d="M389.388 162.631C386.205 168.66 382.771 171.005 376.824 169.246C368.113 164.054 367.192 155.094 368.449 145.212L388.299 152.916C389.304 155.512 389.723 158.695 389.388 162.631Z" fill="#F3A07D"/>
<path d="M370.207 142.365C369.37 143.203 368.7 144.124 368.448 145.129C372.301 151.075 380.677 150.321 388.299 152.833C387.294 150.74 383.776 150.74 380.258 148.981C376.405 147.809 372.887 145.464 370.207 142.365Z" fill="#E07753"/>
<path d="M366.354 176.867C360.407 180.887 354.879 192.276 349.1 204.168C343.237 202.577 323.47 190.182 322.298 194.621C322.046 195.626 322.13 197.217 319.617 198.892C318.696 202.325 346.001 220.246 354.544 216.311C357.811 213.547 360.659 210.532 362.92 207.266C354.461 200.232 362.501 189.094 366.354 176.867ZM401.951 199.562C396.758 219.409 374.395 207.266 363.925 216.311C363.506 232.976 380.174 216.813 385.032 215.641C390.141 214.384 394.078 212.71 400.527 212.123L401.951 199.562Z" fill="#1F1F1D"/>
<path d="M385.87 220.749C376.657 227.365 371.966 225.439 365.768 221.084C364.679 219.912 365.266 219.409 366.271 219.409C365.684 218.823 366.438 218.488 367.611 218.991C366.773 218.07 367.443 217.986 369.286 218.405C368.281 217.4 369.118 217.148 371.631 217.651L375.149 218.488C376.154 218.74 377.159 218.321 377.745 217.483C379.588 214.887 382.436 213.882 385.786 215.892C389.639 213.464 390.058 221.252 385.87 220.749Z" fill="#F3A07D"/>
<path d="M399.607 300.222L402.454 359.094L385.033 358.173C379.421 328.695 373.893 277.109 375.987 263.124C367.863 291.429 377.746 329.114 370.71 358.926L348.18 358.005C358.733 320.153 348.18 257.429 364.512 229.626L397.597 233.897C408.652 255.252 394.665 271.247 399.607 300.222Z" fill="#1E1E1C"/>
<path d="M364.931 356.498L366.354 365.626V374.754H363.925L363.507 368.473C361.748 372.577 359.905 376.429 356.806 379.025C344.829 381.454 342.902 376.597 348.682 370.902C351.529 369.73 352.869 367.971 353.958 366.129C354.88 363.365 355.047 360.015 354.88 356.582H364.931V356.498Z" fill="#1E1E1C"/>
<path d="M398.936 357.922L400.36 367.05V376.178H397.931L397.429 369.981C395.67 374.084 393.827 377.937 390.728 380.533C378.751 382.961 376.824 378.104 382.603 372.41C385.451 371.237 386.791 369.479 387.88 367.636C388.802 364.873 388.969 361.523 388.802 358.089H398.936V357.922Z" fill="#1E1E1C"/>
<path d="M220.114 271.33C220.198 279.453 219.109 286.655 215.843 292.433C214.754 296.788 215.843 300.472 219.026 303.571L204.2 310.438L190.967 302.482C191.469 298.211 192.726 295.364 195.238 295.113C191.553 286.655 190.297 278.532 191.553 270.827L220.114 271.33Z" fill="#FFE9B0"/>
<path d="M231.003 325.764L243.651 317.39L248.173 336.316C250.854 345.611 234.94 366.547 235.359 364.789C237.453 366.38 237.453 376.429 236.196 375.927C232.595 380.616 224.805 379.611 224.638 374.168C224.805 372.158 225.894 370.316 227.569 368.557C228.239 364.119 230.166 360.35 233.348 357.252C231.087 349.631 232.343 342.01 236.196 334.39C234.102 332.547 232.343 329.784 231.003 325.764Z" fill="#FFE9B0"/>
<path d="M163.579 330.537L173.63 332.631L175.221 353.734H171.536L166.175 346.365C163.244 342.345 162.155 337.237 163.244 332.296L163.579 330.537Z" fill="#FFE9B0"/>
<path d="M195.406 293.522C182.591 293.438 176.226 302.231 170.53 309.433C166.929 316.552 163.076 322.079 162.573 331.123L173.713 332.714L229.747 329.532L230.249 313.704L229.914 329.699C229.914 329.699 241.724 325.512 245.912 329.699C250.1 333.887 241.724 298.63 226.564 296.286L216.01 293.606C216.68 300.138 213.33 304.66 206.462 307.34C196.83 306.167 194.15 299.217 195.406 293.522Z" fill="#DFDFDD"/>
<path d="M217.518 287.744C215.843 295.448 212.66 301.226 205.876 301.98C198.254 300.892 194.82 294.359 192.14 286.655C191.721 283.473 194.82 288.749 197.417 289.335C200.599 289.335 200.599 284.561 205.876 286.655C210.65 284.561 210.65 288.246 212.744 289.335C216.429 289.335 218.775 284.394 217.518 287.744Z" fill="#1D1E1C"/>
<path d="M211.152 289.837C210.063 292.517 208.472 294.108 205.373 293.522C201.855 293.606 200.599 291.931 199.594 290.34C200.348 288.916 202.693 288.748 205.959 289.251C208.221 288.748 210.147 288.665 211.152 289.837Z" fill="#FCFDFF"/>
<path d="M218.523 281.379C220.198 280.123 221.287 276.69 221.706 270.828C225.308 265.049 222.795 262.788 218.021 261.867C217.267 256.926 214.168 255.754 209.561 257.094C206.211 254.749 202.777 254.581 200.013 257.596C196.328 254.916 193.396 256.172 190.465 259.69C187.701 259.355 187.114 263.709 186.779 268.65C187.282 273.424 190.465 273.926 191.051 280.793L193.145 272.837L195.825 274.429L201.102 271.749L205.373 275.433L209.645 271.749L214.419 274.429L219.193 273.926L218.523 281.379Z" fill="#1D1E1C"/>
<path d="M240.216 327.857H173.629V368.557H240.216V327.857Z" fill="#DAD1E9"/>
<path d="M262.412 358.005C245.996 339.498 215.341 368.557 183.094 381.789L173.546 386.06L175.64 394.518L190.465 391.838C203.28 386.311 217.686 382.207 233.265 379.109C249.43 375.592 259.481 368.725 262.412 358.005Z" fill="url(#paint15_linear_3730_27184)"/>
<path d="M151.769 354.571C149.256 379.694 193.899 378.103 226.731 389.744L236.615 392.926L236.028 383.882L227.904 377.35C214.67 372.911 201.185 366.379 187.533 358.256C173.21 350.216 161.149 348.625 151.769 354.571Z" fill="url(#paint16_linear_3730_27184)"/>
<path d="M173.629 386.059C165.672 384.301 160.144 387.483 154.616 390.833C152.857 394.936 154.616 397.616 161.987 398.202C168.855 398.705 174.467 389.911 175.723 394.517L173.629 386.059Z" fill="#1D1E1C"/>
<path d="M236.028 383.881C238.709 379.945 241.473 379.192 244.488 382.29C247.336 385.054 250.77 386.729 255.041 387.064C259.732 390.916 260.737 395.019 259.815 399.207C258.308 402.64 254.79 399.541 250.853 394.936C247.754 395.606 242.729 394.684 236.698 392.926L236.028 383.881Z" fill="#1D1E1C"/>
<path d="M375.484 110.71C377.83 114.646 378.835 118.917 378.5 123.523C381.599 120.424 384.865 117.661 384.028 114.562L375.484 110.71Z" fill="#642366"/>
<path d="M374.982 110.123C377.328 114.059 378.333 118.33 377.998 122.936C381.097 119.837 383.526 116.655 382.688 113.557L374.982 110.123Z" fill="#FCEBEE"/>
<path d="M366.439 63.9805L362.586 65.7391L395.754 122.015L398.937 120.424V81.6504L366.439 63.9805Z" fill="#642366"/>
<path d="M362.586 65.7393L395.754 83.6604V122.015L362.837 104.345L362.586 65.7393Z" fill="#FCEBEE"/>
<path d="M374.814 105.601C374.647 105.601 374.479 105.601 374.396 105.601C373.223 105.434 372.302 104.764 371.799 103.675L367.779 95.3009C367.193 94.1284 367.695 92.7048 368.868 92.2023C370.04 91.6161 371.464 92.1186 371.967 93.291L375.149 99.9068L386.457 86.8427C387.294 85.8378 388.802 85.7541 389.807 86.5915C390.812 87.4289 390.896 88.9363 390.058 89.9412L377.495 104.513C376.741 105.183 375.82 105.601 374.814 105.601Z" fill="#E1017F"/>
<path d="M63.9908 313.37C72.869 322.666 73.1203 333.05 60.9755 344.942V388.488H45.6479L46.9043 344.942C34.927 335.395 33.2518 321.41 44.3078 313.789L63.9908 313.37Z" fill="#DFB5D5"/>
<path d="M61.8135 315.129C62.5673 322.163 62.2322 329.198 55.8667 336.483V387.735H50.7575L51.1763 336.483C44.2244 330.203 43.0518 322.749 44.3082 314.71L61.8135 315.129Z" fill="#EFCFE4"/>
<path d="M60.1376 315.548C59.8025 321.745 57.8761 326.686 53.2695 329.617C48.3278 327.104 46.5689 321.912 46.8202 315.129L60.1376 315.548Z" fill="#961351"/>
<path d="M56.2853 315.967C56.2015 318.981 55.2802 321.577 53.27 323.671C50.841 321.996 50.0035 319.065 49.8359 315.548L56.2853 315.967Z" fill="white"/>
<path d="M25.8806 384.384C29.9051 384.384 33.1675 381.085 33.1675 377.015C33.1675 372.945 29.9051 369.646 25.8806 369.646C21.8562 369.646 18.5938 372.945 18.5938 377.015C18.5938 381.085 21.8562 384.384 25.8806 384.384Z" fill="url(#paint17_linear_3730_27184)"/>
<path d="M40.5386 381.788C45.812 381.788 50.0869 377.477 50.0869 372.158C50.0869 366.839 45.812 362.527 40.5386 362.527C35.2652 362.527 30.9902 366.839 30.9902 372.158C30.9902 377.477 35.2652 381.788 40.5386 381.788Z" fill="url(#paint18_linear_3730_27184)"/>
<path d="M64.6604 381.453C69.3787 381.453 73.2037 377.592 73.2037 372.828C73.2037 368.064 69.3787 364.202 64.6604 364.202C59.9421 364.202 56.1172 368.064 56.1172 372.828C56.1172 377.592 59.9421 381.453 64.6604 381.453Z" fill="url(#paint19_linear_3730_27184)"/>
<path d="M85.6841 389.158C90.9575 389.158 95.2324 384.846 95.2324 379.527C95.2324 374.208 90.9575 369.896 85.6841 369.896C80.4107 369.896 76.1357 374.208 76.1357 379.527C76.1357 384.846 80.4107 389.158 85.6841 389.158Z" fill="url(#paint20_linear_3730_27184)"/>
<path d="M31.074 395.606C35.8849 395.606 39.7848 391.632 39.7848 386.729C39.7848 381.827 35.8849 377.853 31.074 377.853C26.2632 377.853 22.3633 381.827 22.3633 386.729C22.3633 391.632 26.2632 395.606 31.074 395.606Z" fill="url(#paint21_linear_3730_27184)"/>
<path d="M19.3484 390.079C23.3729 390.079 26.6353 386.779 26.6353 382.709C26.6353 378.639 23.3729 375.34 19.3484 375.34C15.324 375.34 12.0615 378.639 12.0615 382.709C12.0615 386.779 15.324 390.079 19.3484 390.079Z" fill="url(#paint22_linear_3730_27184)"/>
<path d="M76.8888 396.276C82.6248 396.276 87.2747 391.589 87.2747 385.808C87.2747 380.027 82.6248 375.34 76.8888 375.34C71.1529 375.34 66.5029 380.027 66.5029 385.808C66.5029 391.589 71.1529 396.276 76.8888 396.276Z" fill="url(#paint23_linear_3730_27184)"/>
<path d="M62.818 397.532C67.2588 397.532 70.8587 393.896 70.8587 389.409C70.8587 384.923 67.2588 381.286 62.818 381.286C58.3773 381.286 54.7773 384.923 54.7773 389.409C54.7773 393.896 58.3773 397.532 62.818 397.532Z" fill="url(#paint24_linear_3730_27184)"/>
<path d="M44.3913 398.454C49.4334 398.454 53.5208 394.33 53.5208 389.242C53.5208 384.155 49.4334 380.03 44.3913 380.03C39.3492 380.03 35.2617 384.155 35.2617 389.242C35.2617 394.33 39.3492 398.454 44.3913 398.454Z" fill="url(#paint25_linear_3730_27184)"/>
<path d="M53.7722 399.291C57.7967 399.291 61.0591 395.991 61.0591 391.921C61.0591 387.851 57.7967 384.552 53.7722 384.552C49.7478 384.552 46.4854 387.851 46.4854 391.921C46.4854 395.991 49.7478 399.291 53.7722 399.291Z" fill="url(#paint26_linear_3730_27184)"/>
<path d="M91.7985 392.927C94.8515 392.927 97.3265 390.415 97.3265 387.316C97.3265 384.217 94.8515 381.705 91.7985 381.705C88.7455 381.705 86.2705 384.217 86.2705 387.316C86.2705 390.415 88.7455 392.927 91.7985 392.927Z" fill="url(#paint27_linear_3730_27184)"/>
<path d="M11.4746 383.463C14.065 383.463 16.165 381.364 16.165 378.774C16.165 376.184 14.065 374.084 11.4746 374.084C8.88415 374.084 6.78418 376.184 6.78418 378.774C6.78418 381.364 8.88415 383.463 11.4746 383.463Z" fill="url(#paint28_linear_3730_27184)"/>
<path d="M4.52292 383.464C6.41949 383.464 7.95697 381.926 7.95697 380.03C7.95697 378.134 6.41949 376.597 4.52292 376.597C2.62634 376.597 1.08887 378.134 1.08887 380.03C1.08887 381.926 2.62634 383.464 4.52292 383.464Z" fill="url(#paint29_linear_3730_27184)"/>
<path d="M98.8335 386.478C101.516 386.478 103.691 384.266 103.691 381.538C103.691 378.809 101.516 376.597 98.8335 376.597C96.1506 376.597 93.9756 378.809 93.9756 381.538C93.9756 384.266 96.1506 386.478 98.8335 386.478Z" fill="url(#paint30_linear_3730_27184)"/>
<path d="M105.701 385.557C107.228 385.557 108.465 384.32 108.465 382.794C108.465 381.268 107.228 380.03 105.701 380.03C104.175 380.03 102.938 381.268 102.938 382.794C102.938 384.32 104.175 385.557 105.701 385.557Z" fill="url(#paint31_linear_3730_27184)"/>
<path d="M69.5189 292.015C63.5721 301.394 42.6328 300.975 37.9424 292.852V308.68C43.0516 320.236 68.2625 317.222 69.5189 307.842V292.015Z" fill="#1D1D1B"/>
<path d="M69.5189 298.464V305.331C60.9757 313.873 43.8892 313.454 37.9424 304.912V298.464C45.1455 307.424 61.3944 306.587 69.5189 298.464Z" fill="#E1017F"/>
<path d="M39.8687 183.734C24.1223 213.966 24.6248 250.897 37.9423 292.853C39.1149 295.03 41.5438 296.621 44.6428 297.961C34.3407 257.094 34.8432 202.409 43.4702 188.257C40.455 186.079 40.0362 183.986 39.8687 183.734Z" fill="#E7CFD4"/>
<path d="M67.0057 183.985C82.417 207.015 81.9145 252.99 69.6022 292.015C64.828 298.128 56.9548 300.641 44.6425 297.961C35.0104 257.429 34.089 204.503 43.5536 188.256C52.9345 191.439 61.0589 190.936 67.0057 183.985Z" fill="#FCEBEE"/>
<path d="M53.6889 167.739C48.0771 170.168 43.5542 175.862 39.7852 183.734C42.9679 192.527 63.0697 192.025 66.9225 183.986C63.7398 176.449 59.3006 171.089 53.6889 167.739Z" fill="#1D1D1B"/>
<path d="M76.3871 257.848L74.7119 259.188L86.8567 295.951C93.6411 288.163 88.1131 267.813 76.3871 257.848Z" fill="#642366"/>
<path d="M73.1201 277.192C74.1252 272.168 74.4602 265.803 74.6277 259.188C85.6 268.986 89.2015 281.38 86.7726 295.951C84.2598 285.567 80.3232 279.119 73.1201 277.192Z" fill="#E1017F"/>
<path d="M29.9017 259.606L31.5769 260.946L18.8458 297.542C12.1452 289.67 17.9244 269.404 29.9017 259.606Z" fill="#642366"/>
<path d="M32.7493 279.035C31.8279 274.011 31.5766 267.646 31.4929 261.03C20.4369 270.577 16.5841 282.971 18.7618 297.626C21.5258 287.242 25.6299 280.878 32.7493 279.035Z" fill="#E1017F"/>
<path d="M37.1041 260.025L39.2818 261.7L27.6396 314.71C18.6775 304.41 23.6192 275.267 37.1041 260.025Z" fill="#642366"/>
<path d="M42.6323 286.907C40.9571 279.956 40.0358 270.996 39.1982 261.7C26.8021 276.523 23.4518 294.36 27.6397 314.71C29.8174 299.804 34.089 290.341 42.6323 286.907Z" fill="#E1017F"/>
<path d="M68.8486 259.606L66.6709 261.281L78.2294 314.207C87.1915 303.991 82.2498 274.848 68.8486 259.606Z" fill="#642366"/>
<path d="M63.3203 286.488C64.9955 279.537 65.9168 270.577 66.7544 261.281C79.1504 276.104 82.5007 293.941 78.3129 314.207C76.0514 299.385 71.7798 289.922 63.3203 286.488Z" fill="#E1017F"/>
<path d="M62.9854 223.68C68.5364 223.68 73.0363 218.319 73.0363 211.705C73.0363 205.091 68.5364 199.729 62.9854 199.729C57.4345 199.729 52.9346 205.091 52.9346 211.705C52.9346 218.319 57.4345 223.68 62.9854 223.68Z" fill="#E1017F"/>
<path d="M62.9854 220.247C66.9635 220.247 70.1885 216.423 70.1885 211.705C70.1885 206.987 66.9635 203.163 62.9854 203.163C59.0072 203.163 55.7822 206.987 55.7822 211.705C55.7822 216.423 59.0072 220.247 62.9854 220.247Z" fill="#773367"/>
<path d="M56.787 214.3C54.3581 204.921 64.4927 199.813 67.843 206.596C63.2363 207.35 59.7185 210.281 56.787 214.3Z" fill="#A23A8D"/>
<path d="M64.3256 246.961C68.6276 246.961 72.115 242.836 72.115 237.749C72.115 232.661 68.6276 228.537 64.3256 228.537C60.0236 228.537 56.5361 232.661 56.5361 237.749C56.5361 242.836 60.0236 246.961 64.3256 246.961Z" fill="#E1017F"/>
<path d="M64.3258 244.365C67.3789 244.365 69.8538 241.403 69.8538 237.75C69.8538 234.096 67.3789 231.134 64.3258 231.134C61.2728 231.134 58.7979 234.096 58.7979 237.75C58.7979 241.403 61.2728 244.365 64.3258 244.365Z" fill="#773367"/>
<path d="M59.5515 239.759C57.7088 232.473 65.4983 228.537 68.0948 233.813C64.5769 234.399 61.813 236.66 59.5515 239.759Z" fill="#A23A8D"/>
<path d="M190.966 232.892C188.37 237.33 187.197 242.103 187.616 247.212C184.182 243.695 180.497 240.68 181.418 237.163L190.966 232.892Z" fill="#642366"/>
<path d="M191.552 232.138C188.956 236.576 187.783 241.349 188.202 246.458C184.768 242.941 182.088 239.423 182.925 235.906L191.552 232.138Z" fill="#FCEBEE"/>
<path d="M201.101 180.552L205.456 182.562L168.268 245.537L164.834 243.778V200.399L201.101 180.552Z" fill="#E1017F"/>
<path d="M205.456 182.562L168.268 202.66V245.537L205.121 225.773L205.456 182.562Z" fill="#FCEBEE"/>
<path d="M184.936 228.621C184.433 228.621 184.014 228.537 183.512 228.453C179.408 227.197 177.816 220.414 179.994 213.379C182.172 206.345 187.281 201.655 191.385 202.912C195.489 204.168 197.08 210.951 194.903 217.985C192.976 224.182 188.705 228.621 184.936 228.621ZM190.045 203.414C186.611 203.414 182.674 207.601 180.915 213.547C178.905 220.163 180.161 226.444 183.847 227.616C187.532 228.705 192.139 224.266 194.149 217.65C196.159 211.035 194.903 204.754 191.217 203.581C190.799 203.498 190.464 203.414 190.045 203.414Z" fill="#E1017F"/>
<path d="M187.448 228.202C187.197 228.202 187.029 228.035 187.029 227.783V212.458L193.479 205.173L195.154 197.133C195.238 196.882 195.405 196.714 195.656 196.798C195.908 196.882 196.075 197.049 195.991 197.301L194.316 205.508L187.867 212.709V227.7C187.867 227.951 187.616 228.202 187.448 228.202Z" fill="#E1017F"/>
<path d="M187.449 213.044C187.365 213.044 187.365 213.044 187.281 213.044L181.586 210.448L179.408 206.01C179.324 205.758 179.408 205.507 179.575 205.423C179.827 205.34 180.078 205.423 180.162 205.591L182.256 209.694L187.7 212.207C187.951 212.29 188.035 212.542 187.867 212.793C187.784 212.96 187.616 213.044 187.449 213.044Z" fill="#E1017F"/>
<path d="M185.857 205.172C185.605 205.172 185.438 205.005 185.438 204.837L184.852 200.734C184.852 200.483 185.019 200.315 185.187 200.231C185.438 200.231 185.605 200.399 185.689 200.566L186.275 204.67C186.359 204.921 186.192 205.172 185.857 205.172C185.94 205.172 185.94 205.172 185.857 205.172Z" fill="#E1017F"/>
<path d="M189.961 203.162H189.877C189.626 203.079 189.542 202.911 189.542 202.66L190.798 197.133C190.882 196.882 191.05 196.798 191.301 196.798C191.552 196.882 191.636 197.049 191.636 197.3L190.38 202.827C190.38 203.079 190.212 203.162 189.961 203.162Z" fill="#E1017F"/>
<path d="M195.992 224.517C195.741 224.517 195.573 224.266 195.573 224.014L196.411 217.901L194.82 216.98C194.652 216.896 194.568 216.645 194.652 216.394C194.736 216.226 194.987 216.142 195.238 216.226L197.332 217.399L196.411 224.098C196.411 224.433 196.16 224.517 195.992 224.517Z" fill="#E1017F"/>
<path d="M181.418 232.222C181.25 232.222 181.083 232.138 180.999 231.971L178.821 227.533L179.743 224.769C179.826 224.518 180.078 224.434 180.245 224.518C180.496 224.601 180.58 224.853 180.496 225.02L179.659 227.449L181.753 231.552C181.837 231.803 181.753 232.055 181.585 232.138C181.585 232.222 181.502 232.222 181.418 232.222Z" fill="#E1017F"/>
<path d="M198.504 211.704C198.337 211.704 198.169 211.537 198.086 211.369L196.997 207.015L195.824 208.187C195.657 208.355 195.405 208.355 195.238 208.187C195.07 208.02 195.07 207.768 195.238 207.601L197.499 205.34L198.923 211.202C199.007 211.453 198.84 211.704 198.588 211.704C198.588 211.704 198.588 211.704 198.504 211.704Z" fill="#E1017F"/>
<path d="M176.308 223.68C176.057 223.68 175.89 223.429 175.89 223.262L176.308 216.395L179.742 216.897C179.994 216.897 180.161 217.148 180.078 217.399C180.078 217.651 179.826 217.818 179.575 217.734L177.062 217.399L176.643 223.345C176.727 223.513 176.56 223.68 176.308 223.68Z" fill="#E1017F"/>
<defs>
<linearGradient id="paint0_linear_3730_27184" x1="240.727" y1="263.679" x2="149.83" y2="263.679" gradientUnits="userSpaceOnUse">
<stop stop-color="#642366"/>
<stop offset="0.529" stop-color="#EDC3DC"/>
<stop offset="0.5865" stop-color="#E7BCD7"/>
<stop offset="0.6676" stop-color="#D8AAC9"/>
<stop offset="0.763" stop-color="#BE8CB3"/>
<stop offset="0.8691" stop-color="#996194"/>
<stop offset="0.9828" stop-color="#6C2C6C"/>
<stop offset="1" stop-color="#642366"/>
</linearGradient>
<linearGradient id="paint1_linear_3730_27184" x1="55.3431" y1="296.37" x2="304.893" y2="46.7796" gradientUnits="userSpaceOnUse">
<stop stop-color="#642366"/>
<stop offset="0.529" stop-color="#EDC3DC"/>
<stop offset="0.5865" stop-color="#E7BCD7"/>
<stop offset="0.6676" stop-color="#D8AAC9"/>
<stop offset="0.763" stop-color="#BE8CB3"/>
<stop offset="0.8691" stop-color="#996194"/>
<stop offset="0.9828" stop-color="#6C2C6C"/>
<stop offset="1" stop-color="#642366"/>
</linearGradient>
<linearGradient id="paint2_linear_3730_27184" x1="285.462" y1="169.891" x2="79.8646" y2="169.891" gradientUnits="userSpaceOnUse">
<stop stop-color="#EDC3DC"/>
<stop offset="0.529" stop-color="white"/>
<stop offset="1" stop-color="#EDC3DC"/>
</linearGradient>
<linearGradient id="paint3_linear_3730_27184" x1="306.258" y1="102.105" x2="101.144" y2="102.105" gradientUnits="userSpaceOnUse">
<stop stop-color="#632365"/>
<stop offset="0.529" stop-color="#EBC2DB"/>
<stop offset="0.5867" stop-color="#E5BBD6"/>
<stop offset="0.6682" stop-color="#D6A9C8"/>
<stop offset="0.764" stop-color="#BC8BB2"/>
<stop offset="0.8705" stop-color="#976093"/>
<stop offset="0.9846" stop-color="#6A2B6B"/>
<stop offset="1" stop-color="#632365"/>
</linearGradient>
<linearGradient id="paint4_linear_3730_27184" x1="308.92" y1="170.825" x2="105.202" y2="170.825" gradientUnits="userSpaceOnUse">
<stop stop-color="#632365"/>
<stop offset="0.529" stop-color="#EBC2DB"/>
<stop offset="0.5867" stop-color="#E5BBD6"/>
<stop offset="0.6682" stop-color="#D6A9C8"/>
<stop offset="0.764" stop-color="#BC8BB2"/>
<stop offset="0.8705" stop-color="#976093"/>
<stop offset="0.9846" stop-color="#6A2B6B"/>
<stop offset="1" stop-color="#632365"/>
</linearGradient>
<linearGradient id="paint5_linear_3730_27184" x1="255.036" y1="178.911" x2="353.031" y2="179.051" gradientUnits="userSpaceOnUse">
<stop stop-color="#632365"/>
<stop offset="0.529" stop-color="#EBC2DB"/>
<stop offset="0.5867" stop-color="#E5BBD6"/>
<stop offset="0.6682" stop-color="#D6A9C8"/>
<stop offset="0.764" stop-color="#BC8BB2"/>
<stop offset="0.8705" stop-color="#976093"/>
<stop offset="0.9846" stop-color="#6A2B6B"/>
<stop offset="1" stop-color="#632365"/>
</linearGradient>
<linearGradient id="paint6_linear_3730_27184" x1="255.05" y1="168.614" x2="353.045" y2="168.754" gradientUnits="userSpaceOnUse">
<stop stop-color="#632365"/>
<stop offset="0.529" stop-color="#EBC2DB"/>
<stop offset="0.5867" stop-color="#E5BBD6"/>
<stop offset="0.6682" stop-color="#D6A9C8"/>
<stop offset="0.764" stop-color="#BC8BB2"/>
<stop offset="0.8705" stop-color="#976093"/>
<stop offset="0.9846" stop-color="#6A2B6B"/>
<stop offset="1" stop-color="#632365"/>
</linearGradient>
<linearGradient id="paint7_linear_3730_27184" x1="263.33" y1="223.689" x2="352.822" y2="223.689" gradientUnits="userSpaceOnUse">
<stop stop-color="#632365"/>
<stop offset="0.529" stop-color="#EBC2DB"/>
<stop offset="0.5867" stop-color="#E5BBD6"/>
<stop offset="0.6682" stop-color="#D6A9C8"/>
<stop offset="0.764" stop-color="#BC8BB2"/>
<stop offset="0.8705" stop-color="#976093"/>
<stop offset="0.9846" stop-color="#6A2B6B"/>
<stop offset="1" stop-color="#632365"/>
</linearGradient>
<linearGradient id="paint8_linear_3730_27184" x1="255.045" y1="171.936" x2="353.04" y2="172.075" gradientUnits="userSpaceOnUse">
<stop stop-color="#632365"/>
<stop offset="0.529" stop-color="#EBC2DB"/>
<stop offset="0.5867" stop-color="#E5BBD6"/>
<stop offset="0.6682" stop-color="#D6A9C8"/>
<stop offset="0.764" stop-color="#BC8BB2"/>
<stop offset="0.8705" stop-color="#976093"/>
<stop offset="0.9846" stop-color="#6A2B6B"/>
<stop offset="1" stop-color="#632365"/>
</linearGradient>
<linearGradient id="paint9_linear_3730_27184" x1="263.329" y1="171.863" x2="352.821" y2="171.863" gradientUnits="userSpaceOnUse">
<stop stop-color="#632365"/>
<stop offset="0.529" stop-color="#EBC2DB"/>
<stop offset="0.5867" stop-color="#E5BBD6"/>
<stop offset="0.6682" stop-color="#D6A9C8"/>
<stop offset="0.764" stop-color="#BC8BB2"/>
<stop offset="0.8705" stop-color="#976093"/>
<stop offset="0.9846" stop-color="#6A2B6B"/>
<stop offset="1" stop-color="#632365"/>
</linearGradient>
<linearGradient id="paint10_linear_3730_27184" x1="380.829" y1="162.162" x2="414.961" y2="162.162" gradientUnits="userSpaceOnUse">
<stop stop-color="#E3177F" stop-opacity="0"/>
<stop offset="0.5" stop-color="#E3177F"/>
<stop offset="1" stop-color="#E3177F" stop-opacity="0.8"/>
</linearGradient>
<linearGradient id="paint11_linear_3730_27184" x1="362.081" y1="226.054" x2="399.456" y2="226.054" gradientUnits="userSpaceOnUse">
<stop stop-color="#1F1F1D"/>
<stop offset="1" stop-color="#737371"/>
</linearGradient>
<linearGradient id="paint12_linear_3730_27184" x1="343.259" y1="180.364" x2="296.304" y2="180.364" gradientUnits="userSpaceOnUse">
<stop stop-color="#FBEBEF"/>
<stop offset="1" stop-color="#642366"/>
</linearGradient>
<linearGradient id="paint13_linear_3730_27184" x1="343.684" y1="180.363" x2="295.877" y2="180.363" gradientUnits="userSpaceOnUse">
<stop stop-color="#642366"/>
<stop offset="1" stop-color="#E1A8CD"/>
</linearGradient>
<linearGradient id="paint14_linear_3730_27184" x1="357.731" y1="196.594" x2="425.809" y2="196.594" gradientUnits="userSpaceOnUse">
<stop stop-color="#1F1F1D"/>
<stop offset="1" stop-color="#737371"/>
</linearGradient>
<linearGradient id="paint15_linear_3730_27184" x1="198.044" y1="407.362" x2="235.996" y2="341.617" gradientUnits="userSpaceOnUse">
<stop stop-color="#1D1E1C"/>
<stop offset="0.4668" stop-color="#727270"/>
<stop offset="1" stop-color="#1E1F1E"/>
</linearGradient>
<linearGradient id="paint16_linear_3730_27184" x1="228.839" y1="362.058" x2="160.023" y2="384.609" gradientUnits="userSpaceOnUse">
<stop stop-color="#1D1E1C"/>
<stop offset="0.4668" stop-color="#727270"/>
<stop offset="1" stop-color="#1E1F1E"/>
</linearGradient>
<linearGradient id="paint17_linear_3730_27184" x1="30.1214" y1="372.738" x2="19.8642" y2="383.044" gradientUnits="userSpaceOnUse">
<stop stop-color="#FCF9F8"/>
<stop offset="0.9271" stop-color="#E1D2E8"/>
</linearGradient>
<linearGradient id="paint18_linear_3730_27184" x1="46.0555" y1="366.57" x2="32.629" y2="380.06" gradientUnits="userSpaceOnUse">
<stop stop-color="#FCF9F8"/>
<stop offset="0.9271" stop-color="#E1D2E8"/>
</linearGradient>
<linearGradient id="paint19_linear_3730_27184" x1="69.6093" y1="367.861" x2="57.5644" y2="379.964" gradientUnits="userSpaceOnUse">
<stop stop-color="#FCF9F8"/>
<stop offset="0.9271" stop-color="#E1D2E8"/>
</linearGradient>
<linearGradient id="paint20_linear_3730_27184" x1="91.2378" y1="373.986" x2="77.8113" y2="387.476" gradientUnits="userSpaceOnUse">
<stop stop-color="#FCF9F8"/>
<stop offset="0.9271" stop-color="#E1D2E8"/>
</linearGradient>
<linearGradient id="paint21_linear_3730_27184" x1="36.1958" y1="381.619" x2="23.8529" y2="394.021" gradientUnits="userSpaceOnUse">
<stop stop-color="#FCF9F8"/>
<stop offset="0.9271" stop-color="#E1D2E8"/>
</linearGradient>
<linearGradient id="paint22_linear_3730_27184" x1="23.6036" y1="378.426" x2="13.3465" y2="388.732" gradientUnits="userSpaceOnUse">
<stop stop-color="#FCF9F8"/>
<stop offset="0.9271" stop-color="#E1D2E8"/>
</linearGradient>
<linearGradient id="paint23_linear_3730_27184" x1="82.9184" y1="379.747" x2="68.2865" y2="394.449" gradientUnits="userSpaceOnUse">
<stop stop-color="#FCF9F8"/>
<stop offset="0.9271" stop-color="#E1D2E8"/>
</linearGradient>
<linearGradient id="paint24_linear_3730_27184" x1="67.4678" y1="384.738" x2="56.1137" y2="396.146" gradientUnits="userSpaceOnUse">
<stop stop-color="#FCF9F8"/>
<stop offset="0.9271" stop-color="#E1D2E8"/>
</linearGradient>
<linearGradient id="paint25_linear_3730_27184" x1="49.7138" y1="383.907" x2="36.8697" y2="396.812" gradientUnits="userSpaceOnUse">
<stop stop-color="#FCF9F8"/>
<stop offset="0.9271" stop-color="#E1D2E8"/>
</linearGradient>
<linearGradient id="paint26_linear_3730_27184" x1="58.0438" y1="387.687" x2="47.7866" y2="397.993" gradientUnits="userSpaceOnUse">
<stop stop-color="#FCF9F8"/>
<stop offset="0.9271" stop-color="#E1D2E8"/>
</linearGradient>
<linearGradient id="paint27_linear_3730_27184" x1="95.0406" y1="384.086" x2="87.262" y2="391.901" gradientUnits="userSpaceOnUse">
<stop stop-color="#FCF9F8"/>
<stop offset="0.9271" stop-color="#E1D2E8"/>
</linearGradient>
<linearGradient id="paint28_linear_3730_27184" x1="14.2358" y1="376.037" x2="7.64905" y2="382.655" gradientUnits="userSpaceOnUse">
<stop stop-color="#FCF9F8"/>
<stop offset="0.9271" stop-color="#E1D2E8"/>
</linearGradient>
<linearGradient id="paint29_linear_3730_27184" x1="6.4887" y1="378.065" x2="1.68978" y2="382.887" gradientUnits="userSpaceOnUse">
<stop stop-color="#FCF9F8"/>
<stop offset="0.9271" stop-color="#E1D2E8"/>
</linearGradient>
<linearGradient id="paint30_linear_3730_27184" x1="101.678" y1="378.69" x2="94.7937" y2="385.608" gradientUnits="userSpaceOnUse">
<stop stop-color="#FCF9F8"/>
<stop offset="0.9271" stop-color="#E1D2E8"/>
</linearGradient>
<linearGradient id="paint31_linear_3730_27184" x1="107.306" y1="381.208" x2="103.401" y2="385.131" gradientUnits="userSpaceOnUse">
<stop stop-color="#FCF9F8"/>
<stop offset="0.9271" stop-color="#E1D2E8"/>
</linearGradient>
</defs>
</svg>
