<svg width="65" height="91" viewBox="0 0 65 91" fill="none" xmlns="http://www.w3.org/2000/svg">
<g id="Group">
<path id="Vector" d="M49.5 43.6V83.4C49.5 86.7 46.8 89.4 43.5 89.4H8C4.7 89.4 2 86.7 2 83.4V6.2C2 3.9 3.90007 2 6.20007 2H45.3C47.6 2 49.5 3.9 49.5 6.2V19.8" stroke="#BF73AD" stroke-width="3" stroke-miterlimit="10" stroke-linecap="round" stroke-linejoin="round"/>
<path id="Vector_2" d="M2 11.6001H49.5" stroke="#BF73AD" stroke-width="3" stroke-miterlimit="10" stroke-linecap="round" stroke-linejoin="round"/>
<path id="Vector_3" d="M2 73.8999H49.5" stroke="#BF73AD" stroke-width="3" stroke-miterlimit="10" stroke-linecap="round" stroke-linejoin="round"/>
<path id="Vector_4" d="M16.8008 7.3999H34.1008" stroke="#BF73AD" stroke-width="3" stroke-miterlimit="10" stroke-linecap="round" stroke-linejoin="round"/>
<path id="Vector_5" d="M40.5996 7.3999H45.0996" stroke="#BF73AD" stroke-width="3" stroke-miterlimit="10" stroke-linecap="round" stroke-linejoin="round"/>
<path id="Vector_6" d="M27.8995 84.5998H23.4995C21.8995 84.5998 20.5996 83.2998 20.5996 81.6998C20.5996 80.0998 21.8995 78.7998 23.4995 78.7998H27.8995C29.4995 78.7998 30.7996 80.0998 30.7996 81.6998C30.7996 83.2998 29.4995 84.5998 27.8995 84.5998Z" stroke="#BF73AD" stroke-width="3" stroke-miterlimit="10" stroke-linecap="round" stroke-linejoin="round"/>
<path id="Vector_7" d="M59.6001 33.6999L63.1001 33.0999L62.1001 27.8999L58.8 28.4999C58.5 27.7999 58.2 27.1999 57.8 26.5999L59.7001 24.3999L55.7001 20.9999L53.8 23.1999C53.3 22.9999 52.7001 22.6999 52.2001 22.5999V19.8999H46.9V22.4999C46.2 22.6999 45.6 22.8999 45 23.1999L43 20.8999L39 24.2999L41 26.5999C40.6 27.0999 40.3 27.6999 40 28.2999L36.5 27.6999L35.5 32.8999L39.1001 33.5999C39.1001 33.8999 39.2001 34.1999 39.2001 34.4999L36.3 36.1999L38.9 40.7999L41.5 39.2999C42 39.8999 42.7 40.4999 43.4 40.9999L42.3 44.1999L47.3 45.8999L48.3 42.7999C48.6 42.7999 48.9001 42.7999 49.2001 42.7999C49.7001 42.7999 50.2001 42.7999 50.6001 42.6999L51.5 45.7999L56.5 44.1999L55.4 40.5999C55.9 40.1999 56.3001 39.7999 56.7001 39.3999L59.3 40.8999L61.9 36.2999L59.1001 34.6999C59.5001 34.2999 59.6001 33.9999 59.6001 33.6999Z" stroke="#BF73AD" stroke-width="3" stroke-miterlimit="10" stroke-linecap="round" stroke-linejoin="round"/>
<path id="Vector_8" d="M54.7996 32.2001C54.7996 35.0001 52.4996 37.3001 49.6996 37.3001C46.8996 37.3001 44.5996 35.0001 44.5996 32.2001C44.5996 29.4001 46.8996 27.1001 49.6996 27.1001C52.4996 27.1001 54.7996 29.4001 54.7996 32.2001Z" stroke="#BF73AD" stroke-width="3" stroke-miterlimit="10" stroke-linecap="round" stroke-linejoin="round"/>
</g>
</svg>
