<svg width="82" height="87" viewBox="0 0 82 87" fill="none" xmlns="http://www.w3.org/2000/svg">
<g id="Group">
<path id="Vector" d="M27.6 57.7998H2L7.79999 39.2998H33.4L27.6 57.7998Z" stroke="#BF73AD" stroke-width="3" stroke-miterlimit="10" stroke-linecap="round" stroke-linejoin="round"/>
<path id="Vector_2" d="M2 57.8002V32.2002H14.9L17.7 35.0002L30.5 35.1002V39.3002H7.79999L2 57.8002Z" stroke="#BF73AD" stroke-width="3" stroke-miterlimit="10" stroke-linecap="round" stroke-linejoin="round"/>
<path id="Vector_3" d="M74.4008 27.5H48.8008L54.6008 9H80.2008L74.4008 27.5Z" stroke="#BF73AD" stroke-width="3" stroke-miterlimit="10" stroke-linecap="round" stroke-linejoin="round"/>
<path id="Vector_4" d="M48.8008 27.5V2H61.7008L64.5008 4.7L77.3008 4.8V9H54.6008L48.8008 27.5Z" stroke="#BF73AD" stroke-width="3" stroke-miterlimit="10" stroke-linecap="round" stroke-linejoin="round"/>
<path id="Vector_5" d="M74.4008 85.2002H48.8008L54.6008 66.7002H80.2008L74.4008 85.2002Z" stroke="#BF73AD" stroke-width="3" stroke-miterlimit="10" stroke-linecap="round" stroke-linejoin="round"/>
<path id="Vector_6" d="M48.8008 85.2001V59.6001H61.7008L64.5008 62.4001L77.3008 62.5001V66.7001H54.6008L48.8008 85.2001Z" stroke="#BF73AD" stroke-width="3" stroke-miterlimit="10" stroke-linecap="round" stroke-linejoin="round"/>
<path id="Vector_7" d="M36.6992 12.2002V72.4002" stroke="#BF73AD" stroke-width="3" stroke-miterlimit="10" stroke-linecap="round" stroke-linejoin="round"/>
<path id="Vector_8" d="M46.3992 12.3999H36.6992" stroke="#BF73AD" stroke-width="3" stroke-miterlimit="10" stroke-linecap="round" stroke-linejoin="round"/>
<path id="Vector_9" d="M36.7004 42.8999H32.4004" stroke="#BF73AD" stroke-width="3" stroke-miterlimit="10" stroke-linecap="round" stroke-linejoin="round"/>
<path id="Vector_10" d="M47.6003 71.7998H37.9004" stroke="#BF73AD" stroke-width="3" stroke-miterlimit="10" stroke-linecap="round" stroke-linejoin="round"/>
</g>
</svg>
