<svg width="95" height="77" viewBox="0 0 95 77" fill="none" xmlns="http://www.w3.org/2000/svg">
<g id="Group">
<path id="Vector" d="M69 75.4011H9.4C5.5 75.4011 2.3 72.2011 2.3 68.3011L2 17.7011C2 13.8011 5.5 10.6011 9.4 10.6011H69C72.9 10.6011 76.1 13.8011 76.1 17.7011V68.3011C76.1 72.2011 72.9 75.4011 69 75.4011Z" stroke="#BF73AD" stroke-width="3" stroke-miterlimit="10" stroke-linecap="round" stroke-linejoin="round"/>
<path id="Vector_2" d="M76.1 28.5011H2V16.8011C2 13.8011 5.2 10.6011 8.3 10.6011H69.4C72.4 10.6011 76.1 13.0011 76.1 16.0011V28.5011Z" stroke="#BF73AD" stroke-width="3" stroke-miterlimit="10" stroke-linecap="round" stroke-linejoin="round"/>
<path id="Vector_3" d="M39.9 37.1011L34.5 63.7011" stroke="#BF73AD" stroke-width="3" stroke-miterlimit="10" stroke-linecap="round" stroke-linejoin="round"/>
<path id="Vector_4" d="M48.1992 42.6011L58.5992 50.3011" stroke="#BF73AD" stroke-width="3" stroke-miterlimit="10" stroke-linecap="round" stroke-linejoin="round"/>
<path id="Vector_5" d="M48.1992 58.1008L58.5992 50.3008" stroke="#BF73AD" stroke-width="3" stroke-miterlimit="10" stroke-linecap="round" stroke-linejoin="round"/>
<path id="Vector_6" d="M28.5 42.6011L19 50.4011" stroke="#BF73AD" stroke-width="3" stroke-miterlimit="10" stroke-linecap="round" stroke-linejoin="round"/>
<path id="Vector_7" d="M28.1 57.8009L19 50.4009" stroke="#BF73AD" stroke-width="3" stroke-miterlimit="10" stroke-linecap="round" stroke-linejoin="round"/>
<path id="Vector_8" d="M9.30078 19.7012H40.5008" stroke="#BF73AD" stroke-width="3" stroke-miterlimit="10" stroke-linecap="round" stroke-linejoin="round"/>
<path id="Vector_9" d="M94.7 17.7009C94.7 27.5009 86.2 35.4009 75.6 35.4009C65.1 35.4009 56.5 27.5009 56.5 17.7009C56.5 7.90092 65 0.000927414 75.6 0.000927414C86.1 -0.0990726 94.7 7.90092 94.7 17.7009Z" fill="white"/>
<path id="Vector_10" d="M83.9004 20.7012L87.9004 20.0012L86.8004 14.0012L83.0004 14.7012C82.7004 13.9012 82.3004 13.2012 81.8004 12.5012L83.9004 10.0012L79.2004 6.00117L77.0004 8.50117C76.4004 8.20117 75.8004 8.00118 75.1004 7.80118V4.70117H69.0004V7.70117C68.2004 7.90117 67.5004 8.20117 66.8004 8.50117L64.5004 5.80118L59.8004 9.80118L62.1004 12.5012C61.7004 13.1012 61.3004 13.8012 61.0004 14.5012L57.0004 13.8012L55.9004 19.8012L60.1004 20.6012C60.1004 20.9012 60.2004 21.3012 60.3004 21.6012L56.9004 23.6012L60.0004 28.9012L63.1004 27.1012C63.7004 27.8012 64.5004 28.5012 65.3004 29.0012L64.1004 32.7012L69.9004 34.7012L71.1004 31.2012C71.5004 31.2012 71.8004 31.3012 72.2004 31.3012C72.8004 31.3012 73.3004 31.3012 73.9004 31.2012L75.0004 34.7012L80.8004 32.9012L79.5004 28.8012C80.0004 28.4012 80.5004 27.9012 81.0004 27.4012L84.0004 29.1012L87.1004 23.8012L83.8004 21.9012C83.8004 21.4012 83.9004 21.0012 83.9004 20.7012Z" stroke="#BF73AD" stroke-width="3" stroke-miterlimit="10" stroke-linecap="round" stroke-linejoin="round"/>
<path id="Vector_11" d="M76.1 16.001C76.1 17.601 73.9 19.001 71.3 19.001C68.6 19.001 66.5 17.701 66.5 16.001C66.5 14.401 68.7 13.001 71.3 13.001C73.9 13.001 76.1 14.301 76.1 16.001Z" stroke="#BF73AD" stroke-width="3" stroke-miterlimit="10" stroke-linecap="round" stroke-linejoin="round"/>
</g>
</svg>
