<svg width="73" height="86" viewBox="0 0 73 86" fill="none" xmlns="http://www.w3.org/2000/svg">
<path d="M53.1 33.8V76C53.1 76 49.9 84.7 25.7 84.3C25.7 84.3 6.2 84.1 2 76V11.5C2 11.5 4.00002 2.4 29.4 2C29.4 2 41.7 2.2 48.5 6.2" stroke="#BF73AD" stroke-width="3" stroke-miterlimit="10" stroke-linecap="round" stroke-linejoin="round"/>
<path d="M2 54.2998C2 54.2998 8.4 62.8998 27.5 62.7998C34.2 62.7998 49.8 61.5998 53 54.2998" stroke="#BF73AD" stroke-width="3" stroke-miterlimit="10" stroke-linecap="round" stroke-linejoin="round"/>
<path d="M2 34.6001C2 34.6001 8.4 43.2001 27.5 43.1001C34.2 43.1001 49.8 41.9001 53 34.6001" stroke="#BF73AD" stroke-width="3" stroke-miterlimit="10" stroke-linecap="round" stroke-linejoin="round"/>
<path d="M2 13.2998C2 13.2998 8.4 21.8998 27.5 21.7998C30.3 21.7998 34.6 22.0998 39 21.3998" stroke="#BF73AD" stroke-width="3" stroke-miterlimit="10" stroke-linecap="round" stroke-linejoin="round"/>
<path d="M66.6996 21.0998L71.2996 20.2998L69.9996 13.3998L65.6996 14.1998C65.2996 13.2998 64.8996 12.4998 64.2996 11.6998L66.6996 8.7998L61.3997 4.2998L58.8997 7.19981C58.1997 6.89981 57.4996 6.5998 56.6996 6.3998V2.7998H49.6996V6.2998C48.7996 6.4998 47.9996 6.79981 47.0996 7.19981L44.4996 4.0998L39.1996 8.5998L41.7996 11.6998C41.2996 12.3998 40.8996 13.1998 40.4996 13.9998L35.8997 13.1998L34.5996 20.0998L39.3997 20.9998C39.3997 21.3998 39.4996 21.7998 39.5996 22.1998L35.6996 24.3998L39.1996 30.3998L42.6996 28.3998C43.3996 29.1998 44.1996 29.9998 45.1996 30.5998L43.7996 34.7998L50.3997 36.9998L51.7996 32.9998C52.1996 32.9998 52.5996 33.0998 52.9996 33.0998C53.5996 33.0998 54.2997 33.0998 54.8997 32.9998L56.0996 36.9998L62.7996 34.8998L61.2996 30.1998C61.8996 29.6998 62.4996 29.1998 62.9996 28.5998L66.3997 30.5998L69.8997 24.5998L66.1996 22.4998C66.4996 21.8998 66.5996 21.4998 66.6996 21.0998Z" stroke="#BF73AD" stroke-width="3" stroke-miterlimit="10" stroke-linecap="round" stroke-linejoin="round"/>
<path d="M60.2992 19.0998C60.2992 22.7998 57.2992 25.8998 53.4992 25.8998C49.7992 25.8998 46.6992 22.8998 46.6992 19.0998C46.6992 15.3998 49.6992 12.2998 53.4992 12.2998C57.2992 12.2998 60.2992 15.3998 60.2992 19.0998Z" stroke="#BF73AD" stroke-width="3" stroke-miterlimit="10" stroke-linecap="round" stroke-linejoin="round"/>
</svg>
