<svg width="59" height="92" viewBox="0 0 59 92" fill="none" xmlns="http://www.w3.org/2000/svg">
<path d="M2 80.6V12.1C2 12.1 4.2 2.4 31.2 2C31.2 2 56.1 3.1 56.5 12.6V80.7C56.5 80.7 53 90 27.3 89.5C27.3 89.5 6.5 89.2 2 80.6Z" stroke="#BF73AD" stroke-width="3" stroke-miterlimit="10" stroke-linecap="round" stroke-linejoin="round"/>
<path d="M2 57.6001C2 57.6001 8.9 66.8001 29.3 66.6001C36.5 66.6001 53.1 65.3001 56.6 57.6001" stroke="#BF73AD" stroke-width="3" stroke-miterlimit="10" stroke-linecap="round" stroke-linejoin="round"/>
<path d="M2 36.7002C2 36.7002 8.9 45.9002 29.3 45.8002C36.5 45.8002 53.1 44.5002 56.6 36.7002" stroke="#BF73AD" stroke-width="3" stroke-miterlimit="10" stroke-linecap="round" stroke-linejoin="round"/>
<path d="M2 14C2 14 8.9 23.2 29.3 23C36.5 23 53.1 21.7 56.6 14" stroke="#BF73AD" stroke-width="3" stroke-miterlimit="10" stroke-linecap="round" stroke-linejoin="round"/>
</svg>
