<svg width="78" height="69" viewBox="0 0 78 69" fill="none" xmlns="http://www.w3.org/2000/svg">
<g id="Group">
<path id="Vector" d="M69 66.8H9.40002C5.50002 66.8 2.30005 63.6 2.30005 59.7L2 9.10001C2 5.20001 5.50002 2 9.40002 2H69C72.9 2 76.1 5.20001 76.1 9.10001V59.7C76.2 63.6 73 66.8 69 66.8Z" stroke="#BF73AD" stroke-width="3" stroke-miterlimit="10" stroke-linecap="round" stroke-linejoin="round"/>
<path id="Vector_2" d="M76.1997 20.0001H2.09961V8.30009C2.09961 5.30009 5.29966 2.1001 8.39966 2.1001H69.4996C72.4996 2.1001 76.1997 4.50009 76.1997 7.50009V20.0001Z" stroke="#BF73AD" stroke-width="3" stroke-miterlimit="10" stroke-linecap="round" stroke-linejoin="round"/>
<path id="Vector_3" d="M39.8997 28.6001L34.5996 55.2001" stroke="#BF73AD" stroke-width="3" stroke-miterlimit="10" stroke-linecap="round" stroke-linejoin="round"/>
<path id="Vector_4" d="M48.3008 34L58.6007 41.8" stroke="#BF73AD" stroke-width="3" stroke-miterlimit="10" stroke-linecap="round" stroke-linejoin="round"/>
<path id="Vector_5" d="M48.3008 49.4998L58.6007 41.7998" stroke="#BF73AD" stroke-width="3" stroke-miterlimit="10" stroke-linecap="round" stroke-linejoin="round"/>
<path id="Vector_6" d="M28.6 34L19 41.9" stroke="#BF73AD" stroke-width="3" stroke-miterlimit="10" stroke-linecap="round" stroke-linejoin="round"/>
<path id="Vector_7" d="M28.2001 49.2999L19 41.8999" stroke="#BF73AD" stroke-width="3" stroke-miterlimit="10" stroke-linecap="round" stroke-linejoin="round"/>
<path id="Vector_8" d="M9.40039 11.2002H40.6003" stroke="#BF73AD" stroke-width="3" stroke-miterlimit="10" stroke-linecap="round" stroke-linejoin="round"/>
</g>
</svg>
