<svg width="25" height="25" viewBox="0 0 25 25" fill="none" xmlns="http://www.w3.org/2000/svg">
<g id="bx:file">
<path id="Vector" d="M20.7324 8.94373C20.683 8.83067 20.6138 8.72732 20.5282 8.63852L14.2782 2.38852C14.1894 2.30288 14.0861 2.23374 13.973 2.18435C13.9417 2.16977 13.9084 2.16144 13.8751 2.14998C13.7879 2.12032 13.6972 2.10245 13.6053 2.09685C13.5834 2.09477 13.5636 2.08331 13.5417 2.08331H6.25008C5.10112 2.08331 4.16675 3.01769 4.16675 4.16665V20.8333C4.16675 21.9823 5.10112 22.9166 6.25008 22.9166H18.7501C19.899 22.9166 20.8334 21.9823 20.8334 20.8333V9.37498C20.8334 9.3531 20.822 9.33331 20.8199 9.3104C20.8148 9.21843 20.7969 9.12763 20.7667 9.0406C20.7563 9.00727 20.747 8.97498 20.7324 8.94373ZM17.2772 8.33331H14.5834V5.63956L17.2772 8.33331ZM6.25008 20.8333V4.16665H12.5001V9.37498C12.5001 9.65125 12.6098 9.9162 12.8052 10.1115C13.0005 10.3069 13.2655 10.4166 13.5417 10.4166H18.7501L18.7522 20.8333H6.25008Z" fill="#E20080"/>
<path id="Vector_2" d="M8.3335 13.5H16.6668V14.5834H8.3335V13.5ZM8.3335 17.6667H16.6668V18.75H8.3335V17.6667ZM8.3335 7.33337H10.4168V9.41671H8.3335V7.33337Z" fill="#E20080"/>
</g>
</svg>
