<svg width="30" height="30" viewBox="0 0 30 30" fill="none" xmlns="http://www.w3.org/2000/svg">
<path d="M25.0312 23.4639C25.0371 23.4551 25.0459 23.4463 25.0518 23.4375C26.9707 21.1553 28.125 18.2139 28.125 15C28.125 11.7861 26.9707 8.84473 25.0547 6.5625C25.0488 6.55371 25.04 6.54785 25.0342 6.53906C25.002 6.50098 24.9727 6.46582 24.9404 6.43066C24.9287 6.41602 24.917 6.4043 24.9053 6.38965L24.7852 6.25195L24.7822 6.24902C24.7383 6.19922 24.6914 6.14941 24.6475 6.09961L24.6445 6.09668C24.5508 5.99707 24.457 5.89746 24.3604 5.80078L24.3574 5.79785L24.2168 5.65723L24.208 5.64844C24.1641 5.60449 24.1201 5.56348 24.0762 5.52246C24.0615 5.50781 24.0469 5.49316 24.0293 5.47852C24 5.44922 23.9707 5.42285 23.9414 5.39648C23.9326 5.3877 23.9209 5.37891 23.9121 5.36719C21.5742 3.19922 18.4424 1.875 15 1.875C11.5576 1.875 8.42578 3.19922 6.08496 5.36719C6.07617 5.37598 6.06445 5.38477 6.05566 5.39648C6.02637 5.42285 5.99707 5.45215 5.96777 5.48145C5.95312 5.49609 5.93848 5.51074 5.9209 5.52539C5.87695 5.56641 5.83301 5.61035 5.78906 5.65137L5.78027 5.66016L5.63965 5.80078L5.63672 5.80371C5.54004 5.90039 5.44629 6 5.35254 6.09961L5.34961 6.10254C5.30273 6.15234 5.25879 6.20215 5.21484 6.25195L5.21191 6.25488C5.1709 6.29883 5.12988 6.3457 5.0918 6.39258C5.08008 6.40723 5.06836 6.41895 5.05664 6.43359C5.02441 6.46875 4.99512 6.50684 4.96289 6.54199C4.95703 6.55078 4.94824 6.55664 4.94238 6.56543C3.0293 8.84473 1.875 11.7861 1.875 15C1.875 18.2139 3.0293 21.1553 4.94531 23.4375C4.95117 23.4463 4.95996 23.4551 4.96582 23.4639L5.05664 23.5723C5.06836 23.5869 5.08008 23.5986 5.0918 23.6133L5.21191 23.751C5.21191 23.7539 5.21484 23.7539 5.21484 23.7568C5.25879 23.8066 5.30273 23.8564 5.34961 23.9033L5.35254 23.9062C5.44629 24.0059 5.54004 24.1055 5.63379 24.2021L5.63672 24.2051C5.68359 24.252 5.72754 24.2988 5.77441 24.3428L5.7832 24.3516C5.87988 24.4482 5.97949 24.542 6.0791 24.6328C8.42578 26.8008 11.5576 28.125 15 28.125C18.4424 28.125 21.5742 26.8008 23.915 24.6328C24.0148 24.5413 24.1125 24.4476 24.208 24.3516L24.2168 24.3428C24.2637 24.2959 24.3105 24.252 24.3545 24.2051L24.3574 24.2021C24.4541 24.1055 24.5479 24.0059 24.6387 23.9062L24.6416 23.9033C24.6855 23.8535 24.7324 23.8066 24.7764 23.7568C24.7764 23.7539 24.7793 23.7539 24.7793 23.751C24.8203 23.707 24.8613 23.6602 24.8994 23.6133C24.9111 23.5986 24.9229 23.5869 24.9346 23.5723C24.9677 23.5369 24.9999 23.5008 25.0312 23.4639ZM25.1514 19.2861C24.7471 20.2412 24.2139 21.126 23.5635 21.9287C22.831 21.2957 22.0301 20.7464 21.1758 20.291C21.5156 18.917 21.7266 17.4082 21.7822 15.8203H25.9863C25.8984 17.0186 25.6172 18.1816 25.1514 19.2861ZM25.9863 14.1797H21.7822C21.7266 12.5918 21.5156 11.083 21.1758 9.70898C22.0342 9.25195 22.834 8.70117 23.5635 8.07129C24.9773 9.81145 25.8229 11.9436 25.9863 14.1797ZM19.2861 4.84863C20.4492 5.34082 21.5068 6.02051 22.4385 6.87598C21.8973 7.3368 21.3147 7.74674 20.6982 8.10059C20.2383 6.78223 19.6494 5.63672 18.9639 4.71973C19.0723 4.76074 19.1807 4.80469 19.2861 4.84863ZM16.6318 25.374C16.3623 25.585 16.0928 25.7461 15.8203 25.8545V20.4199C16.9828 20.501 18.126 20.7599 19.21 21.1875C18.9668 21.9082 18.6855 22.5732 18.3604 23.1738C17.8506 24.123 17.2529 24.8818 16.6318 25.374ZM18.3604 6.82617C18.6826 7.42969 18.9668 8.09473 19.21 8.8125C18.126 9.24011 16.9828 9.49898 15.8203 9.58008V4.14844C16.0898 4.25684 16.3623 4.41504 16.6318 4.62891C17.2529 5.11816 17.8506 5.87695 18.3604 6.82617ZM15.8203 18.7764V15.8203H20.1416C20.0947 17.1152 19.9336 18.3721 19.6641 19.5645L19.6553 19.5996C18.4258 19.1334 17.1328 18.8558 15.8203 18.7764ZM15.8203 14.1797V11.2236C17.1621 11.1416 18.4512 10.8574 19.6553 10.4004L19.6641 10.4355C19.9336 11.6279 20.0947 12.8818 20.1416 14.1797H15.8203ZM14.1797 15.8203V18.7764C12.8379 18.8584 11.5488 19.1426 10.3447 19.5996L10.3359 19.5645C10.0664 18.3721 9.90527 17.1182 9.8584 15.8203H14.1797ZM9.8584 14.1797C9.90527 12.8848 10.0664 11.6279 10.3359 10.4355L10.3447 10.4004C11.5488 10.8574 12.835 11.1416 14.1797 11.2236V14.1797H9.8584ZM14.1797 20.4199V25.8516C13.9102 25.7432 13.6377 25.585 13.3682 25.3711C12.7471 24.8818 12.1465 24.1201 11.6367 23.1709C11.3145 22.5674 11.0303 21.9023 10.7871 21.1846C11.877 20.7568 13.0107 20.502 14.1797 20.4199ZM14.1797 9.58008C13.0172 9.49898 11.874 9.24011 10.79 8.8125C11.0332 8.0918 11.3145 7.42676 11.6396 6.82617C12.1494 5.87695 12.7471 5.11523 13.3711 4.62598C13.6406 4.41504 13.9102 4.25391 14.1826 4.14551V9.58008H14.1797ZM10.7139 4.84863C10.8223 4.80469 10.9277 4.76074 11.0361 4.71973C10.3506 5.63672 9.76172 6.78223 9.30176 8.10059C8.68652 7.74902 8.10352 7.33887 7.56152 6.87598C8.49316 6.02051 9.55078 5.34082 10.7139 4.84863ZM4.84863 10.7139C5.25293 9.75879 5.78613 8.87402 6.43652 8.07129C7.16602 8.70117 7.96582 9.25195 8.82422 9.70898C8.48438 11.083 8.27344 12.5918 8.21777 14.1797H4.01367C4.10156 12.9814 4.38281 11.8184 4.84863 10.7139ZM4.01367 15.8203H8.21777C8.27344 17.4082 8.48438 18.917 8.82422 20.291C7.96986 20.7464 7.169 21.2957 6.43652 21.9287C5.02274 20.1886 4.17705 18.0564 4.01367 15.8203ZM10.7139 25.1514C9.55078 24.6592 8.49316 23.9795 7.56152 23.124C8.10352 22.6611 8.68652 22.2539 9.30176 21.8994C9.76172 23.2178 10.3506 24.3633 11.0361 25.2803C10.9277 25.2393 10.8193 25.1953 10.7139 25.1514ZM19.2861 25.1514C19.1777 25.1953 19.0723 25.2393 18.9639 25.2803C19.6494 24.3633 20.2383 23.2178 20.6982 21.8994C21.3135 22.251 21.8965 22.6611 22.4385 23.124C21.512 23.9759 20.4456 24.6618 19.2861 25.1514Z" fill="#1D1D1B"/>
</svg>
