<svg width="18" height="18" viewBox="0 0 18 18" fill="none" xmlns="http://www.w3.org/2000/svg">
<path id="Vector" d="M17.5325 17.9963H13.8772C13.6187 17.9963 13.4097 17.7782 13.4097 17.5084V11.3655C13.4097 9.25875 12.3684 9.25875 12.0248 9.25875C11.1004 9.25875 10.7072 10.0202 10.5797 10.3491C10.5195 10.497 10.4911 10.7483 10.4911 11.0994V17.5121C10.4911 17.7819 10.2822 18 10.0236 18H6.36484C6.24087 18 6.12044 17.9483 6.0319 17.8559C5.94336 17.7635 5.89377 17.6378 5.8973 17.5084C5.8973 17.4049 5.94689 7.10397 5.8973 6.05059C5.89022 5.91752 5.93626 5.78816 6.02482 5.69207C6.11338 5.59597 6.23379 5.54052 6.36482 5.54052H10.0236C10.2822 5.54052 10.4912 5.75857 10.4912 6.02838V6.31668C11.1074 5.74379 11.9965 5.27069 13.3211 5.27069C16.2503 5.27069 18 7.38483 18 10.9257V17.5084C18 17.7782 17.791 17.9963 17.5325 17.9963ZM14.3447 17.0205L17.0685 17.0205V10.9256C17.0685 7.95027 15.7049 6.2464 13.3247 6.2464C11.7344 6.2464 10.9622 7.07432 10.477 7.83202C10.4203 8.03161 10.2397 8.17947 10.0272 8.17947H10.0024C9.83236 8.17947 9.67652 8.08335 9.59508 7.92814C9.53133 7.80615 9.51715 7.6657 9.55965 7.53634V6.51255H6.843C6.8678 8.54909 6.843 15.1392 6.83592 17.0168H9.5561V11.0957C9.5561 10.6041 9.60569 10.2493 9.71194 9.97948C10.1228 8.91871 10.987 8.27929 12.0213 8.27929C13.4947 8.27929 14.3412 9.40292 14.3412 11.3618V17.0205H14.3448L14.3447 17.0205ZM4.34241 17.9962H0.683608C0.425048 17.9962 0.216091 17.7781 0.216091 17.5083V6.02835C0.216091 5.75853 0.425048 5.54046 0.683608 5.54046H4.34241C4.60097 5.54046 4.80993 5.75853 4.80993 6.02833V17.5083C4.80993 17.7782 4.60097 17.9962 4.34241 17.9962V17.9962ZM1.15116 17.0205H3.87487V6.5162H1.15118L1.15116 17.0205ZM2.51477 4.94907L2.48996 4.94905C1.0484 4.94905 0 3.90676 0 2.47268C0 1.04231 1.06612 0 2.53955 0C3.98819 0 5.02245 1.01272 5.05079 2.46159C5.05079 3.90676 3.98468 4.94907 2.51477 4.94907ZM2.53955 0.979473C1.57969 0.979473 0.93507 1.58194 0.93507 2.47641C0.93507 3.35606 1.57262 3.9733 2.48998 3.9733H2.51476C3.47109 3.9733 4.11571 3.37084 4.11571 2.47639C4.09799 1.57085 3.47817 0.979473 2.53955 0.979473Z" fill="#E20080"/>
</svg>
