<svg width="18" height="18" viewBox="0 0 18 18" fill="none" xmlns="http://www.w3.org/2000/svg">
<g id="Map Marker 1">
<path id="Vector" d="M8.99992 16.5C8.99992 16.5 2.99992 13.125 2.99992 7.65C2.9799 6.84954 3.12031 6.05316 3.41286 5.30781C3.70541 4.56245 4.1442 3.88319 4.70336 3.31006C5.26251 2.73692 5.93073 2.2815 6.66864 1.97064C7.40654 1.65977 8.19921 1.49975 8.99992 1.5C9.80064 1.49975 10.5933 1.65977 11.3312 1.97064C12.0691 2.2815 12.7373 2.73692 13.2965 3.31006C13.8556 3.88319 14.2944 4.56245 14.587 5.30781C14.8795 6.05316 15.0199 6.84954 14.9999 7.65C14.9999 13.125 8.99992 16.5 8.99992 16.5Z" stroke="#E20080" strokeWidth="2"/>
<path id="Vector_2" d="M9 9.75C10.2426 9.75 11.25 8.74264 11.25 7.5C11.25 6.25736 10.2426 5.25 9 5.25C7.75736 5.25 6.75 6.25736 6.75 7.5C6.75 8.74264 7.75736 9.75 9 9.75Z" stroke="#E20080" strokeWidth="2"/>
</g>
</svg>
