<svg width="423" height="448" viewBox="0 0 423 448" fill="none" xmlns="http://www.w3.org/2000/svg">
<path d="M29.5558 160.285C26.036 163.346 23.4872 167.082 22.5595 171.946L21.7793 300.253C22.5075 305.784 25.2557 309.503 30.336 311.142L132.21 370.241C138.764 373.215 144.616 373.744 149.315 370.241L292.404 285.48L171.093 217.053L131.43 238.83L101.104 119.071L29.5558 160.285Z" fill="url(#paint0_linear_1783_267)"/>
<path d="M34.2188 163.398C30.7857 166.163 28.523 169.9 27.9941 175.058V293.257C28.9738 298.328 32.1641 299.221 37.3224 296.369L126.747 244.266L101.866 124.507L34.2188 163.398Z" fill="url(#paint1_linear_1783_267)"/>
<path d="M32.3717 298.363C31.6781 298.363 31.0539 298.233 30.4991 297.973C29.0426 297.297 28.0717 295.736 27.6122 293.335L27.6035 175.058C28.115 170.038 30.1957 166.137 33.9669 163.094L34.0189 163.06L102.134 123.908L127.189 244.465L126.946 244.604L37.5213 296.707C35.5274 297.808 33.8021 298.363 32.3717 298.363ZM34.435 163.718C30.8459 166.623 28.8693 170.342 28.3838 175.101V293.265C28.7912 295.337 29.6148 296.707 30.8285 297.279C32.2937 297.964 34.409 297.548 37.1312 296.04L126.313 244.084L101.597 125.131L34.435 163.718Z" fill="url(#paint2_linear_1783_267)"/>
<path d="M86.3221 127.628L29.5548 160.285C25.4454 162.479 23.0007 166.536 21.7783 171.946V298.701L28.7745 312.702L134.533 374.134C138.581 375.911 143.306 376.033 148.534 374.914L297.838 286.261C299.442 287.908 300.171 289.902 299.39 292.485L147.754 381.13C142.405 382.517 138.07 382.127 134.533 380.35L19.4375 314.254L17.1055 292.477V171.174C18.2325 164.742 21.5182 159.757 27.214 156.402L86.3134 122.964V127.628H86.3221Z" fill="#652265"/>
<path d="M43.6868 310.942L55.3471 304.189C56.2227 303.677 57.3064 303.686 58.182 304.198L64.4067 307.83C65.1609 308.272 65.1609 309.365 64.4067 309.798L51.8967 317.037C51.5413 317.245 51.1078 317.245 50.7523 317.037L43.6868 312.91C42.9325 312.468 42.9325 311.376 43.6868 310.942Z" fill="#652265"/>
<path d="M51.326 317.574C51.0572 317.574 50.7971 317.505 50.5544 317.366L43.4888 313.24C43.012 312.962 42.7259 312.468 42.7346 311.913C42.7346 311.367 43.0207 310.873 43.4975 310.596L55.1578 303.842C56.1548 303.27 57.3859 303.27 58.3829 303.851L64.6075 307.483C65.0843 307.761 65.3704 308.255 65.3617 308.81C65.3617 309.356 65.0757 309.85 64.5988 310.127L52.0889 317.366C51.8548 317.505 51.5947 317.574 51.326 317.574ZM56.7617 304.198C56.3369 304.198 55.9207 304.31 55.548 304.527L43.8876 311.28C43.6535 311.419 43.5148 311.662 43.5148 311.931C43.5148 312.199 43.6535 312.442 43.8876 312.581L50.9532 316.708C51.1872 316.846 51.4733 316.846 51.7074 316.708L64.2174 309.469C64.4515 309.33 64.5902 309.087 64.5902 308.818C64.5902 308.55 64.4515 308.307 64.2174 308.168L57.9927 304.536C57.6113 304.31 57.1865 304.198 56.7617 304.198Z" fill="#652265"/>
<path d="M41.312 303.565L48.499 299.404C49.0365 299.091 49.704 299.091 50.2502 299.404L54.0908 301.64C54.5589 301.909 54.5589 302.585 54.0908 302.854L46.375 307.319C46.1583 307.449 45.8895 307.449 45.6728 307.319L41.312 304.779C40.8439 304.51 40.8439 303.834 41.312 303.565Z" fill="#652265"/>
<path d="M46.0206 307.804C45.8298 307.804 45.6391 307.752 45.4744 307.657L41.1137 305.117C40.7756 304.917 40.5762 304.562 40.5762 304.172C40.5762 303.782 40.7842 303.426 41.1223 303.227L48.3093 299.065C48.9682 298.684 49.7918 298.684 50.4506 299.065L54.2912 301.302C54.6293 301.502 54.8287 301.857 54.8287 302.247C54.8287 302.637 54.6206 302.993 54.2825 303.192L46.5667 307.657C46.402 307.752 46.2113 307.804 46.0206 307.804ZM49.3756 299.56C49.1416 299.56 48.9075 299.62 48.6994 299.742L41.5125 303.903C41.3738 303.981 41.3564 304.12 41.3564 304.172C41.3564 304.224 41.3738 304.362 41.5125 304.44L45.8732 306.981C45.9685 307.033 46.0899 307.033 46.1853 306.981L53.9011 302.516C54.0398 302.438 54.0571 302.299 54.0571 302.247C54.0571 302.195 54.0398 302.056 53.9011 301.978L50.0605 299.742C49.8438 299.62 49.6097 299.56 49.3756 299.56Z" fill="#652265"/>
<path d="M51.7222 297.496L58.9091 293.335C59.4467 293.023 60.1142 293.023 60.6604 293.335L64.5009 295.571C64.9691 295.84 64.9691 296.516 64.5009 296.785L56.7851 301.25C56.5684 301.38 56.2997 301.38 56.0829 301.25L51.7222 298.71C51.2541 298.432 51.2541 297.765 51.7222 297.496Z" fill="#652265"/>
<path d="M56.4307 301.736C56.24 301.736 56.0493 301.684 55.8845 301.588L51.5238 299.048C51.1857 298.849 50.9863 298.493 50.9863 298.103C50.9863 297.713 51.1944 297.358 51.5325 297.158L58.7194 292.997C59.3783 292.615 60.2019 292.615 60.8608 292.997L64.7013 295.234C65.0394 295.433 65.2388 295.788 65.2388 296.178C65.2388 296.569 65.0308 296.924 64.6927 297.123L56.9769 301.588C56.8122 301.684 56.6214 301.736 56.4307 301.736ZM51.914 297.826C51.7752 297.904 51.7579 298.042 51.7579 298.094C51.7579 298.146 51.7752 298.285 51.914 298.363L56.2747 300.903C56.37 300.955 56.4914 300.964 56.5868 300.903L64.3025 296.439C64.4413 296.361 64.4586 296.222 64.4586 296.17C64.4586 296.118 64.4413 295.979 64.3025 295.901L60.462 293.664C60.0459 293.422 59.5257 293.422 59.1096 293.664L51.914 297.826Z" fill="#652265"/>
<path d="M62.6109 291.271L69.7978 287.11C70.3353 286.798 71.0029 286.798 71.549 287.11L75.3896 289.347C75.8577 289.616 75.8577 290.292 75.3896 290.56L67.6738 295.025C67.4571 295.155 67.1883 295.155 66.9716 295.025L62.6109 292.485C62.1427 292.216 62.1427 291.54 62.6109 291.271Z" fill="#652265"/>
<path d="M67.3194 295.511C67.1287 295.511 66.9379 295.459 66.7732 295.363L62.4125 292.823C62.0744 292.624 61.875 292.268 61.875 291.878C61.875 291.488 62.0831 291.133 62.4212 290.933L69.6081 286.772C70.267 286.39 71.0906 286.39 71.7495 286.772L75.59 289.009C75.9281 289.208 76.1275 289.563 76.1275 289.954C76.1275 290.344 75.9195 290.699 75.5813 290.899L67.8656 295.363C67.6922 295.467 67.5101 295.511 67.3194 295.511ZM62.8026 291.609C62.6639 291.687 62.6466 291.826 62.6466 291.878C62.6466 291.93 62.6639 292.069 62.8026 292.147L67.1633 294.687C67.2587 294.739 67.3801 294.748 67.4754 294.687L75.1912 290.222C75.3299 290.144 75.3473 290.006 75.3473 289.954C75.3473 289.902 75.3299 289.763 75.1912 289.685L71.3507 287.448C70.9345 287.205 70.4144 287.205 69.9982 287.448L62.8026 291.609Z" fill="#652265"/>
<path d="M73.493 285.056L80.68 280.894C81.2175 280.582 81.885 280.582 82.4312 280.894L86.2718 283.131C86.7399 283.4 86.7399 284.076 86.2718 284.345L78.556 288.809C78.3393 288.939 78.0705 288.939 77.8538 288.809L73.493 286.269C73.0336 285.992 73.0336 285.324 73.493 285.056Z" fill="#652265"/>
<path d="M78.2081 289.295C78.0173 289.295 77.8266 289.243 77.6619 289.148L73.3012 286.607C72.9631 286.408 72.7637 286.053 72.7637 285.662C72.7637 285.272 72.9717 284.917 73.3098 284.717L80.4968 280.556C81.1557 280.175 81.9793 280.175 82.6381 280.556L86.4787 282.793C86.8168 282.992 87.0162 283.348 87.0162 283.738C87.0162 284.128 86.8081 284.483 86.47 284.683L78.7542 289.148C78.5808 289.243 78.3901 289.295 78.2081 289.295ZM73.6913 285.385C73.5526 285.463 73.5352 285.602 73.5352 285.654C73.5352 285.706 73.5526 285.844 73.6913 285.922L78.052 288.463C78.1474 288.515 78.2688 288.523 78.3641 288.463L86.0799 283.998C86.2186 283.92 86.2359 283.781 86.2359 283.729C86.2359 283.677 86.2186 283.538 86.0799 283.46L82.2393 281.224C81.8232 280.981 81.303 280.981 80.8869 281.224L73.6913 285.385Z" fill="#652265"/>
<path d="M59.4995 301.709L66.6865 297.548C67.224 297.236 67.8915 297.236 68.4377 297.548L75.3819 301.345C75.8501 301.614 75.8501 302.29 75.3819 302.559L67.6661 307.024C67.4494 307.154 67.1807 307.154 66.9639 307.024L59.4995 302.923C59.0314 302.654 59.0314 301.978 59.4995 301.709Z" fill="#652265"/>
<path d="M67.3198 307.509C67.1291 307.509 66.9383 307.457 66.7736 307.362L59.3179 303.27C58.9711 303.07 58.7631 302.715 58.7717 302.316C58.7717 301.926 58.9798 301.571 59.3179 301.371L66.5049 297.21C67.1637 296.828 67.9873 296.828 68.6462 297.21L75.5817 300.998C75.9285 301.198 76.1366 301.553 76.1366 301.943C76.1366 302.334 75.9285 302.689 75.5904 302.888L67.8746 307.353C67.6926 307.457 67.5105 307.509 67.3198 307.509ZM67.5539 297.704C67.3198 297.704 67.0857 297.765 66.8776 297.886L59.6907 302.047C59.552 302.125 59.5347 302.264 59.5347 302.316C59.5347 302.368 59.552 302.507 59.6907 302.585L67.1464 306.677C67.2504 306.738 67.3718 306.738 67.4672 306.686L75.183 302.221C75.3217 302.143 75.339 302.004 75.339 301.952C75.339 301.9 75.3217 301.761 75.183 301.683L68.2474 297.895C68.0307 297.765 67.7966 297.704 67.5539 297.704Z" fill="#652265"/>
<path d="M70.3882 295.493L77.5752 291.332C78.1127 291.02 78.7802 291.02 79.3264 291.332L86.2706 295.129C86.7387 295.398 86.7387 296.074 86.2706 296.343L78.5548 300.808C78.3381 300.938 78.0693 300.938 77.8526 300.808L70.3882 296.707C69.9201 296.43 69.9201 295.762 70.3882 295.493Z" fill="#652265"/>
<path d="M78.2085 301.285C78.0177 301.285 77.827 301.233 77.6623 301.137L70.2066 297.045C69.8598 296.846 69.6517 296.49 69.6604 296.092C69.6691 295.693 69.8685 295.346 70.2066 295.147L77.3935 290.985C78.0524 290.604 78.876 290.604 79.5349 290.985L86.4704 294.774C86.8172 294.973 87.0253 295.329 87.0253 295.719C87.0253 296.109 86.8172 296.464 86.4791 296.664L78.7633 301.129C78.5812 301.241 78.3905 301.285 78.2085 301.285ZM78.4425 291.488C78.2085 291.488 77.9744 291.549 77.7663 291.67L70.5794 295.832C70.4407 295.91 70.4233 296.048 70.4233 296.1C70.4233 296.152 70.4407 296.291 70.5794 296.369L78.0351 300.461C78.1391 300.522 78.2605 300.522 78.3558 300.47L86.0716 296.005C86.2103 295.927 86.2277 295.788 86.2277 295.736C86.2277 295.684 86.2103 295.545 86.0716 295.467L79.1361 291.679C78.9194 291.549 78.6853 291.488 78.4425 291.488Z" fill="#652265"/>
<path d="M81.2704 289.269L88.4573 285.107C88.9948 284.795 89.6624 284.795 90.2086 285.107L97.1528 288.905C97.6209 289.173 97.6209 289.85 97.1528 290.118L89.437 294.583C89.2203 294.713 88.9515 294.713 88.7348 294.583L81.2704 290.482C80.8109 290.214 80.8109 289.537 81.2704 289.269Z" fill="#652265"/>
<path d="M89.0893 295.069C88.8986 295.069 88.7079 295.016 88.5431 294.921L81.0874 290.829C80.7407 290.63 80.5326 290.274 80.5413 289.876C80.5413 289.485 80.7493 289.13 81.0874 288.931L88.2744 284.769C88.9333 284.388 89.7569 284.388 90.4157 284.769L97.3513 288.558C97.6981 288.757 97.9061 289.113 97.9061 289.503C97.9061 289.893 97.6981 290.248 97.3599 290.448L89.6442 294.912C89.4708 295.016 89.28 295.069 89.0893 295.069ZM89.3321 285.263C89.098 285.263 88.8639 285.324 88.6559 285.445L81.4689 289.607C81.3302 289.685 81.3129 289.824 81.3129 289.876C81.3129 289.928 81.3302 290.066 81.4689 290.144L88.9246 294.236C89.0286 294.297 89.15 294.297 89.2454 294.245L96.9611 289.78C97.0999 289.702 97.1172 289.563 97.1172 289.511C97.1172 289.459 97.0999 289.321 96.9611 289.243L90.0256 285.454C89.8089 285.324 89.5661 285.263 89.3321 285.263Z" fill="#652265"/>
<path d="M92.1578 282.272L99.3447 278.111C99.8822 277.799 100.55 277.799 101.096 278.111L108.04 281.908C108.508 282.177 108.508 282.853 108.04 283.122L100.324 287.586C100.108 287.716 99.8389 287.716 99.6221 287.586L92.1578 283.486C91.6896 283.217 91.6896 282.541 92.1578 282.272Z" fill="#652265"/>
<path d="M99.978 288.063C99.7873 288.063 99.5965 288.011 99.4318 287.916L91.9761 283.824C91.6293 283.625 91.4213 283.269 91.4299 282.87C91.4299 282.48 91.638 282.125 91.9761 281.925L99.1631 277.764C99.8219 277.383 100.646 277.383 101.304 277.764L108.24 281.553C108.587 281.752 108.795 282.108 108.795 282.498C108.795 282.888 108.587 283.243 108.249 283.443L100.533 287.907C100.359 288.02 100.169 288.063 99.978 288.063ZM100.221 278.267C99.9867 278.267 99.7526 278.328 99.5445 278.449L92.3576 282.61C92.2189 282.688 92.2015 282.827 92.2015 282.879C92.2015 282.931 92.2189 283.07 92.3576 283.148L99.8133 287.24C99.9173 287.3 100.039 287.3 100.134 287.248L107.85 282.784C107.989 282.706 108.006 282.567 108.006 282.515C108.006 282.463 107.989 282.324 107.85 282.246L100.914 278.458C100.698 278.328 100.455 278.267 100.221 278.267Z" fill="#652265"/>
<path d="M102.268 276.048L109.455 271.886C109.992 271.574 110.66 271.574 111.206 271.886L118.15 275.684C118.618 275.952 118.618 276.629 118.15 276.897L110.434 281.362C110.218 281.492 109.949 281.492 109.732 281.362L102.268 277.261C101.8 276.993 101.808 276.317 102.268 276.048Z" fill="#652265"/>
<path d="M110.087 281.848C109.897 281.848 109.706 281.796 109.541 281.7L102.085 277.608C101.739 277.409 101.531 277.053 101.539 276.655C101.548 276.256 101.747 275.909 102.085 275.71L109.272 271.548C109.931 271.167 110.755 271.167 111.414 271.548L118.349 275.337C118.696 275.536 118.904 275.892 118.904 276.282C118.904 276.672 118.696 277.027 118.358 277.227L110.642 281.691C110.469 281.796 110.278 281.848 110.087 281.848ZM110.33 272.042C110.096 272.042 109.862 272.103 109.654 272.225L102.467 276.386C102.328 276.464 102.311 276.603 102.311 276.655C102.311 276.707 102.328 276.845 102.467 276.923L109.923 281.015C110.027 281.076 110.148 281.076 110.243 281.024L117.959 276.559C118.098 276.481 118.115 276.342 118.115 276.29C118.115 276.238 118.098 276.1 117.959 276.022L111.024 272.233C110.807 272.103 110.564 272.042 110.33 272.042Z" fill="#652265"/>
<path d="M54.8355 317.263L62.0224 313.101C62.5599 312.789 63.2275 312.789 63.7737 313.101L70.7179 316.898C71.186 317.167 71.186 317.843 70.7179 318.112L63.0021 322.577C62.7853 322.707 62.5166 322.707 62.2999 322.577L54.8355 318.476C54.3673 318.208 54.3673 317.531 54.8355 317.263Z" fill="#652265"/>
<path d="M62.6557 323.062C62.465 323.062 62.2743 323.01 62.1095 322.915L54.6539 318.823C54.3071 318.624 54.099 318.268 54.1077 317.869C54.1077 317.479 54.3157 317.124 54.6539 316.924L61.8408 312.763C62.4997 312.382 63.3233 312.382 63.9821 312.763L70.9177 316.552C71.2645 316.751 71.4725 317.107 71.4725 317.497C71.4725 317.887 71.2645 318.242 70.9263 318.442L63.2106 322.906C63.0285 323.01 62.8378 323.062 62.6557 323.062ZM62.8898 313.257C62.6557 313.257 62.4217 313.318 62.2136 313.439L55.0266 317.601C54.8879 317.679 54.8706 317.817 54.8706 317.869C54.8706 317.921 54.8879 318.06 55.0266 318.138L62.4823 322.23C62.5864 322.291 62.7077 322.291 62.8031 322.239L70.5189 317.774C70.6576 317.696 70.6749 317.557 70.6749 317.505C70.6749 317.453 70.6576 317.315 70.5189 317.237L63.5833 313.448C63.3666 313.318 63.1325 313.257 62.8898 313.257Z" fill="#652265"/>
<path d="M66.4956 310.266L73.6826 306.104C74.2201 305.792 74.8876 305.792 75.4338 306.104L82.378 309.902C82.8462 310.17 82.8462 310.847 82.378 311.115L74.6622 315.58C74.4455 315.71 74.1767 315.71 73.96 315.58L66.4956 311.479C66.0275 311.211 66.0275 310.535 66.4956 310.266Z" fill="#652265"/>
<path d="M74.3159 316.066C74.1252 316.066 73.9344 316.014 73.7697 315.918L66.314 311.826C65.9672 311.627 65.7592 311.271 65.7678 310.873C65.7678 310.482 65.9759 310.127 66.314 309.928L73.501 305.766C74.1598 305.385 74.9834 305.385 75.6423 305.766L82.5778 309.555C82.9246 309.754 83.1327 310.11 83.1327 310.5C83.1327 310.89 82.9246 311.245 82.5865 311.445L74.8707 315.91C74.6973 316.014 74.5066 316.066 74.3159 316.066ZM74.5586 306.26C74.3246 306.26 74.0905 306.321 73.8824 306.443L66.6955 310.604C66.5568 310.682 66.5394 310.821 66.5394 310.873C66.5394 310.925 66.5568 311.063 66.6955 311.141L74.1512 315.233C74.2552 315.294 74.3766 315.294 74.4719 315.242L82.1877 310.777C82.3264 310.699 82.3438 310.561 82.3438 310.508C82.3438 310.456 82.3264 310.318 82.1877 310.24L75.2522 306.451C75.0354 306.321 74.7927 306.26 74.5586 306.26Z" fill="#652265"/>
<path d="M77.3824 303.269L84.5693 299.108C85.1068 298.796 85.7744 298.796 86.3205 299.108L93.2647 302.905C93.7329 303.174 93.7329 303.85 93.2647 304.119L85.5489 308.584C85.3322 308.714 85.0635 308.714 84.8467 308.584L77.3824 304.483C76.9142 304.206 76.9142 303.538 77.3824 303.269Z" fill="#652265"/>
<path d="M85.2026 309.061C85.0119 309.061 84.8212 309.009 84.6564 308.913L77.2007 304.821C76.854 304.622 76.6459 304.267 76.6546 303.868C76.6632 303.469 76.8626 303.122 77.2007 302.923L84.3877 298.761C85.0466 298.38 85.8701 298.38 86.529 298.761L93.4646 302.55C93.8113 302.749 94.0194 303.105 94.0194 303.495C94.0194 303.885 93.8113 304.241 93.4732 304.44L85.7574 308.905C85.5841 309.017 85.3933 309.061 85.2026 309.061ZM85.4367 299.264C85.2026 299.264 84.9685 299.325 84.7605 299.446L77.5735 303.608C77.4348 303.686 77.4175 303.824 77.4175 303.876C77.4175 303.928 77.4348 304.067 77.5735 304.145L85.0292 308.237C85.1332 308.298 85.2546 308.298 85.35 308.246L93.0658 303.781C93.2045 303.703 93.2218 303.564 93.2218 303.512C93.2218 303.46 93.2045 303.322 93.0658 303.244L86.1302 299.455C85.9222 299.325 85.6794 299.264 85.4367 299.264Z" fill="#652265"/>
<path d="M89.0458 297.045L96.2327 292.884C96.7702 292.572 97.4378 292.572 97.9839 292.884L104.928 296.681C105.396 296.95 105.396 297.626 104.928 297.895L97.2124 302.36C96.9956 302.49 96.7269 302.49 96.5101 302.36L89.0458 298.259C88.5863 297.99 88.5863 297.314 89.0458 297.045Z" fill="#652265"/>
<path d="M96.8647 302.845C96.674 302.845 96.4833 302.793 96.3185 302.698L88.8628 298.606C88.5161 298.406 88.308 298.051 88.3167 297.652C88.3167 297.262 88.5247 296.907 88.8628 296.707L96.0498 292.546C96.7087 292.164 97.5323 292.164 98.1911 292.546L105.127 296.334C105.473 296.534 105.682 296.889 105.682 297.279C105.682 297.669 105.473 298.025 105.135 298.224L97.4196 302.689C97.2462 302.793 97.0554 302.845 96.8647 302.845ZM97.1075 293.04C96.8734 293.04 96.6393 293.101 96.4312 293.222L89.2443 297.383C89.1056 297.461 89.0882 297.6 89.0882 297.652C89.0882 297.704 89.1056 297.843 89.2443 297.921L96.7 302.013C96.804 302.074 96.9254 302.074 97.0208 302.022L104.737 297.557C104.875 297.479 104.893 297.34 104.893 297.288C104.893 297.236 104.875 297.097 104.737 297.019L97.801 293.231C97.5843 293.101 97.3415 293.04 97.1075 293.04Z" fill="#652265"/>
<path d="M100.714 290.049L107.901 285.888C108.439 285.576 109.106 285.576 109.653 285.888L116.597 289.685C117.065 289.954 117.065 290.63 116.597 290.899L108.881 295.363C108.664 295.493 108.395 295.493 108.179 295.363L100.714 291.263C100.246 290.994 100.246 290.318 100.714 290.049Z" fill="#652265"/>
<path d="M108.535 295.84C108.344 295.84 108.153 295.788 107.988 295.693L100.533 291.601C100.186 291.402 99.9779 291.046 99.9866 290.647C99.9866 290.257 100.195 289.902 100.533 289.702L107.72 285.541C108.379 285.16 109.202 285.16 109.861 285.541L116.797 289.33C117.143 289.529 117.351 289.884 117.351 290.274C117.351 290.665 117.143 291.02 116.805 291.219L109.089 295.684C108.907 295.797 108.725 295.84 108.535 295.84ZM108.769 286.044C108.535 286.044 108.301 286.104 108.092 286.226L100.906 290.387C100.767 290.465 100.749 290.604 100.749 290.656C100.749 290.708 100.767 290.847 100.906 290.925L108.361 295.017C108.465 295.077 108.587 295.077 108.682 295.025L116.398 290.561C116.536 290.483 116.554 290.344 116.554 290.292C116.554 290.24 116.536 290.101 116.398 290.023L109.462 286.235C109.246 286.105 109.011 286.044 108.769 286.044Z" fill="#652265"/>
<path d="M104.598 300.937L111.785 296.776C112.322 296.464 112.99 296.464 113.536 296.776L120.48 300.573C120.948 300.842 120.948 301.518 120.48 301.787L112.764 306.252C112.548 306.382 112.279 306.382 112.062 306.252L104.598 302.151C104.13 301.874 104.138 301.206 104.598 300.937Z" fill="#652265"/>
<path d="M112.417 306.729C112.227 306.729 112.036 306.677 111.871 306.581L104.416 302.489C104.069 302.29 103.861 301.934 103.869 301.536C103.869 301.146 104.077 300.79 104.416 300.591L111.603 296.429C112.261 296.048 113.085 296.048 113.744 296.429L120.679 300.218C121.026 300.417 121.234 300.773 121.234 301.163C121.234 301.553 121.026 301.908 120.688 302.108L112.972 306.573C112.799 306.685 112.608 306.729 112.417 306.729ZM112.66 296.924C112.426 296.924 112.192 296.984 111.984 297.106L104.797 301.267C104.658 301.345 104.641 301.484 104.641 301.536C104.641 301.588 104.658 301.726 104.797 301.804L112.253 305.896C112.357 305.957 112.478 305.957 112.574 305.905L120.289 301.44C120.428 301.362 120.445 301.224 120.445 301.172C120.445 301.12 120.428 300.981 120.289 300.903L113.354 297.114C113.137 296.993 112.894 296.924 112.66 296.924Z" fill="#652265"/>
<path d="M92.1578 307.153L99.3447 302.992C99.8822 302.68 100.55 302.68 101.096 302.992L108.04 306.789C108.508 307.058 108.508 307.734 108.04 308.003L100.324 312.468C100.108 312.598 99.8389 312.598 99.6221 312.468L92.1578 308.367C91.6896 308.098 91.6896 307.422 92.1578 307.153Z" fill="#652265"/>
<path d="M99.978 312.953C99.7873 312.953 99.5965 312.901 99.4318 312.806L91.9761 308.714C91.6293 308.515 91.4213 308.159 91.4299 307.761C91.4299 307.37 91.638 307.015 91.9761 306.816L99.1631 302.654C99.8219 302.273 100.646 302.273 101.304 302.654L108.24 306.443C108.587 306.642 108.795 306.998 108.795 307.388C108.795 307.778 108.587 308.133 108.249 308.333L100.533 312.797C100.359 312.901 100.169 312.953 99.978 312.953ZM100.221 303.148C99.9867 303.148 99.7526 303.209 99.5445 303.33L92.3576 307.492C92.2189 307.57 92.2015 307.709 92.2015 307.761C92.2015 307.813 92.2189 307.951 92.3576 308.029L99.8133 312.121C99.9173 312.182 100.039 312.182 100.134 312.13L107.85 307.665C107.989 307.587 108.006 307.448 108.006 307.396C108.006 307.344 107.989 307.206 107.85 307.128L100.914 303.339C100.698 303.209 100.455 303.148 100.221 303.148Z" fill="#652265"/>
<path d="M109.271 310.266L116.458 306.105C116.995 305.793 117.663 305.793 118.209 306.105L125.153 309.902C125.622 310.171 125.622 310.847 125.153 311.116L117.438 315.58C117.221 315.71 116.952 315.71 116.735 315.58L109.271 311.48C108.803 311.211 108.803 310.535 109.271 310.266Z" fill="#652265"/>
<path d="M117.091 316.066C116.901 316.066 116.71 316.014 116.545 315.918L109.089 311.826C108.743 311.627 108.535 311.272 108.543 310.873C108.543 310.483 108.751 310.127 109.089 309.928L116.276 305.767C116.935 305.385 117.759 305.385 118.418 305.767L125.353 309.555C125.7 309.754 125.908 310.11 125.908 310.5C125.908 310.89 125.7 311.246 125.362 311.445L117.646 315.91C117.464 316.014 117.273 316.066 117.091 316.066ZM117.325 306.261C117.091 306.261 116.857 306.321 116.649 306.443L109.462 310.604C109.323 310.682 109.306 310.821 109.306 310.873C109.306 310.925 109.323 311.064 109.462 311.142L116.918 315.234C117.022 315.294 117.143 315.294 117.239 315.242L124.954 310.777C125.093 310.699 125.11 310.561 125.11 310.509C125.11 310.457 125.093 310.318 124.954 310.24L118.019 306.451C117.802 306.321 117.568 306.261 117.325 306.261Z" fill="#652265"/>
<path d="M98.3843 316.491L105.571 312.33C106.109 312.017 106.776 312.017 107.322 312.33L114.267 316.127C114.735 316.395 114.735 317.072 114.267 317.34L106.551 321.805C106.334 321.935 106.065 321.935 105.849 321.805L98.3843 317.705C97.9162 317.427 97.9162 316.76 98.3843 316.491Z" fill="#652265"/>
<path d="M106.205 322.282C106.014 322.282 105.823 322.23 105.658 322.135L98.2027 318.043C97.8559 317.843 97.6478 317.488 97.6565 317.089C97.6565 316.699 97.8646 316.343 98.2027 316.144L105.39 311.983C106.049 311.601 106.872 311.601 107.531 311.983L114.467 315.771C114.813 315.971 115.021 316.326 115.021 316.716C115.021 317.106 114.813 317.462 114.475 317.661L106.759 322.126C106.577 322.239 106.395 322.282 106.205 322.282ZM106.439 312.477C106.205 312.477 105.97 312.537 105.762 312.659L98.5755 316.82C98.4368 316.898 98.4194 317.037 98.4194 317.089C98.4194 317.141 98.4368 317.28 98.5755 317.358L106.031 321.45C106.135 321.51 106.257 321.51 106.352 321.458L114.068 316.994C114.206 316.916 114.224 316.777 114.224 316.725C114.224 316.673 114.206 316.534 114.068 316.456L107.132 312.668C106.915 312.546 106.681 312.477 106.439 312.477Z" fill="#652265"/>
<path d="M82.0503 313.378L89.2373 309.217C89.7748 308.905 90.4423 308.905 90.9885 309.217L97.9327 313.014C98.4008 313.283 98.4008 313.959 97.9327 314.228L90.2169 318.693C90.0002 318.823 89.7314 318.823 89.5147 318.693L82.0503 314.592C81.5822 314.323 81.5822 313.647 82.0503 313.378Z" fill="#652265"/>
<path d="M89.8706 319.17C89.6798 319.17 89.4891 319.118 89.3244 319.022L81.8687 314.93C81.5219 314.731 81.3139 314.375 81.3225 313.977C81.3225 313.586 81.5306 313.231 81.8687 313.032L89.0556 308.87C89.7145 308.489 90.5381 308.489 91.197 308.87L98.1325 312.659C98.4793 312.858 98.6874 313.214 98.6874 313.604C98.6874 313.994 98.4793 314.349 98.1412 314.549L90.4254 319.014C90.252 319.126 90.0613 319.17 89.8706 319.17ZM90.1133 309.373C89.8792 309.373 89.6452 309.434 89.4371 309.555L82.2502 313.717C82.1114 313.795 82.0941 313.933 82.0941 313.985C82.0941 314.037 82.1114 314.176 82.2502 314.254L89.7059 318.346C89.8099 318.407 89.9313 318.407 90.0266 318.355L97.7424 313.89C97.8811 313.812 97.8984 313.673 97.8984 313.621C97.8984 313.569 97.8811 313.43 97.7424 313.352L90.8069 309.564C90.5901 309.434 90.3474 309.373 90.1133 309.373Z" fill="#652265"/>
<path d="M65.7166 323.487L78.3479 315.433C78.8854 315.121 79.553 315.121 80.0991 315.433L87.0433 319.23C87.5115 319.499 87.5115 320.175 87.0433 320.444L73.8918 328.801C73.6751 328.931 73.4064 328.931 73.1896 328.801L65.7252 324.701C65.2571 324.432 65.2571 323.756 65.7166 323.487Z" fill="#652265"/>
<path d="M73.5366 329.278C73.3459 329.278 73.1551 329.226 72.9904 329.131L65.5347 325.039C65.1879 324.839 64.9799 324.484 64.9885 324.085C64.9885 323.695 65.1879 323.348 65.526 323.149L78.1574 315.104C78.8336 314.713 79.6485 314.713 80.3074 315.095L87.2429 318.883C87.5897 319.083 87.7978 319.438 87.7978 319.828C87.7978 320.218 87.5897 320.574 87.2516 320.773L74.1088 329.122C73.9267 329.226 73.7273 329.278 73.5366 329.278ZM79.2237 315.589C78.9896 315.589 78.7556 315.65 78.5475 315.771L65.9162 323.825C65.7775 323.903 65.7601 324.042 65.7601 324.094C65.7601 324.146 65.7775 324.284 65.9162 324.362L73.3719 328.454C73.4759 328.515 73.5973 328.515 73.6926 328.463L86.8355 320.114C86.9915 320.028 87.0089 319.889 87.0089 319.837C87.0089 319.785 86.9915 319.646 86.8528 319.568L79.9173 315.78C79.7005 315.65 79.4578 315.589 79.2237 315.589Z" fill="#652265"/>
<path d="M87.4917 323.487L94.6787 319.325C95.2162 319.013 95.8837 319.013 96.4299 319.325L103.374 323.123C103.842 323.391 103.842 324.068 103.374 324.336L95.6583 328.801C95.4416 328.931 95.1728 328.931 94.9561 328.801L87.4917 324.7C87.0236 324.432 87.0236 323.755 87.4917 323.487Z" fill="#652265"/>
<path d="M95.312 329.278C95.1213 329.278 94.9305 329.226 94.7658 329.131L87.3101 325.039C86.9633 324.839 86.7553 324.484 86.7639 324.085C86.7639 323.695 86.972 323.339 87.3101 323.14L94.4971 318.979C95.1559 318.597 95.9795 318.597 96.6384 318.979L103.574 322.767C103.921 322.967 104.129 323.322 104.129 323.712C104.129 324.102 103.921 324.458 103.583 324.657L95.8668 329.122C95.6934 329.235 95.5027 329.278 95.312 329.278ZM95.5547 319.482C95.3206 319.482 95.0866 319.542 94.8785 319.664L87.6916 323.825C87.5528 323.903 87.5355 324.042 87.5355 324.094C87.5355 324.146 87.5528 324.284 87.6916 324.362L95.1473 328.454C95.2513 328.515 95.3727 328.515 95.468 328.463L103.184 323.998C103.323 323.92 103.34 323.782 103.34 323.73C103.34 323.678 103.323 323.539 103.184 323.461L96.2483 319.672C96.0315 319.542 95.7888 319.482 95.5547 319.482Z" fill="#652265"/>
<path d="M98.3824 329.703L105.569 325.541C106.107 325.229 106.774 325.229 107.321 325.541L110.381 327.006C110.849 327.275 110.849 327.951 110.381 328.22L102.665 332.685C102.448 332.815 102.18 332.815 101.963 332.685L98.3824 330.916C97.9142 330.647 97.9142 329.98 98.3824 329.703Z" fill="#652265"/>
<path d="M102.311 333.17C102.12 333.17 101.929 333.118 101.764 333.023L98.21 331.272C97.8459 331.064 97.6465 330.708 97.6465 330.318C97.6465 329.928 97.8546 329.573 98.1927 329.373L105.38 325.212C106.038 324.83 106.862 324.83 107.521 325.212L110.555 326.66C110.919 326.876 111.127 327.223 111.127 327.622C111.127 328.012 110.919 328.368 110.581 328.567L102.865 333.032C102.692 333.118 102.501 333.17 102.311 333.17ZM106.437 325.697C106.203 325.697 105.978 325.758 105.77 325.879L98.5828 330.041C98.4441 330.119 98.4267 330.257 98.4267 330.309C98.4267 330.362 98.4441 330.5 98.5828 330.578L102.137 332.329C102.259 332.399 102.38 332.399 102.475 332.347L110.191 327.882C110.33 327.804 110.347 327.665 110.347 327.613C110.347 327.561 110.33 327.423 110.191 327.345L107.157 325.897C106.923 325.767 106.68 325.697 106.437 325.697Z" fill="#652265"/>
<path d="M104.214 334.766L111.401 330.604C111.939 330.292 112.606 330.292 113.153 330.604L116.213 332.07C116.681 332.338 116.681 333.015 116.213 333.283L108.497 337.748C108.28 337.878 108.012 337.878 107.795 337.748L104.214 335.979C103.746 335.702 103.746 335.034 104.214 334.766Z" fill="#652265"/>
<path d="M108.143 338.225C107.952 338.225 107.761 338.173 107.596 338.077L104.042 336.326C103.678 336.118 103.479 335.763 103.479 335.373C103.479 334.982 103.687 334.627 104.025 334.428L111.212 330.266C111.871 329.885 112.694 329.885 113.353 330.266L116.387 331.714C116.751 331.931 116.959 332.278 116.959 332.676C116.959 333.067 116.751 333.422 116.413 333.621L108.698 338.086C108.524 338.173 108.333 338.225 108.143 338.225ZM112.269 330.752C112.035 330.752 111.81 330.813 111.602 330.934L104.415 335.095C104.276 335.173 104.259 335.312 104.259 335.364C104.259 335.416 104.276 335.555 104.415 335.633L107.969 337.384C108.091 337.453 108.212 337.453 108.307 337.401L116.023 332.937C116.162 332.858 116.179 332.72 116.179 332.668C116.179 332.616 116.162 332.477 116.023 332.399L112.989 330.951C112.755 330.821 112.512 330.752 112.269 330.752Z" fill="#652265"/>
<path d="M115.096 327.761L122.283 323.6C122.82 323.288 123.488 323.288 124.034 323.6L127.094 325.065C127.563 325.334 127.563 326.01 127.094 326.279L119.379 330.743C119.162 330.873 118.893 330.873 118.676 330.743L115.096 328.975C114.628 328.706 114.636 328.03 115.096 327.761Z" fill="#652265"/>
<path d="M119.031 331.229C118.841 331.229 118.65 331.177 118.485 331.082L114.931 329.33C114.567 329.122 114.367 328.767 114.367 328.377C114.367 327.987 114.575 327.631 114.913 327.432L122.1 323.27C122.759 322.889 123.583 322.889 124.242 323.27L127.276 324.718C127.64 324.935 127.848 325.282 127.848 325.681C127.848 326.071 127.64 326.426 127.302 326.626L119.586 331.09C119.404 331.177 119.222 331.229 119.031 331.229ZM123.149 323.756C122.915 323.756 122.69 323.817 122.482 323.938L115.295 328.099C115.156 328.177 115.139 328.316 115.139 328.368C115.139 328.42 115.156 328.559 115.295 328.637L118.849 330.388C118.971 330.457 119.092 330.457 119.187 330.405L126.903 325.941C127.042 325.863 127.059 325.724 127.059 325.672C127.059 325.62 127.042 325.481 126.903 325.403L123.869 323.955C123.643 323.825 123.392 323.756 123.149 323.756Z" fill="#652265"/>
<path d="M118.21 317.652L125.397 313.491C125.935 313.179 126.602 313.179 127.149 313.491L130.209 314.956C130.677 315.225 130.677 315.901 130.209 316.17L122.493 320.634C122.276 320.764 122.008 320.764 121.791 320.634L118.21 318.866C117.742 318.597 117.742 317.921 118.21 317.652Z" fill="#652265"/>
<path d="M122.147 321.12C121.956 321.12 121.765 321.068 121.6 320.973L118.046 319.221C117.682 319.013 117.482 318.658 117.482 318.268C117.482 317.878 117.69 317.522 118.029 317.323L125.216 313.162C125.874 312.78 126.698 312.78 127.357 313.162L130.391 314.609C130.755 314.826 130.963 315.173 130.963 315.572C130.963 315.962 130.755 316.317 130.417 316.517L122.701 320.981C122.519 321.068 122.329 321.12 122.147 321.12ZM126.265 313.647C126.03 313.647 125.805 313.708 125.597 313.829L118.41 317.99C118.271 318.068 118.254 318.207 118.254 318.259C118.254 318.311 118.271 318.45 118.41 318.528L121.965 320.279C122.086 320.349 122.207 320.349 122.303 320.296L130.018 315.832C130.157 315.754 130.174 315.615 130.174 315.563C130.174 315.511 130.157 315.372 130.018 315.294L126.984 313.846C126.759 313.716 126.507 313.647 126.265 313.647Z" fill="#652265"/>
<path d="M125.986 321.545L133.173 317.383C133.71 317.071 134.378 317.071 134.924 317.383L137.984 318.849C138.452 319.117 138.452 319.794 137.984 320.062L130.269 324.527C130.052 324.657 129.783 324.657 129.566 324.527L125.986 322.759C125.518 322.481 125.518 321.814 125.986 321.545Z" fill="#652265"/>
<path d="M129.922 325.004C129.731 325.004 129.541 324.952 129.376 324.857L125.821 323.105C125.457 322.897 125.258 322.542 125.258 322.152C125.258 321.762 125.466 321.406 125.804 321.207L132.991 317.045C133.65 316.664 134.473 316.664 135.132 317.045L138.167 318.493C138.531 318.71 138.739 319.057 138.739 319.455C138.739 319.846 138.531 320.201 138.193 320.4L130.477 324.865C130.295 324.952 130.104 325.004 129.922 325.004ZM134.04 317.54C133.806 317.54 133.58 317.6 133.372 317.722L126.185 321.883C126.047 321.961 126.029 322.1 126.029 322.152C126.029 322.204 126.047 322.342 126.185 322.42L129.74 324.172C129.861 324.241 129.983 324.241 130.078 324.189L137.794 319.724C137.933 319.646 137.95 319.507 137.95 319.455C137.95 319.403 137.933 319.265 137.794 319.187L134.759 317.739C134.525 317.6 134.283 317.54 134.04 317.54Z" fill="#652265"/>
<path d="M44.0318 200.451L67.0318 187.516C67.6646 187.161 68.4362 187.62 68.4362 188.34V190.065C68.4362 190.403 68.2541 190.724 67.9594 190.889L44.9594 203.823C44.3266 204.179 43.555 203.719 43.555 203V201.274C43.5463 200.936 43.7284 200.616 44.0318 200.451Z" fill="#652265"/>
<path d="M85.2486 194.92L108.249 181.985C108.881 181.63 109.653 182.089 109.653 182.809V184.534C109.653 184.872 109.471 185.193 109.176 185.357L86.1762 198.292C85.5434 198.648 84.7718 198.188 84.7718 197.469V195.743C84.7631 195.397 84.9452 195.085 85.2486 194.92Z" fill="#652265"/>
<path d="M93.024 201.916L116.024 188.981C116.657 188.626 117.428 189.085 117.428 189.805V191.53C117.428 191.868 117.246 192.189 116.952 192.354L93.9516 205.289C93.3188 205.644 92.5472 205.185 92.5472 204.465V202.74C92.5385 202.393 92.7206 202.081 93.024 201.916Z" fill="#652265"/>
<path d="M90.6819 215.909L113.682 202.974C114.315 202.618 115.086 203.078 115.086 203.797V205.523C115.086 205.861 114.904 206.182 114.609 206.346L91.6095 219.281C90.9767 219.636 90.2051 219.177 90.2051 218.457V216.732C90.2051 216.394 90.3871 216.082 90.6819 215.909Z" fill="#652265"/>
<path d="M91.4631 185.583L114.463 172.648C115.096 172.293 115.868 172.752 115.868 173.472V175.197C115.868 175.535 115.686 175.856 115.391 176.021L92.3908 188.955C91.7579 189.311 90.9863 188.851 90.9863 188.132V186.407C90.9863 186.068 91.1684 185.748 91.4631 185.583Z" fill="#652265"/>
<path d="M97.69 223.685L120.69 210.75C121.323 210.395 122.094 210.855 122.094 211.574V213.299C122.094 213.637 121.912 213.958 121.618 214.123L98.6176 227.058C97.9848 227.413 97.2132 226.954 97.2132 226.234V224.509C97.2045 224.171 97.3952 223.859 97.69 223.685Z" fill="#652265"/>
<path d="M96.9065 229.91L119.906 216.975C120.539 216.619 121.311 217.079 121.311 217.798V219.524C121.311 219.862 121.129 220.183 120.834 220.347L97.8341 233.282C97.2013 233.637 96.4297 233.178 96.4297 232.458V230.733C96.4297 230.395 96.6117 230.074 96.9065 229.91Z" fill="#652265"/>
<path d="M72.801 184.812L83.3604 178.093C83.9933 177.737 84.7648 178.197 84.7648 178.916V180.642C84.7648 180.98 84.5828 181.3 84.288 181.465L73.7287 188.184C73.0958 188.539 72.3242 188.08 72.3242 187.36V185.635C72.3242 185.288 72.5063 184.976 72.801 184.812Z" fill="#652265"/>
<path d="M87.5826 175.474L98.1419 168.756C98.7748 168.4 99.5464 168.86 99.5464 169.579V171.304C99.5464 171.643 99.3643 171.963 99.0696 172.128L88.5102 178.847C87.8773 179.202 87.1058 178.743 87.1058 178.023V176.298C87.0971 175.96 87.2791 175.639 87.5826 175.474Z" fill="#652265"/>
<path d="M85.2506 201.136L95.8099 194.417C96.4428 194.062 97.2143 194.521 97.2143 195.241V196.966C97.2143 197.304 97.0323 197.625 96.7375 197.79L86.1782 204.508C85.5453 204.864 84.7737 204.404 84.7737 203.685V201.96C84.7651 201.622 84.9471 201.301 85.2506 201.136Z" fill="#652265"/>
<path d="M100.022 192.588L110.581 185.869C111.214 185.513 111.986 185.973 111.986 186.692V188.418C111.986 188.756 111.804 189.077 111.509 189.241L100.95 195.96C100.317 196.316 99.5452 195.856 99.5452 195.136V193.411C99.5365 193.064 99.7273 192.752 100.022 192.588Z" fill="#652265"/>
<path d="M77.4732 217.469L88.0326 210.75C88.6654 210.395 89.437 210.855 89.437 211.574V213.299C89.437 213.637 89.2549 213.958 88.9602 214.123L78.4008 220.842C77.768 221.197 76.9964 220.738 76.9964 220.018V218.293C76.9877 217.946 77.1698 217.634 77.4732 217.469Z" fill="#652265"/>
<path d="M73.5803 231.461L84.1397 224.743C84.7726 224.387 85.5441 224.847 85.5441 225.566V227.291C85.5441 227.63 85.3621 227.95 85.0673 228.115L74.508 234.834C73.8751 235.189 73.1035 234.73 73.1035 234.01V232.285C73.1035 231.947 73.2856 231.635 73.5803 231.461Z" fill="#652265"/>
<path d="M88.3538 222.914L98.9131 216.195C99.546 215.839 100.318 216.299 100.318 217.018V218.744C100.318 219.082 100.136 219.402 99.8407 219.567L89.2814 226.286C88.6485 226.641 87.877 226.182 87.877 225.462V223.737C87.877 223.39 88.059 223.078 88.3538 222.914Z" fill="#652265"/>
<path d="M91.4651 208.912L102.024 202.194C102.657 201.838 103.429 202.298 103.429 203.017V204.742C103.429 205.08 103.247 205.401 102.952 205.566L92.3927 212.285C91.7599 212.64 90.9883 212.181 90.9883 211.461V209.736C90.9883 209.398 91.1703 209.077 91.4651 208.912Z" fill="#652265"/>
<path d="M77.4732 205.8L81.8079 202.974C82.4408 202.618 83.2124 203.078 83.2124 203.797V205.523C83.2124 205.861 83.0303 206.182 82.7355 206.346L78.4008 209.172C77.768 209.528 76.9964 209.068 76.9964 208.349V206.624C76.9877 206.286 77.1698 205.973 77.4732 205.8Z" fill="#652265"/>
<path d="M64.2525 237.296L68.5872 234.47C69.2201 234.115 69.9917 234.574 69.9917 235.294V237.019C69.9917 237.357 69.8096 237.678 69.5148 237.842L65.1801 240.669C64.5473 241.024 63.7757 240.565 63.7757 239.845V238.12C63.767 237.782 63.9491 237.461 64.2525 237.296Z" fill="#652265"/>
<path d="M157.991 333.439C148.003 333.439 137.461 327.813 126.087 316.473C111.921 298.909 104.578 282.896 102.255 264.535C102.298 253.863 102.385 242.826 102.463 231.799C102.818 182.487 103.191 131.502 100.712 119.929L93.7243 98.1945C88.6527 88.8402 82.2026 80.6736 74.0273 73.2959L74.5475 72.7151C82.7835 80.1534 89.2942 88.3894 94.4352 97.8824L101.466 119.721C103.972 131.416 103.607 182.444 103.252 231.799C103.174 242.835 103.096 253.863 103.044 264.483C105.341 282.645 112.632 298.536 126.677 315.953C143.053 332.277 157.661 336.577 171.29 329.078L171.662 329.763C167.206 332.208 162.663 333.439 157.991 333.439Z" fill="#652265"/>
<path d="M220.461 265.653C205.168 256.88 191.471 260.746 185.471 270.317C180.062 277.556 180.2 294.254 180.625 311.419C179.411 319.967 176.473 326.166 171.297 329.304L256.24 282.758L220.461 265.653Z" fill="#652265"/>
<path d="M171.47 329.642L171.08 328.966C175.97 326.001 178.961 320.236 180.226 311.359C179.767 293.014 179.828 277.201 185.151 270.083C190.725 261.197 204.215 255.883 220.634 265.307L257.081 282.732L171.47 329.642ZM203.79 261.119C195.563 261.119 189.173 265.133 185.792 270.526C180.599 277.47 180.556 293.144 181.007 311.411C180.01 318.415 177.972 323.53 174.791 326.937L255.373 282.784L220.262 265.991C214.28 262.558 208.705 261.119 203.79 261.119Z" fill="#652265"/>
<path d="M22.5482 116.739C19.5399 85.5373 22.1928 64.7047 38.8814 59.191C54.443 56.5468 69.1463 65.1902 83.9884 82.5204C64.7076 93.1231 44.1177 104.61 22.5482 116.739Z" fill="#652265"/>
<path d="M39.6602 58.3849L142.306 0.837291C172.242 0.10039 199.073 23.3864 202.957 63.8293L203.738 212.354C203.738 228.687 209.182 245.792 224.735 245.792L306.383 197.581L379.484 241.908L281.502 299.481L218.51 262.905C194.964 254.799 181.96 264.457 180.408 284.683C181.188 304.9 183.971 328.923 161.743 332.122C128.305 330.57 105.756 287.795 104.195 264.466V136.93C103.415 98.0475 83.198 78.6106 70.7574 67.7218C59.4264 59.1738 49.2745 57.2839 39.6602 58.3849Z" fill="#FCECF0"/>
<path opacity="0.31" d="M38.8809 59.1913L141.527 1.64369C171.462 0.906787 198.294 24.1928 202.178 64.6357L202.958 213.16C202.958 229.493 208.403 246.598 223.956 246.598L305.604 198.387L378.705 242.714L281.503 299.481L217.74 263.711C194.193 255.606 181.189 265.263 179.638 285.489C180.418 305.706 183.201 329.729 160.972 332.928C127.534 331.376 104.985 288.601 103.425 265.272V137.736C102.644 98.8539 82.4273 79.417 69.9867 68.5282C58.6558 59.9802 48.5039 58.0903 38.8809 59.1913Z" fill="#F197BE"/>
<path d="M146.676 142.357L169.676 129.422C170.309 129.067 171.081 129.526 171.081 130.246V131.971C171.081 132.309 170.899 132.63 170.604 132.795L147.604 145.729C146.971 146.085 146.2 145.625 146.2 144.906V143.18C146.191 142.834 146.382 142.522 146.676 142.357Z" fill="#E4147F"/>
<path d="M150.563 117.467L161.122 110.748C161.755 110.393 162.527 110.852 162.527 111.572V113.297C162.527 113.635 162.344 113.956 162.05 114.12L151.49 120.839C150.858 121.195 150.086 120.735 150.086 120.016V118.29C150.086 117.952 150.268 117.64 150.563 117.467Z" fill="#E4147F"/>
<path d="M150.563 179.679L161.122 172.96C161.755 172.604 162.527 173.064 162.527 173.783V175.509C162.527 175.847 162.344 176.167 162.05 176.332L151.49 183.051C150.858 183.406 150.086 182.947 150.086 182.227V180.502C150.086 180.164 150.268 179.852 150.563 179.679Z" fill="#E4147F"/>
<path d="M137.34 155.968L141.675 153.142C142.308 152.786 143.079 153.246 143.079 153.965V155.69C143.079 156.029 142.897 156.349 142.602 156.514L138.268 159.34C137.635 159.696 136.863 159.236 136.863 158.517V156.791C136.863 156.445 137.045 156.133 137.34 155.968Z" fill="#E4147F"/>
<path d="M150.563 215.544L173.563 202.609C174.196 202.254 174.967 202.713 174.967 203.433V205.158C174.967 205.496 174.785 205.817 174.49 205.982L151.49 218.916C150.858 219.272 150.086 218.812 150.086 218.093V216.367C150.086 216.029 150.268 215.717 150.563 215.544Z" fill="#E4147F"/>
<path d="M132.676 127.098L143.235 120.38C143.868 120.024 144.64 120.484 144.64 121.203V122.928C144.64 123.267 144.458 123.587 144.163 123.752L133.604 130.471C132.971 130.826 132.199 130.367 132.199 129.647V127.922C132.199 127.575 132.381 127.263 132.676 127.098Z" fill="#E4147F"/>
<path d="M166.114 107.653L176.673 100.934C177.306 100.579 178.077 101.038 178.077 101.758V103.483C178.077 103.821 177.895 104.142 177.601 104.307L167.041 111.026C166.408 111.381 165.637 110.921 165.637 110.202V108.477C165.637 108.139 165.819 107.826 166.114 107.653Z" fill="#E4147F"/>
<path d="M166.893 138.369L171.228 135.542C171.861 135.187 172.632 135.646 172.632 136.366V138.091C172.632 138.429 172.45 138.75 172.155 138.915L167.821 141.741C167.188 142.097 166.416 141.637 166.416 140.918V139.192C166.408 138.854 166.598 138.542 166.893 138.369Z" fill="#E4147F"/>
<path d="M167.674 153.922L172.009 151.095C172.642 150.74 173.414 151.199 173.414 151.919V153.644C173.414 153.982 173.231 154.303 172.937 154.468L168.602 157.294C167.969 157.65 167.198 157.19 167.198 156.47V154.745C167.189 154.407 167.371 154.095 167.674 153.922Z" fill="#E4147F"/>
<path d="M166.114 170.255L170.448 167.428C171.081 167.073 171.853 167.532 171.853 168.252V169.977C171.853 170.315 171.671 170.636 171.376 170.801L167.041 173.627C166.408 173.983 165.637 173.523 165.637 172.803V171.078C165.637 170.74 165.819 170.419 166.114 170.255Z" fill="#E4147F"/>
<path d="M173.891 111.156L178.226 108.329C178.858 107.974 179.63 108.433 179.63 109.153V110.878C179.63 111.216 179.448 111.537 179.153 111.702L174.819 114.528C174.186 114.883 173.414 114.424 173.414 113.704V111.979C173.414 111.632 173.596 111.32 173.891 111.156Z" fill="#E4147F"/>
<path d="M169.227 228.21L173.562 225.384C174.194 225.028 174.966 225.488 174.966 226.207V227.932C174.966 228.27 174.784 228.591 174.489 228.756L170.154 231.582C169.522 231.938 168.75 231.478 168.75 230.759V229.033C168.75 228.695 168.932 228.383 169.227 228.21Z" fill="#E4147F"/>
<path d="M139.674 229.771L144.009 226.944C144.642 226.589 145.413 227.048 145.413 227.768V229.493C145.413 229.831 145.231 230.152 144.936 230.317L140.602 233.143C139.969 233.498 139.197 233.039 139.197 232.319V230.594C139.197 230.247 139.379 229.935 139.674 229.771Z" fill="#E4147F"/>
<path d="M149.01 224.716L159.57 217.998C160.203 217.642 160.974 218.102 160.974 218.821V220.546C160.974 220.884 160.792 221.205 160.497 221.37L149.938 228.089C149.305 228.444 148.533 227.985 148.533 227.265V225.54C148.525 225.193 148.716 224.881 149.01 224.716Z" fill="#E4147F"/>
<path d="M163.783 216.159L174.343 209.441C174.976 209.085 175.747 209.545 175.747 210.264V211.989C175.747 212.328 175.565 212.648 175.27 212.813L164.711 219.532C164.078 219.887 163.307 219.428 163.307 218.708V216.983C163.307 216.645 163.489 216.324 163.783 216.159Z" fill="#E4147F"/>
<path d="M155.225 236.377L165.784 229.658C166.417 229.302 167.189 229.762 167.189 230.482V232.207C167.189 232.545 167.007 232.866 166.712 233.03L156.152 239.749C155.52 240.105 154.748 239.645 154.748 238.926V237.2C154.748 236.862 154.93 236.55 155.225 236.377Z" fill="#E4147F"/>
<path d="M140.453 244.933L151.013 238.214C151.646 237.859 152.417 238.318 152.417 239.038V240.763C152.417 241.101 152.235 241.422 151.94 241.587L141.381 248.306C140.748 248.661 139.977 248.202 139.977 247.482V245.757C139.977 245.41 140.159 245.098 140.453 244.933Z" fill="#E4147F"/>
<path d="M161.451 225.488L172.011 218.769C172.644 218.413 173.415 218.873 173.415 219.592V221.318C173.415 221.656 173.233 221.976 172.938 222.141L162.379 228.86C161.746 229.215 160.975 228.756 160.975 228.036V226.311C160.975 225.973 161.157 225.661 161.451 225.488Z" fill="#E4147F"/>
<path d="M162.231 180.901L172.79 174.182C173.423 173.827 174.195 174.286 174.195 175.006V176.731C174.195 177.069 174.013 177.39 173.718 177.555L163.159 184.273C162.526 184.629 161.754 184.169 161.754 183.45V181.725C161.746 181.386 161.928 181.066 162.231 180.901Z" fill="#E4147F"/>
<path d="M156.006 191.79L179.006 178.855C179.639 178.5 180.411 178.959 180.411 179.679V181.404C180.411 181.742 180.228 182.063 179.934 182.227L156.934 195.162C156.301 195.518 155.529 195.058 155.529 194.339V192.613C155.529 192.267 155.711 191.954 156.006 191.79Z" fill="#E4147F"/>
<path d="M159.899 202.679L170.458 195.96C171.091 195.604 171.863 196.064 171.863 196.783V198.509C171.863 198.847 171.681 199.167 171.386 199.332L160.827 206.051C160.194 206.406 159.422 205.947 159.422 205.227V203.502C159.414 203.155 159.596 202.843 159.899 202.679Z" fill="#E4147F"/>
<path d="M134.237 188.677L144.796 181.958C145.429 181.603 146.201 182.063 146.201 182.782V184.507C146.201 184.845 146.019 185.166 145.724 185.331L135.165 192.05C134.532 192.405 133.76 191.946 133.76 191.226V189.501C133.751 189.163 133.933 188.842 134.237 188.677Z" fill="#E4147F"/>
<path d="M153.674 161.976L164.233 155.257C164.866 154.901 165.638 155.361 165.638 156.08V157.806C165.638 158.144 165.456 158.465 165.161 158.629L154.602 165.348C153.969 165.703 153.197 165.244 153.197 164.524V162.799C153.197 162.452 153.379 162.14 153.674 161.976Z" fill="#E4147F"/>
<path d="M138.901 170.532L149.46 163.813C150.093 163.458 150.865 163.917 150.865 164.637V166.362C150.865 166.7 150.683 167.021 150.388 167.186L139.829 173.905C139.196 174.26 138.424 173.801 138.424 173.081V171.356C138.415 171.009 138.606 170.697 138.901 170.532Z" fill="#E4147F"/>
<path d="M160.668 165.859L171.228 159.141C171.86 158.785 172.632 159.245 172.632 159.964V161.689C172.632 162.028 172.45 162.348 172.155 162.513L161.596 169.232C160.963 169.587 160.191 169.128 160.191 168.408V166.683C160.191 166.345 160.373 166.033 160.668 165.859Z" fill="#E4147F"/>
<path d="M152.893 154.98L163.452 148.261C164.085 147.905 164.857 148.365 164.857 149.084V150.81C164.857 151.148 164.675 151.468 164.38 151.633L153.82 158.352C153.188 158.707 152.416 158.248 152.416 157.528V155.803C152.416 155.456 152.598 155.144 152.893 154.98Z" fill="#E4147F"/>
<path d="M149.01 148.755L159.57 142.036C160.203 141.68 160.974 142.14 160.974 142.859V144.585C160.974 144.923 160.792 145.244 160.497 145.408L149.938 152.127C149.305 152.483 148.533 152.023 148.533 151.303V149.578C148.525 149.231 148.716 148.919 149.01 148.755Z" fill="#E4147F"/>
<path d="M152.893 170.914L157.228 168.088C157.86 167.732 158.632 168.192 158.632 168.911V170.636C158.632 170.975 158.45 171.295 158.155 171.46L153.82 174.286C153.188 174.642 152.416 174.182 152.416 173.463V171.737C152.416 171.399 152.598 171.087 152.893 170.914Z" fill="#E4147F"/>
<path d="M167.674 146.033L172.009 143.207C172.642 142.851 173.414 143.311 173.414 144.03V145.755C173.414 146.093 173.231 146.414 172.937 146.579L168.602 149.405C167.969 149.761 167.198 149.301 167.198 148.582V146.856C167.189 146.518 167.371 146.197 167.674 146.033Z" fill="#E4147F"/>
<path d="M161.451 126.388L172.011 119.669C172.644 119.313 173.415 119.773 173.415 120.493V122.218C173.415 122.556 173.233 122.877 172.938 123.041L162.379 129.76C161.746 130.116 160.975 129.656 160.975 128.937V127.211C160.975 126.865 161.157 126.552 161.451 126.388Z" fill="#E4147F"/>
<path d="M152.893 131.442L157.228 128.616C157.86 128.26 158.632 128.72 158.632 129.439V131.165C158.632 131.503 158.45 131.823 158.155 131.988L153.82 134.814C153.188 135.17 152.416 134.71 152.416 133.991V132.266C152.416 131.919 152.598 131.607 152.893 131.442Z" fill="#E4147F"/>
<path d="M84.6404 92.5165L121.121 71.5799C123.523 70.9904 129.331 73.1491 124.424 73.4958V102.174C124.424 103.735 123.601 105.174 124.528 107.541L88.0215 129.171C84.2849 128.469 82.4297 127.411 82.4297 125.703V96.3398C82.4297 94.7619 83.2706 93.3055 84.6404 92.5165Z" fill="#D84D96"/>
<path d="M87.7517 93.6958L124.233 72.7591C125.706 71.9182 127.536 72.9759 127.536 74.6751V103.353C127.536 104.914 126.712 106.353 125.377 107.142L88.8701 128.772C87.4049 129.639 85.541 128.581 85.541 126.874V97.5276C85.541 95.9325 86.382 94.476 87.7517 93.6958Z" fill="#E4147F"/>
<path d="M103.271 106.75C103.884 105.022 103.232 103.214 101.815 102.711C100.398 102.208 98.7523 103.202 98.1393 104.93C97.5263 106.659 98.178 108.467 99.595 108.97C101.012 109.472 102.658 108.479 103.271 106.75Z" fill="white"/>
<path d="M110.474 102.895C111.087 101.167 110.435 99.3585 109.018 98.8559C107.601 98.3533 105.955 99.347 105.342 101.075C104.729 102.804 105.381 104.612 106.798 105.115C108.215 105.617 109.861 104.624 110.474 102.895Z" fill="white"/>
<path d="M118.251 98.2299C118.864 96.5015 118.212 94.693 116.795 94.1904C115.378 93.6878 113.733 94.6815 113.12 96.4098C112.507 98.1382 113.158 99.9467 114.575 100.449C115.992 100.952 117.638 99.9583 118.251 98.2299Z" fill="white"/>
<path opacity="0.31" d="M0.390625 374.524L15.9436 366.747L31.4965 374.524L15.5534 383.462L0.390625 374.524Z" fill="#F197BE"/>
<path d="M0 301.033L16.3332 309.59L15.5529 374.914L0 365.577V301.033Z" fill="#D84D96"/>
<path d="M31.1037 301.033L16.331 309.59L15.5508 374.914L31.1037 365.577V301.033Z" fill="#E4147F"/>
<path d="M15.5529 291.705L0 301.033L16.3332 309.59L31.1059 301.033L15.5529 291.705Z" fill="#E8358B"/>
<path opacity="0.31" d="M33.0469 393.536L48.5998 385.759L64.1527 393.536L48.2097 402.474L33.0469 393.536Z" fill="#F197BE"/>
<path d="M32.6562 334.93L48.9894 341.762L48.2092 393.917L32.6562 386.47V334.93Z" fill="#D84D96"/>
<path d="M63.76 334.93L48.9873 341.762L48.207 393.917L63.76 386.47V334.93Z" fill="#E4147F"/>
<path d="M48.2092 327.475L32.6562 334.931L48.9894 341.762L63.7621 334.931L48.2092 327.475Z" fill="#E8358B"/>
<path opacity="0.31" d="M65.7168 411.915L81.2611 404.139L96.814 411.915L80.8796 420.853L65.7168 411.915Z" fill="#F197BE"/>
<path d="M65.3262 375.651L81.6507 379.899L80.8791 416.128L65.3262 407.676V375.651Z" fill="#D84D96"/>
<path d="M96.4299 375.651L81.6485 379.899L80.877 416.128L96.4299 407.676V375.651Z" fill="#E4147F"/>
<path d="M80.8791 367.909L65.3262 375.686L81.6507 383.462L96.432 375.651L80.8791 367.909Z" fill="#E8358B"/>
<path opacity="0.31" d="M212.021 176.904L231.987 166.917L251.953 176.904L231.484 188.383L212.021 176.904Z" fill="#F197BE"/>
<path d="M211.518 65.9883L232.489 76.9724L231.483 160.84L211.518 148.859V65.9883Z" fill="#652265"/>
<path d="M251.459 65.9883L232.49 76.9724L231.484 160.84L251.459 148.859V65.9883Z" fill="#7E2E7F"/>
<path d="M231.483 54.0071L211.518 65.9882L232.489 76.9724L251.458 65.9882L231.483 54.0071Z" fill="#F196BD"/>
<path opacity="0.31" d="M231.551 188.175L251.95 176.619L271.491 188.175L251.022 199.653L231.551 188.175Z" fill="#F197BE"/>
<path d="M231.057 99.8076L252.019 110.792L251.022 171.33L231.057 159.349V99.8076Z" fill="#652265"/>
<path d="M270.998 99.8076L252.02 110.792L251.023 171.33L270.998 159.349V99.8076Z" fill="#7E2E7F"/>
<path d="M251.022 87.8264L231.057 99.8075L252.019 110.792L270.997 99.8075L251.022 87.8264Z" fill="#F196BD"/>
<path opacity="0.31" d="M212.113 199.454L231.732 188.279L250.397 199.168L231.585 210.941L212.113 199.454Z" fill="#F197BE"/>
<path d="M211.611 137.528L232.583 148.512L231.586 183.389L211.611 171.408V137.528Z" fill="#652265"/>
<path d="M251.552 137.528L232.583 148.512L231.586 183.389L251.552 171.408V137.528Z" fill="#7E2E7F"/>
<path d="M231.586 125.547L211.611 137.528L232.583 148.512L251.551 137.528L231.586 125.547Z" fill="#F196BD"/>
<path d="M257.785 51.6313L294.266 30.6947C296.667 30.1051 302.476 32.2638 297.569 32.6106V61.289C297.569 62.8495 296.745 64.2886 297.673 66.6554L261.166 88.2856C257.429 87.5834 255.574 86.5257 255.574 84.8178V55.4545C255.574 53.8767 256.415 52.4115 257.785 51.6313Z" fill="#D84D96"/>
<path d="M260.898 52.8015L297.379 31.8648C298.853 31.0239 300.682 32.0816 300.682 33.7808V62.4592C300.682 64.0197 299.859 65.4588 298.524 66.2477L262.017 87.8779C260.551 88.7449 258.688 87.6872 258.688 85.9793V56.6247C258.679 55.0469 259.528 53.5904 260.898 52.8015Z" fill="#E4147F"/>
<path d="M276.407 65.8532C277.02 64.1248 276.369 62.3163 274.952 61.8137C273.535 61.3111 271.889 62.3048 271.276 64.0331C270.663 65.7615 271.315 67.57 272.732 68.0726C274.149 68.5752 275.794 67.5815 276.407 65.8532Z" fill="white"/>
<path d="M283.61 61.9982C284.224 60.2698 283.572 58.4613 282.155 57.9587C280.738 57.4561 279.092 58.4498 278.479 60.1781C277.866 61.9065 278.518 63.7151 279.935 64.2176C281.352 64.7202 282.997 63.7266 283.61 61.9982Z" fill="white"/>
<path d="M291.388 57.3327C292.001 55.6043 291.349 53.7958 289.932 53.2932C288.515 52.7906 286.87 53.7843 286.256 55.5126C285.643 57.241 286.295 59.0495 287.712 59.5521C289.129 60.0547 290.775 59.061 291.388 57.3327Z" fill="white"/>
<path d="M350.071 386.704C348.892 402.396 363.916 406.895 383.379 408.343C404.879 409.176 417.952 398.824 416.817 386.566C393.704 401.364 371.406 402.266 350.071 386.704Z" fill="#FAD5DD"/>
<path d="M394.259 367.137C386.639 363.982 378.169 363.713 368.598 367.137V351.584C380.683 340.592 391.442 340.262 400.484 353.916L417.589 347.692V359.352L394.259 367.137Z" fill="#D84D96"/>
<path d="M417.589 347.692L412.144 353.917H400.484C389.959 344.372 376.626 345.351 368.598 351.585L355.377 339.924C382.954 334.489 402.66 333.344 417.589 347.692Z" fill="#E4147F"/>
<path d="M368.598 351.584C350.28 356.951 331.536 362.335 369.196 365.005L376.375 367.918L376.08 385.387L370.93 374.914L368.598 351.584Z" fill="#7E2E7F"/>
<path d="M375.596 397.463V379.578L344.49 360.141V378.026C347.394 389.271 359.506 394.637 375.596 397.463Z" fill="#D47FA7"/>
<path d="M368.598 351.585L354.597 339.924C335.178 357.202 343.942 374.689 375.594 379.587L370.15 374.923C371.719 373.241 373.783 370.917 376.375 367.927C363.882 363.652 362.911 358.017 368.598 351.585Z" fill="#F196BD"/>
<path d="M382.6 398.243L383.38 381.91C398.153 370.397 414.252 358.199 420.71 350.804C423.398 359.899 423.441 367.051 422.262 378.018C417.979 391.897 402.435 396.778 382.6 398.243Z" fill="#7E2E7F"/>
<path d="M376.374 374.914L375.594 392.799L382.599 398.244L383.37 381.911L376.374 374.914Z" fill="#652265"/>
<path d="M376.373 374.914L381.037 368.689C393.556 368.499 401.22 364.832 402.034 356.249H415.255L420.7 350.804C427.289 367.606 414.475 378.243 383.369 381.91L376.373 374.914Z" fill="#F196BD"/>
<path d="M371.395 261.379L353.484 269.555L357.065 275.684C356.657 279.854 357.23 280.816 360.195 280.175C362.431 280.99 361.087 286.711 365.119 283.851C366.384 282.299 367.364 281.622 367.806 282.619L368.699 288.341L375.86 287.11L378.548 270.76C377.603 267.093 375.253 263.946 371.395 261.379Z" fill="#FFEBB3"/>
<path d="M367.823 285.498C373.641 288.766 374.534 284.683 374.534 284.683C387.963 283.868 385.726 304.709 387.07 317.791C386.619 323.92 393.676 327.692 394.231 332.911C381.729 336.231 372.28 335.884 367.373 330.05C366.922 319.421 370.06 317.791 370.06 311.246C362.752 308.029 359.692 306.009 359.761 299.802C361.105 293.257 366.471 293.664 367.823 285.498Z" fill="url(#paint3_linear_1783_267)"/>
<path d="M366.472 306.747L378.557 307.978C376.841 315.451 366.385 320.973 351.699 325.551C349.645 326.443 348.11 328.16 346.775 329.642L331.109 330.05C331.612 327.111 334.066 323.461 337.377 321.467C340.958 319.837 345.431 322.282 349.02 320.652C356.632 316.144 358.453 311.679 366.472 306.747Z" fill="#FFEBB3"/>
<path d="M357.257 268.818C359.606 266.832 362.71 265.679 365.709 264.743C366.715 264.431 367.825 264.934 368.111 265.879C368.579 267.413 368.588 268.904 369.602 269.971L371.839 268.341C373.122 265.801 374.682 265.072 376.763 267.526C377.222 272.095 376.13 273.629 374.075 273.248C375.463 278.475 372.203 281.354 374.075 283.876L374.674 283.954C377.274 284.293 379.667 285.593 381.028 287.656C381.887 288.965 383.317 289.035 383.924 290.422C384.375 294.913 388.415 299.932 389.741 299.004C393.443 296.43 393.686 298.649 391.527 295.736C393.105 293.083 389.221 289.997 389.29 286.746C389.741 282.654 385.259 283.885 384.366 278.978C383.473 273.256 378.991 276.525 379.442 269.58C378.427 266.529 377.777 263.919 377.205 261.405C376.407 257.331 369.827 256.472 360.196 257.313C354.769 258.206 350.191 263.182 352.142 269.572C357.066 277.34 353.017 283.512 357.066 284.284C359.086 285.446 361.271 286.46 359.754 291.237C358.193 294.965 358.124 298.042 361.99 299.412C363.334 294.098 367.365 293.283 365.571 287.561L368.258 285.931L367.807 282.255C366.568 284.171 365.103 285.48 362.883 284.709C361.565 283.833 360.811 281.952 360.196 279.802L357.066 280.617C356.294 278.805 356.615 274.487 356.615 274.487L356.112 272.173C355.852 270.933 356.26 269.659 357.257 268.818Z" fill="#1E1E1C"/>
<path d="M343.202 344.753C348.205 353.561 343.202 366.002 344.988 381.945L339.613 382.76C338.92 372.981 337.064 363.739 337.827 356.604V344.346L343.202 344.753Z" fill="url(#paint4_linear_1783_267)"/>
<path d="M394.23 332.902C394.776 342.967 387.771 346.721 375.426 345.984L340.514 345.576C342.3 358.251 332.01 359.066 326.193 385.629L319.482 383.176C324.19 366.426 327.987 349.252 330.475 336.066C330.874 334.358 332.383 333.041 334.272 332.772C349.34 330.622 364.035 334.436 367.372 330.05C375.816 333.578 384.798 334.384 394.23 332.902Z" fill="url(#paint5_linear_1783_267)"/>
<path d="M319.475 383.176C316.995 385.04 314.993 389.713 311.421 392.166C304.737 395.33 303.523 397.697 306.046 399.518L314.993 399.11C317.437 398.408 319.561 394.602 321.703 390.935V395.426H323.939L324.39 390.111C326.228 388.377 326.263 385.993 326.176 383.575L319.475 383.176Z" fill="#1E1E1C"/>
<path d="M339.614 382.768C337.758 383.263 336.926 389.721 334.689 391.351C330.571 394.134 328.508 396.7 331.56 398.703C336.146 399.11 339.327 397.619 341.408 394.611L342.301 388.482L343.194 389.713L344.98 392.981L345.873 392.574L344.529 387.667C346.497 386.236 346.774 384.364 344.98 381.945L339.614 382.768Z" fill="#1E1E1C"/>
<path d="M313.648 301.432L317.238 300.617L328.872 332.087H361.105V334.541H326.635L313.648 301.432Z" fill="#1E1E1C"/>
<path d="M360.654 329.634L328.43 330.041L328.872 332.087H361.105L360.654 329.634Z" fill="#CAC9C4"/>
<path d="M273.959 298.857L241.24 298.996L242.402 275.562C242.437 274.904 242.974 274.383 243.642 274.375L274.175 274.123C275.008 274.115 275.675 274.826 275.614 275.658L273.959 298.857Z" fill="#DBD3EA"/>
<path d="M241.207 299.022V298.987L242.369 275.554C242.403 274.878 242.958 274.34 243.643 274.331L274.177 274.08C274.584 274.08 274.974 274.245 275.26 274.54C275.538 274.834 275.685 275.242 275.651 275.649L274.003 298.875L241.207 299.022ZM274.177 274.158H274.168L243.634 274.41C242.993 274.418 242.464 274.921 242.429 275.563L241.276 298.961L273.934 298.823L275.581 275.658C275.607 275.268 275.477 274.886 275.208 274.6C274.931 274.314 274.567 274.158 274.177 274.158Z" fill="#373638"/>
<path d="M244.348 277.626L273.963 277.357L272.749 296.014L243.135 296.283L244.348 277.626Z" fill="url(#paint6_linear_1783_267)"/>
<path d="M243.064 296.352L244.287 277.556H244.348L274.032 277.288L272.809 296.083H272.749L243.064 296.352ZM244.417 277.695L243.212 296.222L272.688 295.953L273.893 277.426L244.417 277.695Z" fill="url(#paint7_linear_1783_267)"/>
<path d="M274.1 298.857L238.807 298.719L240.02 304.805H260.437L274.1 298.857Z" fill="#DBD3EA"/>
<path d="M260.446 304.839H239.995L239.986 304.813L238.764 298.684H238.807L274.256 298.823L260.446 304.839ZM240.055 304.77H260.437L273.944 298.883L238.859 298.745L240.055 304.77Z" fill="#373638"/>
<path d="M273.961 299.941L260.845 305.619H239.891L240.021 304.804H260.437L274.1 298.857L273.961 299.941Z" fill="#BEB7DC"/>
<path d="M260.854 305.654H239.848L239.995 304.778H260.438L274.144 298.805L273.996 299.967L273.979 299.976L260.854 305.654ZM239.926 305.585H260.836L273.927 299.915L274.048 298.909L260.438 304.839H240.056L239.926 305.585Z" fill="#373638"/>
<path d="M267.199 300.071L261.39 302.776L242.049 302.368L248.681 299.533L267.199 300.071Z" fill="#BEB7DC"/>
<path d="M261.399 302.845H261.381L241.736 302.429L248.663 299.464H248.681L267.493 300.01L261.399 302.845ZM242.361 302.308L261.364 302.706L266.904 300.132L248.681 299.603L242.361 302.308Z" fill="#626164"/>
<path d="M241.025 249.277C241.528 253.039 240.861 256.889 239.491 260.79C235.841 267.24 231.229 263.928 228.732 267.769L228.351 275.268L213.855 270.708C219.387 270.092 217.748 261.137 221.051 259.741L232.763 255.033C234.419 251.089 236.916 248.687 241.025 249.277Z" fill="#FFEBB3"/>
<path d="M242.369 250.673C239.231 250.092 238.078 251.158 237.376 252.589C233.414 251.912 232.772 256.221 232.763 261.483C228.446 267.673 215.338 265.792 213.847 262.931C211.185 248.254 206.365 232.138 226.287 232.606C230.44 232.675 238.373 234.478 242.551 240.035C243.401 243.312 243.314 246.867 242.369 250.673Z" fill="url(#paint8_linear_1783_267)"/>
<path d="M207.605 329.677C205.611 337.133 206.885 345.638 211.255 355.139C211.471 365.673 212.087 375.486 213.942 383.046C208.108 387.129 212.217 405.37 209.72 426.124L220.089 425.778C221.198 409.002 222.967 393.614 227.198 383.393C229.322 377.827 228.663 369.166 227.579 360.02C224.493 357.601 222.386 354.281 220.86 350.432C221.632 354.966 231.662 364.242 237.376 380.783C231.584 386.306 235.26 406.592 231.42 426.48L240.835 427.529C243.358 413.649 247.285 398.842 252.166 383.402L242.369 327.588L207.605 329.677Z" fill="url(#paint9_linear_1783_267)"/>
<path d="M230.267 269.156C226.617 273.863 216.76 269.98 216.959 267.595C207.223 273.664 207.405 278.476 208.402 290.145C214.74 307.223 203.079 315.243 206.981 330.05C207.31 331.316 208.16 332.434 209.503 332.902C222.533 337.471 232.781 335.65 241.476 330.284C242.889 329.408 243.617 327.865 243.331 326.331C239.534 306.105 219.647 288.619 237.176 273.863L230.267 269.156Z" fill="url(#paint10_linear_1783_267)"/>
<path d="M226.902 302.039C234.696 302.828 243.426 301.311 252.442 299.074C257.488 298.355 262.152 298.068 265.498 299.248C267.44 301.484 269.512 303.825 270.301 305.177C271.09 306.625 270.206 307.18 269.148 306.226C268.186 304.761 266.929 303.513 265.403 302.473C265.308 304.683 264.675 306.851 262.906 308.923C258.424 309.408 256.777 307.067 255.988 303.868C254.462 303.348 251.974 303.929 248.688 305.438C242.854 309.59 236.343 312.2 228.523 311.888C226.434 308.68 225.992 305.394 226.902 302.039Z" fill="#FFEBB3"/>
<path d="M240.253 301.779C242.559 289.225 242.707 276.672 237.184 273.872C228.541 272.129 221.961 287.283 226.816 301.952C230.925 303.755 235.459 303.435 240.253 301.779Z" fill="#727270"/>
<path d="M209.184 437.897C214.16 438.47 229.227 439.562 234.108 439.207C237.038 436.424 235.253 434.369 228.343 433.103C224.745 431.864 223.202 429.176 220.081 425.778L209.712 426.124" fill="#1E1E1C"/>
<path d="M229.398 440.229C234.895 441.044 251.081 441.426 256.525 441.296C259.923 438.6 258.051 436.415 250.439 434.802C246.512 433.372 244.934 430.554 241.648 426.948L230.109 426.818" fill="#1E1E1C"/>
<path d="M332.047 137.736V151.737C331.518 154.442 329.403 154.762 326.603 154.069L321.158 142.408L325.822 136.184L332.047 137.736Z" fill="#FFEBB3"/>
<path d="M304.052 95.7411C303.419 99.599 302.951 103.596 304.052 108.962C305.197 110.93 306.792 111.606 308.716 111.294V117.519H319.605L318.825 94.9695L304.052 95.7411Z" fill="#FFEBB3"/>
<path d="M283.836 87.1845L280.724 84.0721L276.06 87.9647L265.171 77.0759L262.059 80.1883L276.06 94.1807L283.836 87.1845Z" fill="#572260"/>
<path d="M291.614 113.626L283.837 111.294L276.061 94.1895V87.9648C275.636 88.0775 275.306 88.2769 275.28 88.7451L274.5 91.0772C273.338 90.1322 272.099 88.6757 270.616 87.9648C268.458 90.2882 269.472 93.7647 270.616 97.2931C275.237 104.705 275.887 115.447 277.612 118.29C280.135 120.727 284.002 122.391 288.25 123.83C290.79 121.108 291.813 117.658 291.614 113.626Z" fill="#FFEBB3"/>
<path d="M307.945 100.405C307.728 98.5673 307.719 97.2583 307.945 96.5214C304 97.6744 301.157 97.2496 300.168 94.1893C299.865 90.4788 301.911 88.8749 305.613 88.7449C309.826 85.2424 309.991 87.115 314.169 89.5251L319.614 90.3054C322.735 92.8889 324.625 97.1196 324.278 104.306C322.683 111.173 319.189 113.747 314.169 112.863C311.092 111.953 309.184 109.976 308.725 106.639C310.866 105.685 312.34 104.254 312.609 101.974C312.401 99.6944 310.442 99.703 307.945 100.405Z" fill="url(#paint11_linear_1783_267)"/>
<path d="M327.781 88.4414C328.977 91.1983 328.024 94.2673 325.657 95.2903C323.29 96.3133 320.403 94.9088 319.216 92.1433C318.019 89.3864 318.973 86.3174 321.34 85.2944C323.698 84.2801 326.585 85.6846 327.781 88.4414Z" fill="url(#paint12_linear_1783_267)"/>
<path d="M322.718 174.277C320.213 207.811 315.349 238.015 314.942 258.258H303.281C304.521 239.523 302.258 206.397 305.613 172.717L322.718 174.277Z" fill="url(#paint13_linear_1783_267)"/>
<path d="M299.389 161.837H327.382C327.001 169.518 323.412 174.91 315.722 177.39C311.777 179.722 316.883 195.57 312.609 211.608C322.224 220.971 332.393 234.079 342.935 249.71L332.827 258.267C314.959 232.484 299.423 220.234 297.057 214.72C294.768 200.459 296.432 181.855 299.389 161.837Z" fill="url(#paint14_linear_1783_267)"/>
<path d="M291.612 113.626C298.651 114.961 306.02 116.539 309.497 115.178C311.959 117.579 315.583 117.232 319.605 115.958C330.269 115.802 332.436 126.058 332.826 138.507C330.208 138.013 327.859 138.23 325.83 139.287C324.235 141.247 323.463 143.587 323.498 146.284C326.498 151.529 327.512 156.704 327.382 161.837H299.388C300.481 152.708 301.842 145.018 303.662 139.678C301.287 136.687 300.645 133.592 302.111 130.349C299.163 128.442 293.485 126.656 287.338 124.905C289.8 121.532 291.265 117.787 291.612 113.626Z" fill="url(#paint15_linear_1783_267)"/>
<path d="M313.381 258.267V262.931H300.94C300.897 262.09 300.013 260.763 302.492 261.379C304.659 260.781 305.656 259.732 305.604 258.267H313.381Z" fill="#1E1E1C"/>
<path d="M340.655 251.591L343.707 255.12L334.292 263.252C333.702 262.645 332.168 262.22 334.448 261.058C335.696 259.194 335.766 257.738 334.769 256.672L340.655 251.591Z" fill="#1E1E1C"/>
<path d="M339.459 290.153H317.639C315.723 290.153 314.162 288.593 314.162 286.677V274.193C314.162 272.268 315.723 270.716 317.639 270.716H339.459C341.384 270.716 342.936 272.277 342.936 274.193V286.677C342.936 288.593 341.375 290.153 339.459 290.153Z" fill="#E4147F"/>
<path d="M329.31 273.739L326.213 288.519L326.977 288.679L330.074 273.899L329.31 273.739Z" fill="white"/>
<path d="M332.238 277.339L331.859 278.021L338.862 281.911L339.241 281.229L332.238 277.339Z" fill="white"/>
<path d="M338.868 281.249L331.873 284.358L332.19 285.071L339.185 281.962L338.868 281.249Z" fill="white"/>
<path d="M324.077 276.619L317.08 281.284L317.513 281.933L324.51 277.269L324.077 276.619Z" fill="white"/>
<path d="M318.214 281.246L317.865 281.944L324.084 285.053L324.433 284.356L318.214 281.246Z" fill="white"/>
<path d="M111.203 423.125L111.983 428.569L115.096 429.349L120.54 426.237C120.124 423.575 119.413 421.174 118.208 419.241L111.203 423.125Z" fill="#FFEBB3"/>
<path d="M104.208 409.123C102.335 411.126 101.035 413.458 100.324 416.119C99.7776 417.723 100.965 419.605 102.656 421.564C104.676 425.014 104.945 432.123 111.213 434.004C112.071 430.086 112.088 425.352 111.993 423.896L104.208 409.123Z" fill="#1E1E1C"/>
<path d="M111.985 427.008C110.485 428.942 110.832 432.245 111.205 435.565C112.219 436.996 113.754 436.657 115.089 437.897C117.976 440.359 119.961 444.599 122.085 445.674C127.841 448.344 131.734 447.321 134.525 444.122C133.711 440.801 130.026 438.235 126.749 435.565C125.006 434.637 123.619 429.549 120.524 425.457L115.08 428.569C113.459 428.734 112.436 428.196 111.985 427.008Z" fill="url(#paint16_linear_1783_267)"/>
<path d="M97.9856 360.912C107.704 365.949 116.139 370.613 120.535 374.133C122.676 377.644 122.945 382.048 121.315 387.354L116.651 407.571L118.983 420.012C117.093 423.211 113.842 423.358 110.426 423.124C105.771 415.287 103.049 406.956 101.869 398.243C101.774 395.937 101.15 394.212 99.5374 393.579C89.8537 391.342 81.0976 388.325 75.4278 382.69C71.6219 379.751 70.2955 375.078 69.2031 370.249L97.9856 360.912Z" fill="url(#paint17_linear_1783_267)"/>
<path d="M108.094 381.91C114.18 383.912 115.974 391.42 115.87 401.347C114.925 394.922 113.859 389.027 111.986 386.574C110.816 384.84 109.559 383.245 108.094 381.91Z" fill="url(#paint18_linear_1783_267)"/>
<path d="M81.6445 377.246L98.758 387.354L104.731 365.793L102.642 364.805L81.6445 377.246Z" fill="#DBD3EA"/>
<path d="M132.196 348.472L101.09 367.137L98.7578 387.354L129.083 370.241L132.196 348.472Z" fill="#1E1E1C"/>
<path d="M94.1007 301.033C94.9503 310.482 95.6265 319.594 92.5489 321.25C90.711 322.065 88.509 322.013 86.3243 322.03L87.1045 329.026C81.1833 329.833 77.1607 328.679 76.2157 324.362C76.9873 321.345 76.944 318.224 76.2157 315.034C74.7853 315.181 73.2941 315.71 72.3318 312.702C71.9244 309.763 71.9851 307.379 74.6639 308.038L78.5478 302.593L94.1007 301.033Z" fill="#FFEBB3"/>
<path d="M92.5383 304.145C85.2647 306.477 79.6296 305.021 75.4336 300.261C75.8324 297.357 77.6876 295.571 80.878 294.817C84.4064 294.86 87.4147 295.493 90.2063 296.369C92.469 297.184 94.8011 297.14 97.2025 296.369C97.1418 299.377 95.0005 301.527 90.2063 302.593C90.7698 303.911 91.5587 304.371 92.5383 304.145Z" fill="url(#paint19_linear_1783_267)"/>
<path d="M78.5498 311.141C78.0643 307.994 77.9603 305.151 78.6625 302.914C77.1801 302.108 76.027 301.302 75.4375 300.253C72.3772 301.518 71.9871 304.882 72.3252 308.809C74.1891 307.76 75.897 308.133 77.3795 310.751L78.5498 311.141Z" fill="url(#paint20_linear_1783_267)"/>
<path d="M80.8779 365.577L87.1026 368.689H91.7667C94.4109 367.397 97.0031 367.12 99.5432 367.909C101.147 368.568 100.852 369.062 99.5432 369.461C98.0434 369.452 97.0984 369.773 96.4309 370.241C97.9047 371.238 99.4652 371.732 101.095 371.793C101.78 373.848 101.581 375.677 100.315 377.237C92.7204 381.034 91.0732 377.749 87.0939 376.457C85.1866 374.801 81.8056 373.587 77.7656 372.573L80.8779 365.577Z" fill="#FFEBB3"/>
<path d="M121.312 329.026V323.582C124.615 322.29 127.129 320.574 128.308 318.138C128.577 316.959 129.132 315.901 128.308 314.254L129.86 312.702C130.077 311.514 129.877 310.847 128.308 311.922L122.864 316.586C121.572 317.314 120.939 317.21 121.312 315.806L122.864 313.473C123.063 312.052 122.933 311.263 122.084 311.922C119.335 313.552 116.726 315.329 115.087 318.146C113.943 318.987 114.663 324.362 115.087 329.035H121.312V329.026Z" fill="#FFEBB3"/>
<path d="M76.2056 324.362C73.6394 324.709 71.0473 325.428 68.4291 326.694C67.6922 343.721 67.3194 359.837 69.2094 370.241L85.5425 368.689C90.9869 366.487 95.6944 364.068 97.9831 360.912C96.2926 358.52 94.9575 356.292 94.8708 354.688C95.6077 343.825 96.5787 332.087 95.6511 327.474C93.7698 323.721 90.068 323.608 86.3228 323.591C87.1897 330.283 79.9421 330.041 76.2056 324.362Z" fill="#E1E1E0"/>
<path d="M69.9899 326.694C65.3691 326.096 62.3781 327.708 61.4332 332.139C59.3612 337.904 57.9654 347.995 56.769 359.352C56.6997 361.224 57.688 362.794 59.8813 364.016C62.8983 366.322 66.2794 368.177 69.9292 369.694C72.6601 370.83 75.547 371.775 78.5466 372.564C78.2258 369.096 79.6043 366.825 82.4305 365.568C76.9861 362.187 70.2066 358.346 69.5998 356.621C69.0709 351.697 70.5707 343.955 71.9318 336.404C72.8161 331.393 72.0792 328.272 69.9899 326.694Z" fill="#727270"/>
<path d="M91.7578 323.591C98.4506 325.983 105.499 330.405 112.755 336.031C112.746 333.422 113.033 330.838 113.535 328.255H121.312C123.228 333.482 123.08 339.95 122.092 346.92C120.8 350.665 117.922 350.778 114.316 349.252L98.7627 339.144L95.6504 337.592C96.3179 330.882 94.324 326.946 91.7578 323.591Z" fill="#727270"/>
<defs>
<linearGradient id="paint0_linear_1783_267" x1="21.7755" y1="245.874" x2="292.392" y2="245.874" gradientUnits="userSpaceOnUse">
<stop stop-color="#843583"/>
<stop offset="0.529" stop-color="#EEC5DE"/>
<stop offset="1" stop-color="#652266"/>
</linearGradient>
<linearGradient id="paint1_linear_1783_267" x1="2.03054" y1="249.363" x2="130.972" y2="174.918" gradientUnits="userSpaceOnUse">
<stop offset="2.66389e-07" stop-color="white"/>
<stop offset="1" stop-color="#F0CDE3"/>
</linearGradient>
<linearGradient id="paint2_linear_1783_267" x1="27.6061" y1="211.136" x2="127.192" y2="211.136" gradientUnits="userSpaceOnUse">
<stop stop-color="#F0CDE3"/>
<stop offset="1" stop-color="white"/>
</linearGradient>
<linearGradient id="paint3_linear_1783_267" x1="359.756" y1="309.835" x2="394.228" y2="309.835" gradientUnits="userSpaceOnUse">
<stop stop-color="#1E1E1C"/>
<stop offset="1" stop-color="#727270"/>
</linearGradient>
<linearGradient id="paint4_linear_1783_267" x1="337.649" y1="363.56" x2="345.497" y2="363.56" gradientUnits="userSpaceOnUse">
<stop stop-color="#1E1E1C"/>
<stop offset="1" stop-color="#727270"/>
</linearGradient>
<linearGradient id="paint5_linear_1783_267" x1="317.938" y1="381.636" x2="380.448" y2="319.126" gradientUnits="userSpaceOnUse">
<stop stop-color="#1E1E1C"/>
<stop offset="1" stop-color="#727270"/>
</linearGradient>
<linearGradient id="paint6_linear_1783_267" x1="243.135" y1="286.822" x2="273.964" y2="286.822" gradientUnits="userSpaceOnUse">
<stop stop-color="#EEC5DE"/>
<stop offset="0.529" stop-color="white"/>
<stop offset="1" stop-color="#EEC5DE"/>
</linearGradient>
<linearGradient id="paint7_linear_1783_267" x1="243.062" y1="286.821" x2="274.035" y2="286.821" gradientUnits="userSpaceOnUse">
<stop stop-color="#AA609C"/>
<stop offset="1" stop-color="#652266"/>
</linearGradient>
<linearGradient id="paint8_linear_1783_267" x1="211.338" y1="249.101" x2="243.137" y2="249.101" gradientUnits="userSpaceOnUse">
<stop stop-color="#727270"/>
<stop offset="0.0768" stop-color="#5C5C5B"/>
<stop offset="0.1658" stop-color="#4A4A48"/>
<stop offset="0.2646" stop-color="#3B3B3A"/>
<stop offset="0.3756" stop-color="#30302E"/>
<stop offset="0.5054" stop-color="#292827"/>
<stop offset="0.6715" stop-color="#242422"/>
<stop offset="1" stop-color="#232321"/>
</linearGradient>
<linearGradient id="paint9_linear_1783_267" x1="206.686" y1="377.557" x2="252.161" y2="377.557" gradientUnits="userSpaceOnUse">
<stop stop-color="#1E1E1C"/>
<stop offset="0.0922" stop-color="#323230"/>
<stop offset="0.273" stop-color="#555553"/>
<stop offset="0.4218" stop-color="#6A6A68"/>
<stop offset="0.5191" stop-color="#727270"/>
<stop offset="1" stop-color="#20201E"/>
</linearGradient>
<linearGradient id="paint10_linear_1783_267" x1="206.162" y1="301.548" x2="243.394" y2="301.548" gradientUnits="userSpaceOnUse">
<stop stop-color="#1E1E1C"/>
<stop offset="0.0922" stop-color="#323230"/>
<stop offset="0.273" stop-color="#555553"/>
<stop offset="0.4218" stop-color="#6A6A68"/>
<stop offset="0.5191" stop-color="#727270"/>
<stop offset="1" stop-color="#20201E"/>
</linearGradient>
<linearGradient id="paint11_linear_1783_267" x1="300.135" y1="99.9115" x2="324.312" y2="99.9115" gradientUnits="userSpaceOnUse">
<stop stop-color="#727270"/>
<stop offset="0.0768" stop-color="#5C5C5B"/>
<stop offset="0.1658" stop-color="#4A4A48"/>
<stop offset="0.2646" stop-color="#3B3B3A"/>
<stop offset="0.3756" stop-color="#30302E"/>
<stop offset="0.5054" stop-color="#292827"/>
<stop offset="0.6715" stop-color="#242422"/>
<stop offset="1" stop-color="#232321"/>
</linearGradient>
<linearGradient id="paint12_linear_1783_267" x1="319.187" y1="92.1472" x2="327.751" y2="88.4434" gradientUnits="userSpaceOnUse">
<stop stop-color="#727270"/>
<stop offset="0.0768" stop-color="#5C5C5B"/>
<stop offset="0.1658" stop-color="#4A4A48"/>
<stop offset="0.2646" stop-color="#3B3B3A"/>
<stop offset="0.3756" stop-color="#30302E"/>
<stop offset="0.5054" stop-color="#292827"/>
<stop offset="0.6715" stop-color="#242422"/>
<stop offset="1" stop-color="#232321"/>
</linearGradient>
<linearGradient id="paint13_linear_1783_267" x1="303.276" y1="215.496" x2="322.717" y2="215.496" gradientUnits="userSpaceOnUse">
<stop stop-color="#1E1E1C"/>
<stop offset="0.0922" stop-color="#323230"/>
<stop offset="0.273" stop-color="#555553"/>
<stop offset="0.4218" stop-color="#6A6A68"/>
<stop offset="0.5191" stop-color="#727270"/>
<stop offset="1" stop-color="#20201E"/>
</linearGradient>
<linearGradient id="paint14_linear_1783_267" x1="299.756" y1="219.493" x2="345.441" y2="193.117" gradientUnits="userSpaceOnUse">
<stop stop-color="#1E1E1C"/>
<stop offset="0.4562" stop-color="#555553"/>
<stop offset="1" stop-color="#20201E"/>
</linearGradient>
<linearGradient id="paint15_linear_1783_267" x1="287.334" y1="137.732" x2="332.826" y2="137.732" gradientUnits="userSpaceOnUse">
<stop stop-color="#1E1E1C"/>
<stop offset="0.0922" stop-color="#323230"/>
<stop offset="0.273" stop-color="#555553"/>
<stop offset="0.4218" stop-color="#6A6A68"/>
<stop offset="0.5191" stop-color="#727270"/>
<stop offset="1" stop-color="#20201E"/>
</linearGradient>
<linearGradient id="paint16_linear_1783_267" x1="110.879" y1="436.33" x2="134.533" y2="436.33" gradientUnits="userSpaceOnUse">
<stop stop-color="#727270"/>
<stop offset="0.0768" stop-color="#5C5C5B"/>
<stop offset="0.1658" stop-color="#4A4A48"/>
<stop offset="0.2646" stop-color="#3B3B3A"/>
<stop offset="0.3756" stop-color="#30302E"/>
<stop offset="0.5054" stop-color="#292827"/>
<stop offset="0.6715" stop-color="#242422"/>
<stop offset="1" stop-color="#232321"/>
</linearGradient>
<linearGradient id="paint17_linear_1783_267" x1="69.2133" y1="392.055" x2="122.367" y2="392.055" gradientUnits="userSpaceOnUse">
<stop stop-color="#1E1E1C"/>
<stop offset="0.0922" stop-color="#323230"/>
<stop offset="0.273" stop-color="#555553"/>
<stop offset="0.4218" stop-color="#6A6A68"/>
<stop offset="0.5191" stop-color="#727270"/>
<stop offset="1" stop-color="#20201E"/>
</linearGradient>
<linearGradient id="paint18_linear_1783_267" x1="108.095" y1="391.63" x2="115.875" y2="391.63" gradientUnits="userSpaceOnUse">
<stop stop-color="#727270"/>
<stop offset="0.0768" stop-color="#5C5C5B"/>
<stop offset="0.1658" stop-color="#4A4A48"/>
<stop offset="0.2646" stop-color="#3B3B3A"/>
<stop offset="0.3756" stop-color="#30302E"/>
<stop offset="0.5054" stop-color="#292827"/>
<stop offset="0.6715" stop-color="#242422"/>
<stop offset="1" stop-color="#232321"/>
</linearGradient>
<linearGradient id="paint19_linear_1783_267" x1="75.4314" y1="300.026" x2="97.2052" y2="300.026" gradientUnits="userSpaceOnUse">
<stop stop-color="#727270"/>
<stop offset="0.0768" stop-color="#5C5C5B"/>
<stop offset="0.1658" stop-color="#4A4A48"/>
<stop offset="0.2646" stop-color="#3B3B3A"/>
<stop offset="0.3756" stop-color="#30302E"/>
<stop offset="0.5054" stop-color="#292827"/>
<stop offset="0.6715" stop-color="#242422"/>
<stop offset="1" stop-color="#232321"/>
</linearGradient>
<linearGradient id="paint20_linear_1783_267" x1="72.2241" y1="305.701" x2="78.6618" y2="305.701" gradientUnits="userSpaceOnUse">
<stop stop-color="#727270"/>
<stop offset="0.0768" stop-color="#5C5C5B"/>
<stop offset="0.1658" stop-color="#4A4A48"/>
<stop offset="0.2646" stop-color="#3B3B3A"/>
<stop offset="0.3756" stop-color="#30302E"/>
<stop offset="0.5054" stop-color="#292827"/>
<stop offset="0.6715" stop-color="#242422"/>
<stop offset="1" stop-color="#232321"/>
</linearGradient>
</defs>
</svg>
